<svg xmlns="http://www.w3.org/2000/svg" xmlns:xlink="http://www.w3.org/1999/xlink" width="500" zoomAndPan="magnify" viewBox="0 0 375 374.999991" height="500" preserveAspectRatio="xMidYMid meet" version="1.0"><defs><clipPath id="661b12a60a"><path d="M 176.46875 162.058594 L 180.207031 162.058594 L 180.207031 191.128906 L 176.46875 191.128906 Z M 176.46875 162.058594 " clip-rule="nonzero"/></clipPath><linearGradient x1="516.442685" gradientTransform="matrix(0.415278, 0, 0, 0.415278, -42.073507, -34.781679)" y1="539.373438" x2="545.071882" gradientUnits="userSpaceOnUse" y2="478.624034" id="2d2b027732"><stop stop-opacity="1" stop-color="rgb(74.024963%, 55.273438%, 11.680603%)" offset="0"/><stop stop-opacity="1" stop-color="rgb(74.201965%, 55.549622%, 11.984253%)" offset="0.00390625"/><stop stop-opacity="1" stop-color="rgb(74.380493%, 55.825806%, 12.289429%)" offset="0.0078125"/><stop stop-opacity="1" stop-color="rgb(74.559021%, 56.10199%, 12.593079%)" offset="0.0117188"/><stop stop-opacity="1" stop-color="rgb(74.737549%, 56.378174%, 12.898254%)" offset="0.015625"/><stop stop-opacity="1" stop-color="rgb(74.916077%, 56.654358%, 13.201904%)" offset="0.0195313"/><stop stop-opacity="1" stop-color="rgb(75.094604%, 56.930542%, 13.50708%)" offset="0.0234375"/><stop stop-opacity="1" stop-color="rgb(75.273132%, 57.2052%, 13.81073%)" offset="0.0273438"/><stop stop-opacity="1" stop-color="rgb(75.45166%, 57.481384%, 14.115906%)" offset="0.03125"/><stop stop-opacity="1" stop-color="rgb(75.630188%, 57.757568%, 14.421082%)" offset="0.0351562"/><stop stop-opacity="1" stop-color="rgb(75.808716%, 58.033752%, 14.726257%)" offset="0.0390625"/><stop stop-opacity="1" stop-color="rgb(75.985718%, 58.309937%, 15.029907%)" offset="0.0429688"/><stop stop-opacity="1" stop-color="rgb(76.164246%, 58.586121%, 15.335083%)" offset="0.046875"/><stop stop-opacity="1" stop-color="rgb(76.342773%, 58.860779%, 15.638733%)" offset="0.0507813"/><stop stop-opacity="1" stop-color="rgb(76.521301%, 59.136963%, 15.943909%)" offset="0.0546875"/><stop stop-opacity="1" stop-color="rgb(76.699829%, 59.413147%, 16.247559%)" offset="0.0585938"/><stop stop-opacity="1" stop-color="rgb(76.878357%, 59.689331%, 16.552734%)" offset="0.0625"/><stop stop-opacity="1" stop-color="rgb(77.056885%, 59.965515%, 16.85791%)" offset="0.0664063"/><stop stop-opacity="1" stop-color="rgb(77.235413%, 60.241699%, 17.163086%)" offset="0.0703125"/><stop stop-opacity="1" stop-color="rgb(77.41394%, 60.517883%, 17.466736%)" offset="0.0742188"/><stop stop-opacity="1" stop-color="rgb(77.592468%, 60.794067%, 17.771912%)" offset="0.078125"/><stop stop-opacity="1" stop-color="rgb(77.76947%, 61.068726%, 18.075562%)" offset="0.0820313"/><stop stop-opacity="1" stop-color="rgb(77.947998%, 61.34491%, 18.380737%)" offset="0.0859375"/><stop stop-opacity="1" stop-color="rgb(78.126526%, 61.621094%, 18.684387%)" offset="0.0898438"/><stop stop-opacity="1" stop-color="rgb(78.305054%, 61.897278%, 18.989563%)" offset="0.09375"/><stop stop-opacity="1" stop-color="rgb(78.483582%, 62.173462%, 19.293213%)" offset="0.0976562"/><stop stop-opacity="1" stop-color="rgb(78.662109%, 62.449646%, 19.598389%)" offset="0.101563"/><stop stop-opacity="1" stop-color="rgb(78.840637%, 62.724304%, 19.903564%)" offset="0.105469"/><stop stop-opacity="1" stop-color="rgb(79.019165%, 63.000488%, 20.20874%)" offset="0.109375"/><stop stop-opacity="1" stop-color="rgb(79.197693%, 63.276672%, 20.51239%)" offset="0.113281"/><stop stop-opacity="1" stop-color="rgb(79.376221%, 63.552856%, 20.817566%)" offset="0.117188"/><stop stop-opacity="1" stop-color="rgb(79.550171%, 63.816833%, 21.110535%)" offset="0.121094"/><stop stop-opacity="1" stop-color="rgb(79.724121%, 64.082336%, 21.403503%)" offset="0.125"/><stop stop-opacity="1" stop-color="rgb(79.891968%, 64.328003%, 21.67511%)" offset="0.128906"/><stop stop-opacity="1" stop-color="rgb(80.059814%, 64.575195%, 21.948242%)" offset="0.132812"/><stop stop-opacity="1" stop-color="rgb(80.227661%, 64.820862%, 22.221375%)" offset="0.136719"/><stop stop-opacity="1" stop-color="rgb(80.395508%, 65.066528%, 22.494507%)" offset="0.140625"/><stop stop-opacity="1" stop-color="rgb(80.563354%, 65.312195%, 22.767639%)" offset="0.144531"/><stop stop-opacity="1" stop-color="rgb(80.731201%, 65.557861%, 23.040771%)" offset="0.148438"/><stop stop-opacity="1" stop-color="rgb(80.899048%, 65.803528%, 23.313904%)" offset="0.152344"/><stop stop-opacity="1" stop-color="rgb(81.066895%, 66.05072%, 23.587036%)" offset="0.15625"/><stop stop-opacity="1" stop-color="rgb(81.234741%, 66.296387%, 23.858643%)" offset="0.160156"/><stop stop-opacity="1" stop-color="rgb(81.402588%, 66.542053%, 24.131775%)" offset="0.164063"/><stop stop-opacity="1" stop-color="rgb(81.568909%, 66.78772%, 24.404907%)" offset="0.167969"/><stop stop-opacity="1" stop-color="rgb(81.736755%, 67.034912%, 24.67804%)" offset="0.171875"/><stop stop-opacity="1" stop-color="rgb(81.904602%, 67.280579%, 24.951172%)" offset="0.175781"/><stop stop-opacity="1" stop-color="rgb(82.072449%, 67.526245%, 25.224304%)" offset="0.179688"/><stop stop-opacity="1" stop-color="rgb(82.240295%, 67.771912%, 25.497437%)" offset="0.183594"/><stop stop-opacity="1" stop-color="rgb(82.408142%, 68.017578%, 25.770569%)" offset="0.1875"/><stop stop-opacity="1" stop-color="rgb(82.575989%, 68.263245%, 26.043701%)" offset="0.191406"/><stop stop-opacity="1" stop-color="rgb(82.743835%, 68.510437%, 26.316833%)" offset="0.195313"/><stop stop-opacity="1" stop-color="rgb(82.911682%, 68.756104%, 26.58844%)" offset="0.199219"/><stop stop-opacity="1" stop-color="rgb(83.079529%, 69.00177%, 26.861572%)" offset="0.203125"/><stop stop-opacity="1" stop-color="rgb(83.247375%, 69.247437%, 27.134705%)" offset="0.207031"/><stop stop-opacity="1" stop-color="rgb(83.415222%, 69.493103%, 27.407837%)" offset="0.210938"/><stop stop-opacity="1" stop-color="rgb(83.583069%, 69.73877%, 27.680969%)" offset="0.214844"/><stop stop-opacity="1" stop-color="rgb(83.750916%, 69.985962%, 27.954102%)" offset="0.21875"/><stop stop-opacity="1" stop-color="rgb(83.918762%, 70.231628%, 28.227234%)" offset="0.222656"/><stop stop-opacity="1" stop-color="rgb(84.086609%, 70.477295%, 28.500366%)" offset="0.226563"/><stop stop-opacity="1" stop-color="rgb(84.254456%, 70.722961%, 28.773499%)" offset="0.230469"/><stop stop-opacity="1" stop-color="rgb(84.422302%, 70.970154%, 29.046631%)" offset="0.234375"/><stop stop-opacity="1" stop-color="rgb(84.590149%, 71.21582%, 29.318237%)" offset="0.238281"/><stop stop-opacity="1" stop-color="rgb(84.757996%, 71.461487%, 29.59137%)" offset="0.242188"/><stop stop-opacity="1" stop-color="rgb(84.924316%, 71.707153%, 29.864502%)" offset="0.246094"/><stop stop-opacity="1" stop-color="rgb(85.092163%, 71.95282%, 30.137634%)" offset="0.25"/><stop stop-opacity="1" stop-color="rgb(85.26001%, 72.198486%, 30.410767%)" offset="0.253906"/><stop stop-opacity="1" stop-color="rgb(85.427856%, 72.445679%, 30.683899%)" offset="0.257812"/><stop stop-opacity="1" stop-color="rgb(85.595703%, 72.691345%, 30.957031%)" offset="0.261719"/><stop stop-opacity="1" stop-color="rgb(85.76355%, 72.937012%, 31.230164%)" offset="0.265625"/><stop stop-opacity="1" stop-color="rgb(85.931396%, 73.182678%, 31.503296%)" offset="0.269531"/><stop stop-opacity="1" stop-color="rgb(86.099243%, 73.428345%, 31.776428%)" offset="0.273438"/><stop stop-opacity="1" stop-color="rgb(86.26709%, 73.674011%, 32.048035%)" offset="0.277344"/><stop stop-opacity="1" stop-color="rgb(86.434937%, 73.921204%, 32.321167%)" offset="0.28125"/><stop stop-opacity="1" stop-color="rgb(86.602783%, 74.16687%, 32.594299%)" offset="0.285156"/><stop stop-opacity="1" stop-color="rgb(86.77063%, 74.412537%, 32.867432%)" offset="0.289063"/><stop stop-opacity="1" stop-color="rgb(86.938477%, 74.658203%, 33.140564%)" offset="0.292969"/><stop stop-opacity="1" stop-color="rgb(87.106323%, 74.905396%, 33.413696%)" offset="0.296875"/><stop stop-opacity="1" stop-color="rgb(87.27417%, 75.151062%, 33.686829%)" offset="0.300781"/><stop stop-opacity="1" stop-color="rgb(87.442017%, 75.396729%, 33.959961%)" offset="0.304688"/><stop stop-opacity="1" stop-color="rgb(87.609863%, 75.642395%, 34.231567%)" offset="0.308594"/><stop stop-opacity="1" stop-color="rgb(87.77771%, 75.888062%, 34.5047%)" offset="0.3125"/><stop stop-opacity="1" stop-color="rgb(87.944031%, 76.133728%, 34.777832%)" offset="0.316406"/><stop stop-opacity="1" stop-color="rgb(88.111877%, 76.38092%, 35.050964%)" offset="0.320313"/><stop stop-opacity="1" stop-color="rgb(88.279724%, 76.626587%, 35.324097%)" offset="0.324219"/><stop stop-opacity="1" stop-color="rgb(88.447571%, 76.872253%, 35.597229%)" offset="0.328125"/><stop stop-opacity="1" stop-color="rgb(88.615417%, 77.11792%, 35.870361%)" offset="0.332031"/><stop stop-opacity="1" stop-color="rgb(88.783264%, 77.365112%, 36.143494%)" offset="0.335938"/><stop stop-opacity="1" stop-color="rgb(88.951111%, 77.610779%, 36.416626%)" offset="0.339844"/><stop stop-opacity="1" stop-color="rgb(89.118958%, 77.856445%, 36.689758%)" offset="0.34375"/><stop stop-opacity="1" stop-color="rgb(89.286804%, 78.102112%, 36.961365%)" offset="0.347656"/><stop stop-opacity="1" stop-color="rgb(89.454651%, 78.347778%, 37.234497%)" offset="0.351563"/><stop stop-opacity="1" stop-color="rgb(89.622498%, 78.593445%, 37.507629%)" offset="0.355469"/><stop stop-opacity="1" stop-color="rgb(89.790344%, 78.840637%, 37.780762%)" offset="0.359375"/><stop stop-opacity="1" stop-color="rgb(89.958191%, 79.086304%, 38.053894%)" offset="0.363281"/><stop stop-opacity="1" stop-color="rgb(90.126038%, 79.33197%, 38.327026%)" offset="0.367188"/><stop stop-opacity="1" stop-color="rgb(90.293884%, 79.577637%, 38.600159%)" offset="0.371094"/><stop stop-opacity="1" stop-color="rgb(90.461731%, 79.823303%, 38.873291%)" offset="0.375"/><stop stop-opacity="1" stop-color="rgb(90.629578%, 80.06897%, 39.146423%)" offset="0.378906"/><stop stop-opacity="1" stop-color="rgb(90.797424%, 80.316162%, 39.419556%)" offset="0.382812"/><stop stop-opacity="1" stop-color="rgb(90.963745%, 80.561829%, 39.691162%)" offset="0.386719"/><stop stop-opacity="1" stop-color="rgb(91.131592%, 80.807495%, 39.964294%)" offset="0.390625"/><stop stop-opacity="1" stop-color="rgb(91.290283%, 81.04248%, 40.22522%)" offset="0.394531"/><stop stop-opacity="1" stop-color="rgb(91.4505%, 81.277466%, 40.486145%)" offset="0.398438"/><stop stop-opacity="1" stop-color="rgb(91.574097%, 81.466675%, 40.698242%)" offset="0.402344"/><stop stop-opacity="1" stop-color="rgb(91.697693%, 81.65741%, 40.911865%)" offset="0.40625"/><stop stop-opacity="1" stop-color="rgb(91.821289%, 81.846619%, 41.125488%)" offset="0.410156"/><stop stop-opacity="1" stop-color="rgb(91.944885%, 82.037354%, 41.339111%)" offset="0.414063"/><stop stop-opacity="1" stop-color="rgb(92.068481%, 82.226562%, 41.551208%)" offset="0.417969"/><stop stop-opacity="1" stop-color="rgb(92.192078%, 82.417297%, 41.764832%)" offset="0.421875"/><stop stop-opacity="1" stop-color="rgb(92.315674%, 82.606506%, 41.976929%)" offset="0.425781"/><stop stop-opacity="1" stop-color="rgb(92.440796%, 82.797241%, 42.190552%)" offset="0.429688"/><stop stop-opacity="1" stop-color="rgb(92.564392%, 82.98645%, 42.402649%)" offset="0.433594"/><stop stop-opacity="1" stop-color="rgb(92.687988%, 83.177185%, 42.616272%)" offset="0.4375"/><stop stop-opacity="1" stop-color="rgb(92.811584%, 83.366394%, 42.828369%)" offset="0.441406"/><stop stop-opacity="1" stop-color="rgb(92.935181%, 83.557129%, 43.041992%)" offset="0.445313"/><stop stop-opacity="1" stop-color="rgb(93.058777%, 83.746338%, 43.255615%)" offset="0.449219"/><stop stop-opacity="1" stop-color="rgb(93.182373%, 83.937073%, 43.469238%)" offset="0.453125"/><stop stop-opacity="1" stop-color="rgb(93.305969%, 84.126282%, 43.681335%)" offset="0.457031"/><stop stop-opacity="1" stop-color="rgb(93.431091%, 84.317017%, 43.894958%)" offset="0.460938"/><stop stop-opacity="1" stop-color="rgb(93.554688%, 84.506226%, 44.107056%)" offset="0.464844"/><stop stop-opacity="1" stop-color="rgb(93.678284%, 84.69696%, 44.320679%)" offset="0.46875"/><stop stop-opacity="1" stop-color="rgb(93.80188%, 84.886169%, 44.532776%)" offset="0.472656"/><stop stop-opacity="1" stop-color="rgb(93.925476%, 85.076904%, 44.746399%)" offset="0.476563"/><stop stop-opacity="1" stop-color="rgb(94.049072%, 85.266113%, 44.958496%)" offset="0.480469"/><stop stop-opacity="1" stop-color="rgb(94.172668%, 85.456848%, 45.172119%)" offset="0.484375"/><stop stop-opacity="1" stop-color="rgb(94.296265%, 85.646057%, 45.385742%)" offset="0.488281"/><stop stop-opacity="1" stop-color="rgb(94.421387%, 85.836792%, 45.599365%)" offset="0.492188"/><stop stop-opacity="1" stop-color="rgb(94.544983%, 86.026001%, 45.811462%)" offset="0.496094"/><stop stop-opacity="1" stop-color="rgb(94.668579%, 86.216736%, 46.025085%)" offset="0.5"/><stop stop-opacity="1" stop-color="rgb(94.792175%, 86.405945%, 46.237183%)" offset="0.503906"/><stop stop-opacity="1" stop-color="rgb(94.915771%, 86.59668%, 46.450806%)" offset="0.507812"/><stop stop-opacity="1" stop-color="rgb(95.039368%, 86.785889%, 46.662903%)" offset="0.511719"/><stop stop-opacity="1" stop-color="rgb(95.162964%, 86.976624%, 46.876526%)" offset="0.515625"/><stop stop-opacity="1" stop-color="rgb(95.28656%, 87.165833%, 47.090149%)" offset="0.519531"/><stop stop-opacity="1" stop-color="rgb(95.411682%, 87.356567%, 47.303772%)" offset="0.523438"/><stop stop-opacity="1" stop-color="rgb(95.535278%, 87.545776%, 47.515869%)" offset="0.527344"/><stop stop-opacity="1" stop-color="rgb(95.658875%, 87.736511%, 47.729492%)" offset="0.53125"/><stop stop-opacity="1" stop-color="rgb(95.533752%, 87.556458%, 47.583008%)" offset="0.539062"/><stop stop-opacity="1" stop-color="rgb(95.233154%, 87.123108%, 47.219849%)" offset="0.542969"/><stop stop-opacity="1" stop-color="rgb(95.059204%, 86.869812%, 47.003174%)" offset="0.546875"/><stop stop-opacity="1" stop-color="rgb(94.885254%, 86.616516%, 46.786499%)" offset="0.550781"/><stop stop-opacity="1" stop-color="rgb(94.711304%, 86.36322%, 46.569824%)" offset="0.554688"/><stop stop-opacity="1" stop-color="rgb(94.537354%, 86.109924%, 46.351624%)" offset="0.558594"/><stop stop-opacity="1" stop-color="rgb(94.363403%, 85.856628%, 46.134949%)" offset="0.5625"/><stop stop-opacity="1" stop-color="rgb(94.189453%, 85.603333%, 45.918274%)" offset="0.566406"/><stop stop-opacity="1" stop-color="rgb(94.015503%, 85.350037%, 45.701599%)" offset="0.570312"/><stop stop-opacity="1" stop-color="rgb(93.840027%, 85.095215%, 45.484924%)" offset="0.574219"/><stop stop-opacity="1" stop-color="rgb(93.666077%, 84.841919%, 45.26825%)" offset="0.578125"/><stop stop-opacity="1" stop-color="rgb(93.492126%, 84.588623%, 45.050049%)" offset="0.582031"/><stop stop-opacity="1" stop-color="rgb(93.318176%, 84.335327%, 44.833374%)" offset="0.585938"/><stop stop-opacity="1" stop-color="rgb(93.144226%, 84.082031%, 44.616699%)" offset="0.589844"/><stop stop-opacity="1" stop-color="rgb(92.970276%, 83.828735%, 44.400024%)" offset="0.59375"/><stop stop-opacity="1" stop-color="rgb(92.796326%, 83.575439%, 44.18335%)" offset="0.597656"/><stop stop-opacity="1" stop-color="rgb(92.622375%, 83.322144%, 43.966675%)" offset="0.601562"/><stop stop-opacity="1" stop-color="rgb(92.446899%, 83.068848%, 43.748474%)" offset="0.605469"/><stop stop-opacity="1" stop-color="rgb(92.272949%, 82.815552%, 43.531799%)" offset="0.609375"/><stop stop-opacity="1" stop-color="rgb(92.098999%, 82.562256%, 43.315125%)" offset="0.613281"/><stop stop-opacity="1" stop-color="rgb(91.925049%, 82.30896%, 43.09845%)" offset="0.617188"/><stop stop-opacity="1" stop-color="rgb(91.751099%, 82.055664%, 42.881775%)" offset="0.621094"/><stop stop-opacity="1" stop-color="rgb(91.577148%, 81.802368%, 42.6651%)" offset="0.625"/><stop stop-opacity="1" stop-color="rgb(91.401672%, 81.549072%, 42.446899%)" offset="0.628906"/><stop stop-opacity="1" stop-color="rgb(91.227722%, 81.295776%, 42.230225%)" offset="0.632812"/><stop stop-opacity="1" stop-color="rgb(91.053772%, 81.04248%, 42.01355%)" offset="0.636719"/><stop stop-opacity="1" stop-color="rgb(90.879822%, 80.789185%, 41.796875%)" offset="0.640625"/><stop stop-opacity="1" stop-color="rgb(90.705872%, 80.535889%, 41.5802%)" offset="0.644531"/><stop stop-opacity="1" stop-color="rgb(90.531921%, 80.282593%, 41.363525%)" offset="0.648438"/><stop stop-opacity="1" stop-color="rgb(90.357971%, 80.029297%, 41.146851%)" offset="0.652344"/><stop stop-opacity="1" stop-color="rgb(90.184021%, 79.776001%, 40.930176%)" offset="0.65625"/><stop stop-opacity="1" stop-color="rgb(90.008545%, 79.522705%, 40.711975%)" offset="0.660156"/><stop stop-opacity="1" stop-color="rgb(89.834595%, 79.269409%, 40.4953%)" offset="0.664062"/><stop stop-opacity="1" stop-color="rgb(89.660645%, 79.016113%, 40.278625%)" offset="0.667969"/><stop stop-opacity="1" stop-color="rgb(89.486694%, 78.762817%, 40.061951%)" offset="0.671875"/><stop stop-opacity="1" stop-color="rgb(89.312744%, 78.509521%, 39.845276%)" offset="0.675781"/><stop stop-opacity="1" stop-color="rgb(89.138794%, 78.256226%, 39.628601%)" offset="0.679688"/><stop stop-opacity="1" stop-color="rgb(88.963318%, 78.00293%, 39.4104%)" offset="0.683594"/><stop stop-opacity="1" stop-color="rgb(88.789368%, 77.749634%, 39.193726%)" offset="0.6875"/><stop stop-opacity="1" stop-color="rgb(88.615417%, 77.496338%, 38.977051%)" offset="0.691406"/><stop stop-opacity="1" stop-color="rgb(88.441467%, 77.243042%, 38.760376%)" offset="0.695312"/><stop stop-opacity="1" stop-color="rgb(88.267517%, 76.989746%, 38.543701%)" offset="0.699219"/><stop stop-opacity="1" stop-color="rgb(88.093567%, 76.73645%, 38.327026%)" offset="0.703125"/><stop stop-opacity="1" stop-color="rgb(87.919617%, 76.483154%, 38.108826%)" offset="0.707031"/><stop stop-opacity="1" stop-color="rgb(87.745667%, 76.229858%, 37.892151%)" offset="0.710938"/><stop stop-opacity="1" stop-color="rgb(87.57019%, 75.976562%, 37.675476%)" offset="0.714844"/><stop stop-opacity="1" stop-color="rgb(87.39624%, 75.723267%, 37.458801%)" offset="0.71875"/><stop stop-opacity="1" stop-color="rgb(87.22229%, 75.469971%, 37.242126%)" offset="0.722656"/><stop stop-opacity="1" stop-color="rgb(87.04834%, 75.216675%, 37.025452%)" offset="0.726562"/><stop stop-opacity="1" stop-color="rgb(86.87439%, 74.963379%, 36.807251%)" offset="0.730469"/><stop stop-opacity="1" stop-color="rgb(86.700439%, 74.710083%, 36.590576%)" offset="0.734375"/><stop stop-opacity="1" stop-color="rgb(86.526489%, 74.456787%, 36.373901%)" offset="0.738281"/><stop stop-opacity="1" stop-color="rgb(86.352539%, 74.203491%, 36.157227%)" offset="0.742188"/><stop stop-opacity="1" stop-color="rgb(86.177063%, 73.950195%, 35.940552%)" offset="0.746094"/><stop stop-opacity="1" stop-color="rgb(86.003113%, 73.696899%, 35.723877%)" offset="0.75"/><stop stop-opacity="1" stop-color="rgb(85.829163%, 73.443604%, 35.507202%)" offset="0.753906"/><stop stop-opacity="1" stop-color="rgb(85.655212%, 73.190308%, 35.290527%)" offset="0.757812"/><stop stop-opacity="1" stop-color="rgb(85.481262%, 72.937012%, 35.072327%)" offset="0.761719"/><stop stop-opacity="1" stop-color="rgb(85.307312%, 72.683716%, 34.855652%)" offset="0.765625"/><stop stop-opacity="1" stop-color="rgb(85.131836%, 72.428894%, 34.638977%)" offset="0.769531"/><stop stop-opacity="1" stop-color="rgb(84.957886%, 72.175598%, 34.422302%)" offset="0.773438"/><stop stop-opacity="1" stop-color="rgb(84.786987%, 71.928406%, 34.211731%)" offset="0.777344"/><stop stop-opacity="1" stop-color="rgb(84.617615%, 71.681213%, 34.00116%)" offset="0.78125"/><stop stop-opacity="1" stop-color="rgb(84.458923%, 71.447754%, 33.808899%)" offset="0.785156"/><stop stop-opacity="1" stop-color="rgb(84.301758%, 71.21582%, 33.618164%)" offset="0.789062"/><stop stop-opacity="1" stop-color="rgb(84.143066%, 70.983887%, 33.425903%)" offset="0.792969"/><stop stop-opacity="1" stop-color="rgb(83.985901%, 70.751953%, 33.233643%)" offset="0.796875"/><stop stop-opacity="1" stop-color="rgb(83.827209%, 70.518494%, 33.041382%)" offset="0.800781"/><stop stop-opacity="1" stop-color="rgb(83.670044%, 70.28656%, 32.850647%)" offset="0.804688"/><stop stop-opacity="1" stop-color="rgb(83.511353%, 70.054626%, 32.658386%)" offset="0.808594"/><stop stop-opacity="1" stop-color="rgb(83.352661%, 69.822693%, 32.466125%)" offset="0.8125"/><stop stop-opacity="1" stop-color="rgb(83.19397%, 69.590759%, 32.273865%)" offset="0.816406"/><stop stop-opacity="1" stop-color="rgb(83.036804%, 69.358826%, 32.08313%)" offset="0.820312"/><stop stop-opacity="1" stop-color="rgb(82.878113%, 69.125366%, 31.890869%)" offset="0.824219"/><stop stop-opacity="1" stop-color="rgb(82.720947%, 68.893433%, 31.698608%)" offset="0.828125"/><stop stop-opacity="1" stop-color="rgb(82.562256%, 68.661499%, 31.506348%)" offset="0.832031"/><stop stop-opacity="1" stop-color="rgb(82.403564%, 68.429565%, 31.315613%)" offset="0.835938"/><stop stop-opacity="1" stop-color="rgb(82.244873%, 68.197632%, 31.123352%)" offset="0.839844"/><stop stop-opacity="1" stop-color="rgb(82.087708%, 67.965698%, 30.932617%)" offset="0.84375"/><stop stop-opacity="1" stop-color="rgb(81.929016%, 67.732239%, 30.740356%)" offset="0.847656"/><stop stop-opacity="1" stop-color="rgb(81.771851%, 67.500305%, 30.548096%)" offset="0.851562"/><stop stop-opacity="1" stop-color="rgb(81.613159%, 67.268372%, 30.355835%)" offset="0.855469"/><stop stop-opacity="1" stop-color="rgb(81.454468%, 67.036438%, 30.1651%)" offset="0.859375"/><stop stop-opacity="1" stop-color="rgb(81.295776%, 66.802979%, 29.972839%)" offset="0.863281"/><stop stop-opacity="1" stop-color="rgb(81.138611%, 66.571045%, 29.780579%)" offset="0.867188"/><stop stop-opacity="1" stop-color="rgb(80.979919%, 66.339111%, 29.588318%)" offset="0.871094"/><stop stop-opacity="1" stop-color="rgb(80.822754%, 66.107178%, 29.397583%)" offset="0.875"/><stop stop-opacity="1" stop-color="rgb(80.664062%, 65.875244%, 29.205322%)" offset="0.878906"/><stop stop-opacity="1" stop-color="rgb(80.505371%, 65.643311%, 29.013062%)" offset="0.882812"/><stop stop-opacity="1" stop-color="rgb(80.34668%, 65.409851%, 28.820801%)" offset="0.886719"/><stop stop-opacity="1" stop-color="rgb(80.189514%, 65.177917%, 28.630066%)" offset="0.890625"/><stop stop-opacity="1" stop-color="rgb(80.030823%, 64.945984%, 28.437805%)" offset="0.894531"/><stop stop-opacity="1" stop-color="rgb(79.873657%, 64.71405%, 28.245544%)" offset="0.898438"/><stop stop-opacity="1" stop-color="rgb(79.714966%, 64.482117%, 28.053284%)" offset="0.902344"/><stop stop-opacity="1" stop-color="rgb(79.556274%, 64.250183%, 27.862549%)" offset="0.90625"/><stop stop-opacity="1" stop-color="rgb(79.397583%, 64.016724%, 27.670288%)" offset="0.910156"/><stop stop-opacity="1" stop-color="rgb(79.240417%, 63.78479%, 27.479553%)" offset="0.914062"/><stop stop-opacity="1" stop-color="rgb(79.081726%, 63.552856%, 27.287292%)" offset="0.917969"/><stop stop-opacity="1" stop-color="rgb(78.924561%, 63.320923%, 27.095032%)" offset="0.921875"/><stop stop-opacity="1" stop-color="rgb(78.765869%, 63.088989%, 26.902771%)" offset="0.925781"/><stop stop-opacity="1" stop-color="rgb(78.607178%, 62.857056%, 26.712036%)" offset="0.929688"/><stop stop-opacity="1" stop-color="rgb(78.448486%, 62.623596%, 26.519775%)" offset="0.933594"/><stop stop-opacity="1" stop-color="rgb(78.291321%, 62.391663%, 26.327515%)" offset="0.9375"/><stop stop-opacity="1" stop-color="rgb(78.132629%, 62.159729%, 26.135254%)" offset="0.941406"/><stop stop-opacity="1" stop-color="rgb(77.975464%, 61.927795%, 25.944519%)" offset="0.945312"/><stop stop-opacity="1" stop-color="rgb(77.816772%, 61.694336%, 25.752258%)" offset="0.949219"/><stop stop-opacity="1" stop-color="rgb(77.658081%, 61.462402%, 25.559998%)" offset="0.953125"/><stop stop-opacity="1" stop-color="rgb(77.49939%, 61.230469%, 25.367737%)" offset="0.957031"/><stop stop-opacity="1" stop-color="rgb(77.342224%, 60.998535%, 25.177002%)" offset="0.960938"/><stop stop-opacity="1" stop-color="rgb(77.183533%, 60.766602%, 24.984741%)" offset="0.964844"/><stop stop-opacity="1" stop-color="rgb(77.026367%, 60.534668%, 24.794006%)" offset="0.96875"/><stop stop-opacity="1" stop-color="rgb(76.867676%, 60.301208%, 24.601746%)" offset="0.972656"/><stop stop-opacity="1" stop-color="rgb(76.708984%, 60.069275%, 24.409485%)" offset="0.976562"/><stop stop-opacity="1" stop-color="rgb(76.550293%, 59.837341%, 24.217224%)" offset="0.980469"/><stop stop-opacity="1" stop-color="rgb(76.393127%, 59.605408%, 24.026489%)" offset="0.984375"/><stop stop-opacity="1" stop-color="rgb(76.234436%, 59.373474%, 23.834229%)" offset="0.988281"/><stop stop-opacity="1" stop-color="rgb(76.077271%, 59.141541%, 23.641968%)" offset="0.992188"/><stop stop-opacity="1" stop-color="rgb(75.918579%, 58.908081%, 23.449707%)" offset="0.996094"/><stop stop-opacity="1" stop-color="rgb(75.759888%, 58.676147%, 23.258972%)" offset="1"/></linearGradient></defs><rect x="-37.5" width="450" fill="#ffffff" y="-37.499999" height="449.999989" fill-opacity="1"/><rect x="-37.5" width="450" fill="#ffffff" y="-37.499999" height="449.999989" fill-opacity="1"/><path fill="#e7b1af" d="M 56.425781 216.429688 C 57.757812 217.65625 58.101562 219.144531 58.101562 220.492188 C 58.101562 224.179688 55.691406 226.726562 51.859375 226.726562 C 50.226562 226.726562 47.523438 226.261719 46.214844 224.902344 C 45.964844 223.875 46.09375 221.753906 46.601562 220.257812 L 46.894531 220.257812 C 46.558594 223.691406 48.734375 225.890625 51.703125 225.726562 C 54.136719 225.589844 56.171875 223.925781 56.171875 221.257812 C 56.171875 219.953125 55.699219 218.925781 54.863281 218.152344 L 48.476562 212.222656 C 47.128906 210.992188 46.671875 209.378906 46.671875 208.089844 C 46.671875 205.277344 48.730469 202.453125 52.53125 202.453125 C 53.40625 202.453125 54.503906 202.601562 55.390625 202.792969 L 56.710938 202.792969 L 56.710938 206.886719 L 56.394531 206.886719 C 56.402344 204.75 54.71875 203.449219 52.644531 203.449219 C 50.183594 203.449219 48.539062 205.253906 48.539062 207.285156 C 48.539062 208.152344 48.832031 209.386719 49.882812 210.355469 Z M 56.425781 216.429688 " fill-opacity="1" fill-rule="nonzero"/><path fill="#e7b1af" d="M 80.898438 223.824219 C 81.570312 225.308594 82.804688 225.925781 83.828125 225.925781 L 84.105469 225.925781 L 84.105469 226.257812 L 76.597656 226.257812 L 76.597656 225.925781 L 76.890625 225.925781 C 77.75 225.925781 78.644531 225.164062 78.15625 223.832031 L 76.027344 218.15625 L 67.042969 218.15625 L 64.8125 223.851562 C 64.339844 225.175781 65.230469 225.925781 66.085938 225.925781 L 66.378906 225.925781 L 66.378906 226.257812 L 59.667969 226.257812 L 59.667969 225.925781 L 59.96875 225.925781 C 60.980469 225.925781 62.214844 225.3125 62.886719 223.828125 L 70.449219 205.882812 C 70.449219 205.882812 71.683594 203.183594 71.683594 202.449219 L 71.984375 202.449219 Z M 75.648438 217.15625 L 71.628906 206.453125 L 67.433594 217.15625 Z M 75.648438 217.15625 " fill-opacity="1" fill-rule="nonzero"/><path fill="#e7b1af" d="M 111.324219 223.835938 C 111.496094 225.152344 112.5625 225.925781 113.753906 225.925781 L 114.285156 225.925781 L 114.285156 226.257812 L 107.039062 226.257812 L 107.039062 225.941406 L 107.558594 225.941406 C 108.277344 225.941406 108.925781 225.234375 108.859375 224.519531 L 107.347656 207.742188 L 100.34375 223.320312 C 100.34375 223.320312 99.410156 225.347656 99.199219 226.726562 L 98.882812 226.726562 L 90.359375 208.226562 L 88.898438 224.523438 C 88.832031 225.242188 89.476562 225.941406 90.195312 225.945312 L 90.714844 225.945312 L 90.714844 226.261719 L 84.253906 226.261719 L 84.253906 225.929688 L 84.785156 225.929688 C 85.976562 225.929688 87.042969 225.15625 87.214844 223.839844 L 89.722656 202.453125 L 90.035156 202.453125 L 99.339844 222.574219 L 108.441406 202.464844 L 108.742188 202.464844 Z M 111.324219 223.835938 " fill-opacity="1" fill-rule="nonzero"/><path fill="#e7b1af" d="M 136.511719 202.917969 L 136.511719 203.25 L 136.046875 203.25 C 134.65625 203.25 133.414062 204.167969 132.703125 205.1875 L 126.109375 215.84375 L 126.109375 223.824219 C 126.128906 224.988281 127.078125 225.921875 128.246094 225.921875 L 128.667969 225.921875 L 128.671875 226.253906 L 121.378906 226.253906 L 121.382812 225.921875 L 121.808594 225.921875 C 122.964844 225.921875 123.910156 224.996094 123.941406 223.84375 L 123.941406 215.808594 L 117.59375 205.195312 C 116.949219 204.167969 115.636719 203.246094 114.242188 203.246094 L 113.789062 203.246094 L 113.789062 202.914062 L 121.992188 202.914062 L 121.992188 203.246094 L 121.570312 203.246094 C 120.59375 203.246094 119.914062 204.371094 120.402344 205.320312 L 125.398438 214.652344 L 130.714844 205.316406 L 130.730469 205.285156 C 131.25 204.347656 130.445312 203.25 129.542969 203.25 L 129.125 203.25 L 129.125 202.917969 Z M 136.511719 202.917969 " fill-opacity="1" fill-rule="nonzero"/><path fill="#e7b1af" d="M 172.078125 223.835938 C 172.246094 225.152344 173.3125 225.925781 174.507812 225.925781 L 175.039062 225.925781 L 175.039062 226.257812 L 167.792969 226.257812 L 167.792969 225.941406 L 168.308594 225.941406 C 169.027344 225.941406 169.675781 225.234375 169.609375 224.519531 L 168.097656 207.742188 L 161.09375 223.320312 C 161.09375 223.320312 160.164062 225.347656 159.949219 226.726562 L 159.636719 226.726562 L 151.109375 208.226562 L 149.648438 224.523438 C 149.582031 225.242188 150.230469 225.941406 150.949219 225.945312 L 151.464844 225.945312 L 151.464844 226.261719 L 145.007812 226.261719 L 145.007812 225.929688 L 145.539062 225.929688 C 146.734375 225.929688 147.800781 225.15625 147.96875 223.839844 L 150.476562 202.453125 L 150.789062 202.453125 L 160.097656 222.574219 L 169.195312 202.464844 L 169.5 202.464844 Z M 172.078125 223.835938 " fill-opacity="1" fill-rule="nonzero"/><path fill="#e7b1af" d="M 196.429688 223.824219 C 197.101562 225.308594 198.335938 225.925781 199.355469 225.925781 L 199.632812 225.925781 L 199.632812 226.257812 L 192.125 226.257812 L 192.125 225.925781 L 192.421875 225.925781 C 193.28125 225.925781 194.171875 225.164062 193.6875 223.832031 L 191.558594 218.15625 L 182.574219 218.15625 L 180.339844 223.851562 C 179.871094 225.175781 180.761719 225.925781 181.617188 225.925781 L 181.910156 225.925781 L 181.910156 226.257812 L 175.199219 226.257812 L 175.199219 225.925781 L 175.5 225.925781 C 176.511719 225.925781 177.746094 225.3125 178.417969 223.828125 L 185.980469 205.882812 C 185.980469 205.882812 187.214844 203.183594 187.214844 202.449219 L 187.511719 202.449219 Z M 191.179688 217.15625 L 187.160156 206.453125 L 182.964844 217.15625 Z M 191.179688 217.15625 " fill-opacity="1" fill-rule="nonzero"/><path fill="#e7b1af" d="M 221.789062 216.527344 L 221.382812 221.761719 C 219.625 224.632812 216.644531 226.726562 212.015625 226.726562 C 205.042969 226.695312 200.109375 221.925781 200.109375 214.554688 C 200.109375 207.320312 204.875 202.449219 212.214844 202.449219 C 215.480469 202.449219 218.148438 203.417969 220.101562 204.699219 L 220.773438 209.410156 L 220.496094 209.410156 C 219.480469 205.519531 216.210938 203.449219 212.207031 203.445312 C 206.339844 203.445312 202.609375 207.882812 202.609375 214.519531 C 202.609375 221.21875 206.40625 225.589844 212.015625 225.722656 C 216.75 225.710938 220.753906 223.351562 221.511719 216.523438 L 221.789062 216.523438 Z M 221.789062 216.527344 " fill-opacity="1" fill-rule="nonzero"/><path fill="#e7b1af" d="M 241.261719 226.257812 L 241.265625 225.925781 L 241.691406 225.925781 C 242.847656 225.925781 243.792969 225.003906 243.824219 223.851562 L 243.824219 215.21875 L 230.179688 215.21875 L 230.179688 223.828125 C 230.199219 224.992188 231.144531 225.925781 232.3125 225.925781 L 232.738281 225.925781 L 232.742188 226.257812 L 225.445312 226.257812 L 225.449219 225.925781 L 225.871094 225.925781 C 227.039062 225.925781 227.984375 224.992188 228.007812 223.828125 L 228.007812 205.332031 C 227.976562 204.175781 227.035156 203.246094 225.871094 203.246094 L 225.449219 203.246094 L 225.445312 202.914062 L 232.738281 202.914062 L 232.730469 203.246094 L 232.308594 203.246094 C 231.148438 203.246094 230.207031 204.171875 230.175781 205.324219 L 230.175781 214.21875 L 243.820312 214.21875 L 243.820312 205.304688 C 243.773438 204.160156 242.839844 203.246094 241.6875 203.246094 L 241.261719 203.246094 L 241.257812 202.914062 L 248.550781 202.914062 L 248.546875 203.246094 L 248.121094 203.246094 C 246.957031 203.246094 246.007812 204.179688 245.988281 205.34375 L 245.988281 223.828125 C 246.007812 224.992188 246.957031 225.925781 248.121094 225.925781 L 248.546875 225.925781 L 248.550781 226.257812 Z M 241.261719 226.257812 " fill-opacity="1" fill-rule="nonzero"/><path fill="#e7b1af" d="M 271.453125 223.824219 C 272.125 225.308594 273.359375 225.925781 274.378906 225.925781 L 274.660156 225.925781 L 274.660156 226.257812 L 267.152344 226.257812 L 267.152344 225.925781 L 267.445312 225.925781 C 268.304688 225.925781 269.199219 225.164062 268.710938 223.832031 L 266.582031 218.15625 L 257.597656 218.15625 L 255.363281 223.851562 C 254.894531 225.175781 255.785156 225.925781 256.640625 225.925781 L 256.933594 225.925781 L 256.933594 226.257812 L 250.222656 226.257812 L 250.222656 225.925781 L 250.523438 225.925781 C 251.535156 225.925781 252.769531 225.3125 253.441406 223.828125 L 261.003906 205.882812 C 261.003906 205.882812 262.238281 203.183594 262.238281 202.449219 L 262.535156 202.449219 Z M 266.203125 217.15625 L 262.183594 206.453125 L 257.988281 217.15625 Z M 266.203125 217.15625 " fill-opacity="1" fill-rule="nonzero"/><path fill="#e7b1af" d="M 287.582031 202.921875 C 294.703125 202.921875 299.558594 207.59375 299.558594 214.601562 C 299.558594 221.59375 294.703125 226.261719 287.582031 226.261719 L 276.296875 226.261719 L 276.300781 225.929688 L 276.722656 225.929688 C 277.890625 225.929688 278.832031 224.996094 278.855469 223.835938 L 278.855469 205.160156 C 278.855469 204.089844 277.835938 203.253906 276.734375 203.253906 L 276.3125 203.253906 L 276.308594 202.921875 Z M 281.027344 225.25 L 287.582031 225.25 C 293.296875 225.25 297.054688 220.992188 297.054688 214.605469 C 297.054688 208.199219 293.261719 203.929688 287.582031 203.929688 L 281.027344 203.929688 Z M 281.027344 225.25 " fill-opacity="1" fill-rule="nonzero"/><path fill="#e7b1af" d="M 327.503906 214.589844 C 327.503906 221.871094 322.609375 226.726562 315.519531 226.726562 C 308.429688 226.726562 303.53125 221.871094 303.53125 214.589844 C 303.53125 207.304688 308.429688 202.449219 315.519531 202.449219 C 322.609375 202.449219 327.503906 207.304688 327.503906 214.589844 Z M 324.949219 214.589844 C 324.949219 207.90625 321.179688 203.449219 315.523438 203.449219 C 309.867188 203.449219 306.09375 207.90625 306.09375 214.589844 C 306.09375 221.269531 309.867188 225.726562 315.523438 225.726562 C 321.179688 225.726562 324.949219 221.269531 324.949219 214.589844 Z M 324.949219 214.589844 " fill-opacity="1" fill-rule="nonzero"/><path fill="#6e765d" d="M 127.152344 245.324219 L 127.140625 236.140625 L 130.417969 236.140625 C 130.953125 236.140625 131.449219 236.257812 131.90625 236.496094 C 132.363281 236.730469 132.726562 237.046875 132.996094 237.441406 C 133.265625 237.835938 133.398438 238.273438 133.398438 238.742188 C 133.398438 239.203125 133.265625 239.632812 132.996094 240.03125 C 132.726562 240.429688 132.363281 240.75 131.90625 240.988281 C 131.449219 241.222656 130.953125 241.339844 130.417969 241.339844 L 127.789062 241.339844 L 127.789062 245.324219 Z M 127.792969 240.671875 L 130.421875 240.671875 C 130.84375 240.671875 131.234375 240.585938 131.589844 240.410156 C 131.949219 240.234375 132.234375 240 132.445312 239.703125 C 132.660156 239.410156 132.765625 239.085938 132.765625 238.738281 C 132.765625 238.378906 132.664062 238.050781 132.445312 237.757812 C 132.234375 237.460938 131.949219 237.226562 131.589844 237.050781 C 131.234375 236.875 130.84375 236.789062 130.421875 236.789062 L 127.773438 236.789062 Z M 127.792969 240.671875 " fill-opacity="1" fill-rule="nonzero"/><path fill="#6e765d" d="M 145.820312 241.769531 C 146.058594 242.121094 146.179688 242.5 146.179688 242.90625 C 146.179688 243.253906 146.097656 243.585938 145.925781 243.902344 C 145.757812 244.21875 145.511719 244.492188 145.191406 244.730469 C 144.53125 245.199219 143.761719 245.433594 142.890625 245.433594 C 142.460938 245.433594 142.042969 245.371094 141.648438 245.253906 C 141.253906 245.132812 140.902344 244.957031 140.589844 244.730469 C 140.054688 244.335938 139.726562 243.847656 139.613281 243.277344 L 140.222656 242.933594 C 140.25 243.453125 140.503906 243.878906 140.984375 244.207031 C 141.230469 244.394531 141.515625 244.539062 141.847656 244.636719 C 142.175781 244.738281 142.527344 244.789062 142.894531 244.789062 C 143.648438 244.789062 144.28125 244.597656 144.800781 244.210938 C 145.300781 243.84375 145.550781 243.410156 145.550781 242.910156 C 145.550781 242.621094 145.457031 242.34375 145.273438 242.09375 C 145.09375 241.839844 144.835938 241.621094 144.507812 241.445312 C 144.195312 241.28125 143.640625 241.15625 142.839844 241.0625 C 142.773438 241.054688 142.539062 241.015625 142.128906 240.949219 C 141.714844 240.882812 141.367188 240.78125 141.078125 240.640625 C 140.617188 240.414062 140.253906 240.117188 139.988281 239.742188 C 139.722656 239.367188 139.59375 238.964844 139.59375 238.535156 C 139.59375 238.183594 139.679688 237.855469 139.855469 237.554688 C 140.03125 237.246094 140.273438 236.976562 140.597656 236.738281 C 140.910156 236.515625 141.261719 236.339844 141.65625 236.214844 C 142.050781 236.089844 142.46875 236.035156 142.898438 236.035156 C 143.777344 236.035156 144.542969 236.269531 145.199219 236.738281 C 145.75 237.15625 146.066406 237.636719 146.160156 238.179688 L 145.554688 238.519531 C 145.542969 238.285156 145.472656 238.058594 145.351562 237.84375 C 145.222656 237.628906 145.042969 237.429688 144.804688 237.25 C 144.550781 237.0625 144.257812 236.917969 143.929688 236.816406 C 143.601562 236.71875 143.257812 236.667969 142.898438 236.667969 C 142.542969 236.667969 142.195312 236.71875 141.859375 236.816406 C 141.523438 236.917969 141.238281 237.058594 140.992188 237.25 C 140.75 237.429688 140.5625 237.628906 140.429688 237.851562 C 140.296875 238.074219 140.230469 238.300781 140.230469 238.539062 C 140.230469 238.828125 140.335938 239.117188 140.554688 239.40625 C 140.769531 239.691406 141.039062 239.917969 141.359375 240.078125 C 141.558594 240.171875 141.773438 240.238281 142.015625 240.28125 C 142.253906 240.324219 142.5625 240.367188 142.941406 240.414062 C 143.007812 240.421875 143.171875 240.449219 143.433594 240.484375 C 143.695312 240.523438 143.953125 240.578125 144.199219 240.644531 C 144.445312 240.710938 144.652344 240.789062 144.820312 240.882812 C 145.242188 241.117188 145.578125 241.414062 145.820312 241.769531 Z M 145.820312 241.769531 " fill-opacity="1" fill-rule="nonzero"/><path fill="#6e765d" d="M 152.972656 236.140625 L 153.609375 236.140625 L 153.609375 245.324219 L 152.972656 245.324219 Z M 152.972656 236.140625 " fill-opacity="1" fill-rule="nonzero"/><path fill="#6e765d" d="M 164.796875 245.417969 C 163.957031 245.417969 163.183594 245.207031 162.46875 244.785156 C 161.753906 244.359375 161.1875 243.785156 160.773438 243.066406 C 160.359375 242.34375 160.148438 241.566406 160.148438 240.71875 C 160.148438 239.871094 160.359375 239.089844 160.773438 238.371094 C 161.1875 237.65625 161.753906 237.085938 162.46875 236.660156 C 163.183594 236.238281 163.957031 236.023438 164.796875 236.023438 C 165.449219 236.023438 166.070312 236.15625 166.671875 236.429688 C 167.269531 236.699219 167.792969 237.074219 168.242188 237.566406 L 167.75 238 C 167.371094 237.578125 166.925781 237.25 166.417969 237.011719 C 165.902344 236.777344 165.367188 236.660156 164.796875 236.660156 C 164.070312 236.660156 163.402344 236.84375 162.792969 237.203125 C 162.179688 237.566406 161.691406 238.058594 161.328125 238.679688 C 160.96875 239.300781 160.785156 239.976562 160.785156 240.714844 C 160.785156 241.449219 160.96875 242.125 161.328125 242.75 C 161.691406 243.371094 162.179688 243.863281 162.792969 244.222656 C 163.402344 244.582031 164.070312 244.765625 164.796875 244.765625 C 165.398438 244.765625 165.972656 244.632812 166.511719 244.371094 C 167.050781 244.109375 167.515625 243.742188 167.902344 243.273438 L 168.410156 243.667969 C 167.964844 244.222656 167.429688 244.65625 166.796875 244.957031 C 166.171875 245.269531 165.503906 245.417969 164.796875 245.417969 Z M 164.796875 245.417969 " fill-opacity="1" fill-rule="nonzero"/><path fill="#6e765d" d="M 178.851562 245.417969 C 178.011719 245.417969 177.234375 245.210938 176.519531 244.792969 C 175.804688 244.371094 175.242188 243.804688 174.824219 243.082031 C 174.410156 242.363281 174.203125 241.578125 174.203125 240.730469 C 174.203125 239.882812 174.410156 239.097656 174.824219 238.378906 C 175.242188 237.660156 175.804688 237.089844 176.519531 236.667969 C 177.234375 236.25 178.011719 236.042969 178.851562 236.042969 C 179.6875 236.042969 180.464844 236.25 181.179688 236.667969 C 181.894531 237.089844 182.457031 237.65625 182.875 238.378906 C 183.289062 239.097656 183.496094 239.882812 183.496094 240.730469 C 183.496094 241.578125 183.289062 242.363281 182.875 243.082031 C 182.457031 243.804688 181.894531 244.371094 181.179688 244.792969 C 180.464844 245.210938 179.6875 245.417969 178.851562 245.417969 Z M 178.851562 236.691406 C 178.125 236.691406 177.453125 236.871094 176.84375 237.234375 C 176.234375 237.59375 175.742188 238.085938 175.382812 238.703125 C 175.019531 239.324219 174.839844 239.996094 174.839844 240.730469 C 174.839844 241.464844 175.019531 242.140625 175.382812 242.757812 C 175.742188 243.375 176.234375 243.867188 176.84375 244.226562 C 177.453125 244.589844 178.125 244.769531 178.851562 244.769531 C 179.578125 244.769531 180.246094 244.589844 180.855469 244.226562 C 181.464844 243.867188 181.953125 243.375 182.308594 242.757812 C 182.667969 242.140625 182.84375 241.464844 182.84375 240.730469 C 182.84375 239.996094 182.667969 239.316406 182.308594 238.703125 C 181.953125 238.089844 181.464844 237.597656 180.855469 237.234375 C 180.246094 236.867188 179.578125 236.691406 178.851562 236.691406 Z M 178.851562 236.691406 " fill-opacity="1" fill-rule="nonzero"/><path fill="#6e765d" d="M 189.785156 245.324219 L 189.785156 236.140625 L 190.417969 236.140625 L 190.417969 244.6875 L 195.578125 244.6875 L 195.578125 245.324219 Z M 189.785156 245.324219 " fill-opacity="1" fill-rule="nonzero"/><path fill="#6e765d" d="M 205.449219 245.417969 C 204.609375 245.417969 203.832031 245.210938 203.117188 244.792969 C 202.40625 244.371094 201.839844 243.804688 201.425781 243.082031 C 201.007812 242.363281 200.800781 241.578125 200.800781 240.730469 C 200.800781 239.882812 201.007812 239.097656 201.425781 238.378906 C 201.839844 237.660156 202.40625 237.089844 203.117188 236.667969 C 203.832031 236.25 204.609375 236.042969 205.449219 236.042969 C 206.289062 236.042969 207.0625 236.25 207.777344 236.667969 C 208.492188 237.089844 209.058594 237.65625 209.472656 238.378906 C 209.886719 239.097656 210.09375 239.882812 210.09375 240.730469 C 210.09375 241.578125 209.886719 242.363281 209.472656 243.082031 C 209.058594 243.804688 208.492188 244.371094 207.777344 244.792969 C 207.0625 245.210938 206.289062 245.417969 205.449219 245.417969 Z M 205.449219 236.691406 C 204.722656 236.691406 204.054688 236.871094 203.441406 237.234375 C 202.832031 237.59375 202.34375 238.085938 201.980469 238.703125 C 201.621094 239.324219 201.4375 239.996094 201.4375 240.730469 C 201.4375 241.464844 201.621094 242.140625 201.980469 242.757812 C 202.34375 243.375 202.832031 243.867188 203.441406 244.226562 C 204.054688 244.589844 204.722656 244.769531 205.449219 244.769531 C 206.175781 244.769531 206.84375 244.589844 207.453125 244.226562 C 208.066406 243.867188 208.550781 243.375 208.90625 242.757812 C 209.265625 242.140625 209.445312 241.464844 209.445312 240.730469 C 209.445312 239.996094 209.265625 239.316406 208.90625 238.703125 C 208.550781 238.089844 208.066406 237.597656 207.453125 237.234375 C 206.84375 236.867188 206.171875 236.691406 205.449219 236.691406 Z M 205.449219 236.691406 " fill-opacity="1" fill-rule="nonzero"/><path fill="#6e765d" d="M 223.894531 245.324219 L 220.578125 245.324219 C 219.738281 245.324219 218.964844 245.117188 218.261719 244.699219 C 217.554688 244.285156 216.992188 243.722656 216.578125 243.015625 C 216.164062 242.304688 215.957031 241.523438 215.957031 240.675781 C 215.957031 239.835938 216.164062 239.066406 216.578125 238.351562 C 216.992188 237.640625 217.554688 237.074219 218.261719 236.65625 C 218.964844 236.238281 219.738281 236.027344 220.578125 236.027344 C 221.214844 236.027344 221.832031 236.164062 222.421875 236.421875 C 223.011719 236.691406 223.523438 237.054688 223.953125 237.523438 L 223.488281 237.960938 C 223.109375 237.558594 222.671875 237.242188 222.160156 237.023438 C 221.652344 236.800781 221.121094 236.691406 220.578125 236.691406 C 219.863281 236.691406 219.199219 236.867188 218.582031 237.226562 C 217.972656 237.582031 217.488281 238.0625 217.128906 238.675781 C 216.773438 239.28125 216.59375 239.949219 216.59375 240.671875 C 216.59375 241.394531 216.773438 242.066406 217.128906 242.679688 C 217.488281 243.289062 217.972656 243.777344 218.582031 244.140625 C 219.195312 244.5 219.859375 244.683594 220.578125 244.683594 L 223.230469 244.683594 L 223.230469 241.390625 L 220.207031 241.390625 L 220.207031 240.753906 L 223.894531 240.753906 Z M 223.894531 245.324219 " fill-opacity="1" fill-rule="nonzero"/><path fill="#6e765d" d="M 231.011719 236.140625 L 231.648438 236.140625 L 231.648438 245.324219 L 231.011719 245.324219 Z M 231.011719 236.140625 " fill-opacity="1" fill-rule="nonzero"/><path fill="#6e765d" d="M 239.84375 242.988281 L 238.753906 245.320312 L 238.046875 245.320312 L 242.371094 236.023438 L 246.453125 245.320312 L 245.757812 245.320312 L 244.730469 242.988281 Z M 242.34375 237.59375 L 240.136719 242.355469 L 244.441406 242.355469 Z M 242.34375 237.59375 " fill-opacity="1" fill-rule="nonzero"/><path fill="#6e765d" d="M 46.828125 240.714844 L 120.089844 240.714844 L 120.089844 241.542969 L 46.828125 241.542969 Z M 46.828125 240.714844 " fill-opacity="1" fill-rule="nonzero"/><path fill="#6e765d" d="M 253.859375 240.714844 L 327.117188 240.714844 L 327.117188 241.542969 L 253.859375 241.542969 Z M 253.859375 240.714844 " fill-opacity="1" fill-rule="nonzero"/><path fill="#6e765d" d="M 194.6875 162.035156 C 194.398438 160.769531 193.859375 159.554688 193.070312 158.398438 C 191.816406 156.558594 190.058594 154.996094 187.804688 153.722656 C 186.917969 153.230469 185.839844 152.8125 184.5625 152.46875 C 183.285156 152.125 181.960938 151.851562 180.585938 151.65625 C 179.210938 151.460938 178.351562 151.335938 178.007812 151.292969 C 176.042969 151.046875 174.4375 150.8125 173.179688 150.589844 C 171.929688 150.371094 170.789062 150.011719 169.753906 149.523438 C 168.085938 148.6875 166.6875 147.519531 165.558594 146.027344 C 164.425781 144.527344 163.863281 143.019531 163.863281 141.496094 C 163.863281 140.269531 164.207031 139.078125 164.894531 137.925781 C 165.582031 136.769531 166.5625 135.726562 167.835938 134.792969 C 169.113281 133.8125 170.625 133.0625 172.367188 132.546875 C 174.113281 132.03125 175.914062 131.773438 177.78125 131.773438 C 179.648438 131.773438 181.441406 132.03125 183.160156 132.546875 C 184.878906 133.0625 186.398438 133.8125 187.730469 134.792969 C 188.953125 135.726562 189.902344 136.757812 190.566406 137.886719 C 191.230469 139.015625 191.582031 140.195312 191.632812 141.421875 L 194.800781 139.652344 C 194.3125 136.804688 192.640625 134.296875 189.792969 132.140625 C 186.355469 129.683594 182.355469 128.457031 177.785156 128.457031 C 175.527344 128.457031 173.367188 128.777344 171.304688 129.410156 C 169.242188 130.050781 167.402344 130.960938 165.78125 132.136719 C 164.113281 133.363281 162.824219 134.777344 161.914062 136.371094 C 161.003906 137.964844 160.554688 139.675781 160.554688 141.492188 C 160.554688 143.75 161.242188 145.851562 162.617188 147.789062 C 163.992188 149.730469 165.882812 151.292969 168.289062 152.46875 C 169.808594 153.207031 171.640625 153.746094 173.777344 154.085938 C 175.910156 154.429688 177.152344 154.625 177.496094 154.675781 C 181.667969 155.167969 184.570312 155.832031 186.1875 156.664062 C 187.90625 157.601562 189.246094 158.730469 190.203125 160.054688 C 191.164062 161.378906 191.640625 162.804688 191.640625 164.328125 C 191.640625 166.929688 190.335938 169.191406 187.738281 171.105469 C 185.648438 172.660156 183.195312 173.613281 180.371094 173.964844 L 176.214844 174.058594 C 174.871094 173.953125 173.582031 173.726562 172.339844 173.351562 C 170.621094 172.835938 169.121094 172.089844 167.84375 171.105469 C 165.339844 169.386719 164.015625 167.175781 163.867188 164.476562 L 160.699219 166.246094 C 161.289062 169.246094 162.980469 171.769531 165.78125 173.832031 C 167.402344 175.011719 169.246094 175.921875 171.304688 176.558594 C 172.863281 177.039062 174.480469 177.328125 176.152344 177.445312 L 180.332031 177.378906 C 183.855469 177 187.007812 175.816406 189.792969 173.828125 C 191.417969 172.636719 192.667969 171.246094 193.546875 169.65625 L 194.488281 168.476562 L 194.492188 168.476562 L 195.460938 167.257812 L 209.199219 149.980469 L 209.199219 191.050781 L 213.050781 191.050781 L 213.050781 138.941406 Z M 194.6875 162.035156 " fill-opacity="1" fill-rule="nonzero"/><path fill="#6e765d" d="M 193.496094 167.042969 C 189.757812 163.585938 186.023438 160.121094 182.285156 156.660156 C 180.207031 156.246094 178.132812 155.832031 176.054688 155.414062 C 181.175781 160.261719 186.300781 165.105469 191.421875 169.949219 C 192.109375 168.984375 192.804688 168.011719 193.496094 167.042969 Z M 193.496094 167.042969 " fill-opacity="1" fill-rule="nonzero"/><g clip-path="url(#661b12a60a)"><path fill="url(#2d2b027732)" d="M 176.46875 162.058594 L 176.46875 191.128906 L 180.207031 191.128906 L 180.207031 162.058594 Z M 176.46875 162.058594 " fill-rule="nonzero"/></g></svg>