<svg xmlns="http://www.w3.org/2000/svg" xmlns:xlink="http://www.w3.org/1999/xlink" width="500" zoomAndPan="magnify" viewBox="0 0 375 374.999991" height="500" preserveAspectRatio="xMidYMid meet" version="1.0"><defs><clipPath id="b6d3bbcf36"><path d="M 176.085938 161.109375 L 179.972656 161.109375 L 179.972656 191.34375 L 176.085938 191.34375 Z M 176.085938 161.109375 " clip-rule="nonzero"/></clipPath><linearGradient x1="516.442684" gradientTransform="matrix(0.431944, 0, 0, 0.431944, -51.229246, -43.632049)" y1="539.37344" x2="545.07188" gradientUnits="userSpaceOnUse" y2="478.624038" id="594616d5b3"><stop stop-opacity="1" stop-color="rgb(74.024963%, 55.273438%, 11.680603%)" offset="0"/><stop stop-opacity="1" stop-color="rgb(74.201965%, 55.549622%, 11.984253%)" offset="0.00390625"/><stop stop-opacity="1" stop-color="rgb(74.380493%, 55.825806%, 12.289429%)" offset="0.0078125"/><stop stop-opacity="1" stop-color="rgb(74.559021%, 56.10199%, 12.593079%)" offset="0.0117187"/><stop stop-opacity="1" stop-color="rgb(74.737549%, 56.378174%, 12.898254%)" offset="0.015625"/><stop stop-opacity="1" stop-color="rgb(74.916077%, 56.654358%, 13.201904%)" offset="0.0195312"/><stop stop-opacity="1" stop-color="rgb(75.094604%, 56.930542%, 13.50708%)" offset="0.0234375"/><stop stop-opacity="1" stop-color="rgb(75.273132%, 57.2052%, 13.81073%)" offset="0.0273438"/><stop stop-opacity="1" stop-color="rgb(75.45166%, 57.481384%, 14.115906%)" offset="0.03125"/><stop stop-opacity="1" stop-color="rgb(75.630188%, 57.757568%, 14.421082%)" offset="0.0351563"/><stop stop-opacity="1" stop-color="rgb(75.808716%, 58.033752%, 14.726257%)" offset="0.0390625"/><stop stop-opacity="1" stop-color="rgb(75.985718%, 58.309937%, 15.029907%)" offset="0.0429688"/><stop stop-opacity="1" stop-color="rgb(76.164246%, 58.586121%, 15.335083%)" offset="0.046875"/><stop stop-opacity="1" stop-color="rgb(76.342773%, 58.860779%, 15.638733%)" offset="0.0507813"/><stop stop-opacity="1" stop-color="rgb(76.521301%, 59.136963%, 15.943909%)" offset="0.0546875"/><stop stop-opacity="1" stop-color="rgb(76.699829%, 59.413147%, 16.247559%)" offset="0.0585938"/><stop stop-opacity="1" stop-color="rgb(76.878357%, 59.689331%, 16.552734%)" offset="0.0625"/><stop stop-opacity="1" stop-color="rgb(77.056885%, 59.965515%, 16.85791%)" offset="0.0664062"/><stop stop-opacity="1" stop-color="rgb(77.235413%, 60.241699%, 17.163086%)" offset="0.0703125"/><stop stop-opacity="1" stop-color="rgb(77.41394%, 60.517883%, 17.466736%)" offset="0.0742188"/><stop stop-opacity="1" stop-color="rgb(77.592468%, 60.794067%, 17.771912%)" offset="0.078125"/><stop stop-opacity="1" stop-color="rgb(77.76947%, 61.068726%, 18.075562%)" offset="0.0820312"/><stop stop-opacity="1" stop-color="rgb(77.947998%, 61.34491%, 18.380737%)" offset="0.0859375"/><stop stop-opacity="1" stop-color="rgb(78.126526%, 61.621094%, 18.684387%)" offset="0.0898437"/><stop stop-opacity="1" stop-color="rgb(78.305054%, 61.897278%, 18.989563%)" offset="0.09375"/><stop stop-opacity="1" stop-color="rgb(78.483582%, 62.173462%, 19.293213%)" offset="0.0976563"/><stop stop-opacity="1" stop-color="rgb(78.662109%, 62.449646%, 19.598389%)" offset="0.101562"/><stop stop-opacity="1" stop-color="rgb(78.840637%, 62.724304%, 19.903564%)" offset="0.105469"/><stop stop-opacity="1" stop-color="rgb(79.019165%, 63.000488%, 20.20874%)" offset="0.109375"/><stop stop-opacity="1" stop-color="rgb(79.197693%, 63.276672%, 20.51239%)" offset="0.113281"/><stop stop-opacity="1" stop-color="rgb(79.376221%, 63.552856%, 20.817566%)" offset="0.117188"/><stop stop-opacity="1" stop-color="rgb(79.550171%, 63.816833%, 21.110535%)" offset="0.121094"/><stop stop-opacity="1" stop-color="rgb(79.724121%, 64.082336%, 21.403503%)" offset="0.125"/><stop stop-opacity="1" stop-color="rgb(79.891968%, 64.328003%, 21.67511%)" offset="0.128906"/><stop stop-opacity="1" stop-color="rgb(80.059814%, 64.575195%, 21.948242%)" offset="0.132813"/><stop stop-opacity="1" stop-color="rgb(80.227661%, 64.820862%, 22.221375%)" offset="0.136719"/><stop stop-opacity="1" stop-color="rgb(80.395508%, 65.066528%, 22.494507%)" offset="0.140625"/><stop stop-opacity="1" stop-color="rgb(80.563354%, 65.312195%, 22.767639%)" offset="0.144531"/><stop stop-opacity="1" stop-color="rgb(80.731201%, 65.557861%, 23.040771%)" offset="0.148438"/><stop stop-opacity="1" stop-color="rgb(80.899048%, 65.803528%, 23.313904%)" offset="0.152344"/><stop stop-opacity="1" stop-color="rgb(81.066895%, 66.05072%, 23.587036%)" offset="0.15625"/><stop stop-opacity="1" stop-color="rgb(81.234741%, 66.296387%, 23.858643%)" offset="0.160156"/><stop stop-opacity="1" stop-color="rgb(81.402588%, 66.542053%, 24.131775%)" offset="0.164063"/><stop stop-opacity="1" stop-color="rgb(81.568909%, 66.78772%, 24.404907%)" offset="0.167969"/><stop stop-opacity="1" stop-color="rgb(81.736755%, 67.034912%, 24.67804%)" offset="0.171875"/><stop stop-opacity="1" stop-color="rgb(81.904602%, 67.280579%, 24.951172%)" offset="0.175781"/><stop stop-opacity="1" stop-color="rgb(82.072449%, 67.526245%, 25.224304%)" offset="0.179688"/><stop stop-opacity="1" stop-color="rgb(82.240295%, 67.771912%, 25.497437%)" offset="0.183594"/><stop stop-opacity="1" stop-color="rgb(82.408142%, 68.017578%, 25.770569%)" offset="0.1875"/><stop stop-opacity="1" stop-color="rgb(82.575989%, 68.263245%, 26.043701%)" offset="0.191406"/><stop stop-opacity="1" stop-color="rgb(82.743835%, 68.510437%, 26.316833%)" offset="0.195313"/><stop stop-opacity="1" stop-color="rgb(82.911682%, 68.756104%, 26.58844%)" offset="0.199219"/><stop stop-opacity="1" stop-color="rgb(83.079529%, 69.00177%, 26.861572%)" offset="0.203125"/><stop stop-opacity="1" stop-color="rgb(83.247375%, 69.247437%, 27.134705%)" offset="0.207031"/><stop stop-opacity="1" stop-color="rgb(83.415222%, 69.493103%, 27.407837%)" offset="0.210938"/><stop stop-opacity="1" stop-color="rgb(83.583069%, 69.73877%, 27.680969%)" offset="0.214844"/><stop stop-opacity="1" stop-color="rgb(83.750916%, 69.985962%, 27.954102%)" offset="0.21875"/><stop stop-opacity="1" stop-color="rgb(83.918762%, 70.231628%, 28.227234%)" offset="0.222656"/><stop stop-opacity="1" stop-color="rgb(84.086609%, 70.477295%, 28.500366%)" offset="0.226563"/><stop stop-opacity="1" stop-color="rgb(84.254456%, 70.722961%, 28.773499%)" offset="0.230469"/><stop stop-opacity="1" stop-color="rgb(84.422302%, 70.970154%, 29.046631%)" offset="0.234375"/><stop stop-opacity="1" stop-color="rgb(84.590149%, 71.21582%, 29.318237%)" offset="0.238281"/><stop stop-opacity="1" stop-color="rgb(84.757996%, 71.461487%, 29.59137%)" offset="0.242188"/><stop stop-opacity="1" stop-color="rgb(84.924316%, 71.707153%, 29.864502%)" offset="0.246094"/><stop stop-opacity="1" stop-color="rgb(85.092163%, 71.95282%, 30.137634%)" offset="0.25"/><stop stop-opacity="1" stop-color="rgb(85.26001%, 72.198486%, 30.410767%)" offset="0.253906"/><stop stop-opacity="1" stop-color="rgb(85.427856%, 72.445679%, 30.683899%)" offset="0.257813"/><stop stop-opacity="1" stop-color="rgb(85.595703%, 72.691345%, 30.957031%)" offset="0.261719"/><stop stop-opacity="1" stop-color="rgb(85.76355%, 72.937012%, 31.230164%)" offset="0.265625"/><stop stop-opacity="1" stop-color="rgb(85.931396%, 73.182678%, 31.503296%)" offset="0.269531"/><stop stop-opacity="1" stop-color="rgb(86.099243%, 73.428345%, 31.776428%)" offset="0.273438"/><stop stop-opacity="1" stop-color="rgb(86.26709%, 73.674011%, 32.048035%)" offset="0.277344"/><stop stop-opacity="1" stop-color="rgb(86.434937%, 73.921204%, 32.321167%)" offset="0.28125"/><stop stop-opacity="1" stop-color="rgb(86.602783%, 74.16687%, 32.594299%)" offset="0.285156"/><stop stop-opacity="1" stop-color="rgb(86.77063%, 74.412537%, 32.867432%)" offset="0.289063"/><stop stop-opacity="1" stop-color="rgb(86.938477%, 74.658203%, 33.140564%)" offset="0.292969"/><stop stop-opacity="1" stop-color="rgb(87.106323%, 74.905396%, 33.413696%)" offset="0.296875"/><stop stop-opacity="1" stop-color="rgb(87.27417%, 75.151062%, 33.686829%)" offset="0.300781"/><stop stop-opacity="1" stop-color="rgb(87.442017%, 75.396729%, 33.959961%)" offset="0.304688"/><stop stop-opacity="1" stop-color="rgb(87.609863%, 75.642395%, 34.231567%)" offset="0.308594"/><stop stop-opacity="1" stop-color="rgb(87.77771%, 75.888062%, 34.5047%)" offset="0.3125"/><stop stop-opacity="1" stop-color="rgb(87.944031%, 76.133728%, 34.777832%)" offset="0.316406"/><stop stop-opacity="1" stop-color="rgb(88.111877%, 76.38092%, 35.050964%)" offset="0.320313"/><stop stop-opacity="1" stop-color="rgb(88.279724%, 76.626587%, 35.324097%)" offset="0.324219"/><stop stop-opacity="1" stop-color="rgb(88.447571%, 76.872253%, 35.597229%)" offset="0.328125"/><stop stop-opacity="1" stop-color="rgb(88.615417%, 77.11792%, 35.870361%)" offset="0.332031"/><stop stop-opacity="1" stop-color="rgb(88.783264%, 77.365112%, 36.143494%)" offset="0.335938"/><stop stop-opacity="1" stop-color="rgb(88.951111%, 77.610779%, 36.416626%)" offset="0.339844"/><stop stop-opacity="1" stop-color="rgb(89.118958%, 77.856445%, 36.689758%)" offset="0.34375"/><stop stop-opacity="1" stop-color="rgb(89.286804%, 78.102112%, 36.961365%)" offset="0.347656"/><stop stop-opacity="1" stop-color="rgb(89.454651%, 78.347778%, 37.234497%)" offset="0.351563"/><stop stop-opacity="1" stop-color="rgb(89.622498%, 78.593445%, 37.507629%)" offset="0.355469"/><stop stop-opacity="1" stop-color="rgb(89.790344%, 78.840637%, 37.780762%)" offset="0.359375"/><stop stop-opacity="1" stop-color="rgb(89.958191%, 79.086304%, 38.053894%)" offset="0.363281"/><stop stop-opacity="1" stop-color="rgb(90.126038%, 79.33197%, 38.327026%)" offset="0.367188"/><stop stop-opacity="1" stop-color="rgb(90.293884%, 79.577637%, 38.600159%)" offset="0.371094"/><stop stop-opacity="1" stop-color="rgb(90.461731%, 79.823303%, 38.873291%)" offset="0.375"/><stop stop-opacity="1" stop-color="rgb(90.629578%, 80.06897%, 39.146423%)" offset="0.378906"/><stop stop-opacity="1" stop-color="rgb(90.797424%, 80.316162%, 39.419556%)" offset="0.382813"/><stop stop-opacity="1" stop-color="rgb(90.963745%, 80.561829%, 39.691162%)" offset="0.386719"/><stop stop-opacity="1" stop-color="rgb(91.131592%, 80.807495%, 39.964294%)" offset="0.390625"/><stop stop-opacity="1" stop-color="rgb(91.290283%, 81.04248%, 40.22522%)" offset="0.394531"/><stop stop-opacity="1" stop-color="rgb(91.4505%, 81.277466%, 40.486145%)" offset="0.398438"/><stop stop-opacity="1" stop-color="rgb(91.574097%, 81.466675%, 40.698242%)" offset="0.402344"/><stop stop-opacity="1" stop-color="rgb(91.697693%, 81.65741%, 40.911865%)" offset="0.40625"/><stop stop-opacity="1" stop-color="rgb(91.821289%, 81.846619%, 41.125488%)" offset="0.410156"/><stop stop-opacity="1" stop-color="rgb(91.944885%, 82.037354%, 41.339111%)" offset="0.414063"/><stop stop-opacity="1" stop-color="rgb(92.068481%, 82.226562%, 41.551208%)" offset="0.417969"/><stop stop-opacity="1" stop-color="rgb(92.192078%, 82.417297%, 41.764832%)" offset="0.421875"/><stop stop-opacity="1" stop-color="rgb(92.315674%, 82.606506%, 41.976929%)" offset="0.425781"/><stop stop-opacity="1" stop-color="rgb(92.440796%, 82.797241%, 42.190552%)" offset="0.429688"/><stop stop-opacity="1" stop-color="rgb(92.564392%, 82.98645%, 42.402649%)" offset="0.433594"/><stop stop-opacity="1" stop-color="rgb(92.687988%, 83.177185%, 42.616272%)" offset="0.4375"/><stop stop-opacity="1" stop-color="rgb(92.811584%, 83.366394%, 42.828369%)" offset="0.441406"/><stop stop-opacity="1" stop-color="rgb(92.935181%, 83.557129%, 43.041992%)" offset="0.445313"/><stop stop-opacity="1" stop-color="rgb(93.058777%, 83.746338%, 43.255615%)" offset="0.449219"/><stop stop-opacity="1" stop-color="rgb(93.182373%, 83.937073%, 43.469238%)" offset="0.453125"/><stop stop-opacity="1" stop-color="rgb(93.305969%, 84.126282%, 43.681335%)" offset="0.457031"/><stop stop-opacity="1" stop-color="rgb(93.431091%, 84.317017%, 43.894958%)" offset="0.460938"/><stop stop-opacity="1" stop-color="rgb(93.554688%, 84.506226%, 44.107056%)" offset="0.464844"/><stop stop-opacity="1" stop-color="rgb(93.678284%, 84.69696%, 44.320679%)" offset="0.46875"/><stop stop-opacity="1" stop-color="rgb(93.80188%, 84.886169%, 44.532776%)" offset="0.472656"/><stop stop-opacity="1" stop-color="rgb(93.925476%, 85.076904%, 44.746399%)" offset="0.476563"/><stop stop-opacity="1" stop-color="rgb(94.049072%, 85.266113%, 44.958496%)" offset="0.480469"/><stop stop-opacity="1" stop-color="rgb(94.172668%, 85.456848%, 45.172119%)" offset="0.484375"/><stop stop-opacity="1" stop-color="rgb(94.296265%, 85.646057%, 45.385742%)" offset="0.488281"/><stop stop-opacity="1" stop-color="rgb(94.421387%, 85.836792%, 45.599365%)" offset="0.492188"/><stop stop-opacity="1" stop-color="rgb(94.544983%, 86.026001%, 45.811462%)" offset="0.496094"/><stop stop-opacity="1" stop-color="rgb(94.668579%, 86.216736%, 46.025085%)" offset="0.5"/><stop stop-opacity="1" stop-color="rgb(94.792175%, 86.405945%, 46.237183%)" offset="0.503906"/><stop stop-opacity="1" stop-color="rgb(94.915771%, 86.59668%, 46.450806%)" offset="0.507813"/><stop stop-opacity="1" stop-color="rgb(95.039368%, 86.785889%, 46.662903%)" offset="0.511719"/><stop stop-opacity="1" stop-color="rgb(95.162964%, 86.976624%, 46.876526%)" offset="0.515625"/><stop stop-opacity="1" stop-color="rgb(95.28656%, 87.165833%, 47.090149%)" offset="0.519531"/><stop stop-opacity="1" stop-color="rgb(95.411682%, 87.356567%, 47.303772%)" offset="0.523438"/><stop stop-opacity="1" stop-color="rgb(95.535278%, 87.545776%, 47.515869%)" offset="0.527344"/><stop stop-opacity="1" stop-color="rgb(95.658875%, 87.736511%, 47.729492%)" offset="0.53125"/><stop stop-opacity="1" stop-color="rgb(95.533752%, 87.556458%, 47.583008%)" offset="0.539063"/><stop stop-opacity="1" stop-color="rgb(95.233154%, 87.123108%, 47.219849%)" offset="0.542969"/><stop stop-opacity="1" stop-color="rgb(95.059204%, 86.869812%, 47.003174%)" offset="0.546875"/><stop stop-opacity="1" stop-color="rgb(94.885254%, 86.616516%, 46.786499%)" offset="0.550781"/><stop stop-opacity="1" stop-color="rgb(94.711304%, 86.36322%, 46.569824%)" offset="0.554688"/><stop stop-opacity="1" stop-color="rgb(94.537354%, 86.109924%, 46.351624%)" offset="0.558594"/><stop stop-opacity="1" stop-color="rgb(94.363403%, 85.856628%, 46.134949%)" offset="0.5625"/><stop stop-opacity="1" stop-color="rgb(94.189453%, 85.603333%, 45.918274%)" offset="0.566406"/><stop stop-opacity="1" stop-color="rgb(94.015503%, 85.350037%, 45.701599%)" offset="0.570312"/><stop stop-opacity="1" stop-color="rgb(93.840027%, 85.095215%, 45.484924%)" offset="0.574219"/><stop stop-opacity="1" stop-color="rgb(93.666077%, 84.841919%, 45.26825%)" offset="0.578125"/><stop stop-opacity="1" stop-color="rgb(93.492126%, 84.588623%, 45.050049%)" offset="0.582031"/><stop stop-opacity="1" stop-color="rgb(93.318176%, 84.335327%, 44.833374%)" offset="0.585938"/><stop stop-opacity="1" stop-color="rgb(93.144226%, 84.082031%, 44.616699%)" offset="0.589844"/><stop stop-opacity="1" stop-color="rgb(92.970276%, 83.828735%, 44.400024%)" offset="0.59375"/><stop stop-opacity="1" stop-color="rgb(92.796326%, 83.575439%, 44.18335%)" offset="0.597656"/><stop stop-opacity="1" stop-color="rgb(92.622375%, 83.322144%, 43.966675%)" offset="0.601562"/><stop stop-opacity="1" stop-color="rgb(92.446899%, 83.068848%, 43.748474%)" offset="0.605469"/><stop stop-opacity="1" stop-color="rgb(92.272949%, 82.815552%, 43.531799%)" offset="0.609375"/><stop stop-opacity="1" stop-color="rgb(92.098999%, 82.562256%, 43.315125%)" offset="0.613281"/><stop stop-opacity="1" stop-color="rgb(91.925049%, 82.30896%, 43.09845%)" offset="0.617187"/><stop stop-opacity="1" stop-color="rgb(91.751099%, 82.055664%, 42.881775%)" offset="0.621094"/><stop stop-opacity="1" stop-color="rgb(91.577148%, 81.802368%, 42.6651%)" offset="0.625"/><stop stop-opacity="1" stop-color="rgb(91.401672%, 81.549072%, 42.446899%)" offset="0.628906"/><stop stop-opacity="1" stop-color="rgb(91.227722%, 81.295776%, 42.230225%)" offset="0.632812"/><stop stop-opacity="1" stop-color="rgb(91.053772%, 81.04248%, 42.01355%)" offset="0.636719"/><stop stop-opacity="1" stop-color="rgb(90.879822%, 80.789185%, 41.796875%)" offset="0.640625"/><stop stop-opacity="1" stop-color="rgb(90.705872%, 80.535889%, 41.5802%)" offset="0.644531"/><stop stop-opacity="1" stop-color="rgb(90.531921%, 80.282593%, 41.363525%)" offset="0.648438"/><stop stop-opacity="1" stop-color="rgb(90.357971%, 80.029297%, 41.146851%)" offset="0.652344"/><stop stop-opacity="1" stop-color="rgb(90.184021%, 79.776001%, 40.930176%)" offset="0.65625"/><stop stop-opacity="1" stop-color="rgb(90.008545%, 79.522705%, 40.711975%)" offset="0.660156"/><stop stop-opacity="1" stop-color="rgb(89.834595%, 79.269409%, 40.4953%)" offset="0.664062"/><stop stop-opacity="1" stop-color="rgb(89.660645%, 79.016113%, 40.278625%)" offset="0.667969"/><stop stop-opacity="1" stop-color="rgb(89.486694%, 78.762817%, 40.061951%)" offset="0.671875"/><stop stop-opacity="1" stop-color="rgb(89.312744%, 78.509521%, 39.845276%)" offset="0.675781"/><stop stop-opacity="1" stop-color="rgb(89.138794%, 78.256226%, 39.628601%)" offset="0.679688"/><stop stop-opacity="1" stop-color="rgb(88.963318%, 78.00293%, 39.4104%)" offset="0.683594"/><stop stop-opacity="1" stop-color="rgb(88.789368%, 77.749634%, 39.193726%)" offset="0.6875"/><stop stop-opacity="1" stop-color="rgb(88.615417%, 77.496338%, 38.977051%)" offset="0.691406"/><stop stop-opacity="1" stop-color="rgb(88.441467%, 77.243042%, 38.760376%)" offset="0.695312"/><stop stop-opacity="1" stop-color="rgb(88.267517%, 76.989746%, 38.543701%)" offset="0.699219"/><stop stop-opacity="1" stop-color="rgb(88.093567%, 76.73645%, 38.327026%)" offset="0.703125"/><stop stop-opacity="1" stop-color="rgb(87.919617%, 76.483154%, 38.108826%)" offset="0.707031"/><stop stop-opacity="1" stop-color="rgb(87.745667%, 76.229858%, 37.892151%)" offset="0.710937"/><stop stop-opacity="1" stop-color="rgb(87.57019%, 75.976562%, 37.675476%)" offset="0.714844"/><stop stop-opacity="1" stop-color="rgb(87.39624%, 75.723267%, 37.458801%)" offset="0.71875"/><stop stop-opacity="1" stop-color="rgb(87.22229%, 75.469971%, 37.242126%)" offset="0.722656"/><stop stop-opacity="1" stop-color="rgb(87.04834%, 75.216675%, 37.025452%)" offset="0.726562"/><stop stop-opacity="1" stop-color="rgb(86.87439%, 74.963379%, 36.807251%)" offset="0.730469"/><stop stop-opacity="1" stop-color="rgb(86.700439%, 74.710083%, 36.590576%)" offset="0.734375"/><stop stop-opacity="1" stop-color="rgb(86.526489%, 74.456787%, 36.373901%)" offset="0.738281"/><stop stop-opacity="1" stop-color="rgb(86.352539%, 74.203491%, 36.157227%)" offset="0.742187"/><stop stop-opacity="1" stop-color="rgb(86.177063%, 73.950195%, 35.940552%)" offset="0.746094"/><stop stop-opacity="1" stop-color="rgb(86.003113%, 73.696899%, 35.723877%)" offset="0.75"/><stop stop-opacity="1" stop-color="rgb(85.829163%, 73.443604%, 35.507202%)" offset="0.753906"/><stop stop-opacity="1" stop-color="rgb(85.655212%, 73.190308%, 35.290527%)" offset="0.757812"/><stop stop-opacity="1" stop-color="rgb(85.481262%, 72.937012%, 35.072327%)" offset="0.761719"/><stop stop-opacity="1" stop-color="rgb(85.307312%, 72.683716%, 34.855652%)" offset="0.765625"/><stop stop-opacity="1" stop-color="rgb(85.131836%, 72.43042%, 34.638977%)" offset="0.769531"/><stop stop-opacity="1" stop-color="rgb(84.957886%, 72.177124%, 34.422302%)" offset="0.773437"/><stop stop-opacity="1" stop-color="rgb(84.786987%, 71.928406%, 34.211731%)" offset="0.777344"/><stop stop-opacity="1" stop-color="rgb(84.617615%, 71.681213%, 34.00116%)" offset="0.78125"/><stop stop-opacity="1" stop-color="rgb(84.458923%, 71.447754%, 33.808899%)" offset="0.785156"/><stop stop-opacity="1" stop-color="rgb(84.301758%, 71.21582%, 33.618164%)" offset="0.789062"/><stop stop-opacity="1" stop-color="rgb(84.143066%, 70.983887%, 33.425903%)" offset="0.792969"/><stop stop-opacity="1" stop-color="rgb(83.985901%, 70.751953%, 33.233643%)" offset="0.796875"/><stop stop-opacity="1" stop-color="rgb(83.827209%, 70.518494%, 33.041382%)" offset="0.800781"/><stop stop-opacity="1" stop-color="rgb(83.670044%, 70.28656%, 32.850647%)" offset="0.804688"/><stop stop-opacity="1" stop-color="rgb(83.511353%, 70.054626%, 32.658386%)" offset="0.808594"/><stop stop-opacity="1" stop-color="rgb(83.352661%, 69.822693%, 32.466125%)" offset="0.8125"/><stop stop-opacity="1" stop-color="rgb(83.19397%, 69.590759%, 32.273865%)" offset="0.816406"/><stop stop-opacity="1" stop-color="rgb(83.036804%, 69.358826%, 32.08313%)" offset="0.820312"/><stop stop-opacity="1" stop-color="rgb(82.878113%, 69.125366%, 31.890869%)" offset="0.824219"/><stop stop-opacity="1" stop-color="rgb(82.720947%, 68.893433%, 31.698608%)" offset="0.828125"/><stop stop-opacity="1" stop-color="rgb(82.562256%, 68.661499%, 31.506348%)" offset="0.832031"/><stop stop-opacity="1" stop-color="rgb(82.403564%, 68.429565%, 31.315613%)" offset="0.835938"/><stop stop-opacity="1" stop-color="rgb(82.244873%, 68.197632%, 31.123352%)" offset="0.839844"/><stop stop-opacity="1" stop-color="rgb(82.087708%, 67.965698%, 30.932617%)" offset="0.84375"/><stop stop-opacity="1" stop-color="rgb(81.929016%, 67.732239%, 30.740356%)" offset="0.847656"/><stop stop-opacity="1" stop-color="rgb(81.771851%, 67.500305%, 30.548096%)" offset="0.851562"/><stop stop-opacity="1" stop-color="rgb(81.613159%, 67.268372%, 30.355835%)" offset="0.855469"/><stop stop-opacity="1" stop-color="rgb(81.454468%, 67.036438%, 30.1651%)" offset="0.859375"/><stop stop-opacity="1" stop-color="rgb(81.295776%, 66.802979%, 29.972839%)" offset="0.863281"/><stop stop-opacity="1" stop-color="rgb(81.138611%, 66.571045%, 29.780579%)" offset="0.867188"/><stop stop-opacity="1" stop-color="rgb(80.979919%, 66.339111%, 29.588318%)" offset="0.871094"/><stop stop-opacity="1" stop-color="rgb(80.822754%, 66.107178%, 29.397583%)" offset="0.875"/><stop stop-opacity="1" stop-color="rgb(80.664062%, 65.875244%, 29.205322%)" offset="0.878906"/><stop stop-opacity="1" stop-color="rgb(80.505371%, 65.643311%, 29.013062%)" offset="0.882813"/><stop stop-opacity="1" stop-color="rgb(80.34668%, 65.409851%, 28.820801%)" offset="0.886719"/><stop stop-opacity="1" stop-color="rgb(80.189514%, 65.177917%, 28.630066%)" offset="0.890625"/><stop stop-opacity="1" stop-color="rgb(80.030823%, 64.945984%, 28.437805%)" offset="0.894531"/><stop stop-opacity="1" stop-color="rgb(79.873657%, 64.71405%, 28.245544%)" offset="0.898438"/><stop stop-opacity="1" stop-color="rgb(79.714966%, 64.482117%, 28.053284%)" offset="0.902344"/><stop stop-opacity="1" stop-color="rgb(79.556274%, 64.250183%, 27.862549%)" offset="0.90625"/><stop stop-opacity="1" stop-color="rgb(79.397583%, 64.016724%, 27.670288%)" offset="0.910156"/><stop stop-opacity="1" stop-color="rgb(79.240417%, 63.78479%, 27.479553%)" offset="0.914063"/><stop stop-opacity="1" stop-color="rgb(79.081726%, 63.552856%, 27.287292%)" offset="0.917969"/><stop stop-opacity="1" stop-color="rgb(78.924561%, 63.320923%, 27.095032%)" offset="0.921875"/><stop stop-opacity="1" stop-color="rgb(78.765869%, 63.088989%, 26.902771%)" offset="0.925781"/><stop stop-opacity="1" stop-color="rgb(78.607178%, 62.857056%, 26.712036%)" offset="0.929688"/><stop stop-opacity="1" stop-color="rgb(78.448486%, 62.623596%, 26.519775%)" offset="0.933594"/><stop stop-opacity="1" stop-color="rgb(78.291321%, 62.391663%, 26.327515%)" offset="0.9375"/><stop stop-opacity="1" stop-color="rgb(78.132629%, 62.159729%, 26.135254%)" offset="0.941406"/><stop stop-opacity="1" stop-color="rgb(77.975464%, 61.927795%, 25.944519%)" offset="0.945312"/><stop stop-opacity="1" stop-color="rgb(77.816772%, 61.694336%, 25.752258%)" offset="0.949219"/><stop stop-opacity="1" stop-color="rgb(77.658081%, 61.462402%, 25.559998%)" offset="0.953125"/><stop stop-opacity="1" stop-color="rgb(77.49939%, 61.230469%, 25.367737%)" offset="0.957031"/><stop stop-opacity="1" stop-color="rgb(77.342224%, 60.998535%, 25.177002%)" offset="0.960938"/><stop stop-opacity="1" stop-color="rgb(77.183533%, 60.766602%, 24.984741%)" offset="0.964844"/><stop stop-opacity="1" stop-color="rgb(77.026367%, 60.534668%, 24.794006%)" offset="0.96875"/><stop stop-opacity="1" stop-color="rgb(76.867676%, 60.301208%, 24.601746%)" offset="0.972656"/><stop stop-opacity="1" stop-color="rgb(76.708984%, 60.069275%, 24.409485%)" offset="0.976562"/><stop stop-opacity="1" stop-color="rgb(76.550293%, 59.837341%, 24.217224%)" offset="0.980469"/><stop stop-opacity="1" stop-color="rgb(76.393127%, 59.605408%, 24.026489%)" offset="0.984375"/><stop stop-opacity="1" stop-color="rgb(76.234436%, 59.373474%, 23.834229%)" offset="0.988281"/><stop stop-opacity="1" stop-color="rgb(76.077271%, 59.141541%, 23.641968%)" offset="0.992188"/><stop stop-opacity="1" stop-color="rgb(75.918579%, 58.908081%, 23.449707%)" offset="0.996094"/><stop stop-opacity="1" stop-color="rgb(75.759888%, 58.676147%, 23.258972%)" offset="1"/></linearGradient></defs><rect x="-37.5" width="450" fill="#ffffff" y="-37.499999" height="449.999989" fill-opacity="1"/><rect x="-37.5" width="450" fill="#efd3d2" y="-37.499999" height="449.999989" fill-opacity="1"/><path fill="#e7b1af" d="M 51.222656 217.660156 C 52.609375 218.9375 52.964844 220.484375 52.964844 221.886719 C 52.964844 225.722656 50.460938 228.371094 46.472656 228.371094 C 44.773438 228.371094 41.960938 227.886719 40.601562 226.476562 C 40.34375 225.40625 40.476562 223.195312 41.003906 221.640625 L 41.308594 221.640625 C 40.960938 225.214844 43.222656 227.503906 46.3125 227.332031 C 48.84375 227.1875 50.960938 225.457031 50.960938 222.683594 C 50.960938 221.328125 50.46875 220.253906 49.597656 219.453125 L 42.957031 213.285156 C 41.550781 212.003906 41.078125 210.328125 41.078125 208.984375 C 41.078125 206.0625 43.21875 203.125 47.171875 203.125 C 48.082031 203.125 49.222656 203.28125 50.148438 203.480469 L 51.523438 203.480469 L 51.523438 207.734375 L 51.1875 207.734375 C 51.199219 205.511719 49.449219 204.160156 47.289062 204.160156 C 44.730469 204.160156 43.019531 206.035156 43.019531 208.148438 C 43.019531 209.050781 43.324219 210.332031 44.417969 211.34375 Z M 51.222656 217.660156 " fill-opacity="1" fill-rule="nonzero"/><path fill="#e7b1af" d="M 76.679688 225.351562 C 77.378906 226.894531 78.660156 227.539062 79.722656 227.539062 L 80.011719 227.539062 L 80.011719 227.882812 L 72.203125 227.882812 L 72.203125 227.539062 L 72.511719 227.539062 C 73.402344 227.539062 74.332031 226.746094 73.828125 225.359375 L 71.613281 219.457031 L 62.269531 219.457031 L 59.945312 225.382812 C 59.457031 226.757812 60.378906 227.539062 61.269531 227.539062 L 61.578125 227.539062 L 61.578125 227.882812 L 54.597656 227.882812 L 54.597656 227.539062 L 54.90625 227.539062 C 55.960938 227.539062 57.246094 226.898438 57.945312 225.355469 L 65.808594 206.691406 C 65.808594 206.691406 67.09375 203.886719 67.09375 203.121094 L 67.402344 203.121094 Z M 71.21875 218.414062 L 67.039062 207.285156 L 62.675781 218.414062 Z M 71.21875 218.414062 " fill-opacity="1" fill-rule="nonzero"/><path fill="#e7b1af" d="M 108.328125 225.367188 C 108.503906 226.734375 109.613281 227.539062 110.855469 227.539062 L 111.40625 227.539062 L 111.40625 227.882812 L 103.867188 227.882812 L 103.867188 227.554688 L 104.410156 227.554688 C 105.15625 227.554688 105.828125 226.820312 105.761719 226.074219 L 104.1875 208.625 L 96.902344 224.828125 C 96.902344 224.828125 95.933594 226.9375 95.714844 228.371094 L 95.386719 228.371094 L 86.519531 209.128906 L 84.996094 226.078125 C 84.929688 226.824219 85.601562 227.554688 86.347656 227.558594 L 86.890625 227.558594 L 86.890625 227.886719 L 80.167969 227.886719 L 80.167969 227.542969 L 80.722656 227.542969 C 81.960938 227.542969 83.070312 226.738281 83.246094 225.371094 L 85.855469 203.125 L 86.179688 203.125 L 95.859375 224.050781 L 105.324219 203.136719 L 105.640625 203.136719 Z M 108.328125 225.367188 " fill-opacity="1" fill-rule="nonzero"/><path fill="#e7b1af" d="M 134.523438 203.609375 L 134.523438 203.953125 L 134.039062 203.953125 C 132.59375 203.953125 131.300781 204.910156 130.5625 205.96875 L 123.703125 217.050781 L 123.703125 225.351562 C 123.726562 226.5625 124.710938 227.535156 125.925781 227.535156 L 126.363281 227.535156 L 126.367188 227.878906 L 118.785156 227.878906 L 118.789062 227.535156 L 119.230469 227.535156 C 120.433594 227.535156 121.414062 226.570312 121.449219 225.375 L 121.449219 217.015625 L 114.84375 205.976562 C 114.175781 204.910156 112.808594 203.949219 111.359375 203.949219 L 110.886719 203.949219 L 110.886719 203.605469 L 119.417969 203.605469 L 119.417969 203.949219 L 118.984375 203.949219 C 117.96875 203.949219 117.257812 205.121094 117.769531 206.105469 L 122.964844 215.8125 L 128.496094 206.101562 L 128.511719 206.070312 C 129.050781 205.09375 128.214844 203.953125 127.277344 203.953125 L 126.839844 203.953125 L 126.839844 203.609375 Z M 134.523438 203.609375 " fill-opacity="1" fill-rule="nonzero"/><path fill="#e7b1af" d="M 171.515625 225.367188 C 171.691406 226.734375 172.804688 227.539062 174.042969 227.539062 L 174.59375 227.539062 L 174.59375 227.882812 L 167.058594 227.882812 L 167.058594 227.554688 L 167.597656 227.554688 C 168.34375 227.554688 169.019531 226.820312 168.949219 226.074219 L 167.378906 208.625 L 160.089844 224.828125 C 160.089844 224.828125 159.125 226.9375 158.902344 228.371094 L 158.574219 228.371094 L 149.707031 209.128906 L 148.1875 226.078125 C 148.117188 226.824219 148.792969 227.554688 149.539062 227.558594 L 150.078125 227.558594 L 150.078125 227.886719 L 143.363281 227.886719 L 143.363281 227.542969 L 143.914062 227.542969 C 145.152344 227.542969 146.265625 226.738281 146.441406 225.371094 L 149.050781 203.125 L 149.375 203.125 L 159.054688 224.050781 L 168.519531 203.136719 L 168.832031 203.136719 Z M 171.515625 225.367188 " fill-opacity="1" fill-rule="nonzero"/><path fill="#e7b1af" d="M 196.84375 225.351562 C 197.542969 226.894531 198.828125 227.539062 199.890625 227.539062 L 200.179688 227.539062 L 200.179688 227.882812 L 192.371094 227.882812 L 192.371094 227.539062 L 192.675781 227.539062 C 193.570312 227.539062 194.5 226.746094 193.996094 225.359375 L 191.777344 219.457031 L 182.433594 219.457031 L 180.113281 225.382812 C 179.625 226.757812 180.546875 227.539062 181.4375 227.539062 L 181.746094 227.539062 L 181.746094 227.882812 L 174.765625 227.882812 L 174.765625 227.539062 L 175.074219 227.539062 C 176.128906 227.539062 177.410156 226.898438 178.113281 225.355469 L 185.976562 206.691406 C 185.976562 206.691406 187.261719 203.886719 187.261719 203.121094 L 187.570312 203.121094 Z M 191.386719 218.414062 L 187.203125 207.285156 L 182.839844 218.414062 Z M 191.386719 218.414062 " fill-opacity="1" fill-rule="nonzero"/><path fill="#e7b1af" d="M 223.222656 217.761719 L 222.800781 223.207031 C 220.972656 226.195312 217.871094 228.371094 213.054688 228.371094 C 205.804688 228.335938 200.671875 223.378906 200.671875 215.710938 C 200.671875 208.1875 205.628906 203.121094 213.261719 203.121094 C 216.664062 203.121094 219.4375 204.125 221.464844 205.460938 L 222.164062 210.359375 L 221.875 210.359375 C 220.824219 206.3125 217.421875 204.160156 213.253906 204.15625 C 207.15625 204.15625 203.273438 208.769531 203.273438 215.671875 C 203.273438 222.644531 207.226562 227.1875 213.054688 227.328125 C 217.980469 227.3125 222.148438 224.859375 222.933594 217.757812 L 223.222656 217.757812 Z M 223.222656 217.761719 " fill-opacity="1" fill-rule="nonzero"/><path fill="#e7b1af" d="M 243.476562 227.882812 L 243.480469 227.539062 L 243.921875 227.539062 C 245.128906 227.539062 246.109375 226.578125 246.144531 225.382812 L 246.144531 216.402344 L 231.949219 216.402344 L 231.949219 225.355469 C 231.972656 226.566406 232.957031 227.539062 234.167969 227.539062 L 234.609375 227.539062 L 234.613281 227.882812 L 227.023438 227.882812 L 227.03125 227.539062 L 227.46875 227.539062 C 228.683594 227.539062 229.667969 226.566406 229.691406 225.355469 L 229.691406 206.117188 C 229.660156 204.917969 228.679688 203.949219 227.46875 203.949219 L 227.03125 203.949219 L 227.023438 203.605469 L 234.609375 203.605469 L 234.605469 203.949219 L 234.164062 203.949219 C 232.960938 203.949219 231.980469 204.914062 231.945312 206.109375 L 231.945312 215.363281 L 246.136719 215.363281 L 246.136719 206.089844 C 246.089844 204.898438 245.121094 203.949219 243.917969 203.949219 L 243.476562 203.949219 L 243.472656 203.605469 L 251.058594 203.605469 L 251.054688 203.949219 L 250.613281 203.949219 C 249.398438 203.949219 248.414062 204.921875 248.394531 206.132812 L 248.394531 225.355469 C 248.414062 226.566406 249.398438 227.539062 250.613281 227.539062 L 251.054688 227.539062 L 251.058594 227.882812 Z M 243.476562 227.882812 " fill-opacity="1" fill-rule="nonzero"/><path fill="#e7b1af" d="M 274.878906 225.351562 C 275.578125 226.894531 276.863281 227.539062 277.925781 227.539062 L 278.214844 227.539062 L 278.214844 227.882812 L 270.40625 227.882812 L 270.40625 227.539062 L 270.710938 227.539062 C 271.605469 227.539062 272.535156 226.746094 272.027344 225.359375 L 269.8125 219.457031 L 260.46875 219.457031 L 258.148438 225.382812 C 257.660156 226.757812 258.582031 227.539062 259.472656 227.539062 L 259.78125 227.539062 L 259.78125 227.882812 L 252.800781 227.882812 L 252.800781 227.539062 L 253.109375 227.539062 C 254.164062 227.539062 255.445312 226.898438 256.148438 225.355469 L 264.011719 206.691406 C 264.011719 206.691406 265.296875 203.886719 265.296875 203.121094 L 265.605469 203.121094 Z M 269.421875 218.414062 L 265.238281 207.285156 L 260.875 218.414062 Z M 269.421875 218.414062 " fill-opacity="1" fill-rule="nonzero"/><path fill="#e7b1af" d="M 291.65625 203.613281 C 299.066406 203.613281 304.113281 208.472656 304.113281 215.757812 C 304.113281 223.03125 299.066406 227.886719 291.65625 227.886719 L 279.917969 227.886719 L 279.921875 227.542969 L 280.363281 227.542969 C 281.574219 227.542969 282.554688 226.570312 282.582031 225.367188 L 282.582031 205.941406 C 282.582031 204.828125 281.519531 203.957031 280.375 203.957031 L 279.933594 203.957031 L 279.929688 203.613281 Z M 284.839844 226.835938 L 291.65625 226.835938 C 297.601562 226.835938 301.507812 222.40625 301.507812 215.761719 C 301.507812 209.097656 297.566406 204.65625 291.65625 204.65625 L 284.839844 204.65625 Z M 284.839844 226.835938 " fill-opacity="1" fill-rule="nonzero"/><path fill="#e7b1af" d="M 333.179688 215.746094 C 333.179688 223.324219 328.089844 228.371094 320.714844 228.371094 C 313.339844 228.371094 308.246094 223.324219 308.246094 215.746094 C 308.246094 208.167969 313.339844 203.121094 320.714844 203.121094 C 328.089844 203.121094 333.179688 208.167969 333.179688 215.746094 Z M 330.523438 215.746094 C 330.523438 208.796875 326.601562 204.160156 320.71875 204.160156 C 314.835938 204.160156 310.914062 208.796875 310.914062 215.746094 C 310.914062 222.695312 314.835938 227.332031 320.71875 227.332031 C 326.601562 227.332031 330.523438 222.695312 330.523438 215.746094 Z M 330.523438 215.746094 " fill-opacity="1" fill-rule="nonzero"/><path fill="#6e765d" d="M 124.789062 247.714844 L 124.773438 238.164062 L 128.183594 238.164062 C 128.742188 238.164062 129.257812 238.285156 129.734375 238.53125 C 130.210938 238.777344 130.585938 239.105469 130.867188 239.515625 C 131.144531 239.925781 131.285156 240.378906 131.285156 240.867188 C 131.285156 241.347656 131.144531 241.796875 130.867188 242.210938 C 130.585938 242.625 130.210938 242.957031 129.734375 243.203125 C 129.257812 243.449219 128.742188 243.570312 128.183594 243.570312 L 125.449219 243.570312 L 125.449219 247.714844 Z M 125.453125 242.875 L 128.1875 242.875 C 128.628906 242.875 129.035156 242.785156 129.40625 242.605469 C 129.777344 242.421875 130.074219 242.175781 130.296875 241.871094 C 130.515625 241.5625 130.628906 241.226562 130.628906 240.863281 C 130.628906 240.492188 130.519531 240.152344 130.296875 239.84375 C 130.074219 239.539062 129.777344 239.292969 129.40625 239.109375 C 129.035156 238.929688 128.628906 238.839844 128.1875 238.839844 L 125.4375 238.839844 Z M 125.453125 242.875 " fill-opacity="1" fill-rule="nonzero"/><path fill="#6e765d" d="M 144.203125 244.015625 C 144.453125 244.382812 144.578125 244.777344 144.578125 245.199219 C 144.578125 245.5625 144.492188 245.910156 144.316406 246.238281 C 144.140625 246.566406 143.882812 246.851562 143.550781 247.097656 C 142.863281 247.585938 142.066406 247.832031 141.160156 247.832031 C 140.710938 247.832031 140.277344 247.765625 139.867188 247.640625 C 139.457031 247.515625 139.089844 247.335938 138.765625 247.097656 C 138.207031 246.6875 137.867188 246.179688 137.75 245.585938 L 138.382812 245.230469 C 138.410156 245.769531 138.675781 246.210938 139.175781 246.550781 C 139.429688 246.746094 139.730469 246.898438 140.074219 247 C 140.414062 247.105469 140.777344 247.15625 141.164062 247.15625 C 141.945312 247.15625 142.605469 246.957031 143.144531 246.558594 C 143.664062 246.175781 143.921875 245.722656 143.921875 245.203125 C 143.921875 244.902344 143.828125 244.617188 143.636719 244.355469 C 143.449219 244.089844 143.179688 243.867188 142.839844 243.679688 C 142.515625 243.511719 141.9375 243.382812 141.105469 243.28125 C 141.039062 243.273438 140.792969 243.234375 140.363281 243.167969 C 139.9375 243.097656 139.574219 242.988281 139.269531 242.84375 C 138.792969 242.609375 138.414062 242.296875 138.140625 241.910156 C 137.863281 241.519531 137.730469 241.101562 137.730469 240.652344 C 137.730469 240.289062 137.820312 239.949219 138 239.632812 C 138.183594 239.3125 138.4375 239.03125 138.773438 238.785156 C 139.097656 238.554688 139.464844 238.371094 139.875 238.242188 C 140.285156 238.113281 140.71875 238.050781 141.167969 238.050781 C 142.078125 238.050781 142.878906 238.296875 143.558594 238.785156 C 144.128906 239.21875 144.464844 239.71875 144.558594 240.285156 L 143.925781 240.640625 C 143.917969 240.394531 143.84375 240.160156 143.714844 239.933594 C 143.582031 239.710938 143.394531 239.503906 143.148438 239.316406 C 142.886719 239.121094 142.578125 238.972656 142.238281 238.867188 C 141.898438 238.765625 141.539062 238.710938 141.167969 238.710938 C 140.796875 238.710938 140.433594 238.765625 140.085938 238.867188 C 139.738281 238.972656 139.441406 239.117188 139.183594 239.316406 C 138.929688 239.503906 138.734375 239.710938 138.597656 239.945312 C 138.460938 240.171875 138.390625 240.410156 138.390625 240.65625 C 138.390625 240.957031 138.503906 241.261719 138.726562 241.558594 C 138.953125 241.855469 139.230469 242.089844 139.566406 242.257812 C 139.773438 242.359375 139.996094 242.425781 140.246094 242.46875 C 140.496094 242.515625 140.816406 242.5625 141.210938 242.609375 C 141.28125 242.617188 141.453125 242.644531 141.726562 242.683594 C 141.996094 242.722656 142.265625 242.777344 142.519531 242.847656 C 142.773438 242.914062 142.988281 242.996094 143.167969 243.097656 C 143.605469 243.339844 143.953125 243.648438 144.203125 244.015625 Z M 144.203125 244.015625 " fill-opacity="1" fill-rule="nonzero"/><path fill="#6e765d" d="M 151.644531 238.164062 L 152.308594 238.164062 L 152.308594 247.714844 L 151.644531 247.714844 Z M 151.644531 238.164062 " fill-opacity="1" fill-rule="nonzero"/><path fill="#6e765d" d="M 163.945312 247.8125 C 163.070312 247.8125 162.261719 247.59375 161.519531 247.152344 C 160.777344 246.710938 160.191406 246.117188 159.757812 245.367188 C 159.328125 244.617188 159.109375 243.804688 159.109375 242.925781 C 159.109375 242.042969 159.328125 241.230469 159.757812 240.484375 C 160.191406 239.742188 160.777344 239.144531 161.519531 238.703125 C 162.261719 238.261719 163.070312 238.042969 163.945312 238.042969 C 164.621094 238.042969 165.269531 238.179688 165.890625 238.460938 C 166.515625 238.742188 167.058594 239.136719 167.527344 239.644531 L 167.015625 240.097656 C 166.621094 239.660156 166.160156 239.316406 165.628906 239.070312 C 165.09375 238.824219 164.535156 238.703125 163.945312 238.703125 C 163.1875 238.703125 162.492188 238.894531 161.859375 239.269531 C 161.222656 239.644531 160.714844 240.160156 160.335938 240.804688 C 159.960938 241.453125 159.769531 242.15625 159.769531 242.917969 C 159.769531 243.683594 159.960938 244.386719 160.335938 245.035156 C 160.714844 245.683594 161.222656 246.195312 161.859375 246.570312 C 162.492188 246.945312 163.1875 247.136719 163.945312 247.136719 C 164.570312 247.136719 165.167969 246.996094 165.726562 246.726562 C 166.289062 246.453125 166.773438 246.070312 167.175781 245.582031 L 167.703125 245.992188 C 167.238281 246.570312 166.683594 247.019531 166.027344 247.335938 C 165.375 247.660156 164.679688 247.8125 163.945312 247.8125 Z M 163.945312 247.8125 " fill-opacity="1" fill-rule="nonzero"/><path fill="#6e765d" d="M 178.5625 247.8125 C 177.6875 247.8125 176.878906 247.597656 176.136719 247.160156 C 175.394531 246.726562 174.808594 246.132812 174.375 245.382812 C 173.945312 244.632812 173.726562 243.816406 173.726562 242.9375 C 173.726562 242.054688 173.945312 241.238281 174.375 240.492188 C 174.808594 239.746094 175.394531 239.148438 176.136719 238.710938 C 176.878906 238.277344 177.6875 238.058594 178.5625 238.058594 C 179.433594 238.058594 180.242188 238.277344 180.984375 238.710938 C 181.726562 239.148438 182.3125 239.742188 182.746094 240.492188 C 183.179688 241.238281 183.394531 242.054688 183.394531 242.9375 C 183.394531 243.816406 183.179688 244.632812 182.746094 245.382812 C 182.3125 246.132812 181.726562 246.726562 180.984375 247.160156 C 180.242188 247.597656 179.433594 247.8125 178.5625 247.8125 Z M 178.5625 238.734375 C 177.804688 238.734375 177.109375 238.925781 176.472656 239.300781 C 175.839844 239.675781 175.328125 240.1875 174.953125 240.828125 C 174.578125 241.472656 174.386719 242.171875 174.386719 242.9375 C 174.386719 243.703125 174.578125 244.40625 174.953125 245.046875 C 175.328125 245.6875 175.839844 246.199219 176.472656 246.574219 C 177.109375 246.949219 177.804688 247.140625 178.5625 247.140625 C 179.316406 247.140625 180.011719 246.949219 180.648438 246.574219 C 181.28125 246.199219 181.789062 245.6875 182.160156 245.046875 C 182.53125 244.40625 182.714844 243.703125 182.714844 242.9375 C 182.714844 242.171875 182.53125 241.46875 182.160156 240.828125 C 181.789062 240.191406 181.28125 239.679688 180.648438 239.300781 C 180.011719 238.921875 179.316406 238.734375 178.5625 238.734375 Z M 178.5625 238.734375 " fill-opacity="1" fill-rule="nonzero"/><path fill="#6e765d" d="M 189.933594 247.714844 L 189.933594 238.164062 L 190.59375 238.164062 L 190.59375 247.054688 L 195.960938 247.054688 L 195.960938 247.714844 Z M 189.933594 247.714844 " fill-opacity="1" fill-rule="nonzero"/><path fill="#6e765d" d="M 206.226562 247.8125 C 205.355469 247.8125 204.546875 247.597656 203.804688 247.160156 C 203.0625 246.726562 202.472656 246.132812 202.042969 245.382812 C 201.609375 244.632812 201.394531 243.816406 201.394531 242.9375 C 201.394531 242.054688 201.609375 241.238281 202.042969 240.492188 C 202.472656 239.746094 203.0625 239.148438 203.804688 238.710938 C 204.546875 238.277344 205.355469 238.058594 206.226562 238.058594 C 207.097656 238.058594 207.90625 238.277344 208.648438 238.710938 C 209.394531 239.148438 209.980469 239.742188 210.414062 240.492188 C 210.84375 241.238281 211.058594 242.054688 211.058594 242.9375 C 211.058594 243.816406 210.84375 244.632812 210.414062 245.382812 C 209.980469 246.132812 209.394531 246.726562 208.648438 247.160156 C 207.90625 247.597656 207.097656 247.8125 206.226562 247.8125 Z M 206.226562 238.734375 C 205.472656 238.734375 204.777344 238.925781 204.140625 239.300781 C 203.503906 239.675781 202.996094 240.1875 202.621094 240.828125 C 202.246094 241.472656 202.054688 242.171875 202.054688 242.9375 C 202.054688 243.703125 202.246094 244.40625 202.621094 245.046875 C 202.996094 245.6875 203.503906 246.199219 204.140625 246.574219 C 204.777344 246.949219 205.472656 247.140625 206.226562 247.140625 C 206.984375 247.140625 207.679688 246.949219 208.3125 246.574219 C 208.949219 246.199219 209.453125 245.6875 209.824219 245.046875 C 210.195312 244.40625 210.382812 243.703125 210.382812 242.9375 C 210.382812 242.171875 210.195312 241.46875 209.824219 240.828125 C 209.453125 240.191406 208.949219 239.679688 208.3125 239.300781 C 207.679688 238.921875 206.976562 238.734375 206.226562 238.734375 Z M 206.226562 238.734375 " fill-opacity="1" fill-rule="nonzero"/><path fill="#6e765d" d="M 225.414062 247.714844 L 221.960938 247.714844 C 221.089844 247.714844 220.285156 247.5 219.550781 247.066406 C 218.816406 246.632812 218.234375 246.050781 217.804688 245.3125 C 217.371094 244.574219 217.15625 243.761719 217.15625 242.882812 C 217.15625 242.007812 217.371094 241.203125 217.804688 240.460938 C 218.234375 239.722656 218.816406 239.136719 219.550781 238.699219 C 220.285156 238.261719 221.089844 238.046875 221.960938 238.046875 C 222.628906 238.046875 223.265625 238.1875 223.878906 238.457031 C 224.492188 238.734375 225.023438 239.113281 225.472656 239.601562 L 224.992188 240.054688 C 224.597656 239.636719 224.140625 239.308594 223.609375 239.078125 C 223.082031 238.851562 222.527344 238.734375 221.960938 238.734375 C 221.21875 238.734375 220.527344 238.921875 219.890625 239.292969 C 219.253906 239.664062 218.75 240.164062 218.378906 240.800781 C 218.007812 241.429688 217.820312 242.125 217.820312 242.875 C 217.820312 243.628906 218.007812 244.328125 218.378906 244.964844 C 218.75 245.597656 219.253906 246.109375 219.890625 246.484375 C 220.523438 246.859375 221.214844 247.050781 221.960938 247.050781 L 224.722656 247.050781 L 224.722656 243.625 L 221.578125 243.625 L 221.578125 242.964844 L 225.414062 242.964844 Z M 225.414062 247.714844 " fill-opacity="1" fill-rule="nonzero"/><path fill="#6e765d" d="M 232.816406 238.164062 L 233.476562 238.164062 L 233.476562 247.714844 L 232.816406 247.714844 Z M 232.816406 238.164062 " fill-opacity="1" fill-rule="nonzero"/><path fill="#6e765d" d="M 242 245.285156 L 240.867188 247.710938 L 240.132812 247.710938 L 244.632812 238.042969 L 248.878906 247.710938 L 248.15625 247.710938 L 247.085938 245.285156 Z M 244.601562 239.675781 L 242.308594 244.625 L 246.785156 244.625 Z M 244.601562 239.675781 " fill-opacity="1" fill-rule="nonzero"/><path fill="#6e765d" d="M 41.242188 242.917969 L 117.441406 242.917969 L 117.441406 243.785156 L 41.242188 243.785156 Z M 41.242188 242.917969 " fill-opacity="1" fill-rule="nonzero"/><path fill="#6e765d" d="M 256.578125 242.917969 L 332.777344 242.917969 L 332.777344 243.785156 L 256.578125 243.785156 Z M 256.578125 242.917969 " fill-opacity="1" fill-rule="nonzero"/><path fill="#6e765d" d="M 195.035156 161.082031 C 194.734375 159.765625 194.171875 158.503906 193.351562 157.300781 C 192.046875 155.386719 190.21875 153.761719 187.875 152.4375 C 186.953125 151.925781 185.832031 151.488281 184.503906 151.132812 C 183.175781 150.777344 181.796875 150.492188 180.367188 150.289062 C 178.9375 150.085938 178.042969 149.957031 177.683594 149.910156 C 175.640625 149.65625 173.96875 149.414062 172.664062 149.179688 C 171.363281 148.949219 170.175781 148.578125 169.101562 148.070312 C 167.363281 147.199219 165.910156 145.988281 164.734375 144.433594 C 163.558594 142.871094 162.972656 141.304688 162.972656 139.71875 C 162.972656 138.445312 163.332031 137.207031 164.042969 136.003906 C 164.761719 134.804688 165.78125 133.71875 167.105469 132.75 C 168.433594 131.730469 170.003906 130.945312 171.816406 130.410156 C 173.632812 129.875 175.507812 129.609375 177.449219 129.609375 C 179.390625 129.609375 181.257812 129.875 183.042969 130.410156 C 184.832031 130.945312 186.414062 131.730469 187.796875 132.75 C 189.070312 133.71875 190.054688 134.792969 190.746094 135.964844 C 191.4375 137.140625 191.804688 138.367188 191.855469 139.640625 L 195.152344 137.800781 C 194.640625 134.839844 192.90625 132.234375 189.941406 129.988281 C 186.367188 127.433594 182.207031 126.15625 177.457031 126.15625 C 175.105469 126.15625 172.859375 126.488281 170.710938 127.148438 C 168.566406 127.816406 166.652344 128.761719 164.96875 129.984375 C 163.230469 131.261719 161.890625 132.730469 160.945312 134.390625 C 160 136.046875 159.53125 137.828125 159.53125 139.714844 C 159.53125 142.066406 160.246094 144.25 161.675781 146.269531 C 163.105469 148.285156 165.070312 149.910156 167.578125 151.132812 C 169.15625 151.902344 171.0625 152.460938 173.28125 152.816406 C 175.503906 153.175781 176.792969 153.378906 177.152344 153.429688 C 181.492188 153.9375 184.507812 154.628906 186.191406 155.5 C 187.980469 156.46875 189.371094 157.644531 190.371094 159.023438 C 191.367188 160.402344 191.863281 161.882812 191.863281 163.46875 C 191.863281 166.175781 190.507812 168.527344 187.804688 170.515625 C 185.632812 172.136719 183.078125 173.125 180.140625 173.492188 L 175.816406 173.589844 C 174.421875 173.480469 173.078125 173.242188 171.789062 172.855469 C 170 172.320312 168.441406 171.542969 167.113281 170.515625 C 164.507812 168.730469 163.132812 166.429688 162.976562 163.625 L 159.679688 165.464844 C 160.292969 168.582031 162.054688 171.207031 164.96875 173.355469 C 166.652344 174.582031 168.570312 175.527344 170.710938 176.1875 C 172.332031 176.691406 174.015625 176.992188 175.753906 177.113281 L 180.101562 177.042969 C 183.765625 176.652344 187.042969 175.417969 189.941406 173.351562 C 191.632812 172.109375 192.933594 170.664062 193.847656 169.011719 L 194.828125 167.78125 L 194.832031 167.78125 L 195.839844 166.515625 L 210.128906 148.542969 L 210.128906 191.261719 L 214.136719 191.261719 L 214.136719 137.0625 Z M 195.035156 161.082031 " fill-opacity="1" fill-rule="nonzero"/><path fill="#6e765d" d="M 193.796875 166.292969 C 189.90625 162.695312 186.019531 159.09375 182.132812 155.496094 C 179.972656 155.0625 177.8125 154.628906 175.652344 154.199219 C 180.980469 159.238281 186.308594 164.277344 191.636719 169.316406 C 192.351562 168.308594 193.074219 167.300781 193.796875 166.292969 Z M 193.796875 166.292969 " fill-opacity="1" fill-rule="nonzero"/><g clip-path="url(#b6d3bbcf36)"><path fill="url(#594616d5b3)" d="M 176.085938 161.109375 L 176.085938 191.34375 L 179.972656 191.34375 L 179.972656 161.109375 Z M 176.085938 161.109375 " fill-rule="nonzero"/></g></svg>