<svg xmlns="http://www.w3.org/2000/svg" xmlns:xlink="http://www.w3.org/1999/xlink" width="500" zoomAndPan="magnify" viewBox="0 0 375 374.999991" height="500" preserveAspectRatio="xMidYMid meet" version="1.0"><defs><clipPath id="129af82139"><path d="M 39.679688 187.257812 L 42.398438 187.257812 L 42.398438 208.425781 L 39.679688 208.425781 Z M 39.679688 187.257812 " clip-rule="nonzero"/></clipPath><linearGradient x1="505.377005" gradientTransform="matrix(0.302365, 0, 0, 0.302365, -116.097413, 41.032289)" y1="548.985568" x2="534.005564" gradientUnits="userSpaceOnUse" y2="488.235567" id="f116c9effd"><stop stop-opacity="1" stop-color="rgb(74.024963%, 55.274963%, 11.680603%)" offset="0"/><stop stop-opacity="1" stop-color="rgb(74.203491%, 55.551147%, 11.985779%)" offset="0.00390625"/><stop stop-opacity="1" stop-color="rgb(74.382019%, 55.827332%, 12.290955%)" offset="0.0078125"/><stop stop-opacity="1" stop-color="rgb(74.560547%, 56.103516%, 12.594604%)" offset="0.0117188"/><stop stop-opacity="1" stop-color="rgb(74.739075%, 56.3797%, 12.89978%)" offset="0.015625"/><stop stop-opacity="1" stop-color="rgb(74.916077%, 56.654358%, 13.20343%)" offset="0.0195313"/><stop stop-opacity="1" stop-color="rgb(75.094604%, 56.930542%, 13.508606%)" offset="0.0234375"/><stop stop-opacity="1" stop-color="rgb(75.273132%, 57.206726%, 13.812256%)" offset="0.0273437"/><stop stop-opacity="1" stop-color="rgb(75.45166%, 57.48291%, 14.117432%)" offset="0.03125"/><stop stop-opacity="1" stop-color="rgb(75.630188%, 57.759094%, 14.421082%)" offset="0.0351563"/><stop stop-opacity="1" stop-color="rgb(75.808716%, 58.035278%, 14.726257%)" offset="0.0390625"/><stop stop-opacity="1" stop-color="rgb(75.987244%, 58.309937%, 15.031433%)" offset="0.0429687"/><stop stop-opacity="1" stop-color="rgb(76.165771%, 58.586121%, 15.336609%)" offset="0.046875"/><stop stop-opacity="1" stop-color="rgb(76.344299%, 58.862305%, 15.640259%)" offset="0.0507812"/><stop stop-opacity="1" stop-color="rgb(76.522827%, 59.138489%, 15.945435%)" offset="0.0546875"/><stop stop-opacity="1" stop-color="rgb(76.699829%, 59.414673%, 16.249084%)" offset="0.0585938"/><stop stop-opacity="1" stop-color="rgb(76.878357%, 59.690857%, 16.55426%)" offset="0.0625"/><stop stop-opacity="1" stop-color="rgb(77.056885%, 59.967041%, 16.85791%)" offset="0.0664062"/><stop stop-opacity="1" stop-color="rgb(77.235413%, 60.243225%, 17.163086%)" offset="0.0703125"/><stop stop-opacity="1" stop-color="rgb(77.41394%, 60.517883%, 17.466736%)" offset="0.0742188"/><stop stop-opacity="1" stop-color="rgb(77.592468%, 60.794067%, 17.771912%)" offset="0.078125"/><stop stop-opacity="1" stop-color="rgb(77.770996%, 61.070251%, 18.077087%)" offset="0.0820313"/><stop stop-opacity="1" stop-color="rgb(77.949524%, 61.346436%, 18.382263%)" offset="0.0859375"/><stop stop-opacity="1" stop-color="rgb(78.128052%, 61.62262%, 18.685913%)" offset="0.0898437"/><stop stop-opacity="1" stop-color="rgb(78.30658%, 61.898804%, 18.991089%)" offset="0.09375"/><stop stop-opacity="1" stop-color="rgb(78.483582%, 62.173462%, 19.294739%)" offset="0.0976562"/><stop stop-opacity="1" stop-color="rgb(78.662109%, 62.449646%, 19.599915%)" offset="0.101562"/><stop stop-opacity="1" stop-color="rgb(78.840637%, 62.72583%, 19.903564%)" offset="0.105469"/><stop stop-opacity="1" stop-color="rgb(79.019165%, 63.002014%, 20.20874%)" offset="0.109375"/><stop stop-opacity="1" stop-color="rgb(79.197693%, 63.278198%, 20.513916%)" offset="0.113281"/><stop stop-opacity="1" stop-color="rgb(79.376221%, 63.554382%, 20.819092%)" offset="0.117188"/><stop stop-opacity="1" stop-color="rgb(79.550171%, 63.818359%, 21.110535%)" offset="0.121094"/><stop stop-opacity="1" stop-color="rgb(79.725647%, 64.083862%, 21.403503%)" offset="0.125"/><stop stop-opacity="1" stop-color="rgb(79.891968%, 64.329529%, 21.676636%)" offset="0.128906"/><stop stop-opacity="1" stop-color="rgb(80.059814%, 64.575195%, 21.949768%)" offset="0.132812"/><stop stop-opacity="1" stop-color="rgb(80.227661%, 64.820862%, 22.2229%)" offset="0.136719"/><stop stop-opacity="1" stop-color="rgb(80.395508%, 65.068054%, 22.496033%)" offset="0.140625"/><stop stop-opacity="1" stop-color="rgb(80.563354%, 65.313721%, 22.769165%)" offset="0.144531"/><stop stop-opacity="1" stop-color="rgb(80.731201%, 65.559387%, 23.042297%)" offset="0.148437"/><stop stop-opacity="1" stop-color="rgb(80.899048%, 65.805054%, 23.313904%)" offset="0.152344"/><stop stop-opacity="1" stop-color="rgb(81.066895%, 66.05072%, 23.587036%)" offset="0.15625"/><stop stop-opacity="1" stop-color="rgb(81.234741%, 66.296387%, 23.860168%)" offset="0.160156"/><stop stop-opacity="1" stop-color="rgb(81.402588%, 66.543579%, 24.133301%)" offset="0.164062"/><stop stop-opacity="1" stop-color="rgb(81.570435%, 66.789246%, 24.406433%)" offset="0.167969"/><stop stop-opacity="1" stop-color="rgb(81.738281%, 67.034912%, 24.679565%)" offset="0.171875"/><stop stop-opacity="1" stop-color="rgb(81.906128%, 67.280579%, 24.952698%)" offset="0.175781"/><stop stop-opacity="1" stop-color="rgb(82.073975%, 67.527771%, 25.22583%)" offset="0.179688"/><stop stop-opacity="1" stop-color="rgb(82.241821%, 67.773438%, 25.498962%)" offset="0.183594"/><stop stop-opacity="1" stop-color="rgb(82.409668%, 68.019104%, 25.772095%)" offset="0.1875"/><stop stop-opacity="1" stop-color="rgb(82.577515%, 68.264771%, 26.043701%)" offset="0.191406"/><stop stop-opacity="1" stop-color="rgb(82.745361%, 68.510437%, 26.316833%)" offset="0.195313"/><stop stop-opacity="1" stop-color="rgb(82.913208%, 68.756104%, 26.589966%)" offset="0.199219"/><stop stop-opacity="1" stop-color="rgb(83.081055%, 69.003296%, 26.863098%)" offset="0.203125"/><stop stop-opacity="1" stop-color="rgb(83.247375%, 69.248962%, 27.13623%)" offset="0.207031"/><stop stop-opacity="1" stop-color="rgb(83.415222%, 69.494629%, 27.409363%)" offset="0.210937"/><stop stop-opacity="1" stop-color="rgb(83.583069%, 69.740295%, 27.682495%)" offset="0.214844"/><stop stop-opacity="1" stop-color="rgb(83.750916%, 69.985962%, 27.955627%)" offset="0.21875"/><stop stop-opacity="1" stop-color="rgb(83.918762%, 70.231628%, 28.22876%)" offset="0.222656"/><stop stop-opacity="1" stop-color="rgb(84.086609%, 70.478821%, 28.501892%)" offset="0.226562"/><stop stop-opacity="1" stop-color="rgb(84.254456%, 70.724487%, 28.773499%)" offset="0.230469"/><stop stop-opacity="1" stop-color="rgb(84.422302%, 70.970154%, 29.046631%)" offset="0.234375"/><stop stop-opacity="1" stop-color="rgb(84.590149%, 71.21582%, 29.319763%)" offset="0.238281"/><stop stop-opacity="1" stop-color="rgb(84.757996%, 71.463013%, 29.592896%)" offset="0.242188"/><stop stop-opacity="1" stop-color="rgb(84.925842%, 71.708679%, 29.866028%)" offset="0.246094"/><stop stop-opacity="1" stop-color="rgb(85.093689%, 71.954346%, 30.13916%)" offset="0.25"/><stop stop-opacity="1" stop-color="rgb(85.261536%, 72.200012%, 30.412292%)" offset="0.253906"/><stop stop-opacity="1" stop-color="rgb(85.429382%, 72.445679%, 30.685425%)" offset="0.257812"/><stop stop-opacity="1" stop-color="rgb(85.597229%, 72.691345%, 30.958557%)" offset="0.261719"/><stop stop-opacity="1" stop-color="rgb(85.765076%, 72.938538%, 31.231689%)" offset="0.265625"/><stop stop-opacity="1" stop-color="rgb(85.932922%, 73.184204%, 31.503296%)" offset="0.269531"/><stop stop-opacity="1" stop-color="rgb(86.100769%, 73.429871%, 31.776428%)" offset="0.273438"/><stop stop-opacity="1" stop-color="rgb(86.26709%, 73.675537%, 32.049561%)" offset="0.277344"/><stop stop-opacity="1" stop-color="rgb(86.434937%, 73.922729%, 32.322693%)" offset="0.28125"/><stop stop-opacity="1" stop-color="rgb(86.602783%, 74.168396%, 32.595825%)" offset="0.285156"/><stop stop-opacity="1" stop-color="rgb(86.77063%, 74.414062%, 32.868958%)" offset="0.289063"/><stop stop-opacity="1" stop-color="rgb(86.938477%, 74.659729%, 33.14209%)" offset="0.292969"/><stop stop-opacity="1" stop-color="rgb(87.106323%, 74.905396%, 33.415222%)" offset="0.296875"/><stop stop-opacity="1" stop-color="rgb(87.27417%, 75.151062%, 33.686829%)" offset="0.300781"/><stop stop-opacity="1" stop-color="rgb(87.442017%, 75.398254%, 33.959961%)" offset="0.304687"/><stop stop-opacity="1" stop-color="rgb(87.609863%, 75.643921%, 34.233093%)" offset="0.308594"/><stop stop-opacity="1" stop-color="rgb(87.77771%, 75.889587%, 34.506226%)" offset="0.3125"/><stop stop-opacity="1" stop-color="rgb(87.945557%, 76.135254%, 34.779358%)" offset="0.316406"/><stop stop-opacity="1" stop-color="rgb(88.113403%, 76.382446%, 35.05249%)" offset="0.320312"/><stop stop-opacity="1" stop-color="rgb(88.28125%, 76.628113%, 35.325623%)" offset="0.324219"/><stop stop-opacity="1" stop-color="rgb(88.449097%, 76.873779%, 35.598755%)" offset="0.328125"/><stop stop-opacity="1" stop-color="rgb(88.616943%, 77.119446%, 35.871887%)" offset="0.332031"/><stop stop-opacity="1" stop-color="rgb(88.78479%, 77.365112%, 36.14502%)" offset="0.335938"/><stop stop-opacity="1" stop-color="rgb(88.952637%, 77.610779%, 36.416626%)" offset="0.339844"/><stop stop-opacity="1" stop-color="rgb(89.120483%, 77.857971%, 36.689758%)" offset="0.34375"/><stop stop-opacity="1" stop-color="rgb(89.286804%, 78.103638%, 36.962891%)" offset="0.347656"/><stop stop-opacity="1" stop-color="rgb(89.454651%, 78.349304%, 37.236023%)" offset="0.351562"/><stop stop-opacity="1" stop-color="rgb(89.622498%, 78.594971%, 37.509155%)" offset="0.355469"/><stop stop-opacity="1" stop-color="rgb(89.790344%, 78.840637%, 37.782288%)" offset="0.359375"/><stop stop-opacity="1" stop-color="rgb(89.958191%, 79.086304%, 38.05542%)" offset="0.363281"/><stop stop-opacity="1" stop-color="rgb(90.126038%, 79.333496%, 38.328552%)" offset="0.367188"/><stop stop-opacity="1" stop-color="rgb(90.293884%, 79.579163%, 38.601685%)" offset="0.371094"/><stop stop-opacity="1" stop-color="rgb(90.461731%, 79.824829%, 38.874817%)" offset="0.375"/><stop stop-opacity="1" stop-color="rgb(90.629578%, 80.070496%, 39.146423%)" offset="0.378906"/><stop stop-opacity="1" stop-color="rgb(90.797424%, 80.317688%, 39.419556%)" offset="0.382813"/><stop stop-opacity="1" stop-color="rgb(90.965271%, 80.563354%, 39.692688%)" offset="0.386719"/><stop stop-opacity="1" stop-color="rgb(91.133118%, 80.809021%, 39.96582%)" offset="0.390625"/><stop stop-opacity="1" stop-color="rgb(91.291809%, 81.04248%, 40.226746%)" offset="0.394531"/><stop stop-opacity="1" stop-color="rgb(91.4505%, 81.277466%, 40.487671%)" offset="0.398437"/><stop stop-opacity="1" stop-color="rgb(91.574097%, 81.466675%, 40.699768%)" offset="0.402344"/><stop stop-opacity="1" stop-color="rgb(91.697693%, 81.65741%, 40.913391%)" offset="0.40625"/><stop stop-opacity="1" stop-color="rgb(91.821289%, 81.846619%, 41.125488%)" offset="0.410156"/><stop stop-opacity="1" stop-color="rgb(91.944885%, 82.037354%, 41.339111%)" offset="0.414062"/><stop stop-opacity="1" stop-color="rgb(92.068481%, 82.226562%, 41.551208%)" offset="0.417969"/><stop stop-opacity="1" stop-color="rgb(92.193604%, 82.417297%, 41.764832%)" offset="0.421875"/><stop stop-opacity="1" stop-color="rgb(92.3172%, 82.606506%, 41.978455%)" offset="0.425781"/><stop stop-opacity="1" stop-color="rgb(92.440796%, 82.797241%, 42.192078%)" offset="0.429688"/><stop stop-opacity="1" stop-color="rgb(92.564392%, 82.98645%, 42.404175%)" offset="0.433594"/><stop stop-opacity="1" stop-color="rgb(92.687988%, 83.177185%, 42.617798%)" offset="0.4375"/><stop stop-opacity="1" stop-color="rgb(92.811584%, 83.366394%, 42.829895%)" offset="0.441406"/><stop stop-opacity="1" stop-color="rgb(92.935181%, 83.557129%, 43.043518%)" offset="0.445312"/><stop stop-opacity="1" stop-color="rgb(93.058777%, 83.746338%, 43.255615%)" offset="0.449219"/><stop stop-opacity="1" stop-color="rgb(93.183899%, 83.937073%, 43.469238%)" offset="0.453125"/><stop stop-opacity="1" stop-color="rgb(93.307495%, 84.126282%, 43.682861%)" offset="0.457031"/><stop stop-opacity="1" stop-color="rgb(93.431091%, 84.317017%, 43.896484%)" offset="0.460938"/><stop stop-opacity="1" stop-color="rgb(93.554688%, 84.507751%, 44.108582%)" offset="0.464844"/><stop stop-opacity="1" stop-color="rgb(93.678284%, 84.698486%, 44.322205%)" offset="0.46875"/><stop stop-opacity="1" stop-color="rgb(93.80188%, 84.887695%, 44.534302%)" offset="0.472656"/><stop stop-opacity="1" stop-color="rgb(93.925476%, 85.07843%, 44.747925%)" offset="0.476562"/><stop stop-opacity="1" stop-color="rgb(94.049072%, 85.267639%, 44.960022%)" offset="0.480469"/><stop stop-opacity="1" stop-color="rgb(94.174194%, 85.458374%, 45.173645%)" offset="0.484375"/><stop stop-opacity="1" stop-color="rgb(94.297791%, 85.647583%, 45.385742%)" offset="0.488281"/><stop stop-opacity="1" stop-color="rgb(94.421387%, 85.838318%, 45.599365%)" offset="0.492188"/><stop stop-opacity="1" stop-color="rgb(94.544983%, 86.027527%, 45.812988%)" offset="0.496094"/><stop stop-opacity="1" stop-color="rgb(94.668579%, 86.218262%, 46.026611%)" offset="0.5"/><stop stop-opacity="1" stop-color="rgb(94.792175%, 86.407471%, 46.238708%)" offset="0.503906"/><stop stop-opacity="1" stop-color="rgb(94.915771%, 86.598206%, 46.452332%)" offset="0.507812"/><stop stop-opacity="1" stop-color="rgb(95.039368%, 86.787415%, 46.664429%)" offset="0.511719"/><stop stop-opacity="1" stop-color="rgb(95.16449%, 86.978149%, 46.878052%)" offset="0.515625"/><stop stop-opacity="1" stop-color="rgb(95.288086%, 87.167358%, 47.090149%)" offset="0.519531"/><stop stop-opacity="1" stop-color="rgb(95.411682%, 87.358093%, 47.303772%)" offset="0.523438"/><stop stop-opacity="1" stop-color="rgb(95.535278%, 87.547302%, 47.515869%)" offset="0.527344"/><stop stop-opacity="1" stop-color="rgb(95.658875%, 87.738037%, 47.729492%)" offset="0.53125"/><stop stop-opacity="1" stop-color="rgb(95.532227%, 87.556458%, 47.581482%)" offset="0.539062"/><stop stop-opacity="1" stop-color="rgb(95.233154%, 87.121582%, 47.218323%)" offset="0.542969"/><stop stop-opacity="1" stop-color="rgb(95.059204%, 86.868286%, 47.001648%)" offset="0.546875"/><stop stop-opacity="1" stop-color="rgb(94.885254%, 86.61499%, 46.784973%)" offset="0.550781"/><stop stop-opacity="1" stop-color="rgb(94.711304%, 86.361694%, 46.568298%)" offset="0.554687"/><stop stop-opacity="1" stop-color="rgb(94.535828%, 86.108398%, 46.351624%)" offset="0.558594"/><stop stop-opacity="1" stop-color="rgb(94.361877%, 85.855103%, 46.134949%)" offset="0.5625"/><stop stop-opacity="1" stop-color="rgb(94.187927%, 85.601807%, 45.916748%)" offset="0.566406"/><stop stop-opacity="1" stop-color="rgb(94.013977%, 85.348511%, 45.700073%)" offset="0.570312"/><stop stop-opacity="1" stop-color="rgb(93.840027%, 85.095215%, 45.483398%)" offset="0.574219"/><stop stop-opacity="1" stop-color="rgb(93.666077%, 84.841919%, 45.266724%)" offset="0.578125"/><stop stop-opacity="1" stop-color="rgb(93.490601%, 84.588623%, 45.050049%)" offset="0.582031"/><stop stop-opacity="1" stop-color="rgb(93.31665%, 84.335327%, 44.833374%)" offset="0.585938"/><stop stop-opacity="1" stop-color="rgb(93.1427%, 84.082031%, 44.615173%)" offset="0.589844"/><stop stop-opacity="1" stop-color="rgb(92.96875%, 83.828735%, 44.398499%)" offset="0.59375"/><stop stop-opacity="1" stop-color="rgb(92.7948%, 83.575439%, 44.181824%)" offset="0.597656"/><stop stop-opacity="1" stop-color="rgb(92.62085%, 83.322144%, 43.965149%)" offset="0.601562"/><stop stop-opacity="1" stop-color="rgb(92.446899%, 83.067322%, 43.748474%)" offset="0.605469"/><stop stop-opacity="1" stop-color="rgb(92.272949%, 82.814026%, 43.531799%)" offset="0.609375"/><stop stop-opacity="1" stop-color="rgb(92.097473%, 82.56073%, 43.313599%)" offset="0.613281"/><stop stop-opacity="1" stop-color="rgb(91.923523%, 82.307434%, 43.096924%)" offset="0.617188"/><stop stop-opacity="1" stop-color="rgb(91.749573%, 82.054138%, 42.880249%)" offset="0.621094"/><stop stop-opacity="1" stop-color="rgb(91.575623%, 81.800842%, 42.663574%)" offset="0.625"/><stop stop-opacity="1" stop-color="rgb(91.401672%, 81.547546%, 42.446899%)" offset="0.628906"/><stop stop-opacity="1" stop-color="rgb(91.227722%, 81.29425%, 42.230225%)" offset="0.632812"/><stop stop-opacity="1" stop-color="rgb(91.053772%, 81.040955%, 42.012024%)" offset="0.636719"/><stop stop-opacity="1" stop-color="rgb(90.879822%, 80.787659%, 41.795349%)" offset="0.640625"/><stop stop-opacity="1" stop-color="rgb(90.704346%, 80.534363%, 41.578674%)" offset="0.644531"/><stop stop-opacity="1" stop-color="rgb(90.530396%, 80.281067%, 41.362%)" offset="0.648437"/><stop stop-opacity="1" stop-color="rgb(90.356445%, 80.027771%, 41.145325%)" offset="0.652344"/><stop stop-opacity="1" stop-color="rgb(90.182495%, 79.774475%, 40.92865%)" offset="0.65625"/><stop stop-opacity="1" stop-color="rgb(90.008545%, 79.521179%, 40.710449%)" offset="0.660156"/><stop stop-opacity="1" stop-color="rgb(89.834595%, 79.267883%, 40.493774%)" offset="0.664062"/><stop stop-opacity="1" stop-color="rgb(89.659119%, 79.014587%, 40.2771%)" offset="0.667969"/><stop stop-opacity="1" stop-color="rgb(89.485168%, 78.761292%, 40.060425%)" offset="0.671875"/><stop stop-opacity="1" stop-color="rgb(89.311218%, 78.507996%, 39.84375%)" offset="0.675781"/><stop stop-opacity="1" stop-color="rgb(89.137268%, 78.2547%, 39.627075%)" offset="0.679688"/><stop stop-opacity="1" stop-color="rgb(88.963318%, 78.001404%, 39.4104%)" offset="0.683594"/><stop stop-opacity="1" stop-color="rgb(88.789368%, 77.748108%, 39.193726%)" offset="0.6875"/><stop stop-opacity="1" stop-color="rgb(88.615417%, 77.494812%, 38.975525%)" offset="0.691406"/><stop stop-opacity="1" stop-color="rgb(88.441467%, 77.241516%, 38.75885%)" offset="0.695312"/><stop stop-opacity="1" stop-color="rgb(88.265991%, 76.98822%, 38.542175%)" offset="0.699219"/><stop stop-opacity="1" stop-color="rgb(88.092041%, 76.734924%, 38.3255%)" offset="0.703125"/><stop stop-opacity="1" stop-color="rgb(87.918091%, 76.481628%, 38.108826%)" offset="0.707031"/><stop stop-opacity="1" stop-color="rgb(87.744141%, 76.228333%, 37.892151%)" offset="0.710938"/><stop stop-opacity="1" stop-color="rgb(87.57019%, 75.975037%, 37.67395%)" offset="0.714844"/><stop stop-opacity="1" stop-color="rgb(87.39624%, 75.721741%, 37.457275%)" offset="0.71875"/><stop stop-opacity="1" stop-color="rgb(87.220764%, 75.468445%, 37.240601%)" offset="0.722656"/><stop stop-opacity="1" stop-color="rgb(87.046814%, 75.215149%, 37.023926%)" offset="0.726562"/><stop stop-opacity="1" stop-color="rgb(86.872864%, 74.961853%, 36.807251%)" offset="0.730469"/><stop stop-opacity="1" stop-color="rgb(86.698914%, 74.708557%, 36.590576%)" offset="0.734375"/><stop stop-opacity="1" stop-color="rgb(86.524963%, 74.455261%, 36.372375%)" offset="0.738281"/><stop stop-opacity="1" stop-color="rgb(86.351013%, 74.201965%, 36.155701%)" offset="0.742187"/><stop stop-opacity="1" stop-color="rgb(86.177063%, 73.948669%, 35.939026%)" offset="0.746094"/><stop stop-opacity="1" stop-color="rgb(86.003113%, 73.695374%, 35.722351%)" offset="0.75"/><stop stop-opacity="1" stop-color="rgb(85.827637%, 73.442078%, 35.505676%)" offset="0.753906"/><stop stop-opacity="1" stop-color="rgb(85.653687%, 73.188782%, 35.289001%)" offset="0.757812"/><stop stop-opacity="1" stop-color="rgb(85.479736%, 72.935486%, 35.070801%)" offset="0.761719"/><stop stop-opacity="1" stop-color="rgb(85.305786%, 72.68219%, 34.854126%)" offset="0.765625"/><stop stop-opacity="1" stop-color="rgb(85.131836%, 72.428894%, 34.637451%)" offset="0.769531"/><stop stop-opacity="1" stop-color="rgb(84.957886%, 72.175598%, 34.420776%)" offset="0.773438"/><stop stop-opacity="1" stop-color="rgb(84.786987%, 71.92688%, 34.210205%)" offset="0.777344"/><stop stop-opacity="1" stop-color="rgb(84.617615%, 71.679688%, 33.999634%)" offset="0.78125"/><stop stop-opacity="1" stop-color="rgb(84.458923%, 71.446228%, 33.807373%)" offset="0.785156"/><stop stop-opacity="1" stop-color="rgb(84.301758%, 71.214294%, 33.616638%)" offset="0.789062"/><stop stop-opacity="1" stop-color="rgb(84.143066%, 70.982361%, 33.424377%)" offset="0.792969"/><stop stop-opacity="1" stop-color="rgb(83.984375%, 70.750427%, 33.232117%)" offset="0.796875"/><stop stop-opacity="1" stop-color="rgb(83.825684%, 70.518494%, 33.039856%)" offset="0.800781"/><stop stop-opacity="1" stop-color="rgb(83.668518%, 70.28656%, 32.849121%)" offset="0.804688"/><stop stop-opacity="1" stop-color="rgb(83.509827%, 70.053101%, 32.65686%)" offset="0.808594"/><stop stop-opacity="1" stop-color="rgb(83.352661%, 69.821167%, 32.466125%)" offset="0.8125"/><stop stop-opacity="1" stop-color="rgb(83.19397%, 69.589233%, 32.273865%)" offset="0.816406"/><stop stop-opacity="1" stop-color="rgb(83.035278%, 69.3573%, 32.081604%)" offset="0.820312"/><stop stop-opacity="1" stop-color="rgb(82.876587%, 69.12384%, 31.889343%)" offset="0.824219"/><stop stop-opacity="1" stop-color="rgb(82.719421%, 68.891907%, 31.698608%)" offset="0.828125"/><stop stop-opacity="1" stop-color="rgb(82.56073%, 68.659973%, 31.506348%)" offset="0.832031"/><stop stop-opacity="1" stop-color="rgb(82.403564%, 68.42804%, 31.314087%)" offset="0.835937"/><stop stop-opacity="1" stop-color="rgb(82.244873%, 68.196106%, 31.121826%)" offset="0.839844"/><stop stop-opacity="1" stop-color="rgb(82.086182%, 67.964172%, 30.931091%)" offset="0.84375"/><stop stop-opacity="1" stop-color="rgb(81.92749%, 67.730713%, 30.738831%)" offset="0.847656"/><stop stop-opacity="1" stop-color="rgb(81.770325%, 67.498779%, 30.54657%)" offset="0.851562"/><stop stop-opacity="1" stop-color="rgb(81.611633%, 67.266846%, 30.354309%)" offset="0.855469"/><stop stop-opacity="1" stop-color="rgb(81.454468%, 67.034912%, 30.163574%)" offset="0.859375"/><stop stop-opacity="1" stop-color="rgb(81.295776%, 66.802979%, 29.971313%)" offset="0.863281"/><stop stop-opacity="1" stop-color="rgb(81.137085%, 66.571045%, 29.779053%)" offset="0.867188"/><stop stop-opacity="1" stop-color="rgb(80.978394%, 66.337585%, 29.586792%)" offset="0.871094"/><stop stop-opacity="1" stop-color="rgb(80.821228%, 66.105652%, 29.396057%)" offset="0.875"/><stop stop-opacity="1" stop-color="rgb(80.662537%, 65.873718%, 29.203796%)" offset="0.878906"/><stop stop-opacity="1" stop-color="rgb(80.505371%, 65.641785%, 29.013062%)" offset="0.882812"/><stop stop-opacity="1" stop-color="rgb(80.34668%, 65.408325%, 28.820801%)" offset="0.886719"/><stop stop-opacity="1" stop-color="rgb(80.187988%, 65.176392%, 28.62854%)" offset="0.890625"/><stop stop-opacity="1" stop-color="rgb(80.029297%, 64.944458%, 28.436279%)" offset="0.894531"/><stop stop-opacity="1" stop-color="rgb(79.872131%, 64.712524%, 28.245544%)" offset="0.898438"/><stop stop-opacity="1" stop-color="rgb(79.71344%, 64.480591%, 28.053284%)" offset="0.902344"/><stop stop-opacity="1" stop-color="rgb(79.556274%, 64.248657%, 27.861023%)" offset="0.90625"/><stop stop-opacity="1" stop-color="rgb(79.397583%, 64.015198%, 27.668762%)" offset="0.910156"/><stop stop-opacity="1" stop-color="rgb(79.238892%, 63.783264%, 27.478027%)" offset="0.914062"/><stop stop-opacity="1" stop-color="rgb(79.0802%, 63.551331%, 27.285767%)" offset="0.917969"/><stop stop-opacity="1" stop-color="rgb(78.923035%, 63.319397%, 27.093506%)" offset="0.921875"/><stop stop-opacity="1" stop-color="rgb(78.764343%, 63.087463%, 26.901245%)" offset="0.925781"/><stop stop-opacity="1" stop-color="rgb(78.607178%, 62.85553%, 26.71051%)" offset="0.929687"/><stop stop-opacity="1" stop-color="rgb(78.448486%, 62.62207%, 26.51825%)" offset="0.933594"/><stop stop-opacity="1" stop-color="rgb(78.289795%, 62.390137%, 26.327515%)" offset="0.9375"/><stop stop-opacity="1" stop-color="rgb(78.131104%, 62.158203%, 26.135254%)" offset="0.941406"/><stop stop-opacity="1" stop-color="rgb(77.973938%, 61.92627%, 25.942993%)" offset="0.945312"/><stop stop-opacity="1" stop-color="rgb(77.815247%, 61.69281%, 25.750732%)" offset="0.949219"/><stop stop-opacity="1" stop-color="rgb(77.658081%, 61.460876%, 25.559998%)" offset="0.953125"/><stop stop-opacity="1" stop-color="rgb(77.49939%, 61.228943%, 25.367737%)" offset="0.957031"/><stop stop-opacity="1" stop-color="rgb(77.340698%, 60.997009%, 25.175476%)" offset="0.960938"/><stop stop-opacity="1" stop-color="rgb(77.182007%, 60.765076%, 24.983215%)" offset="0.964844"/><stop stop-opacity="1" stop-color="rgb(77.024841%, 60.533142%, 24.79248%)" offset="0.96875"/><stop stop-opacity="1" stop-color="rgb(76.86615%, 60.299683%, 24.60022%)" offset="0.972656"/><stop stop-opacity="1" stop-color="rgb(76.708984%, 60.067749%, 24.407959%)" offset="0.976563"/><stop stop-opacity="1" stop-color="rgb(76.550293%, 59.835815%, 24.215698%)" offset="0.980469"/><stop stop-opacity="1" stop-color="rgb(76.391602%, 59.603882%, 24.024963%)" offset="0.984375"/><stop stop-opacity="1" stop-color="rgb(76.23291%, 59.371948%, 23.832703%)" offset="0.988281"/><stop stop-opacity="1" stop-color="rgb(76.075745%, 59.140015%, 23.640442%)" offset="0.992188"/><stop stop-opacity="1" stop-color="rgb(75.917053%, 58.906555%, 23.448181%)" offset="0.996094"/><stop stop-opacity="1" stop-color="rgb(75.759888%, 58.674622%, 23.257446%)" offset="1"/></linearGradient></defs><rect x="-37.5" width="450" fill="#ffffff" y="-37.499999" height="449.999989" fill-opacity="1"/><rect x="-37.5" width="450" fill="#6e765d" y="-37.499999" height="449.999989" fill-opacity="1"/><path fill="#efd3d2" d="M 92.769531 177.957031 C 93.929688 179.027344 94.226562 180.320312 94.226562 181.492188 C 94.226562 184.699219 92.132812 186.914062 88.796875 186.914062 C 87.378906 186.914062 85.027344 186.511719 83.890625 185.328125 C 83.675781 184.433594 83.785156 182.589844 84.226562 181.289062 L 84.484375 181.289062 C 84.191406 184.273438 86.082031 186.1875 88.664062 186.042969 C 90.78125 185.925781 92.550781 184.476562 92.550781 182.160156 C 92.550781 181.023438 92.140625 180.128906 91.414062 179.457031 L 85.859375 174.300781 C 84.683594 173.230469 84.289062 171.832031 84.289062 170.707031 C 84.289062 168.261719 86.078125 165.808594 89.382812 165.808594 C 90.144531 165.808594 91.097656 165.9375 91.871094 166.101562 L 93.019531 166.101562 L 93.019531 169.660156 L 92.742188 169.660156 C 92.75 167.804688 91.285156 166.671875 89.480469 166.671875 C 87.34375 166.671875 85.914062 168.242188 85.914062 170.007812 C 85.914062 170.761719 86.164062 171.835938 87.078125 172.679688 Z M 92.769531 177.957031 " fill-opacity="1" fill-rule="nonzero"/><path fill="#efd3d2" d="M 114.050781 184.394531 C 114.636719 185.683594 115.710938 186.222656 116.597656 186.222656 L 116.839844 186.222656 L 116.839844 186.511719 L 110.3125 186.511719 L 110.3125 186.222656 L 110.570312 186.222656 C 111.316406 186.222656 112.09375 185.558594 111.671875 184.402344 L 109.820312 179.464844 L 102.007812 179.464844 L 100.066406 184.417969 C 99.65625 185.566406 100.429688 186.222656 101.175781 186.222656 L 101.429688 186.222656 L 101.429688 186.511719 L 95.59375 186.511719 L 95.59375 186.222656 L 95.855469 186.222656 C 96.734375 186.222656 97.808594 185.6875 98.394531 184.398438 L 104.96875 168.792969 C 104.96875 168.792969 106.042969 166.445312 106.042969 165.808594 L 106.300781 165.808594 Z M 109.488281 178.59375 L 105.992188 169.289062 L 102.34375 178.59375 Z M 109.488281 178.59375 " fill-opacity="1" fill-rule="nonzero"/><path fill="#efd3d2" d="M 140.515625 184.402344 C 140.664062 185.546875 141.589844 186.21875 142.628906 186.21875 L 143.089844 186.21875 L 143.089844 186.507812 L 136.785156 186.507812 L 136.785156 186.230469 L 137.234375 186.230469 C 137.859375 186.230469 138.425781 185.617188 138.367188 184.992188 L 137.050781 170.402344 L 130.960938 183.953125 C 130.960938 183.953125 130.152344 185.714844 129.964844 186.914062 L 129.691406 186.914062 L 122.277344 170.828125 L 121.007812 184.996094 C 120.949219 185.621094 121.511719 186.230469 122.136719 186.234375 L 122.589844 186.234375 L 122.589844 186.511719 L 116.972656 186.511719 L 116.972656 186.222656 L 117.4375 186.222656 C 118.472656 186.222656 119.398438 185.550781 119.546875 184.40625 L 121.730469 165.808594 L 122 165.808594 L 130.09375 183.304688 L 138.003906 165.816406 L 138.269531 165.816406 Z M 140.515625 184.402344 " fill-opacity="1" fill-rule="nonzero"/><path fill="#efd3d2" d="M 162.414062 166.210938 L 162.414062 166.5 L 162.007812 166.5 C 160.800781 166.5 159.71875 167.296875 159.101562 168.183594 L 153.367188 177.449219 L 153.367188 184.390625 C 153.386719 185.402344 154.207031 186.214844 155.222656 186.214844 L 155.589844 186.214844 L 155.59375 186.503906 L 149.253906 186.503906 L 149.257812 186.214844 L 149.625 186.214844 C 150.632812 186.214844 151.453125 185.410156 151.480469 184.410156 L 151.480469 177.421875 L 145.960938 168.191406 C 145.402344 167.296875 144.261719 166.496094 143.046875 166.496094 L 142.652344 166.496094 L 142.652344 166.210938 L 149.785156 166.210938 L 149.785156 166.5 L 149.421875 166.5 C 148.570312 166.5 147.980469 167.480469 148.40625 168.300781 L 152.75 176.417969 L 157.371094 168.296875 L 157.386719 168.273438 C 157.839844 167.457031 157.136719 166.503906 156.355469 166.503906 L 155.988281 166.503906 L 155.988281 166.210938 Z M 162.414062 166.210938 " fill-opacity="1" fill-rule="nonzero"/><path fill="#efd3d2" d="M 193.34375 184.402344 C 193.492188 185.546875 194.417969 186.21875 195.457031 186.21875 L 195.917969 186.21875 L 195.917969 186.507812 L 189.617188 186.507812 L 189.617188 186.230469 L 190.066406 186.230469 C 190.691406 186.230469 191.257812 185.617188 191.199219 184.992188 L 189.882812 170.402344 L 183.792969 183.953125 C 183.792969 183.953125 182.984375 185.714844 182.796875 186.914062 L 182.523438 186.914062 L 175.109375 170.828125 L 173.839844 184.996094 C 173.78125 185.621094 174.34375 186.230469 174.96875 186.234375 L 175.421875 186.234375 L 175.421875 186.511719 L 169.804688 186.511719 L 169.804688 186.222656 L 170.269531 186.222656 C 171.304688 186.222656 172.230469 185.550781 172.378906 184.40625 L 174.5625 165.808594 L 174.832031 165.808594 L 182.925781 183.304688 L 190.835938 165.816406 L 191.101562 165.816406 Z M 193.34375 184.402344 " fill-opacity="1" fill-rule="nonzero"/><path fill="#efd3d2" d="M 214.519531 184.394531 C 215.105469 185.683594 216.175781 186.222656 217.066406 186.222656 L 217.308594 186.222656 L 217.308594 186.511719 L 210.777344 186.511719 L 210.777344 186.222656 L 211.035156 186.222656 C 211.78125 186.222656 212.558594 185.558594 212.136719 184.402344 L 210.285156 179.464844 L 202.472656 179.464844 L 200.53125 184.417969 C 200.121094 185.566406 200.894531 186.222656 201.636719 186.222656 L 201.894531 186.222656 L 201.894531 186.511719 L 196.058594 186.511719 L 196.058594 186.222656 L 196.320312 186.222656 C 197.199219 186.222656 198.273438 185.6875 198.859375 184.398438 L 205.433594 168.792969 C 205.433594 168.792969 206.507812 166.445312 206.507812 165.808594 L 206.765625 165.808594 Z M 209.957031 178.59375 L 206.460938 169.289062 L 202.8125 178.59375 Z M 209.957031 178.59375 " fill-opacity="1" fill-rule="nonzero"/><path fill="#efd3d2" d="M 236.574219 178.046875 L 236.21875 182.59375 C 234.691406 185.09375 232.097656 186.914062 228.074219 186.914062 C 222.007812 186.886719 217.71875 182.738281 217.71875 176.328125 C 217.71875 170.039062 221.863281 165.804688 228.246094 165.804688 C 231.089844 165.804688 233.40625 166.644531 235.105469 167.761719 L 235.6875 171.855469 L 235.445312 171.855469 C 234.566406 168.472656 231.722656 166.671875 228.238281 166.671875 C 223.140625 166.671875 219.894531 170.527344 219.894531 176.296875 C 219.894531 182.125 223.199219 185.925781 228.074219 186.039062 C 232.191406 186.03125 235.675781 183.980469 236.332031 178.042969 L 236.574219 178.042969 Z M 236.574219 178.046875 " fill-opacity="1" fill-rule="nonzero"/><path fill="#efd3d2" d="M 253.503906 186.511719 L 253.507812 186.222656 L 253.875 186.222656 C 254.882812 186.222656 255.703125 185.417969 255.730469 184.417969 L 255.730469 176.910156 L 243.863281 176.910156 L 243.863281 184.398438 C 243.882812 185.410156 244.707031 186.222656 245.722656 186.222656 L 246.089844 186.222656 L 246.09375 186.511719 L 239.746094 186.511719 L 239.75 186.222656 L 240.121094 186.222656 C 241.132812 186.222656 241.957031 185.410156 241.976562 184.398438 L 241.976562 168.3125 C 241.949219 167.308594 241.132812 166.5 240.121094 166.5 L 239.75 166.5 L 239.746094 166.210938 L 246.089844 166.210938 L 246.085938 166.5 L 245.71875 166.5 C 244.710938 166.5 243.890625 167.304688 243.859375 168.304688 L 243.859375 176.042969 L 255.726562 176.042969 L 255.726562 168.289062 C 255.6875 167.292969 254.875 166.5 253.871094 166.5 L 253.503906 166.5 L 253.5 166.210938 L 259.839844 166.210938 L 259.835938 166.5 L 259.46875 166.5 C 258.453125 166.5 257.628906 167.3125 257.613281 168.324219 L 257.613281 184.398438 C 257.628906 185.410156 258.453125 186.222656 259.46875 186.222656 L 259.835938 186.222656 L 259.839844 186.511719 Z M 253.503906 186.511719 " fill-opacity="1" fill-rule="nonzero"/><path fill="#efd3d2" d="M 279.757812 184.394531 C 280.339844 185.683594 281.414062 186.222656 282.300781 186.222656 L 282.542969 186.222656 L 282.542969 186.511719 L 276.015625 186.511719 L 276.015625 186.222656 L 276.273438 186.222656 C 277.019531 186.222656 277.796875 185.558594 277.375 184.402344 L 275.519531 179.464844 L 267.710938 179.464844 L 265.765625 184.417969 C 265.359375 185.566406 266.132812 186.222656 266.875 186.222656 L 267.132812 186.222656 L 267.132812 186.511719 L 261.296875 186.511719 L 261.296875 186.222656 L 261.554688 186.222656 C 262.4375 186.222656 263.507812 185.6875 264.09375 184.398438 L 270.671875 168.792969 C 270.671875 168.792969 271.742188 166.445312 271.742188 165.808594 L 272.003906 165.808594 Z M 275.191406 178.59375 L 271.695312 169.289062 L 268.050781 178.59375 Z M 275.191406 178.59375 " fill-opacity="1" fill-rule="nonzero"/><path fill="#efd3d2" d="M 293.78125 166.214844 C 299.976562 166.214844 304.199219 170.277344 304.199219 176.371094 C 304.199219 182.449219 299.976562 186.511719 293.78125 186.511719 L 283.96875 186.511719 L 283.972656 186.222656 L 284.339844 186.222656 C 285.355469 186.222656 286.171875 185.410156 286.195312 184.402344 L 286.195312 168.160156 C 286.195312 167.230469 285.308594 166.503906 284.351562 166.503906 L 283.980469 166.503906 L 283.976562 166.214844 Z M 288.085938 185.628906 L 293.78125 185.628906 C 298.75 185.628906 302.019531 181.925781 302.019531 176.375 C 302.019531 170.800781 298.722656 167.089844 293.78125 167.089844 L 288.085938 167.089844 Z M 288.085938 185.628906 " fill-opacity="1" fill-rule="nonzero"/><path fill="#efd3d2" d="M 328.496094 176.359375 C 328.496094 182.691406 324.242188 186.914062 318.074219 186.914062 C 311.910156 186.914062 307.652344 182.691406 307.652344 176.359375 C 307.652344 170.023438 311.910156 165.804688 318.074219 165.804688 C 324.242188 165.808594 328.496094 170.027344 328.496094 176.359375 Z M 326.277344 176.359375 C 326.277344 170.546875 322.996094 166.671875 318.078125 166.671875 C 313.160156 166.671875 309.882812 170.546875 309.882812 176.359375 C 309.882812 182.167969 313.160156 186.042969 318.078125 186.042969 C 322.996094 186.042969 326.277344 182.171875 326.277344 176.359375 Z M 326.277344 176.359375 " fill-opacity="1" fill-rule="nonzero"/><path fill="#d7d8d3" d="M 154.277344 203.085938 L 154.261719 195.101562 L 157.113281 195.101562 C 157.578125 195.101562 158.011719 195.203125 158.410156 195.40625 C 158.804688 195.613281 159.121094 195.886719 159.355469 196.230469 C 159.589844 196.574219 159.703125 196.953125 159.703125 197.363281 C 159.703125 197.761719 159.589844 198.136719 159.355469 198.484375 C 159.121094 198.832031 158.804688 199.109375 158.410156 199.316406 C 158.011719 199.519531 157.578125 199.621094 157.113281 199.621094 L 154.828125 199.621094 L 154.828125 203.085938 Z M 154.828125 199.042969 L 157.117188 199.042969 C 157.484375 199.042969 157.824219 198.96875 158.132812 198.816406 C 158.445312 198.664062 158.695312 198.460938 158.878906 198.203125 C 159.0625 197.945312 159.15625 197.664062 159.15625 197.363281 C 159.15625 197.050781 159.066406 196.765625 158.878906 196.507812 C 158.695312 196.253906 158.445312 196.046875 158.132812 195.894531 C 157.824219 195.742188 157.484375 195.667969 157.117188 195.667969 L 154.820312 195.667969 Z M 154.828125 199.042969 " fill-opacity="1" fill-rule="nonzero"/><path fill="#d7d8d3" d="M 170.507812 199.996094 C 170.71875 200.300781 170.824219 200.628906 170.824219 200.984375 C 170.824219 201.289062 170.75 201.574219 170.605469 201.851562 C 170.457031 202.125 170.242188 202.363281 169.964844 202.570312 C 169.390625 202.976562 168.722656 203.183594 167.964844 203.183594 C 167.589844 203.183594 167.226562 203.128906 166.882812 203.023438 C 166.542969 202.917969 166.234375 202.769531 165.964844 202.570312 C 165.496094 202.226562 165.210938 201.804688 165.113281 201.304688 L 165.640625 201.007812 C 165.667969 201.460938 165.886719 201.828125 166.304688 202.113281 C 166.519531 202.277344 166.769531 202.402344 167.058594 202.488281 C 167.34375 202.578125 167.644531 202.621094 167.96875 202.621094 C 168.621094 202.621094 169.171875 202.453125 169.625 202.117188 C 170.058594 201.800781 170.273438 201.421875 170.273438 200.988281 C 170.273438 200.734375 170.195312 200.496094 170.035156 200.277344 C 169.878906 200.054688 169.652344 199.867188 169.367188 199.710938 C 169.097656 199.570312 168.613281 199.464844 167.921875 199.378906 C 167.863281 199.375 167.65625 199.339844 167.300781 199.28125 C 166.941406 199.226562 166.636719 199.136719 166.386719 199.011719 C 165.984375 198.816406 165.671875 198.558594 165.441406 198.230469 C 165.207031 197.90625 165.097656 197.558594 165.097656 197.179688 C 165.097656 196.878906 165.171875 196.59375 165.324219 196.328125 C 165.476562 196.0625 165.6875 195.828125 165.96875 195.621094 C 166.242188 195.425781 166.546875 195.273438 166.890625 195.167969 C 167.234375 195.058594 167.59375 195.007812 167.972656 195.007812 C 168.734375 195.007812 169.402344 195.214844 169.972656 195.621094 C 170.449219 195.980469 170.726562 196.402344 170.804688 196.875 L 170.277344 197.171875 C 170.269531 196.964844 170.210938 196.769531 170.101562 196.582031 C 169.988281 196.394531 169.835938 196.21875 169.628906 196.066406 C 169.410156 195.902344 169.152344 195.777344 168.867188 195.691406 C 168.582031 195.601562 168.28125 195.558594 167.972656 195.558594 C 167.660156 195.558594 167.355469 195.601562 167.066406 195.691406 C 166.777344 195.777344 166.527344 195.898438 166.3125 196.066406 C 166.101562 196.21875 165.9375 196.394531 165.824219 196.589844 C 165.707031 196.78125 165.648438 196.980469 165.648438 197.183594 C 165.648438 197.4375 165.742188 197.691406 165.929688 197.941406 C 166.117188 198.1875 166.351562 198.382812 166.632812 198.523438 C 166.804688 198.609375 166.992188 198.664062 167.203125 198.703125 C 167.410156 198.738281 167.679688 198.777344 168.007812 198.816406 C 168.066406 198.824219 168.210938 198.847656 168.4375 198.878906 C 168.664062 198.910156 168.886719 198.957031 169.101562 199.015625 C 169.3125 199.074219 169.496094 199.140625 169.644531 199.226562 C 170.007812 199.425781 170.300781 199.6875 170.507812 199.996094 Z M 170.507812 199.996094 " fill-opacity="1" fill-rule="nonzero"/><path fill="#d7d8d3" d="M 176.726562 195.101562 L 177.28125 195.101562 L 177.28125 203.085938 L 176.726562 203.085938 Z M 176.726562 195.101562 " fill-opacity="1" fill-rule="nonzero"/><path fill="#d7d8d3" d="M 187.007812 203.171875 C 186.28125 203.171875 185.605469 202.988281 184.984375 202.621094 C 184.363281 202.25 183.871094 201.753906 183.511719 201.128906 C 183.148438 200.5 182.96875 199.820312 182.96875 199.085938 C 182.96875 198.347656 183.148438 197.667969 183.511719 197.042969 C 183.871094 196.421875 184.363281 195.925781 184.984375 195.554688 C 185.605469 195.1875 186.28125 195.003906 187.007812 195.003906 C 187.578125 195.003906 188.117188 195.121094 188.636719 195.355469 C 189.15625 195.589844 189.613281 195.917969 190.007812 196.34375 L 189.578125 196.722656 C 189.25 196.355469 188.863281 196.070312 188.417969 195.863281 C 187.96875 195.65625 187.503906 195.554688 187.007812 195.554688 C 186.378906 195.554688 185.796875 195.714844 185.265625 196.027344 C 184.734375 196.34375 184.308594 196.773438 183.992188 197.3125 C 183.679688 197.851562 183.519531 198.441406 183.519531 199.082031 C 183.519531 199.71875 183.679688 200.308594 183.992188 200.851562 C 184.308594 201.390625 184.734375 201.816406 185.265625 202.132812 C 185.796875 202.445312 186.378906 202.605469 187.007812 202.605469 C 187.53125 202.605469 188.03125 202.488281 188.5 202.261719 C 188.96875 202.035156 189.375 201.714844 189.710938 201.304688 L 190.152344 201.648438 C 189.765625 202.132812 189.300781 202.507812 188.75 202.769531 C 188.203125 203.039062 187.625 203.171875 187.007812 203.171875 Z M 187.007812 203.171875 " fill-opacity="1" fill-rule="nonzero"/><path fill="#d7d8d3" d="M 199.230469 203.171875 C 198.5 203.171875 197.824219 202.992188 197.203125 202.625 C 196.582031 202.261719 196.089844 201.765625 195.730469 201.140625 C 195.371094 200.515625 195.1875 199.832031 195.1875 199.09375 C 195.1875 198.359375 195.371094 197.675781 195.730469 197.050781 C 196.089844 196.425781 196.582031 195.929688 197.203125 195.5625 C 197.824219 195.199219 198.5 195.019531 199.230469 195.019531 C 199.960938 195.019531 200.632812 195.199219 201.253906 195.5625 C 201.875 195.929688 202.367188 196.421875 202.730469 197.050781 C 203.089844 197.675781 203.269531 198.359375 203.269531 199.09375 C 203.269531 199.832031 203.089844 200.515625 202.730469 201.140625 C 202.367188 201.765625 201.875 202.261719 201.253906 202.625 C 200.632812 202.988281 199.960938 203.171875 199.230469 203.171875 Z M 199.230469 195.582031 C 198.597656 195.582031 198.015625 195.742188 197.484375 196.054688 C 196.953125 196.367188 196.527344 196.792969 196.214844 197.332031 C 195.898438 197.871094 195.742188 198.457031 195.742188 199.09375 C 195.742188 199.734375 195.898438 200.324219 196.214844 200.855469 C 196.527344 201.394531 196.953125 201.820312 197.484375 202.136719 C 198.015625 202.449219 198.597656 202.609375 199.230469 202.609375 C 199.863281 202.609375 200.441406 202.449219 200.972656 202.136719 C 201.503906 201.820312 201.925781 201.394531 202.238281 200.855469 C 202.546875 200.324219 202.703125 199.734375 202.703125 199.09375 C 202.703125 198.457031 202.546875 197.867188 202.238281 197.332031 C 201.925781 196.796875 201.503906 196.371094 200.972656 196.054688 C 200.441406 195.738281 199.863281 195.582031 199.230469 195.582031 Z M 199.230469 195.582031 " fill-opacity="1" fill-rule="nonzero"/><path fill="#d7d8d3" d="M 208.738281 203.085938 L 208.738281 195.101562 L 209.289062 195.101562 L 209.289062 202.53125 L 213.777344 202.53125 L 213.777344 203.085938 Z M 208.738281 203.085938 " fill-opacity="1" fill-rule="nonzero"/><path fill="#d7d8d3" d="M 222.359375 203.171875 C 221.628906 203.171875 220.953125 202.992188 220.332031 202.625 C 219.710938 202.261719 219.222656 201.765625 218.859375 201.140625 C 218.5 200.515625 218.320312 199.832031 218.320312 199.09375 C 218.320312 198.359375 218.5 197.675781 218.859375 197.050781 C 219.222656 196.425781 219.710938 195.929688 220.332031 195.5625 C 220.953125 195.199219 221.628906 195.019531 222.359375 195.019531 C 223.089844 195.019531 223.765625 195.199219 224.386719 195.5625 C 225.007812 195.929688 225.496094 196.421875 225.859375 197.050781 C 226.21875 197.675781 226.402344 198.359375 226.402344 199.09375 C 226.402344 199.832031 226.21875 200.515625 225.859375 201.140625 C 225.496094 201.765625 225.007812 202.261719 224.386719 202.625 C 223.765625 202.988281 223.089844 203.171875 222.359375 203.171875 Z M 222.359375 195.582031 C 221.726562 195.582031 221.144531 195.742188 220.617188 196.054688 C 220.085938 196.367188 219.660156 196.792969 219.34375 197.332031 C 219.03125 197.871094 218.871094 198.457031 218.871094 199.09375 C 218.871094 199.734375 219.03125 200.324219 219.34375 200.855469 C 219.660156 201.394531 220.085938 201.820312 220.617188 202.136719 C 221.144531 202.449219 221.726562 202.609375 222.359375 202.609375 C 222.992188 202.609375 223.574219 202.449219 224.105469 202.136719 C 224.636719 201.820312 225.058594 201.394531 225.367188 200.855469 C 225.679688 200.324219 225.832031 199.734375 225.832031 199.09375 C 225.832031 198.457031 225.679688 197.867188 225.367188 197.332031 C 225.058594 196.796875 224.636719 196.371094 224.105469 196.054688 C 223.574219 195.738281 222.992188 195.582031 222.359375 195.582031 Z M 222.359375 195.582031 " fill-opacity="1" fill-rule="nonzero"/><path fill="#d7d8d3" d="M 238.402344 203.085938 L 235.515625 203.085938 C 234.785156 203.085938 234.113281 202.90625 233.5 202.542969 C 232.886719 202.183594 232.398438 201.695312 232.039062 201.078125 C 231.675781 200.460938 231.496094 199.78125 231.496094 199.042969 C 231.496094 198.316406 231.675781 197.644531 232.039062 197.023438 C 232.398438 196.40625 232.886719 195.914062 233.5 195.550781 C 234.113281 195.183594 234.785156 195.003906 235.515625 195.003906 C 236.070312 195.003906 236.605469 195.121094 237.117188 195.347656 C 237.632812 195.578125 238.074219 195.894531 238.453125 196.304688 L 238.046875 196.683594 C 237.71875 196.332031 237.335938 196.058594 236.890625 195.867188 C 236.449219 195.675781 235.988281 195.578125 235.515625 195.578125 C 234.894531 195.578125 234.316406 195.734375 233.78125 196.042969 C 233.25 196.355469 232.828125 196.773438 232.519531 197.304688 C 232.207031 197.832031 232.050781 198.414062 232.050781 199.039062 C 232.050781 199.667969 232.207031 200.253906 232.519531 200.785156 C 232.828125 201.316406 233.25 201.742188 233.78125 202.054688 C 234.3125 202.371094 234.890625 202.53125 235.515625 202.53125 L 237.824219 202.53125 L 237.824219 199.664062 L 235.195312 199.664062 L 235.195312 199.113281 L 238.402344 199.113281 Z M 238.402344 203.085938 " fill-opacity="1" fill-rule="nonzero"/><path fill="#d7d8d3" d="M 244.59375 195.101562 L 245.148438 195.101562 L 245.148438 203.085938 L 244.59375 203.085938 Z M 244.59375 195.101562 " fill-opacity="1" fill-rule="nonzero"/><path fill="#d7d8d3" d="M 252.269531 201.058594 L 251.320312 203.085938 L 250.707031 203.085938 L 254.46875 195.003906 L 258.015625 203.085938 L 257.414062 203.085938 L 256.519531 201.058594 Z M 254.441406 196.363281 L 252.523438 200.503906 L 256.269531 200.503906 Z M 254.441406 196.363281 " fill-opacity="1" fill-rule="nonzero"/><path fill="#d7d8d3" d="M 84.425781 199.078125 L 148.132812 199.078125 L 148.132812 199.800781 L 84.425781 199.800781 Z M 84.425781 199.078125 " fill-opacity="1" fill-rule="nonzero"/><path fill="#d7d8d3" d="M 264.457031 199.078125 L 328.160156 199.078125 L 328.160156 199.800781 L 264.457031 199.800781 Z M 264.457031 199.078125 " fill-opacity="1" fill-rule="nonzero"/><path fill="#d7d8d3" d="M 52.941406 187.242188 C 52.730469 186.320312 52.339844 185.4375 51.761719 184.59375 C 50.851562 183.253906 49.570312 182.117188 47.929688 181.1875 C 47.285156 180.832031 46.5 180.523438 45.570312 180.273438 C 44.640625 180.027344 43.675781 179.828125 42.675781 179.683594 C 41.671875 179.542969 41.046875 179.453125 40.796875 179.417969 C 39.367188 179.242188 38.195312 179.070312 37.285156 178.90625 C 36.375 178.746094 35.542969 178.488281 34.789062 178.128906 C 33.574219 177.523438 32.554688 176.671875 31.730469 175.585938 C 30.910156 174.492188 30.5 173.394531 30.5 172.285156 C 30.5 171.394531 30.75 170.527344 31.25 169.6875 C 31.75 168.84375 32.464844 168.085938 33.390625 167.40625 C 34.320312 166.691406 35.421875 166.144531 36.691406 165.769531 C 37.960938 165.394531 39.273438 165.207031 40.632812 165.207031 C 41.992188 165.207031 43.296875 165.394531 44.550781 165.769531 C 45.800781 166.144531 46.90625 166.691406 47.875 167.40625 C 48.765625 168.085938 49.457031 168.835938 49.941406 169.660156 C 50.425781 170.480469 50.679688 171.339844 50.71875 172.230469 L 53.023438 170.945312 C 52.667969 168.871094 51.453125 167.046875 49.378906 165.472656 C 46.875 163.6875 43.960938 162.792969 40.636719 162.792969 C 38.992188 162.792969 37.417969 163.023438 35.917969 163.488281 C 34.414062 163.953125 33.074219 164.613281 31.894531 165.46875 C 30.679688 166.367188 29.742188 167.394531 29.082031 168.554688 C 28.417969 169.714844 28.089844 170.960938 28.089844 172.28125 C 28.089844 173.929688 28.589844 175.457031 29.589844 176.871094 C 30.59375 178.28125 31.96875 179.417969 33.722656 180.273438 C 34.828125 180.8125 36.160156 181.207031 37.714844 181.453125 C 39.269531 181.703125 40.175781 181.847656 40.425781 181.882812 C 43.464844 182.238281 45.574219 182.722656 46.753906 183.332031 C 48.003906 184.011719 48.980469 184.835938 49.675781 185.796875 C 50.375 186.761719 50.722656 187.800781 50.722656 188.910156 C 50.722656 190.804688 49.773438 192.449219 47.882812 193.84375 C 46.359375 194.976562 44.574219 195.671875 42.515625 195.929688 L 39.492188 195.996094 C 38.515625 195.917969 37.574219 195.753906 36.667969 195.480469 C 35.417969 195.105469 34.328125 194.5625 33.398438 193.84375 C 31.574219 192.59375 30.609375 190.984375 30.5 189.019531 L 28.195312 190.308594 C 28.625 192.488281 29.855469 194.328125 31.894531 195.832031 C 33.074219 196.691406 34.417969 197.351562 35.917969 197.816406 C 37.050781 198.164062 38.230469 198.378906 39.445312 198.460938 L 42.488281 198.414062 C 45.054688 198.136719 47.347656 197.277344 49.378906 195.828125 C 50.558594 194.960938 51.46875 193.949219 52.109375 192.789062 L 52.796875 191.929688 L 52.800781 191.929688 L 53.503906 191.042969 L 63.507812 178.464844 L 63.507812 208.367188 L 66.3125 208.367188 L 66.3125 170.425781 Z M 52.941406 187.242188 " fill-opacity="1" fill-rule="nonzero"/><path fill="#d7d8d3" d="M 52.074219 190.886719 C 49.355469 188.367188 46.632812 185.847656 43.910156 183.328125 C 42.398438 183.027344 40.886719 182.722656 39.375 182.421875 C 43.105469 185.949219 46.835938 189.476562 50.5625 193.003906 C 51.066406 192.300781 51.570312 191.59375 52.074219 190.886719 Z M 52.074219 190.886719 " fill-opacity="1" fill-rule="nonzero"/><g clip-path="url(#129af82139)"><path fill="url(#f116c9effd)" d="M 39.679688 187.257812 L 39.679688 208.425781 L 42.398438 208.425781 L 42.398438 187.257812 Z M 39.679688 187.257812 " fill-rule="nonzero"/></g></svg>