<svg xmlns="http://www.w3.org/2000/svg" xmlns:xlink="http://www.w3.org/1999/xlink" width="500" zoomAndPan="magnify" viewBox="0 0 375 374.999991" height="500" preserveAspectRatio="xMidYMid meet" version="1.0"><defs><clipPath id="be09a24e2c"><path d="M 171.597656 156.707031 L 174.921875 156.707031 L 174.921875 182.570312 L 171.597656 182.570312 Z M 171.597656 156.707031 " clip-rule="nonzero"/></clipPath><linearGradient x1="505.377005" gradientTransform="matrix(0.369444, 0, 0, 0.369444, -18.736708, -21.959319)" y1="548.985567" x2="534.005564" gradientUnits="userSpaceOnUse" y2="488.235566" id="e18220cf14"><stop stop-opacity="1" stop-color="rgb(74.024963%, 55.274963%, 11.680603%)" offset="0"/><stop stop-opacity="1" stop-color="rgb(74.203491%, 55.551147%, 11.985779%)" offset="0.00390625"/><stop stop-opacity="1" stop-color="rgb(74.382019%, 55.827332%, 12.290955%)" offset="0.0078125"/><stop stop-opacity="1" stop-color="rgb(74.560547%, 56.103516%, 12.594604%)" offset="0.0117188"/><stop stop-opacity="1" stop-color="rgb(74.739075%, 56.3797%, 12.89978%)" offset="0.015625"/><stop stop-opacity="1" stop-color="rgb(74.916077%, 56.654358%, 13.20343%)" offset="0.0195312"/><stop stop-opacity="1" stop-color="rgb(75.094604%, 56.930542%, 13.508606%)" offset="0.0234375"/><stop stop-opacity="1" stop-color="rgb(75.273132%, 57.206726%, 13.812256%)" offset="0.0273438"/><stop stop-opacity="1" stop-color="rgb(75.45166%, 57.48291%, 14.117432%)" offset="0.03125"/><stop stop-opacity="1" stop-color="rgb(75.630188%, 57.759094%, 14.421082%)" offset="0.0351562"/><stop stop-opacity="1" stop-color="rgb(75.808716%, 58.035278%, 14.726257%)" offset="0.0390625"/><stop stop-opacity="1" stop-color="rgb(75.987244%, 58.309937%, 15.031433%)" offset="0.0429688"/><stop stop-opacity="1" stop-color="rgb(76.165771%, 58.586121%, 15.336609%)" offset="0.046875"/><stop stop-opacity="1" stop-color="rgb(76.344299%, 58.862305%, 15.640259%)" offset="0.0507813"/><stop stop-opacity="1" stop-color="rgb(76.522827%, 59.138489%, 15.945435%)" offset="0.0546875"/><stop stop-opacity="1" stop-color="rgb(76.699829%, 59.414673%, 16.249084%)" offset="0.0585938"/><stop stop-opacity="1" stop-color="rgb(76.878357%, 59.690857%, 16.55426%)" offset="0.0625"/><stop stop-opacity="1" stop-color="rgb(77.056885%, 59.967041%, 16.85791%)" offset="0.0664063"/><stop stop-opacity="1" stop-color="rgb(77.235413%, 60.243225%, 17.163086%)" offset="0.0703125"/><stop stop-opacity="1" stop-color="rgb(77.41394%, 60.517883%, 17.466736%)" offset="0.0742187"/><stop stop-opacity="1" stop-color="rgb(77.592468%, 60.794067%, 17.771912%)" offset="0.078125"/><stop stop-opacity="1" stop-color="rgb(77.770996%, 61.070251%, 18.077087%)" offset="0.0820313"/><stop stop-opacity="1" stop-color="rgb(77.949524%, 61.346436%, 18.382263%)" offset="0.0859375"/><stop stop-opacity="1" stop-color="rgb(78.128052%, 61.62262%, 18.685913%)" offset="0.0898437"/><stop stop-opacity="1" stop-color="rgb(78.30658%, 61.898804%, 18.991089%)" offset="0.09375"/><stop stop-opacity="1" stop-color="rgb(78.483582%, 62.173462%, 19.294739%)" offset="0.0976562"/><stop stop-opacity="1" stop-color="rgb(78.662109%, 62.449646%, 19.599915%)" offset="0.101562"/><stop stop-opacity="1" stop-color="rgb(78.840637%, 62.72583%, 19.903564%)" offset="0.105469"/><stop stop-opacity="1" stop-color="rgb(79.019165%, 63.002014%, 20.20874%)" offset="0.109375"/><stop stop-opacity="1" stop-color="rgb(79.197693%, 63.278198%, 20.513916%)" offset="0.113281"/><stop stop-opacity="1" stop-color="rgb(79.376221%, 63.554382%, 20.819092%)" offset="0.117188"/><stop stop-opacity="1" stop-color="rgb(79.550171%, 63.818359%, 21.110535%)" offset="0.121094"/><stop stop-opacity="1" stop-color="rgb(79.725647%, 64.083862%, 21.403503%)" offset="0.125"/><stop stop-opacity="1" stop-color="rgb(79.891968%, 64.329529%, 21.676636%)" offset="0.128906"/><stop stop-opacity="1" stop-color="rgb(80.059814%, 64.575195%, 21.949768%)" offset="0.132812"/><stop stop-opacity="1" stop-color="rgb(80.227661%, 64.820862%, 22.2229%)" offset="0.136719"/><stop stop-opacity="1" stop-color="rgb(80.395508%, 65.068054%, 22.496033%)" offset="0.140625"/><stop stop-opacity="1" stop-color="rgb(80.563354%, 65.313721%, 22.769165%)" offset="0.144531"/><stop stop-opacity="1" stop-color="rgb(80.731201%, 65.559387%, 23.042297%)" offset="0.148438"/><stop stop-opacity="1" stop-color="rgb(80.899048%, 65.805054%, 23.313904%)" offset="0.152344"/><stop stop-opacity="1" stop-color="rgb(81.066895%, 66.05072%, 23.587036%)" offset="0.15625"/><stop stop-opacity="1" stop-color="rgb(81.234741%, 66.296387%, 23.860168%)" offset="0.160156"/><stop stop-opacity="1" stop-color="rgb(81.402588%, 66.543579%, 24.133301%)" offset="0.164062"/><stop stop-opacity="1" stop-color="rgb(81.570435%, 66.789246%, 24.406433%)" offset="0.167969"/><stop stop-opacity="1" stop-color="rgb(81.738281%, 67.034912%, 24.679565%)" offset="0.171875"/><stop stop-opacity="1" stop-color="rgb(81.906128%, 67.280579%, 24.952698%)" offset="0.175781"/><stop stop-opacity="1" stop-color="rgb(82.073975%, 67.527771%, 25.22583%)" offset="0.179687"/><stop stop-opacity="1" stop-color="rgb(82.241821%, 67.773438%, 25.498962%)" offset="0.183594"/><stop stop-opacity="1" stop-color="rgb(82.409668%, 68.019104%, 25.772095%)" offset="0.1875"/><stop stop-opacity="1" stop-color="rgb(82.577515%, 68.264771%, 26.043701%)" offset="0.191406"/><stop stop-opacity="1" stop-color="rgb(82.745361%, 68.510437%, 26.316833%)" offset="0.195312"/><stop stop-opacity="1" stop-color="rgb(82.913208%, 68.756104%, 26.589966%)" offset="0.199219"/><stop stop-opacity="1" stop-color="rgb(83.081055%, 69.003296%, 26.863098%)" offset="0.203125"/><stop stop-opacity="1" stop-color="rgb(83.247375%, 69.248962%, 27.13623%)" offset="0.207031"/><stop stop-opacity="1" stop-color="rgb(83.415222%, 69.494629%, 27.409363%)" offset="0.210937"/><stop stop-opacity="1" stop-color="rgb(83.583069%, 69.740295%, 27.682495%)" offset="0.214844"/><stop stop-opacity="1" stop-color="rgb(83.750916%, 69.985962%, 27.955627%)" offset="0.21875"/><stop stop-opacity="1" stop-color="rgb(83.918762%, 70.231628%, 28.22876%)" offset="0.222656"/><stop stop-opacity="1" stop-color="rgb(84.086609%, 70.478821%, 28.501892%)" offset="0.226562"/><stop stop-opacity="1" stop-color="rgb(84.254456%, 70.724487%, 28.773499%)" offset="0.230469"/><stop stop-opacity="1" stop-color="rgb(84.422302%, 70.970154%, 29.046631%)" offset="0.234375"/><stop stop-opacity="1" stop-color="rgb(84.590149%, 71.21582%, 29.319763%)" offset="0.238281"/><stop stop-opacity="1" stop-color="rgb(84.757996%, 71.463013%, 29.592896%)" offset="0.242188"/><stop stop-opacity="1" stop-color="rgb(84.925842%, 71.708679%, 29.866028%)" offset="0.246094"/><stop stop-opacity="1" stop-color="rgb(85.093689%, 71.954346%, 30.13916%)" offset="0.25"/><stop stop-opacity="1" stop-color="rgb(85.261536%, 72.200012%, 30.412292%)" offset="0.253906"/><stop stop-opacity="1" stop-color="rgb(85.429382%, 72.445679%, 30.685425%)" offset="0.257812"/><stop stop-opacity="1" stop-color="rgb(85.597229%, 72.691345%, 30.958557%)" offset="0.261719"/><stop stop-opacity="1" stop-color="rgb(85.765076%, 72.938538%, 31.231689%)" offset="0.265625"/><stop stop-opacity="1" stop-color="rgb(85.932922%, 73.184204%, 31.503296%)" offset="0.269531"/><stop stop-opacity="1" stop-color="rgb(86.100769%, 73.429871%, 31.776428%)" offset="0.273438"/><stop stop-opacity="1" stop-color="rgb(86.26709%, 73.675537%, 32.049561%)" offset="0.277344"/><stop stop-opacity="1" stop-color="rgb(86.434937%, 73.922729%, 32.322693%)" offset="0.28125"/><stop stop-opacity="1" stop-color="rgb(86.602783%, 74.168396%, 32.595825%)" offset="0.285156"/><stop stop-opacity="1" stop-color="rgb(86.77063%, 74.414062%, 32.868958%)" offset="0.289063"/><stop stop-opacity="1" stop-color="rgb(86.938477%, 74.659729%, 33.14209%)" offset="0.292969"/><stop stop-opacity="1" stop-color="rgb(87.106323%, 74.905396%, 33.415222%)" offset="0.296875"/><stop stop-opacity="1" stop-color="rgb(87.27417%, 75.151062%, 33.686829%)" offset="0.300781"/><stop stop-opacity="1" stop-color="rgb(87.442017%, 75.398254%, 33.959961%)" offset="0.304688"/><stop stop-opacity="1" stop-color="rgb(87.609863%, 75.643921%, 34.233093%)" offset="0.308594"/><stop stop-opacity="1" stop-color="rgb(87.77771%, 75.889587%, 34.506226%)" offset="0.3125"/><stop stop-opacity="1" stop-color="rgb(87.945557%, 76.135254%, 34.779358%)" offset="0.316406"/><stop stop-opacity="1" stop-color="rgb(88.113403%, 76.382446%, 35.05249%)" offset="0.320313"/><stop stop-opacity="1" stop-color="rgb(88.28125%, 76.628113%, 35.325623%)" offset="0.324219"/><stop stop-opacity="1" stop-color="rgb(88.449097%, 76.873779%, 35.598755%)" offset="0.328125"/><stop stop-opacity="1" stop-color="rgb(88.616943%, 77.119446%, 35.871887%)" offset="0.332031"/><stop stop-opacity="1" stop-color="rgb(88.78479%, 77.365112%, 36.14502%)" offset="0.335937"/><stop stop-opacity="1" stop-color="rgb(88.952637%, 77.610779%, 36.416626%)" offset="0.339844"/><stop stop-opacity="1" stop-color="rgb(89.120483%, 77.857971%, 36.689758%)" offset="0.34375"/><stop stop-opacity="1" stop-color="rgb(89.286804%, 78.103638%, 36.962891%)" offset="0.347656"/><stop stop-opacity="1" stop-color="rgb(89.454651%, 78.349304%, 37.236023%)" offset="0.351562"/><stop stop-opacity="1" stop-color="rgb(89.622498%, 78.594971%, 37.509155%)" offset="0.355469"/><stop stop-opacity="1" stop-color="rgb(89.790344%, 78.840637%, 37.782288%)" offset="0.359375"/><stop stop-opacity="1" stop-color="rgb(89.958191%, 79.086304%, 38.05542%)" offset="0.363281"/><stop stop-opacity="1" stop-color="rgb(90.126038%, 79.333496%, 38.328552%)" offset="0.367187"/><stop stop-opacity="1" stop-color="rgb(90.293884%, 79.579163%, 38.601685%)" offset="0.371094"/><stop stop-opacity="1" stop-color="rgb(90.461731%, 79.824829%, 38.874817%)" offset="0.375"/><stop stop-opacity="1" stop-color="rgb(90.629578%, 80.070496%, 39.146423%)" offset="0.378906"/><stop stop-opacity="1" stop-color="rgb(90.797424%, 80.317688%, 39.419556%)" offset="0.382812"/><stop stop-opacity="1" stop-color="rgb(90.965271%, 80.563354%, 39.692688%)" offset="0.386719"/><stop stop-opacity="1" stop-color="rgb(91.133118%, 80.809021%, 39.96582%)" offset="0.390625"/><stop stop-opacity="1" stop-color="rgb(91.291809%, 81.04248%, 40.226746%)" offset="0.394531"/><stop stop-opacity="1" stop-color="rgb(91.4505%, 81.277466%, 40.487671%)" offset="0.398437"/><stop stop-opacity="1" stop-color="rgb(91.574097%, 81.466675%, 40.699768%)" offset="0.402344"/><stop stop-opacity="1" stop-color="rgb(91.697693%, 81.65741%, 40.913391%)" offset="0.40625"/><stop stop-opacity="1" stop-color="rgb(91.821289%, 81.846619%, 41.125488%)" offset="0.410156"/><stop stop-opacity="1" stop-color="rgb(91.944885%, 82.037354%, 41.339111%)" offset="0.414062"/><stop stop-opacity="1" stop-color="rgb(92.068481%, 82.226562%, 41.551208%)" offset="0.417969"/><stop stop-opacity="1" stop-color="rgb(92.193604%, 82.417297%, 41.764832%)" offset="0.421875"/><stop stop-opacity="1" stop-color="rgb(92.3172%, 82.606506%, 41.978455%)" offset="0.425781"/><stop stop-opacity="1" stop-color="rgb(92.440796%, 82.797241%, 42.192078%)" offset="0.429688"/><stop stop-opacity="1" stop-color="rgb(92.564392%, 82.98645%, 42.404175%)" offset="0.433594"/><stop stop-opacity="1" stop-color="rgb(92.687988%, 83.177185%, 42.617798%)" offset="0.4375"/><stop stop-opacity="1" stop-color="rgb(92.811584%, 83.366394%, 42.829895%)" offset="0.441406"/><stop stop-opacity="1" stop-color="rgb(92.935181%, 83.557129%, 43.043518%)" offset="0.445312"/><stop stop-opacity="1" stop-color="rgb(93.058777%, 83.746338%, 43.255615%)" offset="0.449219"/><stop stop-opacity="1" stop-color="rgb(93.183899%, 83.937073%, 43.469238%)" offset="0.453125"/><stop stop-opacity="1" stop-color="rgb(93.307495%, 84.126282%, 43.682861%)" offset="0.457031"/><stop stop-opacity="1" stop-color="rgb(93.431091%, 84.317017%, 43.896484%)" offset="0.460938"/><stop stop-opacity="1" stop-color="rgb(93.554688%, 84.507751%, 44.108582%)" offset="0.464844"/><stop stop-opacity="1" stop-color="rgb(93.678284%, 84.698486%, 44.322205%)" offset="0.46875"/><stop stop-opacity="1" stop-color="rgb(93.80188%, 84.887695%, 44.534302%)" offset="0.472656"/><stop stop-opacity="1" stop-color="rgb(93.925476%, 85.07843%, 44.747925%)" offset="0.476563"/><stop stop-opacity="1" stop-color="rgb(94.049072%, 85.267639%, 44.960022%)" offset="0.480469"/><stop stop-opacity="1" stop-color="rgb(94.174194%, 85.458374%, 45.173645%)" offset="0.484375"/><stop stop-opacity="1" stop-color="rgb(94.297791%, 85.647583%, 45.385742%)" offset="0.488281"/><stop stop-opacity="1" stop-color="rgb(94.421387%, 85.838318%, 45.599365%)" offset="0.492188"/><stop stop-opacity="1" stop-color="rgb(94.544983%, 86.027527%, 45.812988%)" offset="0.496094"/><stop stop-opacity="1" stop-color="rgb(94.668579%, 86.218262%, 46.026611%)" offset="0.5"/><stop stop-opacity="1" stop-color="rgb(94.792175%, 86.407471%, 46.238708%)" offset="0.503906"/><stop stop-opacity="1" stop-color="rgb(94.915771%, 86.598206%, 46.452332%)" offset="0.507812"/><stop stop-opacity="1" stop-color="rgb(95.039368%, 86.787415%, 46.664429%)" offset="0.511719"/><stop stop-opacity="1" stop-color="rgb(95.16449%, 86.978149%, 46.878052%)" offset="0.515625"/><stop stop-opacity="1" stop-color="rgb(95.288086%, 87.167358%, 47.090149%)" offset="0.519531"/><stop stop-opacity="1" stop-color="rgb(95.411682%, 87.358093%, 47.303772%)" offset="0.523438"/><stop stop-opacity="1" stop-color="rgb(95.535278%, 87.547302%, 47.515869%)" offset="0.527344"/><stop stop-opacity="1" stop-color="rgb(95.658875%, 87.738037%, 47.729492%)" offset="0.53125"/><stop stop-opacity="1" stop-color="rgb(95.532227%, 87.556458%, 47.581482%)" offset="0.539062"/><stop stop-opacity="1" stop-color="rgb(95.233154%, 87.121582%, 47.218323%)" offset="0.542969"/><stop stop-opacity="1" stop-color="rgb(95.059204%, 86.868286%, 47.001648%)" offset="0.546875"/><stop stop-opacity="1" stop-color="rgb(94.885254%, 86.61499%, 46.784973%)" offset="0.550781"/><stop stop-opacity="1" stop-color="rgb(94.711304%, 86.361694%, 46.568298%)" offset="0.554688"/><stop stop-opacity="1" stop-color="rgb(94.535828%, 86.108398%, 46.351624%)" offset="0.558594"/><stop stop-opacity="1" stop-color="rgb(94.361877%, 85.855103%, 46.134949%)" offset="0.5625"/><stop stop-opacity="1" stop-color="rgb(94.187927%, 85.601807%, 45.916748%)" offset="0.566406"/><stop stop-opacity="1" stop-color="rgb(94.013977%, 85.348511%, 45.700073%)" offset="0.570313"/><stop stop-opacity="1" stop-color="rgb(93.840027%, 85.095215%, 45.483398%)" offset="0.574219"/><stop stop-opacity="1" stop-color="rgb(93.666077%, 84.841919%, 45.266724%)" offset="0.578125"/><stop stop-opacity="1" stop-color="rgb(93.490601%, 84.588623%, 45.050049%)" offset="0.582031"/><stop stop-opacity="1" stop-color="rgb(93.31665%, 84.335327%, 44.833374%)" offset="0.585938"/><stop stop-opacity="1" stop-color="rgb(93.1427%, 84.082031%, 44.615173%)" offset="0.589844"/><stop stop-opacity="1" stop-color="rgb(92.96875%, 83.828735%, 44.398499%)" offset="0.59375"/><stop stop-opacity="1" stop-color="rgb(92.7948%, 83.575439%, 44.181824%)" offset="0.597656"/><stop stop-opacity="1" stop-color="rgb(92.62085%, 83.322144%, 43.965149%)" offset="0.601563"/><stop stop-opacity="1" stop-color="rgb(92.446899%, 83.067322%, 43.748474%)" offset="0.605469"/><stop stop-opacity="1" stop-color="rgb(92.272949%, 82.814026%, 43.531799%)" offset="0.609375"/><stop stop-opacity="1" stop-color="rgb(92.097473%, 82.56073%, 43.313599%)" offset="0.613281"/><stop stop-opacity="1" stop-color="rgb(91.923523%, 82.307434%, 43.096924%)" offset="0.617188"/><stop stop-opacity="1" stop-color="rgb(91.749573%, 82.054138%, 42.880249%)" offset="0.621094"/><stop stop-opacity="1" stop-color="rgb(91.575623%, 81.800842%, 42.663574%)" offset="0.625"/><stop stop-opacity="1" stop-color="rgb(91.401672%, 81.547546%, 42.446899%)" offset="0.628906"/><stop stop-opacity="1" stop-color="rgb(91.227722%, 81.29425%, 42.230225%)" offset="0.632813"/><stop stop-opacity="1" stop-color="rgb(91.053772%, 81.040955%, 42.012024%)" offset="0.636719"/><stop stop-opacity="1" stop-color="rgb(90.879822%, 80.787659%, 41.795349%)" offset="0.640625"/><stop stop-opacity="1" stop-color="rgb(90.704346%, 80.534363%, 41.578674%)" offset="0.644531"/><stop stop-opacity="1" stop-color="rgb(90.530396%, 80.281067%, 41.362%)" offset="0.648438"/><stop stop-opacity="1" stop-color="rgb(90.356445%, 80.027771%, 41.145325%)" offset="0.652344"/><stop stop-opacity="1" stop-color="rgb(90.182495%, 79.774475%, 40.92865%)" offset="0.65625"/><stop stop-opacity="1" stop-color="rgb(90.008545%, 79.521179%, 40.710449%)" offset="0.660156"/><stop stop-opacity="1" stop-color="rgb(89.834595%, 79.267883%, 40.493774%)" offset="0.664062"/><stop stop-opacity="1" stop-color="rgb(89.659119%, 79.014587%, 40.2771%)" offset="0.667969"/><stop stop-opacity="1" stop-color="rgb(89.485168%, 78.761292%, 40.060425%)" offset="0.671875"/><stop stop-opacity="1" stop-color="rgb(89.311218%, 78.507996%, 39.84375%)" offset="0.675781"/><stop stop-opacity="1" stop-color="rgb(89.137268%, 78.2547%, 39.627075%)" offset="0.679688"/><stop stop-opacity="1" stop-color="rgb(88.963318%, 78.001404%, 39.4104%)" offset="0.683594"/><stop stop-opacity="1" stop-color="rgb(88.789368%, 77.748108%, 39.193726%)" offset="0.6875"/><stop stop-opacity="1" stop-color="rgb(88.615417%, 77.494812%, 38.975525%)" offset="0.691406"/><stop stop-opacity="1" stop-color="rgb(88.441467%, 77.241516%, 38.75885%)" offset="0.695312"/><stop stop-opacity="1" stop-color="rgb(88.265991%, 76.98822%, 38.542175%)" offset="0.699219"/><stop stop-opacity="1" stop-color="rgb(88.092041%, 76.734924%, 38.3255%)" offset="0.703125"/><stop stop-opacity="1" stop-color="rgb(87.918091%, 76.481628%, 38.108826%)" offset="0.707031"/><stop stop-opacity="1" stop-color="rgb(87.744141%, 76.228333%, 37.892151%)" offset="0.710937"/><stop stop-opacity="1" stop-color="rgb(87.57019%, 75.975037%, 37.67395%)" offset="0.714844"/><stop stop-opacity="1" stop-color="rgb(87.39624%, 75.721741%, 37.457275%)" offset="0.71875"/><stop stop-opacity="1" stop-color="rgb(87.220764%, 75.468445%, 37.240601%)" offset="0.722656"/><stop stop-opacity="1" stop-color="rgb(87.046814%, 75.215149%, 37.023926%)" offset="0.726562"/><stop stop-opacity="1" stop-color="rgb(86.872864%, 74.961853%, 36.807251%)" offset="0.730469"/><stop stop-opacity="1" stop-color="rgb(86.698914%, 74.708557%, 36.590576%)" offset="0.734375"/><stop stop-opacity="1" stop-color="rgb(86.524963%, 74.455261%, 36.372375%)" offset="0.738281"/><stop stop-opacity="1" stop-color="rgb(86.351013%, 74.201965%, 36.155701%)" offset="0.742187"/><stop stop-opacity="1" stop-color="rgb(86.177063%, 73.948669%, 35.939026%)" offset="0.746094"/><stop stop-opacity="1" stop-color="rgb(86.003113%, 73.695374%, 35.722351%)" offset="0.75"/><stop stop-opacity="1" stop-color="rgb(85.827637%, 73.442078%, 35.505676%)" offset="0.753906"/><stop stop-opacity="1" stop-color="rgb(85.653687%, 73.188782%, 35.289001%)" offset="0.757812"/><stop stop-opacity="1" stop-color="rgb(85.479736%, 72.935486%, 35.070801%)" offset="0.761719"/><stop stop-opacity="1" stop-color="rgb(85.305786%, 72.68219%, 34.854126%)" offset="0.765625"/><stop stop-opacity="1" stop-color="rgb(85.131836%, 72.428894%, 34.637451%)" offset="0.769531"/><stop stop-opacity="1" stop-color="rgb(84.957886%, 72.175598%, 34.420776%)" offset="0.773437"/><stop stop-opacity="1" stop-color="rgb(84.786987%, 71.92688%, 34.210205%)" offset="0.777344"/><stop stop-opacity="1" stop-color="rgb(84.617615%, 71.679688%, 33.999634%)" offset="0.78125"/><stop stop-opacity="1" stop-color="rgb(84.458923%, 71.446228%, 33.807373%)" offset="0.785156"/><stop stop-opacity="1" stop-color="rgb(84.301758%, 71.214294%, 33.616638%)" offset="0.789062"/><stop stop-opacity="1" stop-color="rgb(84.143066%, 70.982361%, 33.424377%)" offset="0.792969"/><stop stop-opacity="1" stop-color="rgb(83.984375%, 70.750427%, 33.232117%)" offset="0.796875"/><stop stop-opacity="1" stop-color="rgb(83.825684%, 70.518494%, 33.039856%)" offset="0.800781"/><stop stop-opacity="1" stop-color="rgb(83.668518%, 70.28656%, 32.849121%)" offset="0.804687"/><stop stop-opacity="1" stop-color="rgb(83.509827%, 70.053101%, 32.65686%)" offset="0.808594"/><stop stop-opacity="1" stop-color="rgb(83.352661%, 69.821167%, 32.466125%)" offset="0.8125"/><stop stop-opacity="1" stop-color="rgb(83.19397%, 69.589233%, 32.273865%)" offset="0.816406"/><stop stop-opacity="1" stop-color="rgb(83.035278%, 69.3573%, 32.081604%)" offset="0.820312"/><stop stop-opacity="1" stop-color="rgb(82.876587%, 69.12384%, 31.889343%)" offset="0.824219"/><stop stop-opacity="1" stop-color="rgb(82.719421%, 68.891907%, 31.698608%)" offset="0.828125"/><stop stop-opacity="1" stop-color="rgb(82.56073%, 68.659973%, 31.506348%)" offset="0.832031"/><stop stop-opacity="1" stop-color="rgb(82.403564%, 68.42804%, 31.314087%)" offset="0.835938"/><stop stop-opacity="1" stop-color="rgb(82.244873%, 68.196106%, 31.121826%)" offset="0.839844"/><stop stop-opacity="1" stop-color="rgb(82.086182%, 67.964172%, 30.931091%)" offset="0.84375"/><stop stop-opacity="1" stop-color="rgb(81.92749%, 67.730713%, 30.738831%)" offset="0.847656"/><stop stop-opacity="1" stop-color="rgb(81.770325%, 67.498779%, 30.54657%)" offset="0.851562"/><stop stop-opacity="1" stop-color="rgb(81.611633%, 67.266846%, 30.354309%)" offset="0.855469"/><stop stop-opacity="1" stop-color="rgb(81.454468%, 67.034912%, 30.163574%)" offset="0.859375"/><stop stop-opacity="1" stop-color="rgb(81.295776%, 66.802979%, 29.971313%)" offset="0.863281"/><stop stop-opacity="1" stop-color="rgb(81.137085%, 66.571045%, 29.779053%)" offset="0.867187"/><stop stop-opacity="1" stop-color="rgb(80.978394%, 66.337585%, 29.586792%)" offset="0.871094"/><stop stop-opacity="1" stop-color="rgb(80.821228%, 66.105652%, 29.396057%)" offset="0.875"/><stop stop-opacity="1" stop-color="rgb(80.662537%, 65.873718%, 29.203796%)" offset="0.878906"/><stop stop-opacity="1" stop-color="rgb(80.505371%, 65.641785%, 29.013062%)" offset="0.882812"/><stop stop-opacity="1" stop-color="rgb(80.34668%, 65.408325%, 28.820801%)" offset="0.886719"/><stop stop-opacity="1" stop-color="rgb(80.187988%, 65.176392%, 28.62854%)" offset="0.890625"/><stop stop-opacity="1" stop-color="rgb(80.029297%, 64.944458%, 28.436279%)" offset="0.894531"/><stop stop-opacity="1" stop-color="rgb(79.872131%, 64.712524%, 28.245544%)" offset="0.898437"/><stop stop-opacity="1" stop-color="rgb(79.71344%, 64.480591%, 28.053284%)" offset="0.902344"/><stop stop-opacity="1" stop-color="rgb(79.556274%, 64.248657%, 27.861023%)" offset="0.90625"/><stop stop-opacity="1" stop-color="rgb(79.397583%, 64.015198%, 27.668762%)" offset="0.910156"/><stop stop-opacity="1" stop-color="rgb(79.238892%, 63.783264%, 27.478027%)" offset="0.914062"/><stop stop-opacity="1" stop-color="rgb(79.0802%, 63.551331%, 27.285767%)" offset="0.917969"/><stop stop-opacity="1" stop-color="rgb(78.923035%, 63.319397%, 27.093506%)" offset="0.921875"/><stop stop-opacity="1" stop-color="rgb(78.764343%, 63.087463%, 26.901245%)" offset="0.925781"/><stop stop-opacity="1" stop-color="rgb(78.607178%, 62.85553%, 26.71051%)" offset="0.929688"/><stop stop-opacity="1" stop-color="rgb(78.448486%, 62.62207%, 26.51825%)" offset="0.933594"/><stop stop-opacity="1" stop-color="rgb(78.289795%, 62.390137%, 26.327515%)" offset="0.9375"/><stop stop-opacity="1" stop-color="rgb(78.131104%, 62.158203%, 26.135254%)" offset="0.941406"/><stop stop-opacity="1" stop-color="rgb(77.973938%, 61.92627%, 25.942993%)" offset="0.945313"/><stop stop-opacity="1" stop-color="rgb(77.815247%, 61.69281%, 25.750732%)" offset="0.949219"/><stop stop-opacity="1" stop-color="rgb(77.658081%, 61.460876%, 25.559998%)" offset="0.953125"/><stop stop-opacity="1" stop-color="rgb(77.49939%, 61.228943%, 25.367737%)" offset="0.957031"/><stop stop-opacity="1" stop-color="rgb(77.340698%, 60.997009%, 25.175476%)" offset="0.960938"/><stop stop-opacity="1" stop-color="rgb(77.182007%, 60.765076%, 24.983215%)" offset="0.964844"/><stop stop-opacity="1" stop-color="rgb(77.024841%, 60.533142%, 24.79248%)" offset="0.96875"/><stop stop-opacity="1" stop-color="rgb(76.86615%, 60.299683%, 24.60022%)" offset="0.972656"/><stop stop-opacity="1" stop-color="rgb(76.708984%, 60.067749%, 24.407959%)" offset="0.976562"/><stop stop-opacity="1" stop-color="rgb(76.550293%, 59.835815%, 24.215698%)" offset="0.980469"/><stop stop-opacity="1" stop-color="rgb(76.391602%, 59.603882%, 24.024963%)" offset="0.984375"/><stop stop-opacity="1" stop-color="rgb(76.23291%, 59.371948%, 23.832703%)" offset="0.988281"/><stop stop-opacity="1" stop-color="rgb(76.075745%, 59.140015%, 23.640442%)" offset="0.992188"/><stop stop-opacity="1" stop-color="rgb(75.917053%, 58.906555%, 23.448181%)" offset="0.996094"/><stop stop-opacity="1" stop-color="rgb(75.759888%, 58.674622%, 23.257446%)" offset="1"/></linearGradient></defs><rect x="-37.5" width="450" fill="#ffffff" y="-37.499999" height="449.999989" fill-opacity="1"/><rect x="-37.5" width="450" fill="#979d81" y="-37.499999" height="449.999989" fill-opacity="1"/><path fill="#efd3d2" d="M 64.800781 205.074219 C 65.988281 206.167969 66.289062 207.492188 66.289062 208.691406 C 66.289062 211.972656 64.148438 214.238281 60.738281 214.238281 C 59.285156 214.238281 56.882812 213.824219 55.71875 212.617188 C 55.496094 211.699219 55.609375 209.8125 56.0625 208.480469 L 56.324219 208.480469 C 56.023438 211.535156 57.960938 213.496094 60.601562 213.347656 C 62.765625 213.226562 64.578125 211.742188 64.578125 209.371094 C 64.578125 208.210938 64.15625 207.296875 63.414062 206.609375 L 57.730469 201.332031 C 56.53125 200.238281 56.125 198.804688 56.125 197.65625 C 56.125 195.15625 57.957031 192.644531 61.335938 192.644531 C 62.117188 192.644531 63.089844 192.777344 63.882812 192.945312 L 65.058594 192.945312 L 65.058594 196.585938 L 64.773438 196.585938 C 64.78125 194.6875 63.285156 193.53125 61.4375 193.53125 C 59.25 193.53125 57.785156 195.132812 57.785156 196.941406 C 57.785156 197.710938 58.042969 198.808594 58.980469 199.675781 Z M 64.800781 205.074219 " fill-opacity="1" fill-rule="nonzero"/><path fill="#efd3d2" d="M 86.574219 211.660156 C 87.171875 212.976562 88.269531 213.527344 89.179688 213.527344 L 89.425781 213.527344 L 89.425781 213.824219 L 82.75 213.824219 L 82.75 213.527344 L 83.011719 213.527344 C 83.777344 213.527344 84.570312 212.851562 84.140625 211.667969 L 82.242188 206.617188 L 74.253906 206.617188 L 72.265625 211.683594 C 71.847656 212.859375 72.636719 213.527344 73.398438 213.527344 L 73.660156 213.527344 L 73.660156 213.824219 L 67.691406 213.824219 L 67.691406 213.527344 L 67.957031 213.527344 C 68.859375 213.527344 69.957031 212.980469 70.554688 211.664062 L 77.28125 195.699219 C 77.28125 195.699219 78.378906 193.296875 78.378906 192.644531 L 78.644531 192.644531 Z M 81.902344 205.726562 L 78.328125 196.203125 L 74.597656 205.726562 Z M 81.902344 205.726562 " fill-opacity="1" fill-rule="nonzero"/><path fill="#efd3d2" d="M 113.644531 211.667969 C 113.796875 212.835938 114.746094 213.523438 115.808594 213.523438 L 116.28125 213.523438 L 116.28125 213.820312 L 109.828125 213.820312 L 109.828125 213.539062 L 110.292969 213.539062 C 110.929688 213.539062 111.507812 212.910156 111.449219 212.273438 L 110.101562 197.347656 L 103.871094 211.207031 C 103.871094 211.207031 103.042969 213.011719 102.855469 214.238281 L 102.574219 214.238281 L 94.988281 197.777344 L 93.6875 212.277344 C 93.628906 212.914062 94.207031 213.539062 94.84375 213.542969 L 95.308594 213.542969 L 95.308594 213.824219 L 89.5625 213.824219 L 89.5625 213.527344 L 90.035156 213.527344 C 91.09375 213.527344 92.042969 212.839844 92.195312 211.667969 L 94.429688 192.644531 L 94.703125 192.644531 L 102.984375 210.542969 L 111.078125 192.65625 L 111.347656 192.65625 Z M 113.644531 211.667969 " fill-opacity="1" fill-rule="nonzero"/><path fill="#efd3d2" d="M 136.050781 193.058594 L 136.050781 193.351562 L 135.636719 193.351562 C 134.398438 193.351562 133.292969 194.167969 132.660156 195.074219 L 126.792969 204.554688 L 126.792969 211.65625 C 126.8125 212.691406 127.65625 213.519531 128.695312 213.519531 L 129.070312 213.519531 L 129.074219 213.816406 L 122.585938 213.816406 L 122.589844 213.519531 L 122.96875 213.519531 C 124 213.519531 124.835938 212.695312 124.867188 211.671875 L 124.867188 204.523438 L 119.21875 195.082031 C 118.644531 194.167969 117.476562 193.347656 116.234375 193.347656 L 115.832031 193.347656 L 115.832031 193.058594 L 123.128906 193.058594 L 123.128906 193.351562 L 122.757812 193.351562 C 121.886719 193.351562 121.28125 194.355469 121.71875 195.195312 L 126.164062 203.496094 L 130.890625 195.191406 L 130.90625 195.167969 C 131.367188 194.332031 130.652344 193.355469 129.851562 193.355469 L 129.476562 193.355469 L 129.476562 193.058594 Z M 136.050781 193.058594 " fill-opacity="1" fill-rule="nonzero"/><path fill="#efd3d2" d="M 167.691406 211.667969 C 167.84375 212.835938 168.792969 213.523438 169.855469 213.523438 L 170.328125 213.523438 L 170.328125 213.820312 L 163.878906 213.820312 L 163.878906 213.539062 L 164.339844 213.539062 C 164.980469 213.539062 165.558594 212.910156 165.496094 212.273438 L 164.152344 197.347656 L 157.921875 211.207031 C 157.921875 211.207031 157.09375 213.011719 156.90625 214.238281 L 156.625 214.238281 L 149.039062 197.777344 L 147.738281 212.277344 C 147.679688 212.914062 148.253906 213.539062 148.894531 213.542969 L 149.355469 213.542969 L 149.355469 213.824219 L 143.613281 213.824219 L 143.613281 213.527344 L 144.085938 213.527344 C 145.144531 213.527344 146.09375 212.839844 146.246094 211.667969 L 148.476562 192.644531 L 148.753906 192.644531 L 157.035156 210.542969 L 165.128906 192.65625 L 165.398438 192.65625 Z M 167.691406 211.667969 " fill-opacity="1" fill-rule="nonzero"/><path fill="#efd3d2" d="M 189.355469 211.660156 C 189.953125 212.976562 191.050781 213.527344 191.960938 213.527344 L 192.207031 213.527344 L 192.207031 213.824219 L 185.527344 213.824219 L 185.527344 213.527344 L 185.792969 213.527344 C 186.554688 213.527344 187.351562 212.851562 186.917969 211.667969 L 185.023438 206.617188 L 177.03125 206.617188 L 175.042969 211.683594 C 174.625 212.859375 175.417969 213.527344 176.179688 213.527344 L 176.441406 213.527344 L 176.441406 213.824219 L 170.46875 213.824219 L 170.46875 213.527344 L 170.738281 213.527344 C 171.636719 213.527344 172.734375 212.980469 173.332031 211.664062 L 180.0625 195.699219 C 180.0625 195.699219 181.160156 193.296875 181.160156 192.644531 L 181.425781 192.644531 Z M 184.6875 205.726562 L 181.109375 196.203125 L 177.378906 205.726562 Z M 184.6875 205.726562 " fill-opacity="1" fill-rule="nonzero"/><path fill="#efd3d2" d="M 211.917969 205.164062 L 211.554688 209.820312 C 209.992188 212.375 207.339844 214.238281 203.222656 214.238281 C 197.019531 214.207031 192.628906 209.964844 192.628906 203.410156 C 192.628906 196.972656 196.871094 192.640625 203.398438 192.640625 C 206.308594 192.640625 208.679688 193.5 210.414062 194.640625 L 211.011719 198.832031 L 210.765625 198.832031 C 209.863281 195.371094 206.957031 193.53125 203.390625 193.527344 C 198.175781 193.527344 194.855469 197.472656 194.855469 203.375 C 194.855469 209.339844 198.234375 213.226562 203.222656 213.34375 C 207.433594 213.332031 211 211.234375 211.671875 205.160156 L 211.917969 205.160156 Z M 211.917969 205.164062 " fill-opacity="1" fill-rule="nonzero"/><path fill="#efd3d2" d="M 229.238281 213.824219 L 229.242188 213.527344 L 229.617188 213.527344 C 230.648438 213.527344 231.488281 212.707031 231.515625 211.683594 L 231.515625 204.003906 L 219.378906 204.003906 L 219.378906 211.664062 C 219.394531 212.695312 220.238281 213.527344 221.277344 213.527344 L 221.652344 213.527344 L 221.65625 213.824219 L 215.164062 213.824219 L 215.167969 213.527344 L 215.546875 213.527344 C 216.585938 213.527344 217.425781 212.695312 217.445312 211.664062 L 217.445312 195.207031 C 217.417969 194.179688 216.582031 193.351562 215.546875 193.351562 L 215.167969 193.351562 L 215.164062 193.058594 L 221.652344 193.058594 L 221.648438 193.351562 L 221.273438 193.351562 C 220.242188 193.351562 219.402344 194.175781 219.375 195.199219 L 219.375 203.113281 L 231.515625 203.113281 L 231.515625 195.179688 C 231.472656 194.164062 230.640625 193.351562 229.613281 193.351562 L 229.238281 193.351562 L 229.234375 193.058594 L 235.722656 193.058594 L 235.71875 193.351562 L 235.339844 193.351562 C 234.304688 193.351562 233.460938 194.183594 233.441406 195.21875 L 233.441406 211.664062 C 233.460938 212.695312 234.304688 213.527344 235.339844 213.527344 L 235.71875 213.527344 L 235.722656 213.824219 Z M 229.238281 213.824219 " fill-opacity="1" fill-rule="nonzero"/><path fill="#efd3d2" d="M 256.097656 211.660156 C 256.695312 212.976562 257.792969 213.527344 258.703125 213.527344 L 258.949219 213.527344 L 258.949219 213.824219 L 252.269531 213.824219 L 252.269531 213.527344 L 252.53125 213.527344 C 253.296875 213.527344 254.089844 212.851562 253.660156 211.667969 L 251.761719 206.617188 L 243.773438 206.617188 L 241.785156 211.683594 C 241.367188 212.859375 242.15625 213.527344 242.917969 213.527344 L 243.179688 213.527344 L 243.179688 213.824219 L 237.210938 213.824219 L 237.210938 213.527344 L 237.476562 213.527344 C 238.378906 213.527344 239.476562 212.980469 240.074219 211.664062 L 246.800781 195.699219 C 246.800781 195.699219 247.898438 193.296875 247.898438 192.644531 L 248.164062 192.644531 Z M 251.425781 205.726562 L 247.851562 196.203125 L 244.121094 205.726562 Z M 251.425781 205.726562 " fill-opacity="1" fill-rule="nonzero"/><path fill="#efd3d2" d="M 270.445312 193.0625 C 276.78125 193.0625 281.101562 197.21875 281.101562 203.449219 C 281.101562 209.671875 276.78125 213.824219 270.445312 213.824219 L 260.40625 213.824219 L 260.40625 213.527344 L 260.785156 213.527344 C 261.824219 213.527344 262.660156 212.695312 262.683594 211.667969 L 262.683594 195.050781 C 262.683594 194.097656 261.773438 193.355469 260.796875 193.355469 L 260.417969 193.355469 L 260.414062 193.0625 Z M 264.617188 212.921875 L 270.445312 212.921875 C 275.53125 212.921875 278.871094 209.136719 278.871094 203.453125 C 278.871094 197.753906 275.5 193.953125 270.445312 193.953125 L 264.617188 193.953125 Z M 264.617188 212.921875 " fill-opacity="1" fill-rule="nonzero"/><path fill="#efd3d2" d="M 305.960938 203.4375 C 305.960938 209.917969 301.609375 214.238281 295.296875 214.238281 C 288.992188 214.238281 284.636719 209.917969 284.636719 203.4375 C 284.636719 196.957031 288.992188 192.640625 295.296875 192.640625 C 301.609375 192.644531 305.960938 196.960938 305.960938 203.4375 Z M 303.6875 203.4375 C 303.6875 197.496094 300.332031 193.53125 295.300781 193.53125 C 290.269531 193.53125 286.914062 197.496094 286.914062 203.4375 C 286.914062 209.382812 290.269531 213.347656 295.300781 213.347656 C 300.332031 213.347656 303.6875 209.386719 303.6875 203.4375 Z M 303.6875 203.4375 " fill-opacity="1" fill-rule="nonzero"/><path fill="#d7d8d3" d="M 127.726562 230.78125 L 127.710938 222.613281 L 130.625 222.613281 C 131.101562 222.613281 131.546875 222.714844 131.953125 222.925781 C 132.359375 223.136719 132.679688 223.417969 132.921875 223.769531 C 133.160156 224.121094 133.277344 224.507812 133.277344 224.925781 C 133.277344 225.335938 133.160156 225.71875 132.921875 226.074219 C 132.679688 226.429688 132.359375 226.714844 131.953125 226.925781 C 131.546875 227.136719 131.101562 227.238281 130.625 227.238281 L 128.289062 227.238281 L 128.289062 230.78125 Z M 128.292969 226.648438 L 130.628906 226.648438 C 131.007812 226.648438 131.355469 226.570312 131.671875 226.414062 C 131.988281 226.257812 132.242188 226.046875 132.433594 225.785156 C 132.621094 225.523438 132.71875 225.234375 132.71875 224.925781 C 132.71875 224.609375 132.625 224.316406 132.433594 224.054688 C 132.242188 223.792969 131.988281 223.582031 131.671875 223.425781 C 131.355469 223.269531 131.007812 223.191406 130.628906 223.191406 L 128.28125 223.191406 Z M 128.292969 226.648438 " fill-opacity="1" fill-rule="nonzero"/><path fill="#d7d8d3" d="M 144.332031 227.617188 C 144.546875 227.933594 144.652344 228.269531 144.652344 228.632812 C 144.652344 228.941406 144.578125 229.238281 144.429688 229.519531 C 144.277344 229.796875 144.058594 230.042969 143.773438 230.253906 C 143.1875 230.671875 142.503906 230.882812 141.726562 230.882812 C 141.34375 230.882812 140.972656 230.824219 140.625 230.71875 C 140.273438 230.613281 139.957031 230.457031 139.679688 230.253906 C 139.203125 229.902344 138.914062 229.46875 138.8125 228.960938 L 139.351562 228.65625 C 139.378906 229.117188 139.601562 229.496094 140.03125 229.789062 C 140.25 229.953125 140.503906 230.082031 140.800781 230.171875 C 141.09375 230.261719 141.402344 230.304688 141.730469 230.304688 C 142.398438 230.304688 142.964844 230.132812 143.425781 229.792969 C 143.871094 229.464844 144.09375 229.078125 144.09375 228.636719 C 144.09375 228.375 144.011719 228.132812 143.847656 227.90625 C 143.6875 227.679688 143.457031 227.488281 143.164062 227.332031 C 142.886719 227.1875 142.394531 227.074219 141.683594 226.992188 C 141.625 226.984375 141.414062 226.949219 141.046875 226.890625 C 140.683594 226.832031 140.371094 226.738281 140.113281 226.613281 C 139.703125 226.414062 139.382812 226.148438 139.144531 225.816406 C 138.910156 225.484375 138.792969 225.125 138.792969 224.742188 C 138.792969 224.429688 138.871094 224.136719 139.027344 223.867188 C 139.183594 223.59375 139.398438 223.355469 139.6875 223.144531 C 139.964844 222.945312 140.28125 222.789062 140.628906 222.679688 C 140.980469 222.570312 141.351562 222.515625 141.734375 222.515625 C 142.515625 222.515625 143.199219 222.726562 143.78125 223.144531 C 144.269531 223.515625 144.554688 223.941406 144.636719 224.425781 L 144.097656 224.730469 C 144.089844 224.519531 144.027344 224.320312 143.914062 224.128906 C 143.800781 223.933594 143.640625 223.757812 143.429688 223.597656 C 143.207031 223.433594 142.941406 223.304688 142.652344 223.214844 C 142.359375 223.125 142.054688 223.082031 141.734375 223.082031 C 141.417969 223.082031 141.105469 223.125 140.8125 223.214844 C 140.511719 223.304688 140.257812 223.429688 140.039062 223.597656 C 139.820312 223.757812 139.65625 223.933594 139.535156 224.136719 C 139.417969 224.332031 139.359375 224.535156 139.359375 224.746094 C 139.359375 225.003906 139.457031 225.261719 139.648438 225.515625 C 139.839844 225.773438 140.078125 225.972656 140.363281 226.113281 C 140.542969 226.199219 140.734375 226.257812 140.949219 226.296875 C 141.164062 226.332031 141.4375 226.375 141.773438 226.414062 C 141.832031 226.421875 141.980469 226.445312 142.210938 226.476562 C 142.445312 226.511719 142.671875 226.558594 142.890625 226.617188 C 143.109375 226.675781 143.292969 226.746094 143.445312 226.832031 C 143.820312 227.039062 144.117188 227.304688 144.332031 227.617188 Z M 144.332031 227.617188 " fill-opacity="1" fill-rule="nonzero"/><path fill="#d7d8d3" d="M 150.695312 222.613281 L 151.257812 222.613281 L 151.257812 230.78125 L 150.695312 230.78125 Z M 150.695312 222.613281 " fill-opacity="1" fill-rule="nonzero"/><path fill="#d7d8d3" d="M 161.210938 230.871094 C 160.464844 230.871094 159.773438 230.679688 159.140625 230.304688 C 158.503906 229.929688 158 229.417969 157.632812 228.777344 C 157.261719 228.136719 157.078125 227.441406 157.078125 226.6875 C 157.078125 225.933594 157.261719 225.238281 157.632812 224.601562 C 158 223.964844 158.503906 223.457031 159.140625 223.078125 C 159.773438 222.703125 160.464844 222.511719 161.210938 222.511719 C 161.792969 222.511719 162.347656 222.632812 162.878906 222.871094 C 163.410156 223.113281 163.875 223.449219 164.277344 223.882812 L 163.839844 224.273438 C 163.503906 223.894531 163.109375 223.601562 162.652344 223.390625 C 162.195312 223.183594 161.71875 223.078125 161.210938 223.078125 C 160.566406 223.078125 159.972656 223.242188 159.429688 223.5625 C 158.886719 223.882812 158.449219 224.324219 158.128906 224.875 C 157.804688 225.429688 157.644531 226.03125 157.644531 226.683594 C 157.644531 227.339844 157.804688 227.941406 158.128906 228.496094 C 158.449219 229.046875 158.886719 229.484375 159.429688 229.804688 C 159.972656 230.128906 160.566406 230.289062 161.210938 230.289062 C 161.746094 230.289062 162.257812 230.171875 162.738281 229.9375 C 163.21875 229.707031 163.632812 229.378906 163.976562 228.960938 L 164.425781 229.3125 C 164.03125 229.804688 163.554688 230.191406 162.992188 230.460938 C 162.433594 230.734375 161.839844 230.871094 161.210938 230.871094 Z M 161.210938 230.871094 " fill-opacity="1" fill-rule="nonzero"/><path fill="#d7d8d3" d="M 173.714844 230.871094 C 172.96875 230.871094 172.277344 230.683594 171.640625 230.3125 C 171.007812 229.9375 170.503906 229.433594 170.132812 228.789062 C 169.765625 228.152344 169.582031 227.453125 169.582031 226.699219 C 169.582031 225.945312 169.765625 225.246094 170.132812 224.609375 C 170.503906 223.96875 171.007812 223.457031 171.640625 223.085938 C 172.277344 222.710938 172.96875 222.527344 173.714844 222.527344 C 174.460938 222.527344 175.152344 222.710938 175.785156 223.085938 C 176.421875 223.457031 176.925781 223.964844 177.292969 224.609375 C 177.664062 225.246094 177.847656 225.945312 177.847656 226.699219 C 177.847656 227.453125 177.664062 228.152344 177.292969 228.789062 C 176.925781 229.433594 176.421875 229.9375 175.785156 230.3125 C 175.152344 230.679688 174.460938 230.871094 173.714844 230.871094 Z M 173.714844 223.105469 C 173.066406 223.105469 172.472656 223.265625 171.929688 223.589844 C 171.386719 223.910156 170.949219 224.34375 170.628906 224.894531 C 170.308594 225.445312 170.144531 226.046875 170.144531 226.699219 C 170.144531 227.351562 170.308594 227.953125 170.628906 228.5 C 170.949219 229.050781 171.386719 229.488281 171.929688 229.808594 C 172.472656 230.132812 173.066406 230.292969 173.714844 230.292969 C 174.359375 230.292969 174.957031 230.132812 175.5 229.808594 C 176.042969 229.488281 176.472656 229.050781 176.792969 228.5 C 177.109375 227.953125 177.269531 227.351562 177.269531 226.699219 C 177.269531 226.046875 177.109375 225.441406 176.792969 224.894531 C 176.472656 224.347656 176.042969 223.914062 175.5 223.589844 C 174.957031 223.261719 174.359375 223.105469 173.714844 223.105469 Z M 173.714844 223.105469 " fill-opacity="1" fill-rule="nonzero"/><path fill="#d7d8d3" d="M 183.441406 230.78125 L 183.441406 222.613281 L 184.007812 222.613281 L 184.007812 230.214844 L 188.59375 230.214844 L 188.59375 230.78125 Z M 183.441406 230.78125 " fill-opacity="1" fill-rule="nonzero"/><path fill="#d7d8d3" d="M 197.378906 230.871094 C 196.632812 230.871094 195.941406 230.683594 195.304688 230.3125 C 194.667969 229.9375 194.167969 229.433594 193.796875 228.789062 C 193.429688 228.152344 193.242188 227.453125 193.242188 226.699219 C 193.242188 225.945312 193.429688 225.246094 193.796875 224.609375 C 194.167969 223.96875 194.667969 223.457031 195.304688 223.085938 C 195.941406 222.710938 196.632812 222.527344 197.378906 222.527344 C 198.125 222.527344 198.8125 222.710938 199.449219 223.085938 C 200.085938 223.457031 200.585938 223.964844 200.957031 224.609375 C 201.328125 225.246094 201.511719 225.945312 201.511719 226.699219 C 201.511719 227.453125 201.328125 228.152344 200.957031 228.789062 C 200.585938 229.433594 200.085938 229.9375 199.449219 230.3125 C 198.8125 230.679688 198.125 230.871094 197.378906 230.871094 Z M 197.378906 223.105469 C 196.730469 223.105469 196.136719 223.265625 195.59375 223.589844 C 195.050781 223.910156 194.613281 224.34375 194.292969 224.894531 C 193.972656 225.445312 193.808594 226.046875 193.808594 226.699219 C 193.808594 227.351562 193.972656 227.953125 194.292969 228.5 C 194.613281 229.050781 195.050781 229.488281 195.59375 229.808594 C 196.136719 230.132812 196.730469 230.292969 197.378906 230.292969 C 198.023438 230.292969 198.617188 230.132812 199.160156 229.808594 C 199.703125 229.488281 200.136719 229.050781 200.453125 228.5 C 200.773438 227.953125 200.929688 227.351562 200.929688 226.699219 C 200.929688 226.046875 200.773438 225.441406 200.453125 224.894531 C 200.136719 224.347656 199.703125 223.914062 199.160156 223.589844 C 198.617188 223.261719 198.023438 223.105469 197.378906 223.105469 Z M 197.378906 223.105469 " fill-opacity="1" fill-rule="nonzero"/><path fill="#d7d8d3" d="M 213.789062 230.78125 L 210.835938 230.78125 C 210.089844 230.78125 209.402344 230.597656 208.773438 230.226562 C 208.148438 229.859375 207.648438 229.359375 207.277344 228.726562 C 206.910156 228.09375 206.722656 227.402344 206.722656 226.648438 C 206.722656 225.902344 206.910156 225.214844 207.277344 224.578125 C 207.648438 223.945312 208.148438 223.445312 208.773438 223.070312 C 209.402344 222.699219 210.089844 222.511719 210.835938 222.511719 C 211.40625 222.511719 211.953125 222.632812 212.476562 222.863281 C 213 223.101562 213.457031 223.425781 213.839844 223.84375 L 213.425781 224.230469 C 213.089844 223.871094 212.699219 223.59375 212.242188 223.394531 C 211.792969 223.199219 211.320312 223.101562 210.835938 223.101562 C 210.199219 223.101562 209.609375 223.257812 209.0625 223.578125 C 208.519531 223.894531 208.085938 224.324219 207.769531 224.867188 C 207.453125 225.40625 207.292969 226 207.292969 226.644531 C 207.292969 227.285156 207.453125 227.886719 207.769531 228.429688 C 208.085938 228.972656 208.519531 229.40625 209.0625 229.726562 C 209.605469 230.050781 210.195312 230.210938 210.835938 230.210938 L 213.195312 230.210938 L 213.195312 227.28125 L 210.507812 227.28125 L 210.507812 226.71875 L 213.789062 226.71875 Z M 213.789062 230.78125 " fill-opacity="1" fill-rule="nonzero"/><path fill="#d7d8d3" d="M 220.125 222.613281 L 220.6875 222.613281 L 220.6875 230.78125 L 220.125 230.78125 Z M 220.125 222.613281 " fill-opacity="1" fill-rule="nonzero"/><path fill="#d7d8d3" d="M 227.972656 228.707031 L 227.007812 230.78125 L 226.378906 230.78125 L 230.222656 222.511719 L 233.855469 230.78125 L 233.238281 230.78125 L 232.324219 228.707031 Z M 230.199219 223.90625 L 228.238281 228.140625 L 232.066406 228.140625 Z M 230.199219 223.90625 " fill-opacity="1" fill-rule="nonzero"/><path fill="#d7d8d3" d="M 56.265625 226.679688 L 121.4375 226.679688 L 121.4375 227.417969 L 56.265625 227.417969 Z M 56.265625 226.679688 " fill-opacity="1" fill-rule="nonzero"/><path fill="#d7d8d3" d="M 240.441406 226.679688 L 305.617188 226.679688 L 305.617188 227.417969 L 240.441406 227.417969 Z M 240.441406 226.679688 " fill-opacity="1" fill-rule="nonzero"/><path fill="#d7d8d3" d="M 187.804688 156.683594 C 187.546875 155.558594 187.066406 154.480469 186.363281 153.449219 C 185.25 151.8125 183.6875 150.421875 181.679688 149.289062 C 180.890625 148.851562 179.933594 148.480469 178.796875 148.171875 C 177.660156 147.871094 176.480469 147.625 175.257812 147.453125 C 174.035156 147.28125 173.269531 147.167969 172.964844 147.128906 C 171.21875 146.910156 169.785156 146.703125 168.671875 146.503906 C 167.558594 146.308594 166.542969 145.988281 165.625 145.554688 C 164.136719 144.8125 162.894531 143.773438 161.886719 142.445312 C 160.882812 141.109375 160.382812 139.769531 160.382812 138.414062 C 160.382812 137.324219 160.6875 136.261719 161.296875 135.234375 C 161.910156 134.207031 162.78125 133.28125 163.917969 132.449219 C 165.050781 131.578125 166.394531 130.910156 167.945312 130.453125 C 169.5 129.992188 171.101562 129.765625 172.765625 129.765625 C 174.421875 129.765625 176.019531 129.992188 177.550781 130.453125 C 179.078125 130.910156 180.429688 131.578125 181.613281 132.449219 C 182.703125 133.28125 183.546875 134.199219 184.136719 135.203125 C 184.726562 136.207031 185.042969 137.257812 185.085938 138.347656 L 187.90625 136.773438 C 187.46875 134.238281 185.984375 132.011719 183.449219 130.089844 C 180.390625 127.90625 176.832031 126.8125 172.769531 126.8125 C 170.757812 126.8125 168.835938 127.097656 167 127.660156 C 165.164062 128.230469 163.527344 129.039062 162.085938 130.085938 C 160.601562 131.179688 159.457031 132.433594 158.648438 133.855469 C 157.839844 135.273438 157.4375 136.792969 157.4375 138.410156 C 157.4375 140.417969 158.050781 142.289062 159.273438 144.011719 C 160.496094 145.738281 162.175781 147.128906 164.320312 148.171875 C 165.671875 148.832031 167.300781 149.3125 169.199219 149.613281 C 171.097656 149.921875 172.203125 150.09375 172.511719 150.140625 C 176.222656 150.574219 178.800781 151.164062 180.242188 151.910156 C 181.773438 152.738281 182.960938 153.746094 183.816406 154.921875 C 184.667969 156.101562 185.09375 157.367188 185.09375 158.726562 C 185.09375 161.042969 183.933594 163.050781 181.621094 164.753906 C 179.761719 166.140625 177.578125 166.984375 175.066406 167.300781 L 171.367188 167.382812 C 170.175781 167.289062 169.027344 167.085938 167.921875 166.753906 C 166.390625 166.292969 165.058594 165.628906 163.925781 164.753906 C 161.695312 163.226562 160.519531 161.257812 160.382812 158.859375 L 157.566406 160.433594 C 158.089844 163.097656 159.597656 165.34375 162.085938 167.179688 C 163.527344 168.230469 165.167969 169.039062 167 169.605469 C 168.386719 170.035156 169.828125 170.292969 171.3125 170.394531 L 175.035156 170.335938 C 178.167969 170 180.96875 168.949219 183.449219 167.175781 C 184.894531 166.117188 186.003906 164.878906 186.789062 163.464844 L 187.628906 162.414062 L 187.632812 162.414062 L 188.492188 161.332031 L 200.714844 145.960938 L 200.714844 182.5 L 204.140625 182.5 L 204.140625 136.140625 Z M 187.804688 156.683594 " fill-opacity="1" fill-rule="nonzero"/><path fill="#d7d8d3" d="M 186.746094 161.140625 C 183.417969 158.0625 180.09375 154.980469 176.769531 151.90625 C 174.921875 151.535156 173.074219 151.164062 171.226562 150.796875 C 175.78125 155.109375 180.34375 159.414062 184.898438 163.726562 C 185.515625 162.867188 186.128906 162.003906 186.746094 161.140625 Z M 186.746094 161.140625 " fill-opacity="1" fill-rule="nonzero"/><g clip-path="url(#be09a24e2c)"><path fill="url(#e18220cf14)" d="M 171.597656 156.707031 L 171.597656 182.570312 L 174.921875 182.570312 L 174.921875 156.707031 Z M 171.597656 156.707031 " fill-rule="nonzero"/></g></svg>