<svg xmlns="http://www.w3.org/2000/svg" xmlns:xlink="http://www.w3.org/1999/xlink" width="500" zoomAndPan="magnify" viewBox="0 0 375 374.999991" height="500" preserveAspectRatio="xMidYMid meet" version="1.0"><defs><clipPath id="01d8866769"><path d="M 176.988281 163.15625 L 180.582031 163.15625 L 180.582031 191.105469 L 176.988281 191.105469 Z M 176.988281 163.15625 " clip-rule="nonzero"/></clipPath><linearGradient x1="516.44268" gradientTransform="matrix(0.399306, 0, 0, 0.399306, -33.150119, -26.116089)" y1="539.373448" x2="545.071877" gradientUnits="userSpaceOnUse" y2="478.624044" id="c3ff49be91"><stop stop-opacity="1" stop-color="rgb(74.024963%, 55.273438%, 11.680603%)" offset="0"/><stop stop-opacity="1" stop-color="rgb(74.201965%, 55.549622%, 11.984253%)" offset="0.00390625"/><stop stop-opacity="1" stop-color="rgb(74.380493%, 55.825806%, 12.289429%)" offset="0.0078125"/><stop stop-opacity="1" stop-color="rgb(74.559021%, 56.10199%, 12.593079%)" offset="0.0117188"/><stop stop-opacity="1" stop-color="rgb(74.737549%, 56.378174%, 12.898254%)" offset="0.015625"/><stop stop-opacity="1" stop-color="rgb(74.916077%, 56.654358%, 13.201904%)" offset="0.0195313"/><stop stop-opacity="1" stop-color="rgb(75.094604%, 56.930542%, 13.50708%)" offset="0.0234375"/><stop stop-opacity="1" stop-color="rgb(75.273132%, 57.2052%, 13.81073%)" offset="0.0273438"/><stop stop-opacity="1" stop-color="rgb(75.45166%, 57.481384%, 14.115906%)" offset="0.03125"/><stop stop-opacity="1" stop-color="rgb(75.630188%, 57.757568%, 14.421082%)" offset="0.0351562"/><stop stop-opacity="1" stop-color="rgb(75.808716%, 58.033752%, 14.726257%)" offset="0.0390625"/><stop stop-opacity="1" stop-color="rgb(75.985718%, 58.309937%, 15.029907%)" offset="0.0429688"/><stop stop-opacity="1" stop-color="rgb(76.164246%, 58.586121%, 15.335083%)" offset="0.046875"/><stop stop-opacity="1" stop-color="rgb(76.342773%, 58.860779%, 15.638733%)" offset="0.0507812"/><stop stop-opacity="1" stop-color="rgb(76.521301%, 59.136963%, 15.943909%)" offset="0.0546875"/><stop stop-opacity="1" stop-color="rgb(76.699829%, 59.413147%, 16.247559%)" offset="0.0585938"/><stop stop-opacity="1" stop-color="rgb(76.878357%, 59.689331%, 16.552734%)" offset="0.0625"/><stop stop-opacity="1" stop-color="rgb(77.056885%, 59.965515%, 16.85791%)" offset="0.0664062"/><stop stop-opacity="1" stop-color="rgb(77.235413%, 60.241699%, 17.163086%)" offset="0.0703125"/><stop stop-opacity="1" stop-color="rgb(77.41394%, 60.517883%, 17.466736%)" offset="0.0742188"/><stop stop-opacity="1" stop-color="rgb(77.592468%, 60.794067%, 17.771912%)" offset="0.078125"/><stop stop-opacity="1" stop-color="rgb(77.76947%, 61.068726%, 18.075562%)" offset="0.0820312"/><stop stop-opacity="1" stop-color="rgb(77.947998%, 61.34491%, 18.380737%)" offset="0.0859375"/><stop stop-opacity="1" stop-color="rgb(78.126526%, 61.621094%, 18.684387%)" offset="0.0898438"/><stop stop-opacity="1" stop-color="rgb(78.305054%, 61.897278%, 18.989563%)" offset="0.09375"/><stop stop-opacity="1" stop-color="rgb(78.483582%, 62.173462%, 19.293213%)" offset="0.0976563"/><stop stop-opacity="1" stop-color="rgb(78.662109%, 62.449646%, 19.598389%)" offset="0.101563"/><stop stop-opacity="1" stop-color="rgb(78.840637%, 62.724304%, 19.903564%)" offset="0.105469"/><stop stop-opacity="1" stop-color="rgb(79.019165%, 63.000488%, 20.20874%)" offset="0.109375"/><stop stop-opacity="1" stop-color="rgb(79.197693%, 63.276672%, 20.51239%)" offset="0.113281"/><stop stop-opacity="1" stop-color="rgb(79.376221%, 63.552856%, 20.817566%)" offset="0.117188"/><stop stop-opacity="1" stop-color="rgb(79.550171%, 63.816833%, 21.110535%)" offset="0.121094"/><stop stop-opacity="1" stop-color="rgb(79.724121%, 64.082336%, 21.403503%)" offset="0.125"/><stop stop-opacity="1" stop-color="rgb(79.891968%, 64.328003%, 21.67511%)" offset="0.128906"/><stop stop-opacity="1" stop-color="rgb(80.059814%, 64.575195%, 21.948242%)" offset="0.132813"/><stop stop-opacity="1" stop-color="rgb(80.227661%, 64.820862%, 22.221375%)" offset="0.136719"/><stop stop-opacity="1" stop-color="rgb(80.395508%, 65.066528%, 22.494507%)" offset="0.140625"/><stop stop-opacity="1" stop-color="rgb(80.563354%, 65.312195%, 22.767639%)" offset="0.144531"/><stop stop-opacity="1" stop-color="rgb(80.731201%, 65.557861%, 23.040771%)" offset="0.148438"/><stop stop-opacity="1" stop-color="rgb(80.899048%, 65.803528%, 23.313904%)" offset="0.152344"/><stop stop-opacity="1" stop-color="rgb(81.066895%, 66.05072%, 23.587036%)" offset="0.15625"/><stop stop-opacity="1" stop-color="rgb(81.234741%, 66.296387%, 23.858643%)" offset="0.160156"/><stop stop-opacity="1" stop-color="rgb(81.402588%, 66.542053%, 24.131775%)" offset="0.164063"/><stop stop-opacity="1" stop-color="rgb(81.568909%, 66.78772%, 24.404907%)" offset="0.167969"/><stop stop-opacity="1" stop-color="rgb(81.736755%, 67.034912%, 24.67804%)" offset="0.171875"/><stop stop-opacity="1" stop-color="rgb(81.904602%, 67.280579%, 24.951172%)" offset="0.175781"/><stop stop-opacity="1" stop-color="rgb(82.072449%, 67.526245%, 25.224304%)" offset="0.179688"/><stop stop-opacity="1" stop-color="rgb(82.240295%, 67.771912%, 25.497437%)" offset="0.183594"/><stop stop-opacity="1" stop-color="rgb(82.408142%, 68.017578%, 25.770569%)" offset="0.1875"/><stop stop-opacity="1" stop-color="rgb(82.575989%, 68.263245%, 26.043701%)" offset="0.191406"/><stop stop-opacity="1" stop-color="rgb(82.743835%, 68.510437%, 26.316833%)" offset="0.195313"/><stop stop-opacity="1" stop-color="rgb(82.911682%, 68.756104%, 26.58844%)" offset="0.199219"/><stop stop-opacity="1" stop-color="rgb(83.079529%, 69.00177%, 26.861572%)" offset="0.203125"/><stop stop-opacity="1" stop-color="rgb(83.247375%, 69.247437%, 27.134705%)" offset="0.207031"/><stop stop-opacity="1" stop-color="rgb(83.415222%, 69.493103%, 27.407837%)" offset="0.210938"/><stop stop-opacity="1" stop-color="rgb(83.583069%, 69.73877%, 27.680969%)" offset="0.214844"/><stop stop-opacity="1" stop-color="rgb(83.750916%, 69.985962%, 27.954102%)" offset="0.21875"/><stop stop-opacity="1" stop-color="rgb(83.918762%, 70.231628%, 28.227234%)" offset="0.222656"/><stop stop-opacity="1" stop-color="rgb(84.086609%, 70.477295%, 28.500366%)" offset="0.226562"/><stop stop-opacity="1" stop-color="rgb(84.254456%, 70.722961%, 28.773499%)" offset="0.230469"/><stop stop-opacity="1" stop-color="rgb(84.422302%, 70.970154%, 29.046631%)" offset="0.234375"/><stop stop-opacity="1" stop-color="rgb(84.590149%, 71.21582%, 29.318237%)" offset="0.238281"/><stop stop-opacity="1" stop-color="rgb(84.757996%, 71.461487%, 29.59137%)" offset="0.242188"/><stop stop-opacity="1" stop-color="rgb(84.924316%, 71.707153%, 29.864502%)" offset="0.246094"/><stop stop-opacity="1" stop-color="rgb(85.092163%, 71.95282%, 30.137634%)" offset="0.25"/><stop stop-opacity="1" stop-color="rgb(85.26001%, 72.198486%, 30.410767%)" offset="0.253906"/><stop stop-opacity="1" stop-color="rgb(85.427856%, 72.445679%, 30.683899%)" offset="0.257812"/><stop stop-opacity="1" stop-color="rgb(85.595703%, 72.691345%, 30.957031%)" offset="0.261719"/><stop stop-opacity="1" stop-color="rgb(85.76355%, 72.937012%, 31.230164%)" offset="0.265625"/><stop stop-opacity="1" stop-color="rgb(85.931396%, 73.182678%, 31.503296%)" offset="0.269531"/><stop stop-opacity="1" stop-color="rgb(86.099243%, 73.428345%, 31.776428%)" offset="0.273438"/><stop stop-opacity="1" stop-color="rgb(86.26709%, 73.674011%, 32.048035%)" offset="0.277344"/><stop stop-opacity="1" stop-color="rgb(86.434937%, 73.921204%, 32.321167%)" offset="0.28125"/><stop stop-opacity="1" stop-color="rgb(86.602783%, 74.16687%, 32.594299%)" offset="0.285156"/><stop stop-opacity="1" stop-color="rgb(86.77063%, 74.412537%, 32.867432%)" offset="0.289062"/><stop stop-opacity="1" stop-color="rgb(86.938477%, 74.658203%, 33.140564%)" offset="0.292969"/><stop stop-opacity="1" stop-color="rgb(87.106323%, 74.905396%, 33.413696%)" offset="0.296875"/><stop stop-opacity="1" stop-color="rgb(87.27417%, 75.151062%, 33.686829%)" offset="0.300781"/><stop stop-opacity="1" stop-color="rgb(87.442017%, 75.396729%, 33.959961%)" offset="0.304688"/><stop stop-opacity="1" stop-color="rgb(87.609863%, 75.642395%, 34.231567%)" offset="0.308594"/><stop stop-opacity="1" stop-color="rgb(87.77771%, 75.888062%, 34.5047%)" offset="0.3125"/><stop stop-opacity="1" stop-color="rgb(87.944031%, 76.133728%, 34.777832%)" offset="0.316406"/><stop stop-opacity="1" stop-color="rgb(88.111877%, 76.38092%, 35.050964%)" offset="0.320312"/><stop stop-opacity="1" stop-color="rgb(88.279724%, 76.626587%, 35.324097%)" offset="0.324219"/><stop stop-opacity="1" stop-color="rgb(88.447571%, 76.872253%, 35.597229%)" offset="0.328125"/><stop stop-opacity="1" stop-color="rgb(88.615417%, 77.11792%, 35.870361%)" offset="0.332031"/><stop stop-opacity="1" stop-color="rgb(88.783264%, 77.365112%, 36.143494%)" offset="0.335938"/><stop stop-opacity="1" stop-color="rgb(88.951111%, 77.610779%, 36.416626%)" offset="0.339844"/><stop stop-opacity="1" stop-color="rgb(89.118958%, 77.856445%, 36.689758%)" offset="0.34375"/><stop stop-opacity="1" stop-color="rgb(89.286804%, 78.102112%, 36.961365%)" offset="0.347656"/><stop stop-opacity="1" stop-color="rgb(89.454651%, 78.347778%, 37.234497%)" offset="0.351563"/><stop stop-opacity="1" stop-color="rgb(89.622498%, 78.593445%, 37.507629%)" offset="0.355469"/><stop stop-opacity="1" stop-color="rgb(89.790344%, 78.840637%, 37.780762%)" offset="0.359375"/><stop stop-opacity="1" stop-color="rgb(89.958191%, 79.086304%, 38.053894%)" offset="0.363281"/><stop stop-opacity="1" stop-color="rgb(90.126038%, 79.33197%, 38.327026%)" offset="0.367188"/><stop stop-opacity="1" stop-color="rgb(90.293884%, 79.577637%, 38.600159%)" offset="0.371094"/><stop stop-opacity="1" stop-color="rgb(90.461731%, 79.823303%, 38.873291%)" offset="0.375"/><stop stop-opacity="1" stop-color="rgb(90.629578%, 80.06897%, 39.146423%)" offset="0.378906"/><stop stop-opacity="1" stop-color="rgb(90.797424%, 80.316162%, 39.419556%)" offset="0.382812"/><stop stop-opacity="1" stop-color="rgb(90.963745%, 80.561829%, 39.691162%)" offset="0.386719"/><stop stop-opacity="1" stop-color="rgb(91.131592%, 80.807495%, 39.964294%)" offset="0.390625"/><stop stop-opacity="1" stop-color="rgb(91.290283%, 81.04248%, 40.22522%)" offset="0.394531"/><stop stop-opacity="1" stop-color="rgb(91.4505%, 81.277466%, 40.486145%)" offset="0.398438"/><stop stop-opacity="1" stop-color="rgb(91.574097%, 81.466675%, 40.698242%)" offset="0.402344"/><stop stop-opacity="1" stop-color="rgb(91.697693%, 81.65741%, 40.911865%)" offset="0.40625"/><stop stop-opacity="1" stop-color="rgb(91.821289%, 81.846619%, 41.125488%)" offset="0.410156"/><stop stop-opacity="1" stop-color="rgb(91.944885%, 82.037354%, 41.339111%)" offset="0.414062"/><stop stop-opacity="1" stop-color="rgb(92.068481%, 82.226562%, 41.551208%)" offset="0.417969"/><stop stop-opacity="1" stop-color="rgb(92.192078%, 82.417297%, 41.764832%)" offset="0.421875"/><stop stop-opacity="1" stop-color="rgb(92.315674%, 82.606506%, 41.976929%)" offset="0.425781"/><stop stop-opacity="1" stop-color="rgb(92.440796%, 82.797241%, 42.190552%)" offset="0.429688"/><stop stop-opacity="1" stop-color="rgb(92.564392%, 82.98645%, 42.402649%)" offset="0.433594"/><stop stop-opacity="1" stop-color="rgb(92.687988%, 83.177185%, 42.616272%)" offset="0.4375"/><stop stop-opacity="1" stop-color="rgb(92.811584%, 83.366394%, 42.828369%)" offset="0.441406"/><stop stop-opacity="1" stop-color="rgb(92.935181%, 83.557129%, 43.041992%)" offset="0.445313"/><stop stop-opacity="1" stop-color="rgb(93.058777%, 83.746338%, 43.255615%)" offset="0.449219"/><stop stop-opacity="1" stop-color="rgb(93.182373%, 83.937073%, 43.469238%)" offset="0.453125"/><stop stop-opacity="1" stop-color="rgb(93.305969%, 84.126282%, 43.681335%)" offset="0.457031"/><stop stop-opacity="1" stop-color="rgb(93.431091%, 84.317017%, 43.894958%)" offset="0.460938"/><stop stop-opacity="1" stop-color="rgb(93.554688%, 84.506226%, 44.107056%)" offset="0.464844"/><stop stop-opacity="1" stop-color="rgb(93.678284%, 84.69696%, 44.320679%)" offset="0.46875"/><stop stop-opacity="1" stop-color="rgb(93.80188%, 84.886169%, 44.532776%)" offset="0.472656"/><stop stop-opacity="1" stop-color="rgb(93.925476%, 85.076904%, 44.746399%)" offset="0.476562"/><stop stop-opacity="1" stop-color="rgb(94.049072%, 85.266113%, 44.958496%)" offset="0.480469"/><stop stop-opacity="1" stop-color="rgb(94.172668%, 85.456848%, 45.172119%)" offset="0.484375"/><stop stop-opacity="1" stop-color="rgb(94.296265%, 85.646057%, 45.385742%)" offset="0.488281"/><stop stop-opacity="1" stop-color="rgb(94.421387%, 85.836792%, 45.599365%)" offset="0.492187"/><stop stop-opacity="1" stop-color="rgb(94.544983%, 86.026001%, 45.811462%)" offset="0.496094"/><stop stop-opacity="1" stop-color="rgb(94.668579%, 86.216736%, 46.025085%)" offset="0.5"/><stop stop-opacity="1" stop-color="rgb(94.792175%, 86.405945%, 46.237183%)" offset="0.503906"/><stop stop-opacity="1" stop-color="rgb(94.915771%, 86.59668%, 46.450806%)" offset="0.507813"/><stop stop-opacity="1" stop-color="rgb(95.039368%, 86.785889%, 46.662903%)" offset="0.511719"/><stop stop-opacity="1" stop-color="rgb(95.162964%, 86.976624%, 46.876526%)" offset="0.515625"/><stop stop-opacity="1" stop-color="rgb(95.28656%, 87.165833%, 47.090149%)" offset="0.519531"/><stop stop-opacity="1" stop-color="rgb(95.411682%, 87.356567%, 47.303772%)" offset="0.523438"/><stop stop-opacity="1" stop-color="rgb(95.535278%, 87.545776%, 47.515869%)" offset="0.527344"/><stop stop-opacity="1" stop-color="rgb(95.658875%, 87.736511%, 47.729492%)" offset="0.53125"/><stop stop-opacity="1" stop-color="rgb(95.533752%, 87.556458%, 47.583008%)" offset="0.539062"/><stop stop-opacity="1" stop-color="rgb(95.233154%, 87.123108%, 47.219849%)" offset="0.542969"/><stop stop-opacity="1" stop-color="rgb(95.059204%, 86.869812%, 47.003174%)" offset="0.546875"/><stop stop-opacity="1" stop-color="rgb(94.885254%, 86.616516%, 46.786499%)" offset="0.550781"/><stop stop-opacity="1" stop-color="rgb(94.711304%, 86.36322%, 46.569824%)" offset="0.554688"/><stop stop-opacity="1" stop-color="rgb(94.537354%, 86.109924%, 46.351624%)" offset="0.558594"/><stop stop-opacity="1" stop-color="rgb(94.363403%, 85.856628%, 46.134949%)" offset="0.5625"/><stop stop-opacity="1" stop-color="rgb(94.189453%, 85.603333%, 45.918274%)" offset="0.566406"/><stop stop-opacity="1" stop-color="rgb(94.015503%, 85.350037%, 45.701599%)" offset="0.570313"/><stop stop-opacity="1" stop-color="rgb(93.840027%, 85.095215%, 45.484924%)" offset="0.574219"/><stop stop-opacity="1" stop-color="rgb(93.666077%, 84.841919%, 45.26825%)" offset="0.578125"/><stop stop-opacity="1" stop-color="rgb(93.492126%, 84.588623%, 45.050049%)" offset="0.582031"/><stop stop-opacity="1" stop-color="rgb(93.318176%, 84.335327%, 44.833374%)" offset="0.585938"/><stop stop-opacity="1" stop-color="rgb(93.144226%, 84.082031%, 44.616699%)" offset="0.589844"/><stop stop-opacity="1" stop-color="rgb(92.970276%, 83.828735%, 44.400024%)" offset="0.59375"/><stop stop-opacity="1" stop-color="rgb(92.796326%, 83.575439%, 44.18335%)" offset="0.597656"/><stop stop-opacity="1" stop-color="rgb(92.622375%, 83.322144%, 43.966675%)" offset="0.601563"/><stop stop-opacity="1" stop-color="rgb(92.446899%, 83.068848%, 43.748474%)" offset="0.605469"/><stop stop-opacity="1" stop-color="rgb(92.272949%, 82.815552%, 43.531799%)" offset="0.609375"/><stop stop-opacity="1" stop-color="rgb(92.098999%, 82.562256%, 43.315125%)" offset="0.613281"/><stop stop-opacity="1" stop-color="rgb(91.925049%, 82.30896%, 43.09845%)" offset="0.617188"/><stop stop-opacity="1" stop-color="rgb(91.751099%, 82.055664%, 42.881775%)" offset="0.621094"/><stop stop-opacity="1" stop-color="rgb(91.577148%, 81.802368%, 42.6651%)" offset="0.625"/><stop stop-opacity="1" stop-color="rgb(91.401672%, 81.549072%, 42.446899%)" offset="0.628906"/><stop stop-opacity="1" stop-color="rgb(91.227722%, 81.295776%, 42.230225%)" offset="0.632812"/><stop stop-opacity="1" stop-color="rgb(91.053772%, 81.04248%, 42.01355%)" offset="0.636719"/><stop stop-opacity="1" stop-color="rgb(90.879822%, 80.789185%, 41.796875%)" offset="0.640625"/><stop stop-opacity="1" stop-color="rgb(90.705872%, 80.535889%, 41.5802%)" offset="0.644531"/><stop stop-opacity="1" stop-color="rgb(90.531921%, 80.282593%, 41.363525%)" offset="0.648438"/><stop stop-opacity="1" stop-color="rgb(90.357971%, 80.029297%, 41.146851%)" offset="0.652344"/><stop stop-opacity="1" stop-color="rgb(90.184021%, 79.776001%, 40.930176%)" offset="0.65625"/><stop stop-opacity="1" stop-color="rgb(90.008545%, 79.522705%, 40.711975%)" offset="0.660156"/><stop stop-opacity="1" stop-color="rgb(89.834595%, 79.269409%, 40.4953%)" offset="0.664063"/><stop stop-opacity="1" stop-color="rgb(89.660645%, 79.016113%, 40.278625%)" offset="0.667969"/><stop stop-opacity="1" stop-color="rgb(89.486694%, 78.762817%, 40.061951%)" offset="0.671875"/><stop stop-opacity="1" stop-color="rgb(89.312744%, 78.509521%, 39.845276%)" offset="0.675781"/><stop stop-opacity="1" stop-color="rgb(89.138794%, 78.256226%, 39.628601%)" offset="0.679688"/><stop stop-opacity="1" stop-color="rgb(88.963318%, 78.00293%, 39.4104%)" offset="0.683594"/><stop stop-opacity="1" stop-color="rgb(88.789368%, 77.749634%, 39.193726%)" offset="0.6875"/><stop stop-opacity="1" stop-color="rgb(88.615417%, 77.496338%, 38.977051%)" offset="0.691406"/><stop stop-opacity="1" stop-color="rgb(88.441467%, 77.243042%, 38.760376%)" offset="0.695312"/><stop stop-opacity="1" stop-color="rgb(88.267517%, 76.989746%, 38.543701%)" offset="0.699219"/><stop stop-opacity="1" stop-color="rgb(88.093567%, 76.73645%, 38.327026%)" offset="0.703125"/><stop stop-opacity="1" stop-color="rgb(87.919617%, 76.483154%, 38.108826%)" offset="0.707031"/><stop stop-opacity="1" stop-color="rgb(87.745667%, 76.229858%, 37.892151%)" offset="0.710937"/><stop stop-opacity="1" stop-color="rgb(87.57019%, 75.976562%, 37.675476%)" offset="0.714844"/><stop stop-opacity="1" stop-color="rgb(87.39624%, 75.723267%, 37.458801%)" offset="0.71875"/><stop stop-opacity="1" stop-color="rgb(87.22229%, 75.469971%, 37.242126%)" offset="0.722656"/><stop stop-opacity="1" stop-color="rgb(87.04834%, 75.216675%, 37.025452%)" offset="0.726563"/><stop stop-opacity="1" stop-color="rgb(86.87439%, 74.963379%, 36.807251%)" offset="0.730469"/><stop stop-opacity="1" stop-color="rgb(86.700439%, 74.710083%, 36.590576%)" offset="0.734375"/><stop stop-opacity="1" stop-color="rgb(86.526489%, 74.456787%, 36.373901%)" offset="0.738281"/><stop stop-opacity="1" stop-color="rgb(86.352539%, 74.203491%, 36.157227%)" offset="0.742188"/><stop stop-opacity="1" stop-color="rgb(86.177063%, 73.950195%, 35.940552%)" offset="0.746094"/><stop stop-opacity="1" stop-color="rgb(86.003113%, 73.696899%, 35.723877%)" offset="0.75"/><stop stop-opacity="1" stop-color="rgb(85.829163%, 73.443604%, 35.507202%)" offset="0.753906"/><stop stop-opacity="1" stop-color="rgb(85.655212%, 73.190308%, 35.290527%)" offset="0.757812"/><stop stop-opacity="1" stop-color="rgb(85.481262%, 72.937012%, 35.072327%)" offset="0.761719"/><stop stop-opacity="1" stop-color="rgb(85.307312%, 72.683716%, 34.855652%)" offset="0.765625"/><stop stop-opacity="1" stop-color="rgb(85.131836%, 72.43042%, 34.638977%)" offset="0.769531"/><stop stop-opacity="1" stop-color="rgb(84.957886%, 72.177124%, 34.422302%)" offset="0.773437"/><stop stop-opacity="1" stop-color="rgb(84.786987%, 71.928406%, 34.211731%)" offset="0.777344"/><stop stop-opacity="1" stop-color="rgb(84.617615%, 71.681213%, 34.00116%)" offset="0.78125"/><stop stop-opacity="1" stop-color="rgb(84.458923%, 71.447754%, 33.808899%)" offset="0.785156"/><stop stop-opacity="1" stop-color="rgb(84.301758%, 71.21582%, 33.618164%)" offset="0.789063"/><stop stop-opacity="1" stop-color="rgb(84.143066%, 70.983887%, 33.425903%)" offset="0.792969"/><stop stop-opacity="1" stop-color="rgb(83.985901%, 70.751953%, 33.233643%)" offset="0.796875"/><stop stop-opacity="1" stop-color="rgb(83.827209%, 70.518494%, 33.041382%)" offset="0.800781"/><stop stop-opacity="1" stop-color="rgb(83.670044%, 70.28656%, 32.850647%)" offset="0.804688"/><stop stop-opacity="1" stop-color="rgb(83.511353%, 70.054626%, 32.658386%)" offset="0.808594"/><stop stop-opacity="1" stop-color="rgb(83.352661%, 69.822693%, 32.466125%)" offset="0.8125"/><stop stop-opacity="1" stop-color="rgb(83.19397%, 69.590759%, 32.273865%)" offset="0.816406"/><stop stop-opacity="1" stop-color="rgb(83.036804%, 69.358826%, 32.08313%)" offset="0.820312"/><stop stop-opacity="1" stop-color="rgb(82.878113%, 69.125366%, 31.890869%)" offset="0.824219"/><stop stop-opacity="1" stop-color="rgb(82.720947%, 68.893433%, 31.698608%)" offset="0.828125"/><stop stop-opacity="1" stop-color="rgb(82.562256%, 68.661499%, 31.506348%)" offset="0.832031"/><stop stop-opacity="1" stop-color="rgb(82.403564%, 68.429565%, 31.315613%)" offset="0.835937"/><stop stop-opacity="1" stop-color="rgb(82.244873%, 68.197632%, 31.123352%)" offset="0.839844"/><stop stop-opacity="1" stop-color="rgb(82.087708%, 67.965698%, 30.932617%)" offset="0.84375"/><stop stop-opacity="1" stop-color="rgb(81.929016%, 67.732239%, 30.740356%)" offset="0.847656"/><stop stop-opacity="1" stop-color="rgb(81.771851%, 67.500305%, 30.548096%)" offset="0.851562"/><stop stop-opacity="1" stop-color="rgb(81.613159%, 67.268372%, 30.355835%)" offset="0.855469"/><stop stop-opacity="1" stop-color="rgb(81.454468%, 67.036438%, 30.1651%)" offset="0.859375"/><stop stop-opacity="1" stop-color="rgb(81.295776%, 66.802979%, 29.972839%)" offset="0.863281"/><stop stop-opacity="1" stop-color="rgb(81.138611%, 66.571045%, 29.780579%)" offset="0.867188"/><stop stop-opacity="1" stop-color="rgb(80.979919%, 66.339111%, 29.588318%)" offset="0.871094"/><stop stop-opacity="1" stop-color="rgb(80.822754%, 66.107178%, 29.397583%)" offset="0.875"/><stop stop-opacity="1" stop-color="rgb(80.664062%, 65.875244%, 29.205322%)" offset="0.878906"/><stop stop-opacity="1" stop-color="rgb(80.505371%, 65.643311%, 29.013062%)" offset="0.882812"/><stop stop-opacity="1" stop-color="rgb(80.34668%, 65.409851%, 28.820801%)" offset="0.886719"/><stop stop-opacity="1" stop-color="rgb(80.189514%, 65.177917%, 28.630066%)" offset="0.890625"/><stop stop-opacity="1" stop-color="rgb(80.030823%, 64.945984%, 28.437805%)" offset="0.894531"/><stop stop-opacity="1" stop-color="rgb(79.873657%, 64.71405%, 28.245544%)" offset="0.898437"/><stop stop-opacity="1" stop-color="rgb(79.714966%, 64.482117%, 28.053284%)" offset="0.902344"/><stop stop-opacity="1" stop-color="rgb(79.556274%, 64.250183%, 27.862549%)" offset="0.90625"/><stop stop-opacity="1" stop-color="rgb(79.397583%, 64.016724%, 27.670288%)" offset="0.910156"/><stop stop-opacity="1" stop-color="rgb(79.240417%, 63.78479%, 27.479553%)" offset="0.914062"/><stop stop-opacity="1" stop-color="rgb(79.081726%, 63.552856%, 27.287292%)" offset="0.917969"/><stop stop-opacity="1" stop-color="rgb(78.924561%, 63.320923%, 27.095032%)" offset="0.921875"/><stop stop-opacity="1" stop-color="rgb(78.765869%, 63.088989%, 26.902771%)" offset="0.925781"/><stop stop-opacity="1" stop-color="rgb(78.607178%, 62.857056%, 26.712036%)" offset="0.929687"/><stop stop-opacity="1" stop-color="rgb(78.448486%, 62.623596%, 26.519775%)" offset="0.933594"/><stop stop-opacity="1" stop-color="rgb(78.291321%, 62.391663%, 26.327515%)" offset="0.9375"/><stop stop-opacity="1" stop-color="rgb(78.132629%, 62.159729%, 26.135254%)" offset="0.941406"/><stop stop-opacity="1" stop-color="rgb(77.975464%, 61.927795%, 25.944519%)" offset="0.945312"/><stop stop-opacity="1" stop-color="rgb(77.816772%, 61.694336%, 25.752258%)" offset="0.949219"/><stop stop-opacity="1" stop-color="rgb(77.658081%, 61.462402%, 25.559998%)" offset="0.953125"/><stop stop-opacity="1" stop-color="rgb(77.49939%, 61.230469%, 25.367737%)" offset="0.957031"/><stop stop-opacity="1" stop-color="rgb(77.342224%, 60.998535%, 25.177002%)" offset="0.960938"/><stop stop-opacity="1" stop-color="rgb(77.183533%, 60.766602%, 24.984741%)" offset="0.964844"/><stop stop-opacity="1" stop-color="rgb(77.026367%, 60.534668%, 24.794006%)" offset="0.96875"/><stop stop-opacity="1" stop-color="rgb(76.867676%, 60.301208%, 24.601746%)" offset="0.972656"/><stop stop-opacity="1" stop-color="rgb(76.708984%, 60.069275%, 24.409485%)" offset="0.976562"/><stop stop-opacity="1" stop-color="rgb(76.550293%, 59.837341%, 24.217224%)" offset="0.980469"/><stop stop-opacity="1" stop-color="rgb(76.393127%, 59.605408%, 24.026489%)" offset="0.984375"/><stop stop-opacity="1" stop-color="rgb(76.234436%, 59.373474%, 23.834229%)" offset="0.988281"/><stop stop-opacity="1" stop-color="rgb(76.077271%, 59.141541%, 23.641968%)" offset="0.992187"/><stop stop-opacity="1" stop-color="rgb(75.918579%, 58.908081%, 23.449707%)" offset="0.996094"/><stop stop-opacity="1" stop-color="rgb(75.759888%, 58.676147%, 23.258972%)" offset="1"/></linearGradient></defs><rect x="-37.5" width="450" fill="#ffffff" y="-37.499999" height="449.999989" fill-opacity="1"/><rect x="-37.5" width="450" fill="#d7d8d3" y="-37.499999" height="449.999989" fill-opacity="1"/><path fill="#e7b1af" d="M 61.5625 215.433594 C 62.84375 216.613281 63.171875 218.042969 63.171875 219.339844 C 63.171875 222.886719 60.855469 225.335938 57.167969 225.335938 C 55.597656 225.335938 53 224.886719 51.742188 223.582031 C 51.503906 222.589844 51.625 220.550781 52.113281 219.113281 L 52.398438 219.113281 C 52.074219 222.414062 54.167969 224.53125 57.019531 224.371094 C 59.359375 224.242188 61.316406 222.640625 61.316406 220.074219 C 61.316406 218.820312 60.863281 217.832031 60.058594 217.089844 L 53.917969 211.386719 C 52.621094 210.203125 52.179688 208.65625 52.179688 207.414062 C 52.179688 204.710938 54.160156 201.996094 57.816406 201.996094 C 58.660156 201.996094 59.710938 202.140625 60.566406 202.324219 L 61.835938 202.324219 L 61.835938 206.253906 L 61.527344 206.253906 C 61.539062 204.203125 59.921875 202.953125 57.921875 202.953125 C 55.558594 202.953125 53.976562 204.6875 53.976562 206.640625 C 53.976562 207.472656 54.257812 208.660156 55.269531 209.59375 Z M 61.5625 215.433594 " fill-opacity="1" fill-rule="nonzero"/><path fill="#e7b1af" d="M 85.09375 222.542969 C 85.738281 223.96875 86.925781 224.5625 87.90625 224.5625 L 88.175781 224.5625 L 88.175781 224.882812 L 80.957031 224.882812 L 80.957031 224.5625 L 81.238281 224.5625 C 82.066406 224.5625 82.925781 223.832031 82.457031 222.550781 L 80.410156 217.09375 L 71.769531 217.09375 L 69.625 222.570312 C 69.171875 223.839844 70.027344 224.5625 70.847656 224.5625 L 71.132812 224.5625 L 71.132812 224.882812 L 64.679688 224.882812 L 64.679688 224.5625 L 64.96875 224.5625 C 65.941406 224.5625 67.128906 223.972656 67.773438 222.546875 L 75.046875 205.292969 C 75.046875 205.292969 76.230469 202.699219 76.230469 201.992188 L 76.519531 201.992188 Z M 80.046875 216.128906 L 76.179688 205.839844 L 72.148438 216.128906 Z M 80.046875 216.128906 " fill-opacity="1" fill-rule="nonzero"/><path fill="#e7b1af" d="M 114.347656 222.554688 C 114.511719 223.820312 115.539062 224.5625 116.683594 224.5625 L 117.195312 224.5625 L 117.195312 224.882812 L 110.230469 224.882812 L 110.230469 224.578125 L 110.726562 224.578125 C 111.417969 224.578125 112.042969 223.902344 111.976562 223.210938 L 110.523438 207.078125 L 103.789062 222.058594 C 103.789062 222.058594 102.894531 224.007812 102.691406 225.335938 L 102.386719 225.335938 L 94.1875 207.546875 L 92.78125 223.214844 C 92.71875 223.90625 93.34375 224.578125 94.03125 224.582031 L 94.53125 224.582031 L 94.53125 224.886719 L 88.320312 224.886719 L 88.320312 224.566406 L 88.828125 224.566406 C 89.976562 224.566406 91.003906 223.824219 91.164062 222.558594 L 93.578125 201.996094 L 93.878906 201.996094 L 102.824219 221.339844 L 111.574219 202.007812 L 111.867188 202.007812 Z M 114.347656 222.554688 " fill-opacity="1" fill-rule="nonzero"/><path fill="#e7b1af" d="M 138.566406 202.441406 L 138.566406 202.761719 L 138.121094 202.761719 C 136.78125 202.761719 135.589844 203.644531 134.90625 204.621094 L 128.566406 214.867188 L 128.566406 222.542969 C 128.585938 223.660156 129.496094 224.558594 130.617188 224.558594 L 131.023438 224.558594 L 131.027344 224.878906 L 124.015625 224.878906 L 124.019531 224.558594 L 124.429688 224.558594 C 125.542969 224.558594 126.449219 223.667969 126.480469 222.5625 L 126.480469 214.835938 L 120.375 204.628906 C 119.757812 203.644531 118.496094 202.757812 117.152344 202.757812 L 116.71875 202.757812 L 116.71875 202.4375 L 124.605469 202.4375 L 124.605469 202.757812 L 124.199219 202.757812 C 123.261719 202.757812 122.605469 203.839844 123.078125 204.75 L 127.882812 213.722656 L 132.992188 204.746094 L 133.007812 204.71875 C 133.507812 203.816406 132.734375 202.761719 131.867188 202.761719 L 131.464844 202.761719 L 131.464844 202.441406 Z M 138.566406 202.441406 " fill-opacity="1" fill-rule="nonzero"/><path fill="#e7b1af" d="M 172.765625 222.554688 C 172.925781 223.820312 173.953125 224.5625 175.101562 224.5625 L 175.609375 224.5625 L 175.609375 224.882812 L 168.644531 224.882812 L 168.644531 224.578125 L 169.140625 224.578125 C 169.832031 224.578125 170.457031 223.902344 170.390625 223.210938 L 168.9375 207.078125 L 162.203125 222.058594 C 162.203125 222.058594 161.308594 224.007812 161.105469 225.335938 L 160.800781 225.335938 L 152.601562 207.546875 L 151.199219 223.214844 C 151.132812 223.90625 151.757812 224.578125 152.445312 224.582031 L 152.945312 224.582031 L 152.945312 224.886719 L 146.738281 224.886719 L 146.738281 224.566406 L 147.25 224.566406 C 148.394531 224.566406 149.421875 223.824219 149.585938 222.558594 L 151.996094 201.996094 L 152.296875 201.996094 L 161.242188 221.339844 L 169.992188 202.007812 L 170.285156 202.007812 Z M 172.765625 222.554688 " fill-opacity="1" fill-rule="nonzero"/><path fill="#e7b1af" d="M 196.179688 222.542969 C 196.824219 223.96875 198.011719 224.5625 198.996094 224.5625 L 199.261719 224.5625 L 199.261719 224.882812 L 192.042969 224.882812 L 192.042969 224.5625 L 192.324219 224.5625 C 193.152344 224.5625 194.011719 223.832031 193.542969 222.550781 L 191.496094 217.09375 L 182.859375 217.09375 L 180.710938 222.570312 C 180.257812 223.839844 181.113281 224.5625 181.9375 224.5625 L 182.21875 224.5625 L 182.21875 224.882812 L 175.765625 224.882812 L 175.765625 224.5625 L 176.054688 224.5625 C 177.027344 224.5625 178.214844 223.972656 178.859375 222.546875 L 186.132812 205.292969 C 186.132812 205.292969 187.320312 202.699219 187.320312 201.992188 L 187.605469 201.992188 Z M 191.132812 216.128906 L 187.265625 205.839844 L 183.234375 216.128906 Z M 191.132812 216.128906 " fill-opacity="1" fill-rule="nonzero"/><path fill="#e7b1af" d="M 220.566406 215.527344 L 220.171875 220.558594 C 218.484375 223.320312 215.617188 225.335938 211.164062 225.335938 C 204.460938 225.300781 199.71875 220.71875 199.71875 213.632812 C 199.71875 206.675781 204.300781 201.992188 211.355469 201.992188 C 214.5 201.992188 217.0625 202.921875 218.941406 204.15625 L 219.585938 208.683594 L 219.320312 208.683594 C 218.34375 204.941406 215.203125 202.953125 211.347656 202.949219 C 205.710938 202.949219 202.121094 207.214844 202.121094 213.59375 C 202.121094 220.039062 205.773438 224.242188 211.164062 224.367188 C 215.71875 224.355469 219.570312 222.089844 220.296875 215.523438 L 220.566406 215.523438 Z M 220.566406 215.527344 " fill-opacity="1" fill-rule="nonzero"/><path fill="#e7b1af" d="M 239.289062 224.882812 L 239.292969 224.5625 L 239.699219 224.5625 C 240.8125 224.5625 241.71875 223.675781 241.75 222.570312 L 241.75 214.269531 L 228.628906 214.269531 L 228.628906 222.546875 C 228.652344 223.664062 229.5625 224.5625 230.683594 224.5625 L 231.089844 224.5625 L 231.09375 224.882812 L 224.078125 224.882812 L 224.082031 224.5625 L 224.488281 224.5625 C 225.613281 224.5625 226.523438 223.664062 226.542969 222.546875 L 226.542969 204.761719 C 226.515625 203.652344 225.609375 202.757812 224.488281 202.757812 L 224.082031 202.757812 L 224.078125 202.4375 L 231.089844 202.4375 L 231.085938 202.757812 L 230.679688 202.757812 C 229.566406 202.757812 228.660156 203.648438 228.625 204.753906 L 228.625 213.308594 L 241.746094 213.308594 L 241.746094 204.734375 C 241.703125 203.636719 240.804688 202.757812 239.695312 202.757812 L 239.289062 202.757812 L 239.285156 202.4375 L 246.296875 202.4375 L 246.292969 202.757812 L 245.882812 202.757812 C 244.761719 202.757812 243.851562 203.65625 243.832031 204.773438 L 243.832031 222.546875 C 243.851562 223.664062 244.761719 224.5625 245.882812 224.5625 L 246.292969 224.5625 L 246.296875 224.882812 Z M 239.289062 224.882812 " fill-opacity="1" fill-rule="nonzero"/><path fill="#e7b1af" d="M 268.316406 222.542969 C 268.964844 223.96875 270.152344 224.5625 271.132812 224.5625 L 271.398438 224.5625 L 271.398438 224.882812 L 264.179688 224.882812 L 264.179688 224.5625 L 264.464844 224.5625 C 265.289062 224.5625 266.148438 223.832031 265.683594 222.550781 L 263.632812 217.09375 L 254.996094 217.09375 L 252.847656 222.570312 C 252.398438 223.839844 253.25 224.5625 254.074219 224.5625 L 254.359375 224.5625 L 254.359375 224.882812 L 247.90625 224.882812 L 247.90625 224.5625 L 248.191406 224.5625 C 249.167969 224.5625 250.351562 223.972656 251 222.546875 L 258.269531 205.292969 C 258.269531 205.292969 259.457031 202.699219 259.457031 201.992188 L 259.746094 201.992188 Z M 263.269531 216.128906 L 259.40625 205.839844 L 255.371094 216.128906 Z M 263.269531 216.128906 " fill-opacity="1" fill-rule="nonzero"/><path fill="#e7b1af" d="M 283.828125 202.445312 C 290.675781 202.445312 295.34375 206.9375 295.34375 213.675781 C 295.34375 220.398438 290.675781 224.886719 283.828125 224.886719 L 272.972656 224.886719 L 272.976562 224.566406 L 273.386719 224.566406 C 274.507812 224.566406 275.414062 223.667969 275.4375 222.554688 L 275.4375 204.597656 C 275.4375 203.570312 274.453125 202.765625 273.398438 202.765625 L 272.988281 202.765625 L 272.984375 202.445312 Z M 277.527344 223.914062 L 283.828125 223.914062 C 289.320312 223.914062 292.933594 219.820312 292.933594 213.679688 C 292.933594 207.519531 289.289062 203.414062 283.828125 203.414062 L 277.527344 203.414062 Z M 277.527344 223.914062 " fill-opacity="1" fill-rule="nonzero"/><path fill="#e7b1af" d="M 322.210938 213.664062 C 322.210938 220.667969 317.507812 225.335938 310.6875 225.335938 C 303.871094 225.335938 299.164062 220.667969 299.164062 213.664062 C 299.164062 206.660156 303.871094 201.992188 310.6875 201.992188 C 317.507812 201.992188 322.210938 206.660156 322.210938 213.664062 Z M 319.757812 213.664062 C 319.757812 207.238281 316.128906 202.953125 310.691406 202.953125 C 305.253906 202.953125 301.628906 207.238281 301.628906 213.664062 C 301.628906 220.085938 305.253906 224.371094 310.691406 224.371094 C 316.128906 224.371094 319.757812 220.085938 319.757812 213.664062 Z M 319.757812 213.664062 " fill-opacity="1" fill-rule="nonzero"/><path fill="#6e765d" d="M 129.566406 243.214844 L 129.554688 234.386719 L 132.707031 234.386719 C 133.21875 234.386719 133.699219 234.5 134.140625 234.726562 C 134.578125 234.953125 134.925781 235.257812 135.183594 235.636719 C 135.445312 236.015625 135.574219 236.433594 135.574219 236.886719 C 135.574219 237.328125 135.445312 237.746094 135.183594 238.128906 C 134.925781 238.511719 134.578125 238.820312 134.140625 239.046875 C 133.699219 239.273438 133.21875 239.386719 132.707031 239.386719 L 130.179688 239.386719 L 130.179688 243.214844 Z M 130.183594 238.742188 L 132.710938 238.742188 C 133.117188 238.742188 133.492188 238.660156 133.835938 238.492188 C 134.179688 238.324219 134.453125 238.097656 134.65625 237.8125 C 134.863281 237.53125 134.964844 237.21875 134.964844 236.882812 C 134.964844 236.539062 134.867188 236.222656 134.65625 235.941406 C 134.453125 235.65625 134.179688 235.429688 133.835938 235.261719 C 133.492188 235.09375 133.117188 235.007812 132.710938 235.007812 L 130.164062 235.007812 Z M 130.183594 238.742188 " fill-opacity="1" fill-rule="nonzero"/><path fill="#6e765d" d="M 147.515625 239.796875 C 147.746094 240.136719 147.863281 240.5 147.863281 240.890625 C 147.863281 241.226562 147.785156 241.546875 147.621094 241.851562 C 147.457031 242.152344 147.21875 242.417969 146.914062 242.644531 C 146.277344 243.097656 145.539062 243.324219 144.699219 243.324219 C 144.285156 243.324219 143.886719 243.261719 143.507812 243.148438 C 143.128906 243.03125 142.789062 242.863281 142.488281 242.644531 C 141.972656 242.265625 141.65625 241.796875 141.550781 241.246094 L 142.132812 240.917969 C 142.160156 241.417969 142.40625 241.824219 142.867188 242.140625 C 143.101562 242.320312 143.378906 242.460938 143.699219 242.558594 C 144.015625 242.652344 144.347656 242.699219 144.703125 242.699219 C 145.425781 242.699219 146.039062 242.515625 146.539062 242.144531 C 147.015625 241.792969 147.257812 241.375 147.257812 240.894531 C 147.257812 240.617188 147.167969 240.351562 146.992188 240.109375 C 146.816406 239.867188 146.570312 239.65625 146.253906 239.484375 C 145.953125 239.332031 145.417969 239.210938 144.652344 239.117188 C 144.589844 239.109375 144.359375 239.074219 143.964844 239.011719 C 143.570312 238.945312 143.234375 238.847656 142.957031 238.710938 C 142.511719 238.496094 142.164062 238.207031 141.910156 237.847656 C 141.652344 237.488281 141.53125 237.101562 141.53125 236.6875 C 141.53125 236.351562 141.613281 236.035156 141.78125 235.746094 C 141.949219 235.449219 142.183594 235.191406 142.496094 234.960938 C 142.796875 234.746094 143.136719 234.578125 143.515625 234.457031 C 143.894531 234.339844 144.292969 234.28125 144.707031 234.28125 C 145.550781 234.28125 146.289062 234.511719 146.921875 234.960938 C 147.449219 235.359375 147.753906 235.824219 147.84375 236.347656 L 147.261719 236.675781 C 147.253906 236.449219 147.183594 236.230469 147.0625 236.023438 C 146.941406 235.816406 146.769531 235.625 146.542969 235.453125 C 146.296875 235.273438 146.015625 235.132812 145.699219 235.039062 C 145.382812 234.941406 145.050781 234.894531 144.707031 234.894531 C 144.363281 234.894531 144.03125 234.941406 143.710938 235.039062 C 143.386719 235.132812 143.109375 235.269531 142.875 235.453125 C 142.640625 235.625 142.460938 235.816406 142.332031 236.03125 C 142.203125 236.242188 142.140625 236.464844 142.140625 236.691406 C 142.140625 236.96875 142.246094 237.25 142.453125 237.527344 C 142.660156 237.800781 142.917969 238.015625 143.226562 238.171875 C 143.417969 238.265625 143.625 238.328125 143.859375 238.367188 C 144.089844 238.40625 144.386719 238.453125 144.75 238.496094 C 144.8125 238.503906 144.972656 238.527344 145.222656 238.5625 C 145.476562 238.597656 145.722656 238.652344 145.957031 238.714844 C 146.195312 238.777344 146.394531 238.855469 146.558594 238.945312 C 146.960938 239.171875 147.285156 239.457031 147.515625 239.796875 Z M 147.515625 239.796875 " fill-opacity="1" fill-rule="nonzero"/><path fill="#6e765d" d="M 154.394531 234.386719 L 155.007812 234.386719 L 155.007812 243.214844 L 154.394531 243.214844 Z M 154.394531 234.386719 " fill-opacity="1" fill-rule="nonzero"/><path fill="#6e765d" d="M 165.765625 243.308594 C 164.957031 243.308594 164.210938 243.105469 163.523438 242.695312 C 162.835938 242.289062 162.292969 241.738281 161.894531 241.046875 C 161.496094 240.351562 161.296875 239.601562 161.296875 238.789062 C 161.296875 237.972656 161.496094 237.222656 161.894531 236.53125 C 162.292969 235.84375 162.835938 235.292969 163.523438 234.886719 C 164.210938 234.480469 164.957031 234.273438 165.765625 234.273438 C 166.390625 234.273438 166.988281 234.402344 167.566406 234.664062 C 168.140625 234.921875 168.644531 235.285156 169.078125 235.757812 L 168.601562 236.175781 C 168.238281 235.769531 167.8125 235.453125 167.320312 235.226562 C 166.824219 234.996094 166.3125 234.886719 165.765625 234.886719 C 165.066406 234.886719 164.421875 235.0625 163.835938 235.410156 C 163.25 235.757812 162.777344 236.230469 162.429688 236.828125 C 162.082031 237.425781 161.90625 238.078125 161.90625 238.78125 C 161.90625 239.488281 162.082031 240.140625 162.429688 240.738281 C 162.777344 241.339844 163.25 241.808594 163.835938 242.15625 C 164.421875 242.503906 165.066406 242.679688 165.765625 242.679688 C 166.34375 242.679688 166.894531 242.550781 167.414062 242.300781 C 167.933594 242.050781 168.378906 241.695312 168.75 241.242188 L 169.238281 241.621094 C 168.8125 242.15625 168.296875 242.574219 167.6875 242.863281 C 167.085938 243.164062 166.441406 243.308594 165.765625 243.308594 Z M 165.765625 243.308594 " fill-opacity="1" fill-rule="nonzero"/><path fill="#6e765d" d="M 179.277344 243.308594 C 178.46875 243.308594 177.722656 243.109375 177.035156 242.703125 C 176.347656 242.300781 175.804688 241.753906 175.40625 241.058594 C 175.007812 240.367188 174.808594 239.613281 174.808594 238.800781 C 174.808594 237.984375 175.007812 237.230469 175.40625 236.539062 C 175.804688 235.847656 176.347656 235.296875 177.035156 234.894531 C 177.722656 234.492188 178.46875 234.292969 179.277344 234.292969 C 180.082031 234.292969 180.828125 234.492188 181.515625 234.894531 C 182.203125 235.296875 182.746094 235.84375 183.144531 236.539062 C 183.546875 237.230469 183.746094 237.984375 183.746094 238.800781 C 183.746094 239.613281 183.546875 240.367188 183.144531 241.058594 C 182.746094 241.753906 182.203125 242.300781 181.515625 242.703125 C 180.828125 243.109375 180.082031 243.308594 179.277344 243.308594 Z M 179.277344 234.914062 C 178.578125 234.914062 177.933594 235.089844 177.347656 235.4375 C 176.761719 235.785156 176.289062 236.253906 175.941406 236.851562 C 175.59375 237.445312 175.417969 238.09375 175.417969 238.800781 C 175.417969 239.507812 175.59375 240.15625 175.941406 240.746094 C 176.289062 241.34375 176.761719 241.8125 177.347656 242.160156 C 177.933594 242.507812 178.578125 242.683594 179.277344 242.683594 C 179.976562 242.683594 180.617188 242.507812 181.207031 242.160156 C 181.792969 241.8125 182.257812 241.34375 182.601562 240.746094 C 182.945312 240.15625 183.117188 239.507812 183.117188 238.800781 C 183.117188 238.09375 182.945312 237.441406 182.601562 236.851562 C 182.257812 236.257812 181.792969 235.789062 181.207031 235.4375 C 180.617188 235.085938 179.976562 234.914062 179.277344 234.914062 Z M 179.277344 234.914062 " fill-opacity="1" fill-rule="nonzero"/><path fill="#6e765d" d="M 189.789062 243.214844 L 189.789062 234.386719 L 190.402344 234.386719 L 190.402344 242.605469 L 195.359375 242.605469 L 195.359375 243.214844 Z M 189.789062 243.214844 " fill-opacity="1" fill-rule="nonzero"/><path fill="#6e765d" d="M 204.851562 243.308594 C 204.046875 243.308594 203.296875 243.109375 202.613281 242.703125 C 201.925781 242.300781 201.382812 241.753906 200.984375 241.058594 C 200.582031 240.367188 200.382812 239.613281 200.382812 238.800781 C 200.382812 237.984375 200.582031 237.230469 200.984375 236.539062 C 201.382812 235.847656 201.925781 235.296875 202.613281 234.894531 C 203.296875 234.492188 204.046875 234.292969 204.851562 234.292969 C 205.660156 234.292969 206.40625 234.492188 207.09375 234.894531 C 207.777344 235.296875 208.320312 235.84375 208.722656 236.539062 C 209.121094 237.230469 209.320312 237.984375 209.320312 238.800781 C 209.320312 239.613281 209.121094 240.367188 208.722656 241.058594 C 208.320312 241.753906 207.777344 242.300781 207.09375 242.703125 C 206.40625 243.109375 205.660156 243.308594 204.851562 243.308594 Z M 204.851562 234.914062 C 204.152344 234.914062 203.511719 235.089844 202.921875 235.4375 C 202.335938 235.785156 201.863281 236.253906 201.519531 236.851562 C 201.171875 237.445312 200.996094 238.09375 200.996094 238.800781 C 200.996094 239.507812 201.171875 240.15625 201.519531 240.746094 C 201.863281 241.34375 202.335938 241.8125 202.921875 242.160156 C 203.511719 242.507812 204.152344 242.683594 204.851562 242.683594 C 205.550781 242.683594 206.195312 242.507812 206.78125 242.160156 C 207.367188 241.8125 207.835938 241.34375 208.179688 240.746094 C 208.523438 240.15625 208.691406 239.507812 208.691406 238.800781 C 208.691406 238.09375 208.523438 237.441406 208.179688 236.851562 C 207.835938 236.257812 207.367188 235.789062 206.78125 235.4375 C 206.195312 235.085938 205.546875 234.914062 204.851562 234.914062 Z M 204.851562 234.914062 " fill-opacity="1" fill-rule="nonzero"/><path fill="#6e765d" d="M 222.589844 243.214844 L 219.398438 243.214844 C 218.59375 243.214844 217.847656 243.015625 217.171875 242.617188 C 216.492188 242.21875 215.953125 241.679688 215.554688 240.996094 C 215.152344 240.3125 214.953125 239.5625 214.953125 238.746094 C 214.953125 237.941406 215.152344 237.199219 215.554688 236.511719 C 215.953125 235.828125 216.492188 235.285156 217.171875 234.882812 C 217.847656 234.480469 218.59375 234.277344 219.398438 234.277344 C 220.011719 234.277344 220.605469 234.40625 221.171875 234.660156 C 221.738281 234.914062 222.230469 235.265625 222.644531 235.714844 L 222.199219 236.136719 C 221.835938 235.75 221.410156 235.445312 220.921875 235.234375 C 220.433594 235.023438 219.921875 234.914062 219.398438 234.914062 C 218.710938 234.914062 218.074219 235.085938 217.480469 235.429688 C 216.894531 235.773438 216.429688 236.234375 216.085938 236.824219 C 215.742188 237.40625 215.570312 238.046875 215.570312 238.742188 C 215.570312 239.4375 215.742188 240.085938 216.085938 240.671875 C 216.429688 241.257812 216.894531 241.730469 217.480469 242.078125 C 218.070312 242.425781 218.707031 242.601562 219.398438 242.601562 L 221.949219 242.601562 L 221.949219 239.433594 L 219.042969 239.433594 L 219.042969 238.824219 L 222.589844 238.824219 Z M 222.589844 243.214844 " fill-opacity="1" fill-rule="nonzero"/><path fill="#6e765d" d="M 229.433594 234.386719 L 230.042969 234.386719 L 230.042969 243.214844 L 229.433594 243.214844 Z M 229.433594 234.386719 " fill-opacity="1" fill-rule="nonzero"/><path fill="#6e765d" d="M 237.921875 240.972656 L 236.875 243.210938 L 236.199219 243.210938 L 240.355469 234.273438 L 244.28125 243.210938 L 243.613281 243.210938 L 242.621094 240.972656 Z M 240.328125 235.785156 L 238.207031 240.359375 L 242.347656 240.359375 Z M 240.328125 235.785156 " fill-opacity="1" fill-rule="nonzero"/><path fill="#6e765d" d="M 52.332031 238.785156 L 122.773438 238.785156 L 122.773438 239.582031 L 52.332031 239.582031 Z M 52.332031 238.785156 " fill-opacity="1" fill-rule="nonzero"/><path fill="#6e765d" d="M 251.398438 238.785156 L 321.839844 238.785156 L 321.839844 239.582031 L 251.398438 239.582031 Z M 251.398438 238.785156 " fill-opacity="1" fill-rule="nonzero"/><path fill="#6e765d" d="M 194.507812 163.128906 C 194.226562 161.914062 193.707031 160.746094 192.949219 159.632812 C 191.742188 157.863281 190.054688 156.363281 187.886719 155.136719 C 187.035156 154.664062 185.996094 154.261719 184.769531 153.929688 C 183.539062 153.601562 182.265625 153.339844 180.945312 153.152344 C 179.625 152.964844 178.796875 152.84375 178.464844 152.800781 C 176.578125 152.566406 175.03125 152.339844 173.824219 152.125 C 172.625 151.914062 171.527344 151.570312 170.53125 151.101562 C 168.925781 150.296875 167.582031 149.175781 166.496094 147.738281 C 165.410156 146.296875 164.867188 144.847656 164.867188 143.382812 C 164.867188 142.203125 165.195312 141.058594 165.855469 139.945312 C 166.519531 138.835938 167.460938 137.835938 168.6875 136.9375 C 169.914062 135.992188 171.367188 135.269531 173.042969 134.777344 C 174.71875 134.28125 176.453125 134.035156 178.25 134.035156 C 180.042969 134.035156 181.769531 134.28125 183.421875 134.777344 C 185.074219 135.269531 186.535156 135.992188 187.8125 136.9375 C 188.992188 137.835938 189.902344 138.824219 190.539062 139.910156 C 191.179688 140.996094 191.519531 142.132812 191.566406 143.308594 L 194.613281 141.609375 C 194.144531 138.867188 192.539062 136.460938 189.796875 134.386719 C 186.492188 132.023438 182.648438 130.84375 178.253906 130.84375 C 176.082031 130.84375 174.003906 131.152344 172.019531 131.761719 C 170.035156 132.375 168.269531 133.25 166.710938 134.378906 C 165.105469 135.5625 163.867188 136.921875 162.992188 138.453125 C 162.117188 139.988281 161.683594 141.632812 161.683594 143.378906 C 161.683594 145.550781 162.347656 147.570312 163.667969 149.433594 C 164.988281 151.300781 166.804688 152.800781 169.121094 153.929688 C 170.582031 154.640625 172.34375 155.160156 174.398438 155.488281 C 176.449219 155.820312 177.644531 156.007812 177.976562 156.054688 C 181.988281 156.527344 184.773438 157.164062 186.332031 157.96875 C 187.984375 158.867188 189.269531 159.953125 190.195312 161.226562 C 191.117188 162.5 191.574219 163.871094 191.574219 165.335938 C 191.574219 167.839844 190.320312 170.011719 187.820312 171.851562 C 185.8125 173.347656 183.453125 174.261719 180.738281 174.601562 L 176.742188 174.691406 C 175.449219 174.589844 174.210938 174.371094 173.015625 174.011719 C 171.363281 173.515625 169.921875 172.796875 168.695312 171.851562 C 166.285156 170.199219 165.011719 168.074219 164.871094 165.480469 L 161.824219 167.179688 C 162.390625 170.0625 164.019531 172.492188 166.710938 174.476562 C 168.269531 175.609375 170.039062 176.484375 172.019531 177.09375 C 173.519531 177.558594 175.074219 177.835938 176.679688 177.949219 L 180.703125 177.886719 C 184.089844 177.523438 187.117188 176.382812 189.796875 174.472656 C 191.359375 173.324219 192.5625 171.988281 193.40625 170.457031 L 194.3125 169.324219 L 194.316406 169.324219 L 195.25 168.152344 L 208.457031 151.539062 L 208.457031 191.03125 L 212.164062 191.03125 L 212.164062 140.925781 Z M 194.507812 163.128906 " fill-opacity="1" fill-rule="nonzero"/><path fill="#6e765d" d="M 193.359375 167.945312 C 189.765625 164.621094 186.171875 161.289062 182.578125 157.964844 C 180.582031 157.566406 178.585938 157.164062 176.589844 156.765625 C 181.511719 161.425781 186.441406 166.082031 191.363281 170.742188 C 192.027344 169.8125 192.691406 168.875 193.359375 167.945312 Z M 193.359375 167.945312 " fill-opacity="1" fill-rule="nonzero"/><g clip-path="url(#01d8866769)"><path fill="url(#c3ff49be91)" d="M 176.988281 163.15625 L 176.988281 191.105469 L 180.582031 191.105469 L 180.582031 163.15625 Z M 176.988281 163.15625 " fill-rule="nonzero"/></g></svg>