<svg xmlns="http://www.w3.org/2000/svg" xmlns:xlink="http://www.w3.org/1999/xlink" width="1080" zoomAndPan="magnify" viewBox="0 0 810 1439.999935" height="1920" preserveAspectRatio="xMidYMid meet" version="1.0"><rect x="-81" width="972" fill="#ffffff" y="-143.999994" height="1727.999922" fill-opacity="1"/><rect x="-81" width="972" fill="#d7d8d3" y="-143.999994" height="1727.999922" fill-opacity="1"/><path fill="#6e765d" d="M 552.96875 707.058594 L 544.394531 719.777344 L 358.671875 594.691406 L 367.246094 581.972656 C 371.183594 576.125 379.15625 574.5625 384.984375 578.496094 L 549.492188 689.300781 C 555.34375 693.234375 556.902344 701.207031 552.96875 707.058594 Z M 493.144531 795.878906 L 502.574219 728.582031 L 527.261719 745.214844 Z M 475.660156 854.25 C 474.679688 861.222656 468.207031 866.113281 461.234375 865.136719 L 264.8125 837.617188 C 257.835938 836.640625 252.925781 830.144531 253.925781 823.171875 L 265.976562 737.097656 L 487.730469 768.195312 Z M 272.367188 691.550781 C 273.347656 684.554688 279.820312 679.683594 286.792969 680.664062 L 483.214844 708.203125 C 490.210938 709.160156 495.101562 715.632812 494.101562 722.628906 L 491.976562 737.804688 L 270.222656 706.726562 Z M 341.558594 620.128906 L 452.011719 694.527344 L 305.296875 673.9375 Z M 554.636719 681.683594 L 390.144531 570.878906 C 380.089844 564.113281 366.394531 566.757812 359.609375 576.832031 L 295.140625 672.523438 L 288.082031 671.546875 C 276.074219 669.859375 264.9375 678.269531 263.25 690.28125 L 244.828125 821.878906 C 243.121094 833.890625 251.53125 845.027344 263.519531 846.714844 L 459.941406 874.253906 C 471.953125 875.941406 483.089844 867.507812 484.777344 855.519531 L 490.230469 816.675781 L 560.589844 712.179688 C 567.375 702.144531 564.6875 688.449219 554.636719 681.683594 " fill-opacity="1" fill-rule="nonzero"/><path fill="#6e765d" d="M 372.015625 775.9375 L 466.726562 789.242188 L 467.769531 781.726562 L 373.078125 768.445312 L 372.015625 775.9375 " fill-opacity="1" fill-rule="nonzero"/><path fill="#6e765d" d="M 369.765625 792.175781 L 464.460938 805.433594 L 465.5 797.921875 L 370.808594 784.640625 L 369.765625 792.175781 " fill-opacity="1" fill-rule="nonzero"/></svg>