<svg xmlns="http://www.w3.org/2000/svg" xmlns:xlink="http://www.w3.org/1999/xlink" width="1080" zoomAndPan="magnify" viewBox="0 0 810 1439.999935" height="1920" preserveAspectRatio="xMidYMid meet" version="1.0"><rect x="-81" width="972" fill="#ffffff" y="-143.999994" height="1727.999922" fill-opacity="1"/><rect x="-81" width="972" fill="#6e765d" y="-143.999994" height="1727.999922" fill-opacity="1"/><path fill="#d7d8d3" d="M 319.675781 582.644531 C 313.382812 582.644531 308.296875 587.71875 308.296875 594.042969 L 308.296875 632.851562 C 308.296875 639.164062 313.382812 644.246094 319.675781 644.246094 C 325.988281 644.246094 331.074219 639.167969 331.074219 632.851562 L 331.074219 619.617188 C 336.28125 623.304688 339.398438 629.292969 339.398438 635.699219 C 339.398438 646.589844 330.566406 655.425781 319.675781 655.425781 C 308.785156 655.425781 299.949219 646.589844 299.949219 635.699219 L 299.949219 603.097656 L 285.988281 603.097656 C 278.214844 603.097656 270.8125 605.0625 265.027344 609.65625 C 259.210938 614.273438 255.546875 621.429688 254.777344 629.605469 L 243.382812 809.195312 C 242.871094 817.457031 244.703125 825.429688 249.605469 831.464844 C 254.507812 837.492188 262.28125 841.269531 270.878906 841.269531 L 426.574219 841.269531 C 421.871094 836.078125 417.71875 830.378906 414.359375 824.199219 L 272.800781 824.199219 C 268.605469 824.199219 266.0625 822.742188 264.144531 820.378906 C 262.222656 818.039062 261.207031 814.480469 261.449219 809.953125 L 268.667969 669.832031 L 481.578125 669.832031 L 482.832031 694.152344 C 485.839844 693.84375 488.886719 693.6875 491.980469 693.6875 C 494.496094 693.6875 497.035156 693.820312 499.550781 694.015625 L 495.464844 629.609375 C 494.667969 621.433594 491.023438 614.28125 485.214844 609.660156 C 479.429688 605.070312 472.03125 603.101562 464.253906 603.101562 L 441.945312 603.101562 L 441.945312 594.046875 C 441.945312 587.722656 436.863281 582.648438 430.546875 582.648438 C 424.253906 582.648438 419.175781 587.722656 419.175781 594.046875 L 419.175781 632.851562 C 419.175781 639.164062 424.253906 644.246094 430.546875 644.246094 C 436.863281 644.246094 441.945312 639.167969 441.945312 632.851562 L 441.945312 619.617188 C 447.15625 623.304688 450.273438 629.292969 450.292969 635.699219 C 450.292969 646.589844 441.457031 655.425781 430.546875 655.425781 C 419.65625 655.425781 410.824219 646.589844 410.824219 635.699219 L 410.824219 603.097656 L 331.074219 603.097656 L 331.074219 594.042969 C 331.074219 587.722656 325.988281 582.644531 319.675781 582.644531 Z M 319.675781 582.644531 " fill-opacity="1" fill-rule="evenodd"/><path fill="#d7d8d3" d="M 491.980469 707.238281 C 450.695312 707.238281 417.234375 740.746094 417.234375 782.09375 C 417.234375 823.421875 450.699219 856.933594 491.980469 856.933594 C 511.789062 856.933594 530.808594 849.066406 544.808594 835.019531 C 558.816406 820.96875 566.695312 801.953125 566.695312 782.09375 C 566.695312 762.242188 558.8125 743.195312 544.808594 729.152344 C 530.808594 715.125 511.789062 707.238281 491.980469 707.238281 Z M 491.980469 725.753906 C 506.886719 725.753906 521.203125 731.691406 531.738281 742.253906 C 542.292969 752.835938 548.214844 767.144531 548.214844 782.097656 C 548.214844 797.03125 542.292969 811.363281 531.738281 821.921875 C 521.203125 832.503906 506.886719 838.425781 491.980469 838.425781 C 460.898438 838.425781 435.714844 813.199219 435.714844 782.101562 C 435.71875 750.96875 460.898438 725.753906 491.980469 725.753906 Z M 491.980469 725.753906 " fill-opacity="1" fill-rule="evenodd"/><path fill="#d7d8d3" d="M 298.539062 698.871094 L 326.832031 698.871094 C 330.984375 698.871094 334.34375 702.199219 334.34375 706.355469 L 334.34375 728.441406 C 334.34375 732.59375 330.984375 735.929688 326.832031 735.929688 L 298.539062 735.929688 C 294.382812 735.929688 291.023438 732.589844 291.023438 728.441406 L 291.023438 706.355469 C 291.023438 702.199219 294.382812 698.871094 298.539062 698.871094 Z M 298.539062 698.871094 " fill-opacity="1" fill-rule="evenodd"/><path fill="#d7d8d3" d="M 360.980469 698.871094 L 389.269531 698.871094 C 393.425781 698.871094 396.785156 702.199219 396.785156 706.355469 L 396.785156 728.441406 C 396.785156 732.59375 393.425781 735.929688 389.269531 735.929688 L 360.980469 735.929688 C 356.824219 735.929688 353.464844 732.589844 353.464844 728.441406 L 353.464844 706.355469 C 353.464844 702.199219 356.824219 698.871094 360.980469 698.871094 Z M 360.980469 698.871094 " fill-opacity="1" fill-rule="evenodd"/><path fill="#d7d8d3" d="M 423.421875 698.871094 C 419.265625 698.871094 415.90625 702.199219 415.90625 706.355469 L 415.90625 728.441406 C 415.90625 730.515625 416.75 732.417969 418.117188 733.769531 C 427.546875 719.390625 441.023438 707.898438 456.925781 700.992188 C 455.582031 699.6875 453.75 698.871094 451.710938 698.871094 Z M 423.421875 698.871094 " fill-opacity="1" fill-rule="evenodd"/><path fill="#d7d8d3" d="M 298.539062 758.085938 L 326.832031 758.085938 C 330.984375 758.085938 334.34375 761.445312 334.34375 765.597656 L 334.34375 787.667969 C 334.34375 791.816406 330.984375 795.175781 326.832031 795.175781 L 298.539062 795.175781 C 294.382812 795.175781 291.023438 791.816406 291.023438 787.667969 L 291.023438 765.597656 C 291.023438 761.445312 294.382812 758.085938 298.539062 758.085938 Z M 298.539062 758.085938 " fill-opacity="1" fill-rule="evenodd"/><path fill="#d7d8d3" d="M 360.980469 758.085938 L 389.269531 758.085938 C 393.425781 758.085938 396.785156 761.445312 396.785156 765.597656 L 396.785156 787.667969 C 396.785156 791.816406 393.425781 795.175781 389.269531 795.175781 L 360.980469 795.175781 C 356.824219 795.175781 353.464844 791.816406 353.464844 787.667969 L 353.464844 765.597656 C 353.464844 761.445312 356.824219 758.085938 360.980469 758.085938 Z M 360.980469 758.085938 " fill-opacity="1" fill-rule="evenodd"/><path fill="#d7d8d3" d="M 491.3125 734.296875 C 488 734.34375 485.355469 737.078125 485.394531 740.390625 L 485.460938 784.5 L 509.714844 808.640625 C 512.054688 811.046875 515.945312 811.066406 518.3125 808.664062 C 520.671875 806.273438 520.605469 802.40625 518.175781 800.09375 L 497.457031 779.480469 L 497.410156 740.363281 C 497.453125 736.992188 494.695312 734.234375 491.3125 734.296875 Z M 491.3125 734.296875 " fill-opacity="1" fill-rule="nonzero"/></svg>