<svg xmlns="http://www.w3.org/2000/svg" xmlns:xlink="http://www.w3.org/1999/xlink" width="1080" zoomAndPan="magnify" viewBox="0 0 810 1439.999935" height="1920" preserveAspectRatio="xMidYMid meet" version="1.0"><rect x="-81" width="972" fill="#ffffff" y="-143.999994" height="1727.999922" fill-opacity="1"/><rect x="-81" width="972" fill="#6e765d" y="-143.999994" height="1727.999922" fill-opacity="1"/><path fill="#d7d8d3" d="M 518.316406 706.039062 C 509.4375 688.691406 503.757812 686.863281 486.410156 695.742188 C 476.574219 700.792969 470.019531 704.894531 466.332031 709.34375 L 423.578125 696.996094 C 421.410156 696.371094 419.210938 695.90625 416.976562 695.601562 C 414.742188 695.296875 412.5 695.160156 410.246094 695.183594 C 407.992188 695.207031 405.75 695.394531 403.523438 695.746094 C 401.296875 696.097656 399.105469 696.609375 396.953125 697.28125 C 394.800781 697.953125 392.710938 698.777344 390.679688 699.753906 C 388.648438 700.730469 386.695312 701.851562 384.828125 703.113281 C 382.960938 704.375 381.195312 705.765625 379.53125 707.285156 C 377.867188 708.808594 376.320312 710.441406 374.894531 712.1875 C 367.226562 709.484375 359.339844 708.464844 351.238281 709.128906 L 347.738281 709.398438 C 344.214844 703.855469 337.332031 699.484375 327.988281 694.019531 C 320.421875 689.566406 315.011719 686.78125 309.191406 688.28125 C 303.375 689.785156 300.015625 694.894531 295.5625 702.488281 L 270.347656 745.515625 C 265.894531 753.109375 263.105469 758.519531 264.609375 764.339844 C 266.113281 770.15625 271.21875 773.515625 278.816406 777.941406 C 288.648438 783.707031 296.082031 787.722656 302.964844 787.722656 C 304.144531 787.734375 305.3125 787.605469 306.460938 787.339844 L 320.449219 798.570312 L 315.996094 804.058594 C 315.332031 804.875 314.730469 805.734375 314.1875 806.636719 C 313.644531 807.539062 313.167969 808.476562 312.757812 809.445312 C 312.347656 810.414062 312.007812 811.40625 311.734375 812.421875 C 311.464844 813.441406 311.265625 814.46875 311.140625 815.515625 C 311.015625 816.558594 310.964844 817.609375 310.988281 818.660156 C 311.007812 819.710938 311.105469 820.757812 311.277344 821.796875 C 311.445312 822.835938 311.6875 823.855469 312 824.863281 C 312.3125 825.867188 312.695312 826.84375 313.148438 827.792969 C 313.601562 828.746094 314.117188 829.660156 314.695312 830.535156 C 315.277344 831.414062 315.914062 832.246094 316.613281 833.035156 C 317.3125 833.824219 318.058594 834.558594 318.863281 835.242188 C 319.664062 835.921875 320.507812 836.546875 321.398438 837.109375 C 322.285156 837.671875 323.210938 838.167969 324.167969 838.601562 C 325.128906 839.035156 326.113281 839.398438 327.125 839.691406 C 328.132812 839.988281 329.160156 840.207031 330.203125 840.359375 C 331.242188 840.507812 332.289062 840.582031 333.34375 840.585938 C 333.644531 840.585938 333.972656 840.585938 334.273438 840.558594 C 334.328125 841.25 334.414062 841.941406 334.535156 842.628906 C 334.652344 843.3125 334.804688 843.992188 334.988281 844.664062 C 335.171875 845.335938 335.382812 845.996094 335.628906 846.648438 C 335.871094 847.300781 336.148438 847.941406 336.449219 848.566406 C 336.753906 849.195312 337.085938 849.804688 337.445312 850.402344 C 337.808594 850.996094 338.195312 851.574219 338.609375 852.132812 C 339.023438 852.695312 339.460938 853.234375 339.925781 853.75 C 340.390625 854.269531 340.878906 854.765625 341.390625 855.242188 C 341.898438 855.714844 342.429688 856.164062 342.984375 856.585938 C 343.535156 857.011719 344.105469 857.410156 344.695312 857.78125 C 345.285156 858.152344 345.890625 858.492188 346.511719 858.808594 C 347.132812 859.125 347.765625 859.410156 348.414062 859.664062 C 349.058594 859.921875 349.71875 860.144531 350.386719 860.339844 C 351.054688 860.535156 351.730469 860.699219 352.414062 860.832031 C 353.097656 860.964844 353.789062 861.0625 354.480469 861.128906 C 355.171875 861.199219 355.867188 861.234375 356.5625 861.238281 C 356.882812 861.246094 357.203125 861.226562 357.519531 861.183594 C 357.574219 861.878906 357.660156 862.566406 357.777344 863.253906 C 357.898438 863.941406 358.046875 864.621094 358.230469 865.292969 C 358.410156 865.964844 358.625 866.628906 358.867188 867.28125 C 359.109375 867.933594 359.382812 868.574219 359.6875 869.199219 C 359.992188 869.828125 360.324219 870.4375 360.683594 871.035156 C 361.042969 871.632812 361.429688 872.210938 361.84375 872.769531 C 362.257812 873.332031 362.699219 873.871094 363.164062 874.390625 C 363.625 874.910156 364.113281 875.40625 364.625 875.878906 C 365.136719 876.351562 365.667969 876.800781 366.21875 877.226562 C 366.773438 877.648438 367.34375 878.046875 367.933594 878.417969 C 368.523438 878.789062 369.128906 879.132812 369.75 879.449219 C 370.371094 879.761719 371.007812 880.046875 371.65625 880.300781 C 372.304688 880.558594 372.960938 880.78125 373.628906 880.976562 C 374.300781 881.171875 374.976562 881.332031 375.660156 881.464844 C 376.34375 881.59375 377.035156 881.695312 377.726562 881.761719 C 378.421875 881.828125 379.117188 881.863281 379.8125 881.863281 C 380.414062 881.863281 381.015625 881.835938 381.613281 881.78125 C 384.671875 881.546875 387.558594 880.71875 390.273438 879.296875 C 392.992188 877.875 395.316406 875.972656 397.242188 873.585938 L 403.90625 865.390625 L 414.453125 873.96875 C 414.820312 874.269531 415.199219 874.558594 415.589844 874.835938 C 415.976562 875.109375 416.371094 875.375 416.777344 875.625 C 417.183594 875.875 417.59375 876.113281 418.015625 876.339844 C 418.433594 876.566406 418.863281 876.777344 419.296875 876.972656 C 419.730469 877.171875 420.167969 877.355469 420.613281 877.523438 C 421.058594 877.695312 421.507812 877.847656 421.964844 877.988281 C 422.417969 878.132812 422.878906 878.257812 423.339844 878.367188 C 423.804688 878.480469 424.269531 878.578125 424.738281 878.660156 C 425.210938 878.742188 425.679688 878.808594 426.15625 878.859375 C 426.628906 878.910156 427.101562 878.949219 427.578125 878.96875 C 428.054688 878.992188 428.53125 878.996094 429.007812 878.988281 C 429.484375 878.980469 429.960938 878.957031 430.433594 878.917969 C 430.910156 878.878906 431.382812 878.824219 431.851562 878.753906 C 432.324219 878.683594 432.792969 878.597656 433.257812 878.5 C 433.726562 878.402344 434.1875 878.285156 434.644531 878.15625 C 435.105469 878.027344 435.558594 877.886719 436.007812 877.726562 C 436.457031 877.570312 436.902344 877.398438 437.339844 877.210938 C 437.78125 877.027344 438.210938 876.824219 438.636719 876.613281 C 439.0625 876.398438 439.480469 876.171875 439.894531 875.929688 C 440.304688 875.691406 440.707031 875.4375 441.101562 875.171875 C 441.496094 874.90625 441.882812 874.625 442.261719 874.335938 C 442.640625 874.046875 443.007812 873.742188 443.363281 873.429688 C 443.722656 873.113281 444.070312 872.789062 444.40625 872.453125 C 444.746094 872.117188 445.070312 871.769531 445.386719 871.410156 C 445.703125 871.054688 446.003906 870.6875 446.296875 870.3125 C 446.589844 869.933594 446.867188 869.546875 447.136719 869.152344 C 447.402344 868.761719 447.65625 868.355469 447.898438 867.945312 C 448.140625 867.535156 448.367188 867.117188 448.582031 866.691406 C 448.796875 866.265625 449 865.835938 449.1875 865.398438 C 449.375 864.960938 449.546875 864.515625 449.707031 864.066406 C 449.863281 863.617188 450.007812 863.164062 450.140625 862.707031 C 450.269531 862.246094 450.386719 861.785156 450.484375 861.320312 C 450.925781 861.472656 451.367188 861.609375 451.816406 861.734375 C 452.265625 861.859375 452.714844 861.96875 453.171875 862.066406 C 453.625 862.160156 454.082031 862.242188 454.542969 862.3125 C 455 862.378906 455.464844 862.433594 455.925781 862.472656 C 456.390625 862.511719 456.855469 862.535156 457.316406 862.546875 C 457.78125 862.554688 458.246094 862.550781 458.710938 862.535156 C 459.175781 862.515625 459.640625 862.480469 460.101562 862.433594 C 460.566406 862.386719 461.023438 862.324219 461.484375 862.246094 C 461.941406 862.171875 462.398438 862.082031 462.851562 861.976562 C 463.304688 861.871094 463.753906 861.753906 464.199219 861.621094 C 464.644531 861.488281 465.085938 861.339844 465.519531 861.179688 C 465.957031 861.019531 466.386719 860.847656 466.8125 860.660156 C 467.238281 860.472656 467.660156 860.273438 468.070312 860.058594 C 468.484375 859.847656 468.890625 859.621094 469.289062 859.382812 C 469.6875 859.144531 470.078125 858.894531 470.464844 858.628906 C 470.847656 858.367188 471.222656 858.09375 471.585938 857.808594 C 471.953125 857.519531 472.3125 857.222656 472.660156 856.914062 C 473.007812 856.605469 473.34375 856.289062 473.671875 855.957031 C 474 855.628906 474.316406 855.289062 474.625 854.941406 C 474.929688 854.589844 475.226562 854.230469 475.511719 853.863281 C 475.792969 853.496094 476.066406 853.121094 476.328125 852.734375 C 476.589844 852.351562 476.839844 851.957031 477.074219 851.558594 C 477.3125 851.160156 477.535156 850.75 477.746094 850.335938 C 477.957031 849.921875 478.15625 849.503906 478.339844 849.078125 C 478.523438 848.648438 478.695312 848.21875 478.855469 847.78125 C 479.011719 847.34375 479.15625 846.902344 479.289062 846.457031 C 479.417969 846.011719 479.535156 845.558594 479.636719 845.105469 C 479.738281 844.652344 479.828125 844.199219 479.902344 843.738281 C 479.976562 843.28125 480.035156 842.820312 480.082031 842.355469 C 480.125 841.894531 480.15625 841.429688 480.171875 840.964844 C 480.191406 840.5 480.191406 840.035156 480.179688 839.570312 C 480.167969 839.109375 480.140625 838.644531 480.097656 838.179688 C 481.53125 838.015625 482.933594 837.714844 484.308594 837.277344 C 485.683594 836.839844 487 836.273438 488.265625 835.582031 C 489.53125 834.886719 490.714844 834.078125 491.824219 833.15625 C 492.933594 832.234375 493.941406 831.210938 494.851562 830.09375 C 495.292969 829.542969 495.710938 828.96875 496.101562 828.378906 C 496.488281 827.789062 496.851562 827.179688 497.183594 826.554688 C 497.515625 825.929688 497.816406 825.289062 498.089844 824.632812 C 498.363281 823.980469 498.601562 823.316406 498.8125 822.640625 C 499.019531 821.960938 499.199219 821.277344 499.34375 820.585938 C 499.488281 819.890625 499.597656 819.191406 499.679688 818.488281 C 499.757812 817.785156 499.804688 817.078125 499.816406 816.371094 C 499.828125 815.664062 499.808594 814.957031 499.753906 814.25 C 499.699219 813.542969 499.613281 812.839844 499.492188 812.144531 C 499.375 811.445312 499.222656 810.753906 499.035156 810.070312 C 498.851562 809.386719 498.632812 808.714844 498.386719 808.050781 C 498.136719 807.386719 497.859375 806.738281 497.546875 806.101562 C 497.238281 805.464844 496.898438 804.84375 496.53125 804.238281 C 496.164062 803.632812 495.769531 803.046875 495.34375 802.480469 C 494.921875 801.910156 494.472656 801.363281 493.996094 800.839844 C 493.523438 800.3125 493.023438 799.8125 492.5 799.332031 L 503.15625 790.292969 C 504.46875 790.597656 505.796875 790.753906 507.144531 790.753906 C 510.851562 790.625 514.414062 789.835938 517.828125 788.378906 C 522.25 786.59375 526.566406 784.582031 530.773438 782.339844 C 538.617188 778.324219 543.886719 775.265625 545.71875 769.527344 C 547.550781 763.792969 545.0625 758.273438 541.074219 750.433594 Z M 419.78125 710.109375 L 462.832031 722.539062 C 464.492188 729.953125 467.226562 736.945312 471.03125 743.519531 L 483.023438 766.933594 C 485.527344 772.210938 488.457031 777.238281 491.820312 782.011719 L 481.738281 790.5625 L 464.71875 776.742188 L 414.835938 736.117188 L 414.808594 736.089844 L 414.699219 736.007812 L 407.457031 729.835938 C 406.503906 729.007812 405.402344 728.507812 404.152344 728.332031 L 404.125 728.332031 C 403.390625 728.207031 402.652344 728.207031 401.917969 728.324219 C 401.179688 728.441406 400.484375 728.675781 399.824219 729.023438 C 399.164062 729.371094 398.578125 729.816406 398.0625 730.355469 C 397.550781 730.898438 397.136719 731.503906 396.824219 732.183594 C 396.507812 732.859375 396.3125 733.566406 396.230469 734.308594 C 396.152344 735.050781 396.191406 735.785156 396.351562 736.515625 C 396.515625 737.242188 396.789062 737.925781 397.171875 738.5625 C 397.558594 739.203125 398.039062 739.761719 398.605469 740.242188 L 401.148438 742.402344 C 401.101562 742.472656 401.046875 742.535156 400.984375 742.59375 C 391.859375 753.847656 378.71875 761.769531 366.753906 762.863281 C 366.339844 762.902344 365.929688 762.882812 365.523438 762.804688 C 365.113281 762.726562 364.726562 762.589844 364.355469 762.402344 C 363.984375 762.214844 363.648438 761.976562 363.347656 761.695312 C 363.042969 761.410156 362.785156 761.089844 362.574219 760.730469 C 362.34375 760.371094 362.171875 759.980469 362.054688 759.570312 C 361.9375 759.15625 361.882812 758.734375 361.886719 758.304688 C 361.894531 757.878906 361.957031 757.457031 362.085938 757.046875 C 362.210938 756.636719 362.390625 756.253906 362.628906 755.898438 L 379.621094 729.617188 L 382.789062 724.699219 C 384.144531 722.429688 385.753906 720.363281 387.625 718.496094 C 388.648438 717.464844 389.738281 716.503906 390.890625 715.617188 C 392.046875 714.730469 393.253906 713.925781 394.511719 713.199219 C 395.773438 712.472656 397.078125 711.835938 398.425781 711.285156 C 399.769531 710.734375 401.148438 710.273438 402.554688 709.90625 C 403.964844 709.539062 405.390625 709.269531 406.832031 709.089844 C 408.277344 708.914062 409.726562 708.835938 411.179688 708.851562 C 412.636719 708.871094 414.082031 708.984375 415.523438 709.195312 C 416.960938 709.40625 418.378906 709.710938 419.78125 710.109375 Z M 303.703125 773.980469 C 303.433594 774.046875 303.160156 774.085938 302.882812 774.089844 C 299.496094 774.089844 292.582031 770.183594 285.726562 766.167969 C 285.5625 766.058594 285.34375 765.949219 285.125 765.8125 C 282.539062 764.429688 280.136719 762.78125 277.914062 760.867188 C 279.039062 757.910156 280.453125 755.097656 282.148438 752.425781 L 295.371094 729.863281 L 305.421875 712.707031 L 307.363281 709.398438 C 308.855469 706.609375 310.621094 704.003906 312.664062 701.585938 C 315.625 702.703125 318.4375 704.113281 321.105469 705.820312 C 324 707.515625 326.839844 709.210938 329.300781 710.847656 C 333.261719 713.445312 336.210938 715.847656 336.703125 717.679688 C 336.808594 719.972656 336.277344 722.113281 335.117188 724.097656 C 333.246094 728.066406 331.167969 731.929688 328.890625 735.679688 L 315.585938 758.382812 C 313.199219 762.675781 310.539062 766.789062 307.609375 770.730469 C 306.605469 772.171875 305.300781 773.257812 303.703125 773.980469 Z M 327.550781 824.683594 C 327.136719 824.316406 326.757812 823.910156 326.417969 823.46875 C 326.082031 823.023438 325.789062 822.554688 325.539062 822.058594 C 325.292969 821.558594 325.09375 821.039062 324.945312 820.503906 C 324.796875 819.96875 324.699219 819.421875 324.65625 818.867188 C 324.613281 818.3125 324.621094 817.757812 324.683594 817.207031 C 324.746094 816.652344 324.859375 816.109375 325.023438 815.578125 C 325.191406 815.046875 325.40625 814.535156 325.671875 814.046875 C 325.933594 813.554688 326.242188 813.097656 326.59375 812.664062 L 331.101562 807.09375 L 337.441406 799.304688 C 338.234375 798.324219 339.199219 797.558594 340.335938 797.011719 C 341.398438 796.460938 342.53125 796.152344 343.722656 796.082031 L 344.269531 796.082031 C 345.398438 796.074219 346.488281 796.285156 347.535156 796.710938 C 348.578125 797.136719 349.503906 797.746094 350.308594 798.542969 C 350.863281 799.070312 351.34375 799.660156 351.742188 800.316406 C 352.140625 800.972656 352.445312 801.667969 352.660156 802.40625 C 352.875 803.140625 352.988281 803.894531 353 804.660156 C 353.015625 805.429688 352.925781 806.183594 352.738281 806.929688 C 352.464844 808.054688 351.972656 809.074219 351.265625 809.988281 C 350.855469 810.425781 350.472656 810.863281 350.089844 811.328125 L 344.679688 817.964844 L 339.214844 824.683594 L 339.1875 824.710938 C 338.792969 825.066406 338.367188 825.382812 337.910156 825.660156 C 337.457031 825.9375 336.980469 826.167969 336.480469 826.359375 C 335.984375 826.546875 335.472656 826.6875 334.949219 826.785156 C 334.425781 826.878906 333.898438 826.925781 333.363281 826.925781 C 332.832031 826.925781 332.304688 826.875 331.78125 826.777344 C 331.257812 826.679688 330.746094 826.535156 330.25 826.34375 C 329.753906 826.152344 329.277344 825.917969 328.824219 825.636719 C 328.371094 825.359375 327.945312 825.042969 327.550781 824.683594 Z M 350.773438 845.339844 C 350.371094 844.976562 350.007812 844.585938 349.679688 844.15625 C 349.351562 843.730469 349.066406 843.277344 348.824219 842.796875 C 348.578125 842.316406 348.378906 841.816406 348.226562 841.300781 C 348.078125 840.785156 347.972656 840.257812 347.917969 839.722656 C 347.863281 839.1875 347.855469 838.652344 347.902344 838.117188 C 347.945312 837.578125 348.039062 837.050781 348.179688 836.53125 C 348.320312 836.011719 348.507812 835.507812 348.742188 835.023438 C 348.976562 834.539062 349.25 834.078125 349.570312 833.644531 C 350 833.226562 350.398438 832.777344 350.773438 832.308594 L 355.417969 826.570312 L 361.535156 819.058594 C 361.554688 819.015625 361.582031 818.980469 361.617188 818.949219 C 362.679688 817.996094 363.898438 817.34375 365.277344 816.980469 C 365.824219 816.835938 366.378906 816.742188 366.945312 816.707031 L 367.492188 816.707031 C 368.078125 816.710938 368.65625 816.769531 369.230469 816.886719 C 369.800781 817.003906 370.359375 817.175781 370.898438 817.40625 C 371.433594 817.636719 371.945312 817.914062 372.429688 818.246094 C 372.910156 818.578125 373.355469 818.953125 373.761719 819.371094 C 374.171875 819.792969 374.53125 820.25 374.847656 820.742188 C 375.164062 821.234375 375.429688 821.753906 375.640625 822.296875 C 375.851562 822.84375 376.007812 823.40625 376.109375 823.980469 C 376.207031 824.558594 376.25 825.136719 376.234375 825.722656 C 376.179688 827.585938 375.582031 829.253906 374.429688 830.722656 C 374.394531 830.753906 374.367188 830.789062 374.347656 830.832031 C 373.992188 831.1875 373.652344 831.558594 373.335938 831.953125 L 368.9375 837.359375 L 362.464844 845.3125 L 362.4375 845.339844 C 362.039062 845.691406 361.613281 846.007812 361.15625 846.28125 C 360.699219 846.558594 360.222656 846.789062 359.722656 846.980469 C 359.226562 847.167969 358.714844 847.3125 358.191406 847.40625 C 357.667969 847.503906 357.136719 847.550781 356.605469 847.550781 C 356.070312 847.550781 355.542969 847.503906 355.019531 847.40625 C 354.496094 847.3125 353.984375 847.167969 353.484375 846.980469 C 352.988281 846.789062 352.511719 846.558594 352.054688 846.28125 C 351.597656 846.007812 351.171875 845.691406 350.773438 845.339844 Z M 386.640625 864.953125 C 385.894531 865.886719 384.988281 866.636719 383.929688 867.195312 C 382.871094 867.757812 381.746094 868.082031 380.550781 868.175781 C 379.71875 868.242188 378.890625 868.1875 378.074219 868.015625 C 377.257812 867.847656 376.480469 867.5625 375.746094 867.171875 C 375.007812 866.777344 374.339844 866.289062 373.746094 865.703125 C 373.148438 865.121094 372.644531 864.464844 372.234375 863.738281 C 371.828125 863.007812 371.527344 862.238281 371.339844 861.425781 C 371.152344 860.609375 371.078125 859.789062 371.125 858.953125 C 371.171875 858.121094 371.335938 857.308594 371.613281 856.523438 C 371.894531 855.734375 372.277344 855.003906 372.765625 854.324219 C 373.199219 853.890625 373.609375 853.425781 374.019531 852.933594 L 379.675781 845.964844 L 384.867188 839.601562 L 384.894531 839.546875 C 385.625 838.886719 386.441406 838.367188 387.351562 837.992188 C 388.261719 837.617188 389.210938 837.40625 390.191406 837.359375 C 390.367188 837.339844 390.539062 837.328125 390.710938 837.332031 L 390.738281 837.332031 C 391.566406 837.335938 392.375 837.449219 393.167969 837.679688 C 393.964844 837.910156 394.707031 838.246094 395.40625 838.6875 C 396.105469 839.128906 396.730469 839.660156 397.277344 840.277344 C 397.824219 840.894531 398.277344 841.578125 398.628906 842.324219 C 398.984375 843.070312 399.230469 843.851562 399.363281 844.667969 C 399.496094 845.484375 399.511719 846.300781 399.414062 847.121094 C 399.316406 847.941406 399.105469 848.730469 398.78125 849.492188 C 398.457031 850.253906 398.035156 850.953125 397.515625 851.59375 L 393.253906 856.839844 Z M 484.25 821.460938 C 483.886719 821.90625 483.484375 822.3125 483.042969 822.679688 C 482.597656 823.046875 482.125 823.363281 481.617188 823.636719 C 481.109375 823.910156 480.582031 824.128906 480.035156 824.300781 C 479.484375 824.46875 478.921875 824.582031 478.351562 824.640625 C 477.78125 824.699219 477.207031 824.699219 476.636719 824.644531 C 476.0625 824.59375 475.5 824.480469 474.949219 824.316406 C 474.398438 824.152344 473.871094 823.933594 473.363281 823.667969 C 472.855469 823.398438 472.375 823.082031 471.929688 822.71875 C 471.878906 822.65625 471.816406 822.613281 471.738281 822.582031 L 471.714844 822.582031 L 434.800781 792.566406 C 434.453125 792.285156 434.078125 792.039062 433.683594 791.828125 C 433.285156 791.617188 432.871094 791.449219 432.441406 791.320312 C 432.011719 791.191406 431.574219 791.109375 431.128906 791.066406 C 430.683594 791.023438 430.234375 791.027344 429.789062 791.070312 C 429.34375 791.117188 428.90625 791.207031 428.476562 791.339844 C 428.046875 791.472656 427.636719 791.644531 427.242188 791.855469 C 426.847656 792.070312 426.476562 792.320312 426.132812 792.605469 C 425.785156 792.890625 425.472656 793.207031 425.191406 793.558594 C 424.90625 793.90625 424.660156 794.277344 424.449219 794.671875 C 424.242188 795.070312 424.074219 795.484375 423.945312 795.914062 C 423.816406 796.34375 423.730469 796.78125 423.6875 797.226562 C 423.648438 797.675781 423.648438 798.121094 423.695312 798.566406 C 423.742188 799.011719 423.828125 799.449219 423.960938 799.878906 C 424.09375 800.308594 424.265625 800.71875 424.480469 801.113281 C 424.691406 801.507812 424.941406 801.878906 425.230469 802.222656 C 425.515625 802.570312 425.832031 802.882812 426.179688 803.167969 L 463.316406 833.34375 L 463.347656 833.367188 C 463.792969 833.730469 464.199219 834.136719 464.5625 834.578125 C 464.929688 835.023438 465.246094 835.496094 465.519531 836.003906 C 465.789062 836.511719 466.011719 837.039062 466.179688 837.589844 C 466.347656 838.140625 466.460938 838.699219 466.515625 839.273438 C 466.574219 839.84375 466.574219 840.414062 466.519531 840.988281 C 466.464844 841.558594 466.351562 842.121094 466.1875 842.671875 C 466.019531 843.222656 465.804688 843.75 465.535156 844.257812 C 465.261719 844.765625 464.945312 845.242188 464.582031 845.6875 C 464.21875 846.132812 463.8125 846.539062 463.371094 846.902344 C 462.925781 847.269531 462.453125 847.585938 461.945312 847.859375 C 461.4375 848.132812 460.910156 848.351562 460.359375 848.519531 C 459.808594 848.6875 459.25 848.800781 458.675781 848.855469 C 458.105469 848.914062 457.535156 848.914062 456.960938 848.859375 C 456.390625 848.804688 455.828125 848.695312 455.277344 848.527344 C 454.726562 848.363281 454.199219 848.144531 453.691406 847.875 C 453.183594 847.605469 452.707031 847.285156 452.261719 846.921875 L 443.300781 839.683594 C 443.179688 839.554688 443.042969 839.4375 442.898438 839.335938 C 442.835938 839.28125 442.789062 839.214844 442.722656 839.160156 L 413.054688 815.046875 C 412.707031 814.765625 412.332031 814.519531 411.9375 814.308594 C 411.539062 814.097656 411.128906 813.929688 410.699219 813.800781 C 410.265625 813.671875 409.828125 813.589844 409.382812 813.546875 C 408.9375 813.503906 408.488281 813.507812 408.042969 813.550781 C 407.597656 813.597656 407.160156 813.6875 406.730469 813.820312 C 406.304688 813.953125 405.890625 814.125 405.496094 814.335938 C 405.101562 814.550781 404.730469 814.800781 404.386719 815.085938 C 404.042969 815.371094 403.726562 815.691406 403.445312 816.039062 C 403.160156 816.386719 402.914062 816.757812 402.707031 817.152344 C 402.496094 817.550781 402.328125 817.964844 402.199219 818.394531 C 402.070312 818.824219 401.984375 819.261719 401.941406 819.707031 C 401.902344 820.15625 401.902344 820.601562 401.949219 821.046875 C 401.996094 821.492188 402.085938 821.929688 402.214844 822.359375 C 402.347656 822.789062 402.519531 823.199219 402.734375 823.59375 C 402.949219 823.988281 403.195312 824.359375 403.484375 824.703125 C 403.769531 825.050781 404.085938 825.363281 404.433594 825.648438 L 434.035156 849.699219 L 434.066406 849.738281 L 434.09375 849.765625 C 434.121094 849.820312 434.175781 849.847656 434.203125 849.875 C 434.636719 850.238281 435.035156 850.640625 435.390625 851.078125 C 435.746094 851.519531 436.058594 851.992188 436.324219 852.492188 C 436.585938 852.992188 436.800781 853.515625 436.964844 854.058594 C 437.128906 854.601562 437.238281 855.15625 437.292969 855.71875 C 437.347656 856.285156 437.351562 856.847656 437.296875 857.414062 C 437.242188 857.976562 437.132812 858.53125 436.972656 859.074219 C 436.808594 859.617188 436.597656 860.140625 436.335938 860.640625 C 436.070312 861.144531 435.761719 861.617188 435.40625 862.058594 C 435.039062 862.5 434.636719 862.90625 434.191406 863.273438 C 433.746094 863.636719 433.273438 863.957031 432.765625 864.230469 C 432.261719 864.503906 431.730469 864.726562 431.183594 864.894531 C 430.632812 865.066406 430.074219 865.179688 429.5 865.242188 C 428.929688 865.300781 428.355469 865.308594 427.78125 865.257812 C 427.210938 865.207031 426.648438 865.101562 426.09375 864.9375 C 425.542969 864.777344 425.011719 864.566406 424.5 864.300781 C 423.988281 864.039062 423.507812 863.726562 423.058594 863.367188 L 411.664062 854.082031 C 411.832031 853.648438 411.980469 853.214844 412.117188 852.773438 C 412.257812 852.335938 412.378906 851.890625 412.492188 851.441406 C 412.601562 850.996094 412.699219 850.546875 412.78125 850.089844 C 412.863281 849.636719 412.929688 849.183594 412.984375 848.726562 C 413.039062 848.265625 413.078125 847.808594 413.105469 847.347656 C 413.132812 846.886719 413.144531 846.425781 413.140625 845.964844 C 413.136719 845.503906 413.121094 845.042969 413.089844 844.585938 C 413.058594 844.125 413.015625 843.667969 412.957031 843.210938 C 412.894531 842.753906 412.824219 842.296875 412.734375 841.84375 C 412.648438 841.390625 412.546875 840.941406 412.433594 840.496094 C 412.316406 840.050781 412.1875 839.609375 412.046875 839.167969 C 411.902344 838.730469 411.746094 838.296875 411.578125 837.867188 C 411.410156 837.4375 411.226562 837.015625 411.03125 836.597656 C 410.835938 836.179688 410.628906 835.769531 410.410156 835.363281 C 410.1875 834.960938 409.957031 834.5625 409.710938 834.171875 C 409.464844 833.78125 409.207031 833.398438 408.9375 833.023438 C 408.671875 832.652344 408.390625 832.285156 408.097656 831.929688 C 407.808594 831.570312 407.503906 831.222656 407.191406 830.882812 C 406.878906 830.546875 406.558594 830.21875 406.222656 829.898438 C 405.890625 829.578125 405.546875 829.273438 405.195312 828.972656 C 404.84375 828.675781 404.484375 828.390625 404.113281 828.113281 C 403.742188 827.839844 403.367188 827.578125 402.980469 827.324219 C 402.59375 827.074219 402.199219 826.832031 401.800781 826.605469 C 401.398438 826.378906 400.992188 826.164062 400.578125 825.960938 C 400.164062 825.757812 399.742188 825.570312 399.316406 825.390625 C 398.890625 825.214844 398.460938 825.050781 398.023438 824.902344 C 397.589844 824.753906 397.148438 824.617188 396.703125 824.492188 C 396.261719 824.371094 395.8125 824.261719 395.363281 824.167969 C 394.910156 824.070312 394.457031 823.992188 394 823.921875 C 393.542969 823.855469 393.085938 823.804688 392.628906 823.765625 C 392.167969 823.726562 391.707031 823.699219 391.246094 823.691406 C 390.785156 823.679688 390.324219 823.683594 389.867188 823.703125 C 389.808594 822.988281 389.714844 822.28125 389.589844 821.574219 C 389.460938 820.871094 389.300781 820.175781 389.109375 819.488281 C 388.917969 818.796875 388.691406 818.121094 388.433594 817.453125 C 388.175781 816.785156 387.886719 816.132812 387.566406 815.492188 C 387.246094 814.851562 386.898438 814.226562 386.519531 813.621094 C 386.140625 813.015625 385.730469 812.429688 385.296875 811.859375 C 384.859375 811.292969 384.398438 810.746094 383.914062 810.222656 C 383.425781 809.699219 382.914062 809.199219 382.378906 808.726562 C 381.84375 808.25 381.285156 807.804688 380.707031 807.382812 C 380.128906 806.960938 379.535156 806.566406 378.917969 806.203125 C 378.304688 805.835938 377.671875 805.503906 377.023438 805.199219 C 376.378906 804.894531 375.714844 804.621094 375.042969 804.378906 C 374.371094 804.136719 373.6875 803.929688 372.992188 803.753906 C 372.300781 803.578125 371.597656 803.433594 370.890625 803.324219 C 370.1875 803.214844 369.476562 803.140625 368.761719 803.097656 C 368.046875 803.058594 367.332031 803.050781 366.617188 803.074219 C 366.539062 802.039062 366.386719 801.011719 366.164062 799.996094 C 365.941406 798.980469 365.648438 797.984375 365.289062 797.007812 C 364.925781 796.035156 364.5 795.085938 364.007812 794.171875 C 363.511719 793.257812 362.957031 792.378906 362.34375 791.539062 C 361.726562 790.703125 361.054688 789.910156 360.328125 789.164062 C 359.605469 788.421875 358.828125 787.730469 358.007812 787.09375 C 357.183594 786.457031 356.320312 785.878906 355.417969 785.363281 C 354.515625 784.84375 353.582031 784.394531 352.617188 784.007812 C 351.652344 783.621094 350.664062 783.304688 349.652344 783.054688 C 348.640625 782.808594 347.621094 782.628906 346.585938 782.523438 C 345.550781 782.417969 344.511719 782.382812 343.472656 782.421875 C 342.433594 782.460938 341.402344 782.570312 340.378906 782.753906 C 339.355469 782.9375 338.347656 783.191406 337.359375 783.511719 C 336.371094 783.835938 335.410156 784.226562 334.472656 784.683594 C 333.539062 785.140625 332.640625 785.660156 331.777344 786.242188 C 330.917969 786.824219 330.101562 787.464844 329.328125 788.160156 C 325.558594 785.128906 321.851562 782.160156 318.207031 779.253906 C 321.625 774.824219 324.683594 770.164062 327.386719 765.265625 L 340.664062 742.59375 C 345.226562 734.832031 348.667969 728.578125 349.898438 722.921875 L 352.300781 722.730469 C 357.257812 722.335938 362.136719 722.773438 366.945312 724.042969 L 351.15625 748.492188 C 350.695312 749.203125 350.285156 749.945312 349.929688 750.710938 C 349.570312 751.480469 349.269531 752.269531 349.023438 753.078125 C 348.777344 753.890625 348.589844 754.714844 348.457031 755.550781 C 348.324219 756.386719 348.253906 757.226562 348.238281 758.074219 C 348.226562 758.921875 348.269531 759.765625 348.375 760.605469 C 348.480469 761.445312 348.640625 762.277344 348.863281 763.09375 C 349.082031 763.910156 349.359375 764.710938 349.691406 765.488281 C 350.023438 766.269531 350.40625 767.019531 350.84375 767.746094 C 351.28125 768.472656 351.765625 769.164062 352.300781 769.820312 C 352.832031 770.476562 353.410156 771.09375 354.03125 771.671875 C 354.652344 772.25 355.308594 772.78125 356.003906 773.265625 C 356.695312 773.75 357.421875 774.183594 358.175781 774.566406 C 358.933594 774.953125 359.710938 775.28125 360.511719 775.554688 C 361.3125 775.832031 362.128906 776.046875 362.960938 776.207031 C 363.792969 776.371094 364.628906 776.472656 365.476562 776.515625 C 366.320312 776.558594 367.167969 776.542969 368.011719 776.46875 C 383.664062 775.019531 400.109375 765.347656 411.582031 751.199219 L 457.261719 788.296875 L 477.503906 804.769531 C 477.582031 804.847656 477.675781 804.914062 477.777344 804.960938 L 482.96875 809.167969 C 483.410156 809.53125 483.8125 809.9375 484.175781 810.378906 C 484.539062 810.820312 484.855469 811.292969 485.128906 811.800781 C 485.398438 812.304688 485.617188 812.828125 485.785156 813.375 C 485.953125 813.925781 486.070312 814.480469 486.128906 815.050781 C 486.1875 815.621094 486.191406 816.191406 486.140625 816.761719 C 486.089844 817.332031 485.980469 817.890625 485.820312 818.441406 C 485.660156 818.992188 485.449219 819.519531 485.183594 820.027344 C 484.917969 820.535156 484.609375 821.015625 484.25 821.460938 Z M 528.863281 767.890625 C 527.222656 768.792969 525.53125 769.691406 524.546875 770.183594 C 521.980469 771.496094 519.410156 772.78125 517.035156 773.898438 C 512.226562 776.113281 508.101562 777.585938 506.160156 776.960938 C 504.414062 776.386719 502.253906 773.515625 499.988281 769.636719 C 498.402344 766.988281 496.789062 763.847656 495.179688 760.703125 L 483.1875 737.292969 C 481.328125 733.714844 479.527344 730.109375 478.242188 726.992188 C 476.832031 724.46875 476.222656 721.765625 476.410156 718.878906 C 477.75 716.660156 479.578125 714.976562 481.902344 713.824219 C 484.878906 711.941406 488.757812 709.890625 492.636719 707.898438 C 495.40625 706.351562 498.300781 705.105469 501.324219 704.15625 C 503.214844 706.695312 504.828125 709.398438 506.160156 712.269531 L 528.917969 756.660156 C 530.457031 759.421875 531.707031 762.308594 532.660156 765.320312 C 531.492188 766.324219 530.226562 767.179688 528.863281 767.890625 Z M 528.863281 767.890625 " fill-opacity="1" fill-rule="nonzero"/><path fill="#d7d8d3" d="M 405.273438 592.058594 C 405.722656 592.058594 406.164062 592.015625 406.605469 591.925781 C 407.046875 591.839844 407.472656 591.710938 407.886719 591.539062 C 408.300781 591.367188 408.695312 591.15625 409.066406 590.90625 C 409.441406 590.65625 409.785156 590.375 410.101562 590.058594 C 410.417969 589.742188 410.703125 589.394531 410.953125 589.023438 C 411.199219 588.648438 411.410156 588.257812 411.582031 587.84375 C 411.753906 587.429688 411.882812 587 411.972656 586.5625 C 412.058594 586.121094 412.101562 585.675781 412.101562 585.230469 L 412.101562 565.238281 C 412.101562 564.789062 412.058594 564.347656 411.972656 563.90625 C 411.882812 563.46875 411.753906 563.039062 411.582031 562.625 C 411.410156 562.210938 411.199219 561.816406 410.953125 561.445312 C 410.703125 561.070312 410.417969 560.726562 410.101562 560.410156 C 409.785156 560.09375 409.441406 559.808594 409.066406 559.5625 C 408.695312 559.3125 408.300781 559.101562 407.886719 558.929688 C 407.472656 558.757812 407.046875 558.628906 406.605469 558.539062 C 406.164062 558.453125 405.722656 558.410156 405.273438 558.410156 C 404.824219 558.410156 404.378906 558.453125 403.941406 558.539062 C 403.5 558.628906 403.074219 558.757812 402.660156 558.929688 C 402.246094 559.101562 401.851562 559.3125 401.480469 559.5625 C 401.105469 559.808594 400.761719 560.09375 400.445312 560.410156 C 400.125 560.726562 399.84375 561.070312 399.59375 561.445312 C 399.34375 561.816406 399.136719 562.210938 398.964844 562.625 C 398.792969 563.039062 398.664062 563.46875 398.574219 563.90625 C 398.488281 564.347656 398.445312 564.789062 398.445312 565.238281 L 398.445312 585.21875 C 398.441406 585.667969 398.484375 586.113281 398.574219 586.554688 C 398.660156 586.996094 398.789062 587.421875 398.960938 587.835938 C 399.132812 588.25 399.34375 588.644531 399.589844 589.019531 C 399.839844 589.390625 400.125 589.738281 400.441406 590.054688 C 400.757812 590.371094 401.101562 590.65625 401.476562 590.90625 C 401.847656 591.15625 402.242188 591.367188 402.65625 591.539062 C 403.070312 591.710938 403.5 591.839844 403.941406 591.925781 C 404.378906 592.015625 404.824219 592.058594 405.273438 592.058594 Z M 405.273438 592.058594 " fill-opacity="1" fill-rule="nonzero"/><path fill="#d7d8d3" d="M 326.867188 597.921875 C 327.089844 598.3125 327.351562 598.679688 327.644531 599.019531 C 327.941406 599.359375 328.265625 599.667969 328.621094 599.941406 C 328.976562 600.21875 329.355469 600.457031 329.757812 600.65625 C 330.164062 600.859375 330.582031 601.019531 331.015625 601.136719 C 331.449219 601.253906 331.894531 601.328125 332.34375 601.359375 C 332.792969 601.390625 333.238281 601.375 333.6875 601.316406 C 334.132812 601.261719 334.570312 601.160156 334.996094 601.015625 C 335.421875 600.871094 335.832031 600.683594 336.21875 600.460938 C 336.609375 600.234375 336.976562 599.972656 337.3125 599.675781 C 337.652344 599.378906 337.957031 599.050781 338.230469 598.695312 C 338.503906 598.335938 338.742188 597.957031 338.9375 597.550781 C 339.136719 597.144531 339.292969 596.726562 339.410156 596.289062 C 339.523438 595.855469 339.59375 595.414062 339.621094 594.964844 C 339.648438 594.515625 339.632812 594.066406 339.574219 593.621094 C 339.511719 593.171875 339.40625 592.738281 339.261719 592.3125 C 339.113281 591.886719 338.925781 591.480469 338.699219 591.089844 L 333.699219 582.449219 C 333.472656 582.066406 333.210938 581.707031 332.914062 581.371094 C 332.617188 581.039062 332.292969 580.734375 331.9375 580.464844 C 331.582031 580.195312 331.203125 579.960938 330.800781 579.765625 C 330.398438 579.570312 329.984375 579.414062 329.550781 579.300781 C 329.121094 579.1875 328.679688 579.117188 328.234375 579.089844 C 327.789062 579.058594 327.347656 579.074219 326.902344 579.136719 C 326.460938 579.195312 326.027344 579.296875 325.605469 579.4375 C 325.183594 579.582031 324.777344 579.765625 324.390625 579.988281 C 324.003906 580.214844 323.644531 580.472656 323.308594 580.765625 C 322.972656 581.058594 322.667969 581.382812 322.394531 581.738281 C 322.121094 582.089844 321.886719 582.46875 321.6875 582.867188 C 321.488281 583.269531 321.332031 583.683594 321.214844 584.113281 C 321.097656 584.546875 321.023438 584.984375 320.992188 585.429688 C 320.960938 585.875 320.976562 586.320312 321.03125 586.761719 C 321.085938 587.207031 321.183594 587.636719 321.328125 588.0625 C 321.46875 588.484375 321.648438 588.890625 321.867188 589.28125 Z M 326.867188 597.921875 " fill-opacity="1" fill-rule="nonzero"/><path fill="#d7d8d3" d="M 267.585938 648.355469 L 284.890625 658.34375 C 285.277344 658.570312 285.6875 658.757812 286.113281 658.90625 C 286.539062 659.054688 286.972656 659.160156 287.417969 659.21875 C 287.867188 659.28125 288.3125 659.296875 288.761719 659.269531 C 289.210938 659.242188 289.65625 659.171875 290.089844 659.054688 C 290.527344 658.941406 290.945312 658.785156 291.351562 658.585938 C 291.753906 658.386719 292.136719 658.152344 292.492188 657.878906 C 292.851562 657.605469 293.179688 657.296875 293.476562 656.960938 C 293.773438 656.621094 294.035156 656.257812 294.257812 655.867188 C 294.484375 655.476562 294.667969 655.070312 294.8125 654.644531 C 294.957031 654.214844 295.058594 653.78125 295.117188 653.332031 C 295.175781 652.886719 295.1875 652.4375 295.160156 651.988281 C 295.128906 651.539062 295.054688 651.097656 294.9375 650.664062 C 294.816406 650.226562 294.660156 649.808594 294.457031 649.40625 C 294.257812 649.003906 294.019531 648.625 293.742188 648.269531 C 293.464844 647.910156 293.160156 647.585938 292.816406 647.292969 C 292.476562 646.996094 292.113281 646.738281 291.71875 646.515625 L 274.417969 636.523438 C 274.027344 636.304688 273.621094 636.125 273.199219 635.980469 C 272.773438 635.839844 272.339844 635.742188 271.898438 635.6875 C 271.457031 635.628906 271.011719 635.617188 270.566406 635.648438 C 270.121094 635.679688 269.683594 635.753906 269.25 635.871094 C 268.820312 635.988281 268.40625 636.144531 268.003906 636.34375 C 267.605469 636.542969 267.226562 636.777344 266.875 637.050781 C 266.519531 637.324219 266.195312 637.628906 265.902344 637.964844 C 265.609375 638.300781 265.351562 638.660156 265.125 639.046875 C 264.902344 639.433594 264.71875 639.839844 264.574219 640.261719 C 264.433594 640.683594 264.332031 641.117188 264.269531 641.558594 C 264.210938 642.003906 264.195312 642.445312 264.226562 642.890625 C 264.253906 643.335938 264.324219 643.777344 264.4375 644.207031 C 264.550781 644.640625 264.707031 645.054688 264.902344 645.457031 C 265.097656 645.859375 265.332031 646.238281 265.601562 646.59375 C 265.871094 646.949219 266.175781 647.273438 266.507812 647.570312 C 266.84375 647.867188 267.203125 648.128906 267.585938 648.355469 Z M 267.585938 648.355469 " fill-opacity="1" fill-rule="nonzero"/><path fill="#d7d8d3" d="M 266.910156 719.847656 C 266.910156 719.398438 266.867188 718.953125 266.777344 718.515625 C 266.691406 718.074219 266.5625 717.648438 266.390625 717.234375 C 266.21875 716.820312 266.007812 716.425781 265.757812 716.050781 C 265.507812 715.679688 265.226562 715.335938 264.910156 715.019531 C 264.59375 714.699219 264.246094 714.417969 263.875 714.167969 C 263.5 713.917969 263.109375 713.707031 262.691406 713.539062 C 262.277344 713.367188 261.851562 713.234375 261.410156 713.148438 C 260.972656 713.0625 260.527344 713.015625 260.078125 713.015625 L 250.101562 713.015625 C 249.65625 713.015625 249.210938 713.0625 248.769531 713.148438 C 248.332031 713.234375 247.902344 713.367188 247.488281 713.539062 C 247.074219 713.707031 246.679688 713.917969 246.308594 714.167969 C 245.9375 714.417969 245.589844 714.699219 245.273438 715.019531 C 244.957031 715.335938 244.671875 715.679688 244.425781 716.050781 C 244.175781 716.425781 243.964844 716.820312 243.792969 717.234375 C 243.621094 717.648438 243.492188 718.074219 243.40625 718.515625 C 243.316406 718.953125 243.273438 719.398438 243.273438 719.847656 C 243.273438 720.296875 243.316406 720.738281 243.40625 721.179688 C 243.492188 721.621094 243.621094 722.046875 243.792969 722.460938 C 243.964844 722.875 244.175781 723.269531 244.425781 723.640625 C 244.671875 724.015625 244.957031 724.359375 245.273438 724.675781 C 245.589844 724.992188 245.9375 725.277344 246.308594 725.527344 C 246.679688 725.773438 247.074219 725.984375 247.488281 726.15625 C 247.902344 726.328125 248.332031 726.457031 248.769531 726.546875 C 249.210938 726.632812 249.65625 726.675781 250.101562 726.675781 L 260.089844 726.675781 C 260.539062 726.675781 260.980469 726.632812 261.421875 726.542969 C 261.859375 726.457031 262.289062 726.324219 262.699219 726.152344 C 263.113281 725.980469 263.507812 725.769531 263.878906 725.523438 C 264.25 725.273438 264.597656 724.988281 264.914062 724.671875 C 265.230469 724.355469 265.511719 724.011719 265.761719 723.636719 C 266.007812 723.265625 266.21875 722.871094 266.390625 722.457031 C 266.5625 722.042969 266.691406 721.617188 266.777344 721.179688 C 266.867188 720.738281 266.910156 720.296875 266.910156 719.847656 Z M 266.910156 719.847656 " fill-opacity="1" fill-rule="nonzero"/><path fill="#d7d8d3" d="M 560.171875 713.015625 L 550.183594 713.015625 C 549.734375 713.015625 549.289062 713.0625 548.851562 713.148438 C 548.410156 713.234375 547.984375 713.367188 547.570312 713.539062 C 547.15625 713.707031 546.761719 713.917969 546.386719 714.167969 C 546.015625 714.417969 545.671875 714.699219 545.351562 715.019531 C 545.035156 715.335938 544.753906 715.679688 544.503906 716.050781 C 544.253906 716.425781 544.042969 716.820312 543.871094 717.234375 C 543.699219 717.648438 543.570312 718.074219 543.484375 718.515625 C 543.398438 718.953125 543.351562 719.398438 543.351562 719.847656 C 543.351562 720.296875 543.398438 720.738281 543.484375 721.179688 C 543.570312 721.621094 543.699219 722.046875 543.871094 722.460938 C 544.042969 722.875 544.253906 723.269531 544.503906 723.640625 C 544.753906 724.015625 545.035156 724.359375 545.351562 724.675781 C 545.671875 724.992188 546.015625 725.277344 546.386719 725.527344 C 546.761719 725.773438 547.15625 725.984375 547.570312 726.15625 C 547.984375 726.328125 548.410156 726.457031 548.851562 726.546875 C 549.289062 726.632812 549.734375 726.675781 550.183594 726.675781 L 560.171875 726.675781 C 560.617188 726.675781 561.0625 726.632812 561.503906 726.546875 C 561.941406 726.457031 562.371094 726.328125 562.785156 726.15625 C 563.199219 725.984375 563.589844 725.773438 563.964844 725.527344 C 564.335938 725.277344 564.683594 724.992188 565 724.675781 C 565.316406 724.359375 565.601562 724.015625 565.847656 723.640625 C 566.097656 723.269531 566.308594 722.875 566.480469 722.460938 C 566.652344 722.046875 566.78125 721.621094 566.867188 721.179688 C 566.957031 720.738281 567 720.296875 567 719.847656 C 567 719.398438 566.957031 718.953125 566.867188 718.515625 C 566.78125 718.074219 566.652344 717.648438 566.480469 717.234375 C 566.308594 716.820312 566.097656 716.425781 565.847656 716.050781 C 565.601562 715.679688 565.316406 715.335938 565 715.019531 C 564.683594 714.699219 564.335938 714.417969 563.964844 714.167969 C 563.589844 713.917969 563.199219 713.707031 562.785156 713.539062 C 562.371094 713.367188 561.941406 713.234375 561.503906 713.148438 C 561.0625 713.0625 560.617188 713.015625 560.171875 713.015625 Z M 560.171875 713.015625 " fill-opacity="1" fill-rule="nonzero"/><path fill="#d7d8d3" d="M 474.054688 600.421875 C 474.445312 600.644531 474.851562 600.828125 475.277344 600.972656 C 475.699219 601.117188 476.136719 601.21875 476.578125 601.277344 C 477.023438 601.335938 477.46875 601.351562 477.917969 601.320312 C 478.363281 601.292969 478.804688 601.21875 479.238281 601.101562 C 479.671875 600.988281 480.089844 600.828125 480.492188 600.632812 C 480.894531 600.433594 481.273438 600.195312 481.628906 599.925781 C 481.984375 599.652344 482.308594 599.347656 482.605469 599.007812 C 482.902344 598.671875 483.160156 598.308594 483.386719 597.921875 L 488.378906 589.28125 C 488.605469 588.890625 488.792969 588.484375 488.941406 588.058594 C 489.089844 587.632812 489.195312 587.195312 489.253906 586.75 C 489.316406 586.304688 489.332031 585.855469 489.304688 585.40625 C 489.277344 584.957031 489.207031 584.515625 489.089844 584.078125 C 488.976562 583.644531 488.820312 583.222656 488.621094 582.820312 C 488.421875 582.414062 488.1875 582.035156 487.914062 581.675781 C 487.640625 581.320312 487.332031 580.992188 486.996094 580.695312 C 486.65625 580.398438 486.292969 580.136719 485.902344 579.910156 C 485.511719 579.683594 485.105469 579.5 484.679688 579.355469 C 484.25 579.210938 483.816406 579.109375 483.367188 579.050781 C 482.921875 578.996094 482.472656 578.980469 482.023438 579.011719 C 481.574219 579.042969 481.132812 579.117188 480.699219 579.234375 C 480.261719 579.351562 479.84375 579.511719 479.441406 579.710938 C 479.039062 579.914062 478.660156 580.152344 478.304688 580.429688 C 477.945312 580.703125 477.621094 581.011719 477.328125 581.351562 C 477.03125 581.691406 476.773438 582.058594 476.550781 582.449219 L 471.554688 591.101562 C 471.332031 591.488281 471.148438 591.894531 471.007812 592.320312 C 470.863281 592.746094 470.761719 593.179688 470.703125 593.621094 C 470.644531 594.066406 470.632812 594.511719 470.660156 594.960938 C 470.691406 595.40625 470.761719 595.84375 470.878906 596.277344 C 470.996094 596.710938 471.152344 597.128906 471.351562 597.53125 C 471.546875 597.929688 471.785156 598.308594 472.054688 598.664062 C 472.328125 599.019531 472.632812 599.34375 472.96875 599.640625 C 473.304688 599.9375 473.667969 600.195312 474.054688 600.421875 Z M 474.054688 600.421875 " fill-opacity="1" fill-rule="nonzero"/><path fill="#d7d8d3" d="M 521.96875 659.261719 C 523.1875 659.261719 524.324219 658.957031 525.378906 658.34375 L 542.679688 648.355469 C 543.074219 648.132812 543.4375 647.871094 543.777344 647.578125 C 544.117188 647.28125 544.425781 646.957031 544.703125 646.601562 C 544.980469 646.246094 545.21875 645.867188 545.417969 645.460938 C 545.617188 645.058594 545.777344 644.640625 545.894531 644.207031 C 546.015625 643.773438 546.089844 643.328125 546.117188 642.878906 C 546.148438 642.429688 546.136719 641.984375 546.078125 641.535156 C 546.019531 641.089844 545.917969 640.652344 545.773438 640.226562 C 545.628906 639.800781 545.445312 639.390625 545.21875 639 C 544.996094 638.613281 544.734375 638.246094 544.4375 637.910156 C 544.140625 637.570312 543.8125 637.265625 543.453125 636.992188 C 543.097656 636.71875 542.714844 636.480469 542.3125 636.285156 C 541.90625 636.085938 541.484375 635.929688 541.050781 635.8125 C 540.617188 635.699219 540.171875 635.628906 539.722656 635.601562 C 539.273438 635.574219 538.828125 635.589844 538.378906 635.648438 C 537.933594 635.710938 537.496094 635.816406 537.074219 635.960938 C 536.648438 636.109375 536.238281 636.296875 535.851562 636.523438 L 518.546875 646.515625 C 517.894531 646.890625 517.320312 647.363281 516.824219 647.925781 C 516.328125 648.492188 515.9375 649.121094 515.648438 649.816406 C 515.359375 650.511719 515.191406 651.234375 515.144531 651.988281 C 515.09375 652.738281 515.167969 653.476562 515.363281 654.203125 C 515.554688 654.929688 515.863281 655.605469 516.28125 656.230469 C 516.699219 656.855469 517.207031 657.398438 517.804688 657.855469 C 518.402344 658.3125 519.058594 658.660156 519.769531 658.902344 C 520.484375 659.144531 521.214844 659.261719 521.96875 659.261719 Z M 521.96875 659.261719 " fill-opacity="1" fill-rule="nonzero"/><path fill="#d7d8d3" d="M 329.945312 680.195312 C 330.382812 680.085938 330.800781 679.929688 331.203125 679.734375 C 331.609375 679.539062 331.988281 679.308594 332.347656 679.039062 C 332.703125 678.769531 333.03125 678.464844 333.332031 678.128906 C 333.628906 677.796875 333.894531 677.433594 334.121094 677.050781 C 334.347656 676.664062 334.535156 676.257812 334.683594 675.835938 C 334.832031 675.410156 334.933594 674.976562 334.996094 674.53125 C 335.058594 674.089844 335.078125 673.644531 335.050781 673.195312 C 335.027344 672.746094 334.957031 672.308594 334.84375 671.871094 C 327.585938 643.839844 342.363281 623.765625 360.707031 618.417969 C 373.835938 614.59375 391.667969 617.914062 398.777344 639.824219 C 399 640.511719 399.324219 641.144531 399.746094 641.730469 C 400.171875 642.3125 400.675781 642.816406 401.257812 643.242188 C 401.839844 643.667969 402.476562 643.988281 403.160156 644.210938 C 403.847656 644.4375 404.550781 644.546875 405.273438 644.546875 C 405.996094 644.546875 406.699219 644.4375 407.382812 644.210938 C 408.070312 643.988281 408.707031 643.667969 409.289062 643.242188 C 409.871094 642.816406 410.375 642.3125 410.800781 641.730469 C 411.222656 641.144531 411.546875 640.511719 411.769531 639.824219 C 418.871094 617.914062 436.71875 614.597656 449.835938 618.417969 C 468.183594 623.765625 482.957031 643.839844 475.699219 671.871094 C 475.582031 672.308594 475.507812 672.753906 475.476562 673.203125 C 475.445312 673.65625 475.457031 674.105469 475.515625 674.554688 C 475.574219 675 475.675781 675.441406 475.824219 675.867188 C 475.96875 676.296875 476.152344 676.707031 476.382812 677.097656 C 476.609375 677.488281 476.871094 677.855469 477.171875 678.191406 C 477.46875 678.53125 477.800781 678.839844 478.160156 679.113281 C 478.519531 679.386719 478.902344 679.621094 479.308594 679.816406 C 479.71875 680.015625 480.140625 680.171875 480.578125 680.285156 C 481.015625 680.398438 481.460938 680.464844 481.910156 680.492188 C 482.363281 680.515625 482.8125 680.496094 483.261719 680.433594 C 483.707031 680.367188 484.144531 680.261719 484.570312 680.109375 C 484.996094 679.957031 485.40625 679.765625 485.792969 679.535156 C 486.179688 679.300781 486.542969 679.035156 486.878906 678.730469 C 487.210938 678.425781 487.515625 678.09375 487.785156 677.730469 C 488.050781 677.363281 488.28125 676.976562 488.472656 676.570312 C 488.664062 676.160156 488.816406 675.734375 488.921875 675.296875 C 498.363281 638.839844 478.324219 612.488281 453.65625 605.304688 C 452.566406 604.960938 451.464844 604.660156 450.351562 604.402344 C 449.234375 604.144531 448.113281 603.933594 446.980469 603.769531 C 445.847656 603.601562 444.710938 603.480469 443.570312 603.402344 C 442.429688 603.328125 441.289062 603.296875 440.144531 603.3125 C 439 603.328125 437.859375 603.390625 436.722656 603.496094 C 435.582031 603.605469 434.449219 603.757812 433.324219 603.953125 C 432.195312 604.152344 431.078125 604.394531 429.972656 604.679688 C 428.863281 604.964844 427.769531 605.296875 426.691406 605.671875 C 425.609375 606.046875 424.546875 606.460938 423.496094 606.921875 C 422.449219 607.382812 421.421875 607.882812 420.414062 608.421875 C 419.410156 608.964844 418.425781 609.546875 417.464844 610.167969 C 416.503906 610.785156 415.566406 611.445312 414.660156 612.140625 C 413.75 612.835938 412.871094 613.566406 412.023438 614.332031 C 411.171875 615.097656 410.355469 615.894531 409.570312 616.726562 C 408.78125 617.554688 408.03125 618.417969 407.3125 619.308594 C 406.597656 620.199219 405.917969 621.117188 405.273438 622.0625 C 404.628906 621.117188 403.949219 620.199219 403.230469 619.308594 C 402.515625 618.417969 401.761719 617.554688 400.976562 616.722656 C 400.191406 615.894531 399.375 615.09375 398.523438 614.328125 C 397.675781 613.5625 396.796875 612.835938 395.886719 612.140625 C 394.980469 611.445312 394.042969 610.785156 393.082031 610.164062 C 392.121094 609.546875 391.136719 608.964844 390.132812 608.421875 C 389.125 607.878906 388.097656 607.378906 387.046875 606.921875 C 386 606.460938 384.9375 606.042969 383.855469 605.667969 C 382.777344 605.296875 381.683594 604.964844 380.574219 604.679688 C 379.46875 604.390625 378.351562 604.148438 377.222656 603.953125 C 376.097656 603.753906 374.964844 603.601562 373.824219 603.496094 C 372.6875 603.386719 371.546875 603.328125 370.402344 603.3125 C 369.257812 603.296875 368.117188 603.324219 366.976562 603.402344 C 365.832031 603.476562 364.699219 603.597656 363.566406 603.765625 C 362.433594 603.933594 361.3125 604.144531 360.195312 604.398438 C 359.082031 604.65625 357.980469 604.957031 356.890625 605.300781 C 332.21875 612.488281 312.183594 638.839844 321.625 675.292969 C 321.734375 675.726562 321.890625 676.144531 322.082031 676.550781 C 322.277344 676.953125 322.511719 677.335938 322.78125 677.695312 C 323.050781 678.050781 323.351562 678.382812 323.6875 678.679688 C 324.023438 678.976562 324.382812 679.242188 324.769531 679.46875 C 325.15625 679.695312 325.5625 679.886719 325.984375 680.03125 C 326.40625 680.179688 326.839844 680.285156 327.285156 680.347656 C 327.730469 680.410156 328.175781 680.429688 328.625 680.402344 C 329.070312 680.378906 329.511719 680.308594 329.945312 680.195312 Z M 329.945312 680.195312 " fill-opacity="1" fill-rule="nonzero"/></svg>