<svg xmlns="http://www.w3.org/2000/svg" xmlns:xlink="http://www.w3.org/1999/xlink" width="1080" zoomAndPan="magnify" viewBox="0 0 810 1439.999935" height="1920" preserveAspectRatio="xMidYMid meet" version="1.0"><defs><clipPath id="9b0ba9a175"><path d="M 243 559.621094 L 567 559.621094 L 567 880.621094 L 243 880.621094 Z M 243 559.621094 " clip-rule="nonzero"/></clipPath></defs><rect x="-81" width="972" fill="#ffffff" y="-143.999994" height="1727.999922" fill-opacity="1"/><rect x="-81" width="972" fill="#6e765d" y="-143.999994" height="1727.999922" fill-opacity="1"/><g clip-path="url(#9b0ba9a175)"><path fill="#d7d8d3" d="M 531.679688 559.621094 L 373.355469 559.621094 C 354.453125 559.621094 339.078125 574.515625 339.078125 592.820312 L 339.078125 673.457031 L 278.289062 673.457031 C 258.957031 673.457031 243.214844 688.351562 243.214844 706.65625 L 243.214844 808.015625 C 243.214844 826.320312 258.957031 841.214844 278.289062 841.214844 L 279.164062 841.214844 L 279.164062 873.074219 C 279.164062 875.871094 280.738281 878.371094 283.253906 879.578125 C 284.261719 880.058594 285.339844 880.308594 286.414062 880.308594 C 288.019531 880.308594 289.589844 879.777344 290.914062 878.71875 L 337.984375 841.214844 L 436.230469 841.214844 C 455.363281 841.214844 470.921875 826.136719 470.921875 807.617188 L 470.921875 727.378906 L 472.046875 727.378906 L 519.117188 764.882812 C 520.425781 765.925781 522.015625 766.453125 523.601562 766.453125 C 524.660156 766.453125 525.738281 766.222656 526.765625 765.726562 C 529.28125 764.5 530.851562 762.019531 530.851562 759.222656 L 530.851562 727.363281 L 531.730469 727.363281 C 551.058594 727.363281 566.800781 712.464844 566.800781 694.160156 L 566.800781 592.820312 C 566.75 574.515625 551.011719 559.621094 531.679688 559.621094 Z M 458.90625 807.617188 C 458.90625 819.53125 448.726562 829.230469 436.199219 829.230469 L 336.628906 829.230469 C 334.792969 829.230469 332.988281 829.859375 331.53125 831.019531 L 291.148438 863.210938 L 291.148438 837.210938 C 291.148438 832.824219 287.523438 829.25 283.085938 829.25 L 278.289062 829.25 C 265.558594 829.25 255.199219 819.730469 255.199219 808.03125 L 255.199219 706.65625 C 255.199219 694.957031 265.558594 685.4375 278.289062 685.4375 L 339.078125 685.4375 L 339.078125 694.175781 C 339.078125 712.484375 354.453125 727.378906 373.355469 727.378906 L 458.90625 727.378906 Z M 554.769531 694.175781 C 554.769531 705.878906 544.40625 715.394531 531.679688 715.394531 L 526.878906 715.394531 C 522.425781 715.394531 518.804688 718.972656 518.804688 723.355469 L 518.804688 749.359375 L 478.402344 717.167969 C 476.960938 716.023438 475.160156 715.394531 473.320312 715.394531 L 373.355469 715.394531 C 361.058594 715.394531 351.0625 705.878906 351.0625 694.175781 L 351.0625 592.820312 C 351.0625 581.121094 361.058594 571.601562 373.355469 571.601562 L 531.679688 571.601562 C 544.40625 571.601562 554.769531 581.121094 554.769531 592.820312 Z M 554.769531 694.175781 " fill-opacity="1" fill-rule="nonzero"/></g><path fill="#d7d8d3" d="M 324.101562 757.335938 C 324.101562 757.925781 324.042969 758.511719 323.925781 759.089844 C 323.8125 759.667969 323.640625 760.230469 323.414062 760.773438 C 323.191406 761.320312 322.914062 761.835938 322.585938 762.328125 C 322.257812 762.820312 321.886719 763.273438 321.46875 763.691406 C 321.050781 764.109375 320.597656 764.480469 320.105469 764.808594 C 319.613281 765.136719 319.097656 765.414062 318.550781 765.636719 C 318.007812 765.863281 317.445312 766.035156 316.867188 766.148438 C 316.289062 766.265625 315.703125 766.324219 315.113281 766.324219 C 314.523438 766.324219 313.9375 766.265625 313.359375 766.148438 C 312.78125 766.035156 312.21875 765.863281 311.671875 765.636719 C 311.128906 765.414062 310.609375 765.136719 310.121094 764.808594 C 309.628906 764.480469 309.175781 764.109375 308.757812 763.691406 C 308.339844 763.273438 307.96875 762.820312 307.640625 762.328125 C 307.3125 761.835938 307.035156 761.320312 306.808594 760.773438 C 306.582031 760.230469 306.414062 759.667969 306.296875 759.089844 C 306.183594 758.511719 306.125 757.925781 306.125 757.335938 C 306.125 756.746094 306.183594 756.160156 306.296875 755.582031 C 306.414062 755.003906 306.582031 754.441406 306.808594 753.894531 C 307.035156 753.351562 307.3125 752.832031 307.640625 752.34375 C 307.96875 751.851562 308.339844 751.398438 308.757812 750.980469 C 309.175781 750.5625 309.628906 750.191406 310.121094 749.863281 C 310.609375 749.535156 311.128906 749.257812 311.671875 749.03125 C 312.21875 748.804688 312.78125 748.636719 313.359375 748.519531 C 313.9375 748.40625 314.523438 748.347656 315.113281 748.347656 C 315.703125 748.347656 316.289062 748.40625 316.867188 748.519531 C 317.445312 748.636719 318.007812 748.804688 318.550781 749.03125 C 319.097656 749.257812 319.613281 749.535156 320.105469 749.863281 C 320.597656 750.191406 321.050781 750.5625 321.46875 750.980469 C 321.886719 751.398438 322.257812 751.851562 322.585938 752.34375 C 322.914062 752.832031 323.191406 753.351562 323.414062 753.894531 C 323.640625 754.441406 323.8125 755.003906 323.925781 755.582031 C 324.042969 756.160156 324.101562 756.746094 324.101562 757.335938 Z M 324.101562 757.335938 " fill-opacity="1" fill-rule="nonzero"/><path fill="#d7d8d3" d="M 366.039062 757.335938 C 366.039062 757.925781 365.980469 758.511719 365.867188 759.089844 C 365.75 759.667969 365.582031 760.230469 365.355469 760.773438 C 365.128906 761.320312 364.851562 761.835938 364.523438 762.328125 C 364.195312 762.820312 363.824219 763.273438 363.40625 763.691406 C 362.988281 764.109375 362.535156 764.480469 362.046875 764.808594 C 361.554688 765.136719 361.035156 765.414062 360.492188 765.636719 C 359.945312 765.863281 359.382812 766.035156 358.804688 766.148438 C 358.226562 766.265625 357.640625 766.324219 357.050781 766.324219 C 356.460938 766.324219 355.878906 766.265625 355.300781 766.148438 C 354.71875 766.035156 354.160156 765.863281 353.613281 765.636719 C 353.066406 765.414062 352.550781 765.136719 352.058594 764.808594 C 351.570312 764.480469 351.113281 764.109375 350.699219 763.691406 C 350.28125 763.273438 349.90625 762.820312 349.578125 762.328125 C 349.253906 761.835938 348.976562 761.320312 348.75 760.773438 C 348.523438 760.230469 348.351562 759.667969 348.238281 759.089844 C 348.121094 758.511719 348.066406 757.925781 348.066406 757.335938 C 348.066406 756.746094 348.121094 756.160156 348.238281 755.582031 C 348.351562 755.003906 348.523438 754.441406 348.75 753.894531 C 348.976562 753.351562 349.253906 752.832031 349.578125 752.34375 C 349.90625 751.851562 350.28125 751.398438 350.699219 750.980469 C 351.113281 750.5625 351.570312 750.191406 352.058594 749.863281 C 352.550781 749.535156 353.066406 749.257812 353.613281 749.03125 C 354.160156 748.804688 354.71875 748.636719 355.300781 748.519531 C 355.878906 748.40625 356.460938 748.347656 357.050781 748.347656 C 357.640625 748.347656 358.226562 748.40625 358.804688 748.519531 C 359.382812 748.636719 359.945312 748.804688 360.492188 749.03125 C 361.035156 749.257812 361.554688 749.535156 362.046875 749.863281 C 362.535156 750.191406 362.988281 750.5625 363.40625 750.980469 C 363.824219 751.398438 364.195312 751.851562 364.523438 752.34375 C 364.851562 752.832031 365.128906 753.351562 365.355469 753.894531 C 365.582031 754.441406 365.75 755.003906 365.867188 755.582031 C 365.980469 756.160156 366.039062 756.746094 366.039062 757.335938 Z M 366.039062 757.335938 " fill-opacity="1" fill-rule="nonzero"/><path fill="#d7d8d3" d="M 407.980469 757.335938 C 407.980469 757.925781 407.921875 758.511719 407.804688 759.089844 C 407.691406 759.667969 407.519531 760.230469 407.296875 760.773438 C 407.070312 761.320312 406.792969 761.835938 406.464844 762.328125 C 406.136719 762.820312 405.765625 763.273438 405.347656 763.691406 C 404.929688 764.109375 404.476562 764.480469 403.984375 764.808594 C 403.496094 765.136719 402.976562 765.414062 402.429688 765.636719 C 401.886719 765.863281 401.324219 766.035156 400.746094 766.148438 C 400.167969 766.265625 399.582031 766.324219 398.992188 766.324219 C 398.402344 766.324219 397.816406 766.265625 397.238281 766.148438 C 396.660156 766.035156 396.097656 765.863281 395.554688 765.636719 C 395.007812 765.414062 394.488281 765.136719 394 764.808594 C 393.507812 764.480469 393.054688 764.109375 392.636719 763.691406 C 392.21875 763.273438 391.847656 762.820312 391.519531 762.328125 C 391.191406 761.835938 390.914062 761.320312 390.6875 760.773438 C 390.464844 760.230469 390.292969 759.667969 390.175781 759.089844 C 390.0625 758.511719 390.003906 757.925781 390.003906 757.335938 C 390.003906 756.746094 390.0625 756.160156 390.175781 755.582031 C 390.292969 755.003906 390.464844 754.441406 390.6875 753.894531 C 390.914062 753.351562 391.191406 752.832031 391.519531 752.34375 C 391.847656 751.851562 392.21875 751.398438 392.636719 750.980469 C 393.054688 750.5625 393.507812 750.191406 394 749.863281 C 394.488281 749.535156 395.007812 749.257812 395.554688 749.03125 C 396.097656 748.804688 396.660156 748.636719 397.238281 748.519531 C 397.816406 748.40625 398.402344 748.347656 398.992188 748.347656 C 399.582031 748.347656 400.167969 748.40625 400.746094 748.519531 C 401.324219 748.636719 401.886719 748.804688 402.429688 749.03125 C 402.976562 749.257812 403.496094 749.535156 403.984375 749.863281 C 404.476562 750.191406 404.929688 750.5625 405.347656 750.980469 C 405.765625 751.398438 406.136719 751.851562 406.464844 752.34375 C 406.792969 752.832031 407.070312 753.351562 407.296875 753.894531 C 407.519531 754.441406 407.691406 755.003906 407.804688 755.582031 C 407.921875 756.160156 407.980469 756.746094 407.980469 757.335938 Z M 407.980469 757.335938 " fill-opacity="1" fill-rule="nonzero"/><path fill="#d7d8d3" d="M 449.554688 663.691406 C 446.460938 663.691406 443.84375 661.324219 443.578125 658.195312 C 442.585938 646.03125 447.289062 636.414062 457.53125 629.664062 C 465.941406 624.117188 468.222656 620.773438 467.265625 615.429688 C 466.253906 609.800781 462.035156 607.300781 458.65625 606.195312 C 452.402344 604.140625 444.722656 605.414062 440.78125 609.15625 C 438.464844 611.375 437.804688 614.1875 438.796875 617.78125 C 439.675781 620.972656 437.804688 624.265625 434.609375 625.144531 C 431.449219 626.023438 428.121094 624.152344 427.246094 620.957031 C 425.074219 613.0625 426.945312 605.78125 432.523438 600.46875 C 439.640625 593.699219 451.90625 591.347656 462.398438 594.789062 C 471.417969 597.753906 477.492188 604.488281 479.066406 613.3125 C 481.695312 628.074219 470.277344 635.605469 464.136719 639.660156 C 457.449219 644.0625 454.882812 649.324219 455.53125 657.21875 C 455.792969 660.511719 453.34375 663.410156 450.035156 663.675781 C 449.886719 663.691406 449.71875 663.691406 449.554688 663.691406 Z M 449.554688 663.691406 " fill-opacity="1" fill-rule="nonzero"/><path fill="#d7d8d3" d="M 457.765625 680.011719 C 457.765625 680.519531 457.714844 681.023438 457.613281 681.523438 C 457.515625 682.023438 457.367188 682.511719 457.171875 682.980469 C 456.976562 683.453125 456.738281 683.898438 456.457031 684.324219 C 456.171875 684.746094 455.851562 685.136719 455.492188 685.5 C 455.128906 685.859375 454.738281 686.179688 454.3125 686.464844 C 453.890625 686.746094 453.441406 686.988281 452.972656 687.179688 C 452.5 687.375 452.015625 687.523438 451.515625 687.625 C 451.015625 687.722656 450.511719 687.773438 450 687.773438 C 449.492188 687.773438 448.988281 687.722656 448.488281 687.625 C 447.988281 687.523438 447.5 687.375 447.03125 687.179688 C 446.558594 686.988281 446.113281 686.746094 445.6875 686.464844 C 445.265625 686.179688 444.875 685.859375 444.511719 685.5 C 444.152344 685.136719 443.832031 684.746094 443.546875 684.324219 C 443.265625 683.898438 443.023438 683.453125 442.828125 682.980469 C 442.636719 682.511719 442.488281 682.023438 442.386719 681.523438 C 442.289062 681.023438 442.238281 680.519531 442.238281 680.011719 C 442.238281 679.5 442.289062 678.996094 442.386719 678.496094 C 442.488281 677.996094 442.636719 677.511719 442.828125 677.039062 C 443.023438 676.570312 443.265625 676.121094 443.546875 675.699219 C 443.832031 675.273438 444.152344 674.882812 444.511719 674.519531 C 444.875 674.160156 445.265625 673.839844 445.6875 673.554688 C 446.113281 673.273438 446.558594 673.035156 447.03125 672.839844 C 447.5 672.644531 447.988281 672.496094 448.488281 672.398438 C 448.988281 672.296875 449.492188 672.246094 450 672.246094 C 450.511719 672.246094 451.015625 672.296875 451.515625 672.398438 C 452.015625 672.496094 452.5 672.644531 452.972656 672.839844 C 453.441406 673.035156 453.890625 673.273438 454.3125 673.554688 C 454.738281 673.839844 455.128906 674.160156 455.492188 674.519531 C 455.851562 674.882812 456.171875 675.273438 456.457031 675.699219 C 456.738281 676.121094 456.976562 676.570312 457.171875 677.039062 C 457.367188 677.511719 457.515625 677.996094 457.613281 678.496094 C 457.714844 678.996094 457.765625 679.5 457.765625 680.011719 Z M 457.765625 680.011719 " fill-opacity="1" fill-rule="nonzero"/></svg>