<svg xmlns="http://www.w3.org/2000/svg" xmlns:xlink="http://www.w3.org/1999/xlink" width="1080" zoomAndPan="magnify" viewBox="0 0 810 1439.999935" height="1920" preserveAspectRatio="xMidYMid meet" version="1.0"><defs><clipPath id="161cb6ae5f"><path d="M 243.027344 612.878906 L 566.972656 612.878906 L 566.972656 827.121094 L 243.027344 827.121094 Z M 243.027344 612.878906 " clip-rule="nonzero"/></clipPath></defs><rect x="-81" width="972" fill="#ffffff" y="-143.999994" height="1727.999922" fill-opacity="1"/><rect x="-81" width="972" fill="#6e765d" y="-143.999994" height="1727.999922" fill-opacity="1"/><g clip-path="url(#161cb6ae5f)"><path fill="#d7d8d3" d="M 389.398438 665.855469 C 379.265625 647.628906 362.683594 635.230469 344.078125 629.980469 C 334.53125 627.289062 324.453125 626.5 314.453125 627.730469 C 304.777344 628.921875 295.183594 632.046875 286.191406 637.171875 C 285.222656 637.726562 284.203125 638.347656 283.199219 638.988281 C 282.203125 639.621094 281.21875 640.277344 280.304688 640.894531 C 262.332031 653.160156 252.484375 665.667969 247.5 677.496094 C 239.335938 696.863281 244.140625 714.4375 247.8125 726.34375 C 248.003906 726.960938 248.574219 728.460938 249.339844 730.40625 C 251.222656 735.175781 254.304688 742.683594 255.65625 746.089844 C 256.019531 746.996094 256.359375 749.097656 256.757812 751.929688 C 257.652344 758.285156 258.699219 768.128906 260.175781 776.910156 C 260.753906 780.339844 261.300781 785.519531 263.070312 789.007812 C 264.105469 791.050781 265.554688 792.546875 267.53125 793.066406 C 269.0625 793.46875 270.265625 793.421875 271.714844 792.910156 C 272.972656 792.464844 274.445312 791.625 276.621094 790.351562 C 277.902344 789.605469 278.820312 788.988281 279.550781 788.589844 C 280.03125 788.328125 280.335938 788.109375 280.691406 788.28125 C 281.378906 788.613281 282.058594 789.589844 283.3125 791.332031 C 285.332031 794.144531 288.53125 798.828125 294.417969 806.105469 C 302.585938 816.207031 307.347656 821.222656 311.792969 822.351562 C 314.179688 822.960938 316.507812 822.527344 319.203125 821.128906 C 322.636719 819.34375 326.734375 815.9375 332.542969 811.238281 C 333.761719 810.253906 334.742188 809.773438 335.652344 809.808594 C 336.660156 809.847656 337.523438 810.515625 338.480469 811.601562 C 340.996094 814.457031 343.867188 820.0625 349.390625 826.890625 C 349.605469 827.15625 349.992188 827.199219 350.253906 826.988281 C 350.519531 826.773438 350.5625 826.386719 350.351562 826.125 C 344.882812 819.207031 342.058594 813.550781 339.566406 810.65625 C 338.300781 809.183594 337.074219 808.390625 335.722656 808.324219 C 334.527344 808.261719 333.191406 808.769531 331.585938 810.042969 C 325.84375 814.585938 321.804688 817.894531 318.421875 819.605469 C 316.164062 820.75 314.226562 821.152344 312.242188 820.625 C 308.019531 819.507812 303.679688 814.539062 296 804.835938 C 288.683594 795.589844 285.597656 790.523438 283.726562 788.140625 C 282.929688 787.121094 282.285156 786.535156 281.691406 786.242188 C 280.867188 785.832031 280.078125 785.847656 279.074219 786.277344 C 278.222656 786.640625 277.132812 787.378906 275.457031 788.335938 C 273.441406 789.484375 272.089844 790.257812 270.929688 790.65625 C 269.96875 790.988281 269.167969 791.003906 268.15625 790.726562 C 266.394531 790.246094 265.398438 788.503906 264.667969 786.441406 C 263.542969 783.265625 263.167969 779.269531 262.726562 776.492188 C 261.335938 767.722656 260.386719 757.894531 259.550781 751.550781 C 259.136719 748.390625 258.722656 746.054688 258.328125 745.039062 C 257.175781 742.0625 254.734375 735.960938 252.90625 731.277344 C 251.824219 728.503906 250.960938 726.238281 250.722656 725.457031 C 247.296875 714.0625 242.738281 697.273438 250.609375 678.816406 C 255.449219 667.472656 264.964844 655.511719 282.253906 643.761719 L 287.90625 640.140625 C 296.457031 635.136719 305.613281 632.089844 314.855469 630.804688 C 324.46875 629.464844 334.167969 630.058594 343.429688 632.410156 C 361.777344 637.070312 378.371094 648.644531 388.863281 666.164062 C 388.949219 666.3125 389.136719 666.363281 389.285156 666.277344 C 389.433594 666.191406 389.484375 666.003906 389.398438 665.855469 Z M 404.730469 722.488281 C 402.226562 717.359375 400.304688 711.898438 399.023438 706.191406 C 397.789062 700.6875 397.15625 694.957031 397.222656 689.066406 C 397.390625 668.722656 405.808594 650.402344 419.21875 637.140625 C 432.566406 623.941406 450.890625 615.738281 471.144531 615.796875 C 472.210938 615.796875 473.355469 615.828125 474.496094 615.882812 C 475.644531 615.933594 476.796875 616.007812 477.867188 616.089844 C 498.789062 617.617188 513.066406 623.226562 522.957031 630.660156 C 539.066406 642.757812 543.511719 659.660156 546.234375 671.289062 C 546.421875 672.089844 546.800781 674.492188 547.25 677.441406 C 548 682.414062 548.929688 688.917969 549.410156 692.078125 C 549.574219 693.144531 550.382812 695.355469 551.589844 698.28125 C 554.027344 704.195312 558.101562 713.195312 561.269531 721.492188 C 562.273438 724.125 563.941406 727.785156 564.550781 731.105469 C 564.953125 733.304688 564.941406 735.351562 563.628906 736.675781 C 562.867188 737.4375 562.148438 737.828125 561.125 738.027344 C 559.917969 738.261719 558.351562 738.265625 556.023438 738.273438 C 554.097656 738.277344 552.785156 738.179688 551.871094 738.289062 C 550.820312 738.414062 550.148438 738.78125 549.652344 739.523438 C 549.292969 740.066406 549.03125 740.882812 548.847656 742.144531 C 548.414062 745.144531 548.265625 751.074219 546.527344 762.738281 C 544.703125 774.976562 543.414062 781.449219 540.3125 784.523438 C 538.851562 785.96875 536.972656 786.582031 534.445312 786.714844 C 530.660156 786.917969 525.515625 786.058594 518.273438 784.980469 C 516.230469 784.675781 514.804688 784.90625 513.792969 785.558594 C 512.644531 786.300781 511.964844 787.609375 511.59375 789.539062 C 510.875 793.289062 511.246094 799.601562 509.949219 808.324219 C 509.886719 808.71875 510.160156 809.085938 510.554688 809.144531 C 510.945312 809.207031 511.316406 808.933594 511.375 808.539062 C 512.730469 799.863281 512.398438 793.570312 513.140625 789.839844 C 513.417969 788.441406 513.820312 787.441406 514.65625 786.910156 C 515.421875 786.425781 516.496094 786.355469 518.027344 786.59375 C 525.414062 787.742188 530.667969 788.636719 534.535156 788.453125 C 537.566406 788.3125 539.800781 787.519531 541.5625 785.796875 C 544.839844 782.589844 546.445312 775.863281 548.441406 763.027344 C 549.878906 753.78125 550.296875 748.128906 550.632812 744.679688 C 550.847656 742.519531 550.949219 741.324219 551.382812 740.683594 C 551.621094 740.335938 552.011719 740.351562 552.601562 740.335938 C 553.433594 740.3125 554.539062 740.386719 556.023438 740.390625 C 558.535156 740.398438 560.222656 740.386719 561.527344 740.144531 C 563.011719 739.863281 564.058594 739.308594 565.164062 738.210938 C 566.585938 736.796875 567.082031 734.8125 566.953125 732.5625 C 566.738281 728.671875 564.613281 723.929688 563.398438 720.683594 C 560.273438 712.351562 556.238281 703.308594 553.828125 697.367188 C 552.742188 694.691406 551.984375 692.683594 551.839844 691.710938 C 551.371094 688.550781 550.480469 682.046875 549.753906 677.070312 C 549.308594 674.019531 548.921875 671.539062 548.730469 670.710938 C 545.953125 658.613281 541.328125 641.070312 524.632812 628.4375 C 514.433594 620.714844 499.707031 614.816406 478.082031 613.175781 C 476.984375 613.09375 475.808594 613.019531 474.632812 612.964844 C 473.441406 612.910156 472.257812 612.878906 471.144531 612.878906 C 450.132812 612.9375 431.085938 621.464844 417.390625 635.3125 C 403.75 649.105469 395.433594 668.144531 395.605469 689.066406 C 395.671875 695.070312 396.425781 700.898438 397.816406 706.480469 C 399.25 712.230469 401.355469 717.710938 404.03125 722.84375 C 404.128906 723.035156 404.363281 723.113281 404.558594 723.015625 C 404.75 722.917969 404.828125 722.683594 404.730469 722.488281 Z M 430.984375 779.859375 C 431.730469 777.886719 432.5 775.742188 433.019531 773.449219 C 433.519531 771.257812 433.792969 768.957031 433.742188 766.648438 C 433.710938 765.105469 433.511719 763.558594 433.121094 762.039062 C 432.742188 760.550781 432.160156 759.09375 431.386719 757.683594 C 430.3125 755.785156 427.730469 752.425781 424.847656 748.960938 C 420.175781 743.34375 414.757812 737.417969 414.238281 736.832031 C 413.617188 736.136719 413.007812 735.433594 412.410156 734.714844 C 411.8125 733.996094 411.230469 733.269531 410.660156 732.527344 C 410.582031 732.417969 410.425781 732.390625 410.3125 732.472656 C 410.203125 732.554688 410.175781 732.707031 410.257812 732.820312 C 410.78125 733.601562 411.320312 734.371094 411.875 735.132812 C 412.429688 735.894531 413 736.644531 413.582031 737.382812 C 414.128906 738.070312 420.402344 745.875 425.03125 752.214844 C 426.976562 754.878906 428.636719 757.265625 429.394531 758.753906 C 430.058594 760.011719 430.519531 761.3125 430.867188 762.625 C 431.226562 763.992188 431.445312 765.375 431.5625 766.761719 C 431.742188 768.929688 431.664062 771.089844 431.460938 773.195312 C 431.238281 775.492188 430.914062 777.695312 430.503906 779.71875 C 430.464844 779.851562 430.542969 779.988281 430.675781 780.027344 C 430.808594 780.066406 430.945312 779.988281 430.984375 779.859375 Z M 334.765625 726.316406 C 334.15625 726.441406 333.542969 726.53125 332.941406 726.582031 C 330.585938 726.796875 328.351562 726.449219 326.714844 725.367188 C 326.570312 725.273438 326.394531 725.164062 326.195312 725.046875 C 325.257812 728.019531 323.636719 730.78125 320.871094 733.058594 C 320.507812 733.355469 319.761719 733.949219 318.714844 734.5625 C 319.367188 735.054688 319.925781 735.527344 320.402344 735.980469 C 321.652344 737.175781 322.339844 738.253906 322.636719 739.171875 C 323.226562 740.988281 322.460938 742.320312 321.09375 743.0625 C 319.816406 743.753906 317.929688 743.878906 316.234375 743.269531 C 315.25 742.914062 314.242188 742.378906 313.222656 741.699219 C 311.027344 745.601562 307.273438 748.527344 301.367188 749.738281 C 297.722656 750.484375 295.03125 750.355469 292.652344 749.273438 C 291.007812 748.53125 289.503906 747.320312 287.933594 745.585938 C 285.535156 746.878906 283.15625 747.878906 280.980469 748.453125 C 276.351562 749.675781 272.621094 748.949219 271.175781 745.597656 C 270.773438 744.671875 270.570312 742.988281 270.621094 740.847656 C 270.6875 737.945312 271.199219 734.164062 272.164062 730.351562 C 271.109375 728.027344 270.554688 725.136719 270.535156 722.265625 L 270.535156 722.03125 C 270.1875 722.078125 269.847656 722.113281 269.515625 722.140625 C 264.652344 722.546875 261.34375 721.125 260.570312 717.078125 C 260.273438 715.511719 259.4375 710.082031 260.242188 706.765625 C 260.558594 705.449219 261.148438 704.449219 262.003906 703.957031 C 262.875 703.449219 264.085938 703.402344 265.707031 704.28125 C 270.304688 706.769531 274.425781 708.171875 278.136719 708.8125 C 278.964844 708.238281 279.660156 707.695312 280.238281 707.179688 C 277.355469 705.800781 274.503906 704.304688 272 702.609375 C 267.71875 699.710938 264.4375 696.214844 263.519531 691.789062 C 262.902344 688.816406 263.332031 685.414062 265.28125 681.46875 C 266.242188 679.523438 267.6875 676.96875 269.515625 674.996094 C 270.800781 673.609375 272.277344 672.511719 273.898438 672.046875 C 276.101562 671.417969 278.664062 672.101562 281.207031 673.476562 C 282.773438 671.988281 284.609375 670.917969 285.59375 670.347656 C 288.394531 668.730469 290.554688 668.5625 292.28125 669.199219 C 293.902344 669.796875 295.175781 671.144531 296.246094 672.855469 L 296.542969 671.140625 C 296.601562 670.816406 296.65625 670.492188 296.714844 670.167969 L 296.816406 669.59375 C 294.171875 668.03125 291.789062 666.867188 290.128906 665.753906 C 287.921875 664.277344 286.917969 662.785156 287.539062 660.898438 C 288.070312 659.273438 289.300781 658.171875 291.078125 657.523438 C 292.6875 656.933594 294.769531 656.722656 297.152344 656.804688 C 297.882812 656.832031 298.644531 656.886719 299.433594 656.964844 C 299.511719 656.675781 299.585938 656.394531 299.667969 656.113281 C 300.789062 652.097656 302.160156 649.359375 303.636719 647.621094 C 305.25 645.726562 307.015625 644.964844 308.78125 644.988281 C 311.902344 645.035156 315.152344 647.695312 317.699219 651.398438 C 318.179688 652.097656 318.636719 652.832031 319.0625 653.589844 C 319.914062 651.8125 320.925781 650.308594 321.992188 649.234375 C 324.117188 647.09375 326.472656 646.570312 328.4375 648.308594 C 330.464844 650.105469 332.40625 651.429688 334.199219 652.429688 C 335.171875 650.023438 338 649.25 341.800781 649.710938 C 348.417969 650.515625 358.066406 654.972656 363.90625 658.703125 C 366.515625 660.375 368.371094 661.9375 368.960938 662.960938 C 369.417969 663.746094 369.523438 664.710938 369.285156 665.800781 C 368.976562 667.199219 368.074219 668.84375 366.710938 670.539062 C 365.933594 671.507812 365.003906 672.5 363.957031 673.476562 C 366.628906 675.832031 369.503906 679.449219 369.714844 682.933594 C 369.925781 686.457031 369.347656 688.664062 368.335938 690.101562 C 367.730469 690.964844 366.96875 691.566406 366.089844 692 C 367.386719 693.855469 368.378906 695.648438 368.960938 697.34375 C 370.195312 700.941406 369.660156 704.148438 366.429688 706.753906 C 364.3125 708.46875 362.328125 709.351562 360.445312 709.660156 C 360.269531 709.6875 360.097656 709.710938 359.921875 709.730469 C 358.441406 711.949219 356.480469 713.972656 354.332031 715.667969 C 354.949219 718.34375 354.296875 720.617188 353.132812 722.207031 C 351.84375 723.972656 349.363281 726.421875 345.726562 727.121094 C 344.152344 727.421875 342.355469 727.40625 340.34375 726.851562 C 344.449219 730.074219 348.535156 736.566406 356.050781 740 C 364.511719 743.878906 372.691406 743.695312 380.433594 741.359375 C 385.984375 739.6875 391.300781 736.902344 396.363281 733.714844 C 399.765625 731.574219 403.054688 729.25 406.203125 726.9375 C 411.503906 723.042969 416.417969 719.175781 420.832031 716.226562 C 425.054688 713.402344 428.855469 711.433594 432.109375 710.996094 C 432.183594 710.988281 432.257812 710.984375 432.332031 710.992188 C 436.558594 710.5 438.96875 712.957031 441.246094 716.011719 C 443.453125 718.976562 445.484375 722.59375 449.644531 723.632812 C 451.636719 724.132812 454.074219 723.496094 456.371094 722.542969 C 460.007812 721.03125 462.667969 719.183594 464.101562 717.972656 C 464.101562 717.972656 464.125 717.957031 464.164062 717.921875 C 465.1875 717.859375 466.222656 717.769531 467.261719 717.65625 C 466.109375 718.863281 465.371094 719.480469 465.371094 719.480469 C 464.511719 720.207031 461.007812 722.75 457.128906 724.363281 C 454.417969 725.488281 451.519531 726.136719 449.164062 725.546875 C 444.527344 724.386719 442.125 720.5 439.664062 717.191406 C 437.570312 714.382812 435.414062 712.035156 431.042969 713.253906 C 430.988281 713.269531 430.9375 713.285156 430.882812 713.296875 C 428.261719 714.097656 425.339844 715.859375 422.125 718.117188 C 417.804688 721.152344 413.007812 725.113281 407.78125 729.058594 C 404.609375 731.453125 401.277344 733.84375 397.8125 736.019531 C 392.539062 739.328125 386.949219 742.136719 381.152344 743.800781 C 372.855469 746.175781 364.117188 746.195312 355.160156 741.902344 C 347.347656 738.140625 343.25 731.214844 339.007812 727.933594 C 337.660156 726.894531 336.308594 726.238281 334.765625 726.316406 Z M 305.96875 735.277344 C 305.128906 736.394531 304.414062 737.226562 303.792969 737.824219 C 302.480469 739.085938 301.449219 739.378906 300.59375 739.1875 C 300.054688 739.066406 299.546875 738.738281 299.058594 738.21875 C 298.9375 738.089844 298.8125 737.945312 298.6875 737.789062 C 295.925781 740.414062 292.652344 742.859375 289.347656 744.792969 C 290.652344 746.199219 291.914062 747.207031 293.304688 747.835938 C 295.417969 748.792969 297.8125 748.851562 301.050781 748.1875 C 306.484375 747.078125 309.910156 744.363281 311.902344 740.753906 C 309.9375 739.257812 307.9375 737.324219 305.96875 735.277344 Z M 286.527344 727.246094 C 285.371094 728.921875 284.132812 730.792969 282.808594 732.261719 C 280.527344 734.796875 277.972656 736.136719 275.203125 734.25 C 274.496094 733.765625 273.863281 733.125 273.3125 732.359375 C 272.625 735.480469 272.257812 738.492188 272.203125 740.886719 C 272.15625 742.722656 272.28125 744.175781 272.628906 744.972656 C 273.785156 747.65625 276.867188 747.902344 280.574219 746.925781 C 282.554688 746.402344 284.707031 745.511719 286.886719 744.363281 C 286.550781 743.953125 286.214844 743.523438 285.871094 743.070312 C 284.542969 741.316406 284.066406 739.539062 283.640625 737.464844 C 283.101562 734.835938 284.347656 732.453125 286.070312 730.507812 C 287.03125 729.425781 287.996094 728.636719 288.957031 728.089844 C 288.214844 727.769531 287.40625 727.484375 286.527344 727.246094 Z M 290.757812 728.988281 C 289.589844 729.414062 288.425781 730.234375 287.253906 731.558594 C 285.859375 733.132812 284.753906 735.019531 285.191406 737.148438 C 285.566406 738.980469 285.957031 740.5625 287.132812 742.117188 C 287.527344 742.640625 287.914062 743.128906 288.289062 743.585938 C 291.648438 741.652344 294.988281 739.15625 297.769531 736.480469 C 297.597656 736.21875 297.417969 735.941406 297.230469 735.652344 C 295.902344 733.597656 294.101562 730.929688 290.757812 728.988281 Z M 317.152344 735.367188 C 316.570312 735.628906 315.9375 735.867188 315.261719 736.058594 C 314.957031 737.546875 314.519531 738.964844 313.929688 740.289062 C 314.890625 740.933594 315.839844 741.445312 316.769531 741.78125 C 318.015625 742.226562 319.402344 742.179688 320.34375 741.671875 C 320.777344 741.433594 321.113281 741.09375 321.214844 740.636719 C 321.328125 740.113281 321.160156 739.484375 320.683594 738.738281 C 320.050781 737.746094 318.921875 736.621094 317.152344 735.367188 Z M 309.070312 736.179688 C 310.25 737.335938 311.429688 738.410156 312.597656 739.324219 C 312.992188 738.402344 313.308594 737.433594 313.550781 736.425781 C 312.167969 736.621094 310.65625 736.59375 309.070312 736.179688 Z M 302.855469 733.136719 C 301.980469 734.324219 300.957031 735.511719 299.820312 736.671875 C 299.871094 736.738281 299.921875 736.800781 299.972656 736.863281 C 300.296875 737.261719 300.585938 737.566406 300.941406 737.644531 C 301.125 737.6875 301.320312 737.644531 301.542969 737.542969 C 301.886719 737.386719 302.261719 737.101562 302.695312 736.683594 C 303.285156 736.117188 303.960938 735.328125 304.75 734.277344 C 304.117188 733.914062 303.484375 733.53125 302.855469 733.136719 Z M 293.101562 728.625 C 295.753906 730.570312 297.34375 732.914062 298.558594 734.792969 L 298.910156 735.339844 C 299.878906 734.335938 300.757812 733.316406 301.523438 732.296875 C 299.988281 731.328125 298.464844 730.378906 296.945312 729.679688 C 295.660156 729.085938 294.378906 728.671875 293.101562 728.625 Z M 309.199219 730.589844 C 308.425781 731.78125 307.722656 732.824219 307.085938 733.734375 C 307.5 733.933594 307.914062 734.117188 308.328125 734.277344 C 310.332031 735.0625 312.226562 735.097656 313.882812 734.78125 C 313.953125 734.335938 314.011719 733.890625 314.0625 733.4375 C 313.070312 732.878906 311.960938 732.304688 310.722656 731.707031 C 310.21875 731.464844 309.703125 731.082031 309.199219 730.589844 Z M 315.289062 719.957031 C 315.125 720.332031 314.953125 720.707031 314.773438 721.089844 C 315.464844 724.40625 315.863281 727.777344 315.796875 730.988281 C 315.785156 731.523438 315.761719 732.054688 315.726562 732.578125 C 316.289062 732.910156 316.808594 733.238281 317.292969 733.558594 C 318.566406 732.886719 319.472656 732.160156 319.867188 731.839844 C 322.472656 729.691406 323.949219 727.066406 324.785156 724.25 C 322.433594 722.980469 318.730469 721.210938 315.289062 719.957031 Z M 290.550781 715.429688 C 286.195312 717.308594 281.863281 719.046875 277.914062 720.289062 C 277.199219 721.410156 276.554688 722.65625 275.976562 723.972656 C 275.109375 725.949219 274.394531 728.09375 273.828125 730.238281 C 274.421875 731.375 275.171875 732.316406 276.09375 732.945312 C 277.300781 733.765625 278.4375 733.660156 279.507812 733.039062 C 280.765625 732.3125 281.929688 730.957031 283.039062 729.472656 C 283.671875 728.621094 284.285156 727.722656 284.878906 726.859375 C 282.128906 726.183594 281.09375 724.082031 281.078125 722.445312 C 281.066406 721.617188 281.328125 720.898438 281.730469 720.441406 C 282.765625 719.273438 284.859375 717.40625 292.355469 720.996094 C 293.0625 720.710938 293.648438 720.398438 294.121094 720.0625 C 294.957031 719.46875 295.410156 718.804688 295.546875 718.0625 C 295.671875 717.355469 295.527344 716.59375 295.210938 715.785156 C 293.53125 715.683594 291.953125 715.550781 290.550781 715.429688 Z M 306.132812 725.640625 C 306.132812 725.789062 306.125 725.9375 306.109375 726.082031 C 305.917969 727.65625 305.25 729.355469 304.21875 731.097656 C 304.609375 731.519531 305.003906 731.945312 305.398438 732.371094 C 305.535156 732.515625 305.671875 732.664062 305.808594 732.8125 C 306.5 731.828125 307.261719 730.683594 308.117188 729.351562 C 307.371094 728.355469 306.699219 727.144531 306.210938 725.855469 C 306.183594 725.785156 306.160156 725.710938 306.132812 725.640625 Z M 313.605469 723.390625 C 313.109375 724.304688 312.5625 725.242188 311.972656 726.195312 C 311.292969 727.292969 310.660156 728.308594 310.0625 729.246094 C 310.5 729.707031 310.957031 730.066406 311.410156 730.28125 C 312.414062 730.765625 313.339844 731.242188 314.191406 731.707031 C 314.203125 731.457031 314.210938 731.207031 314.214844 730.957031 C 314.265625 728.496094 314.035156 725.941406 313.605469 723.390625 Z M 292.269531 722.710938 C 291.605469 722.945312 290.867188 723.160156 290.042969 723.355469 C 289.726562 723.429688 289.410156 723.671875 289.070312 723.992188 C 288.640625 724.398438 288.195312 724.933594 287.734375 725.546875 C 287.65625 725.65625 287.574219 725.765625 287.492188 725.875 C 288.78125 726.261719 289.925781 726.738281 290.945312 727.277344 C 291.253906 727.199219 291.558594 727.140625 291.867188 727.101562 C 293.777344 726.859375 295.691406 727.359375 297.605469 728.242188 C 298.867188 728.824219 300.132812 729.582031 301.402344 730.375 C 298.644531 727.398438 296.066406 724.75 293.871094 723.550781 C 293.308594 723.242188 292.777344 722.964844 292.269531 722.710938 Z M 296.980469 716.144531 C 297.175781 716.914062 297.226562 717.652344 297.101562 718.34375 C 296.863281 719.65625 295.988281 720.886719 294.132812 721.894531 C 294.296875 721.980469 294.460938 722.070312 294.628906 722.164062 C 297.070312 723.496094 299.996094 726.542969 303.105469 729.894531 C 303.882812 728.511719 304.386719 727.160156 304.539062 725.894531 C 304.621094 725.207031 304.335938 724.515625 303.933594 723.847656 C 303.210938 722.664062 302.089844 721.585938 301.351562 720.820312 C 299.941406 719.363281 298.527344 717.644531 296.980469 716.144531 Z M 312.707031 719.109375 C 312.300781 718.992188 311.90625 718.886719 311.523438 718.800781 C 310.46875 718.550781 309.527344 718.414062 308.78125 718.453125 C 308.28125 718.476562 307.882812 718.539062 307.695312 718.824219 C 306.554688 720.550781 306.84375 723.054688 307.691406 725.296875 C 308.046875 726.242188 308.507812 727.148438 309.027344 727.929688 C 309.53125 727.132812 310.066406 726.277344 310.628906 725.363281 C 311.585938 723.816406 312.417969 722.324219 313.121094 720.886719 C 312.992188 720.292969 312.851562 719.699219 312.707031 719.109375 Z M 275.695312 720.945312 C 274.449219 721.289062 273.253906 721.570312 272.117188 721.78125 C 272.113281 721.9375 272.113281 722.09375 272.117188 722.253906 C 272.128906 724.160156 272.378906 726.09375 272.875 727.816406 C 273.351562 726.28125 273.902344 724.769531 274.527344 723.339844 C 274.890625 722.507812 275.28125 721.707031 275.695312 720.945312 Z M 467.347656 724.101562 C 464.855469 723.671875 463.804688 723.351562 463.570312 723.292969 C 462.761719 723.804688 461.753906 724.300781 461.140625 724.636719 C 465.363281 725.984375 469.855469 726.710938 474.523438 726.710938 C 498.804688 726.710938 518.519531 706.996094 518.519531 682.710938 C 518.519531 658.425781 498.804688 638.710938 474.523438 638.710938 C 450.238281 638.710938 430.523438 658.425781 430.523438 682.710938 C 430.523438 699.425781 439.863281 713.976562 453.609375 721.425781 C 454.386719 721.195312 455.382812 720.796875 456.125 720.476562 C 454.6875 719.773438 454.316406 719.597656 452.519531 718.488281 C 450.519531 717.253906 448.632812 715.859375 446.871094 714.320312 C 454.867188 716.566406 465.046875 716.699219 475.238281 714.242188 C 485.292969 711.820312 495.355469 706.890625 503.34375 699.03125 L 503.3125 699.046875 C 502.382812 699.484375 501.4375 699.902344 500.488281 700.300781 C 499.554688 700.691406 498.613281 701.0625 497.664062 701.414062 L 497.636719 701.421875 C 490.753906 706.847656 482.757812 710.402344 474.777344 712.324219 C 463.21875 715.113281 451.675781 714.484375 443.574219 711.097656 C 442.121094 709.511719 440.789062 707.820312 439.589844 706.027344 C 452.582031 710.46875 467.871094 710.484375 481.238281 705.289062 C 478.550781 705.582031 475.890625 705.714844 473.273438 705.695312 C 461.425781 708.527344 448.714844 707.554688 437.917969 703.3125 C 436.902344 701.511719 436.011719 699.625 435.265625 697.671875 C 439.183594 699.914062 444.109375 701.28125 449.550781 701.785156 C 450.113281 701.835938 450.679688 701.878906 451.253906 701.914062 C 448.785156 701.046875 446.433594 700.054688 444.226562 698.960938 C 440.367188 698.082031 436.949219 696.660156 434.246094 694.65625 C 433.664062 692.699219 433.222656 690.683594 432.933594 688.621094 L 432.972656 688.660156 C 434.292969 690 435.71875 691.230469 437.214844 692.363281 C 438.410156 693.269531 439.65625 694.109375 440.933594 694.898438 C 442.761719 696.023438 444.660156 697.027344 446.605469 697.925781 C 448.855469 698.964844 451.171875 699.859375 453.53125 700.613281 C 456.65625 701.613281 459.855469 702.371094 463.097656 702.886719 C 468.804688 703.800781 474.632812 703.96875 480.382812 703.386719 C 482.996094 703.121094 485.597656 702.703125 488.167969 702.132812 C 490.632812 701.589844 493.0625 700.902344 495.445312 700.085938 C 499.511719 698.691406 503.441406 696.910156 507.183594 694.792969 C 509.132812 693.6875 511.035156 692.492188 512.878906 691.21875 C 513.949219 690.476562 515.003906 689.707031 516.035156 688.910156 L 516.070312 688.882812 C 515.714844 691.289062 515.15625 693.628906 514.410156 695.882812 C 512.234375 696.433594 510.105469 696.78125 508.019531 696.949219 C 507.414062 697.660156 506.792969 698.351562 506.15625 699.023438 C 508.578125 698.957031 511.0625 698.660156 513.609375 698.101562 C 513.324219 698.820312 513.023438 699.53125 512.699219 700.230469 C 509.925781 700.605469 507.183594 700.761719 504.484375 700.71875 C 503.808594 701.371094 503.121094 702.007812 502.421875 702.621094 C 505.449219 702.777344 508.53125 702.695312 511.652344 702.347656 C 511.050781 703.476562 510.40625 704.574219 509.707031 705.636719 C 506.804688 706.011719 503.933594 706.164062 501.113281 706.117188 C 500.851562 706.777344 500.582031 707.429688 500.304688 708.066406 C 502.898438 708.148438 505.535156 708.0625 508.203125 707.796875 C 507.390625 708.886719 506.523438 709.933594 505.609375 710.941406 C 503.355469 711.019531 501.144531 711.015625 498.980469 710.933594 C 498.675781 711.554688 498.363281 712.160156 498.046875 712.753906 C 498.027344 712.789062 498.007812 712.828125 497.984375 712.867188 C 499.839844 712.953125 501.726562 712.988281 503.648438 712.960938 C 502.6875 713.886719 501.679688 714.765625 500.636719 715.597656 C 499.191406 715.652344 497.765625 715.679688 496.359375 715.675781 C 495.9375 716.355469 495.503906 717.007812 495.070312 717.636719 C 495.984375 717.652344 496.90625 717.652344 497.839844 717.640625 C 494.941406 719.582031 491.785156 721.171875 488.441406 722.347656 C 491.207031 719.828125 493.917969 716.222656 496.285156 711.808594 C 497.394531 709.746094 498.429688 707.503906 499.359375 705.121094 C 498.363281 705.878906 497.34375 706.601562 496.3125 707.292969 C 494.136719 712.125 491.542969 716.207031 488.824219 719.191406 C 486.644531 721.582031 484.402344 723.261719 482.226562 724.003906 C 481.132812 724.207031 480.023438 724.371094 478.902344 724.484375 C 483.199219 720.335938 486.53125 715.941406 489.054688 711.425781 C 488.015625 711.929688 486.960938 712.402344 485.90625 712.847656 C 483.308594 716.957031 479.980469 720.9375 475.78125 724.695312 C 475.363281 724.707031 474.941406 724.710938 474.523438 724.710938 C 472.9375 724.710938 471.371094 724.625 469.832031 724.453125 C 471.460938 722.839844 474.167969 719.917969 476.988281 715.863281 C 476.5625 715.976562 476.136719 716.082031 475.707031 716.183594 C 475.160156 716.316406 474.613281 716.441406 474.070312 716.558594 C 471.003906 720.648438 468.285156 723.246094 467.347656 724.101562 Z M 352.929688 716.707031 C 350.113281 718.671875 347.09375 720.0625 344.445312 720.621094 C 344 721.449219 343.273438 722.265625 342.316406 723.011719 C 341.460938 723.679688 340.425781 724.296875 339.292969 724.828125 C 341.640625 725.765625 343.6875 725.902344 345.425781 725.566406 C 348.589844 724.957031 350.734375 722.808594 351.859375 721.277344 C 352.714844 720.105469 353.183594 718.542969 352.929688 716.707031 Z M 290.109375 721.710938 C 288.632812 721.089844 287.441406 720.738281 286.472656 720.578125 C 284.3125 720.222656 283.4375 720.902344 282.914062 721.492188 C 282.726562 721.699219 282.652344 722.046875 282.65625 722.429688 C 282.671875 723.5625 283.480469 724.96875 285.46875 725.371094 C 285.597656 725.398438 285.726562 725.425781 285.851562 725.453125 C 286.234375 724.910156 286.609375 724.402344 286.976562 723.949219 C 287.914062 722.792969 288.839844 722.015625 289.679688 721.816406 C 289.824219 721.78125 289.96875 721.746094 290.109375 721.710938 Z M 331 709.75 C 329.816406 710.417969 328.613281 711.0625 327.40625 711.65625 C 327.445312 714.839844 327.515625 718.273438 326.992188 721.59375 C 326.894531 722.222656 326.773438 722.847656 326.628906 723.46875 C 327.015625 723.691406 327.339844 723.886719 327.585938 724.050781 C 328.953125 724.953125 330.832031 725.1875 332.800781 725.007812 C 333.652344 724.933594 334.519531 724.777344 335.375 724.558594 C 330.289062 721.285156 328.53125 716.945312 328.445312 715.472656 C 328.3125 713.289062 329.386719 711.28125 331 709.75 Z M 340.339844 709.199219 C 339.285156 708.132812 337.4375 708.160156 335.628906 708.765625 C 332.738281 709.734375 329.835938 712.285156 330.023438 715.378906 C 330.105469 716.78125 332.050781 720.988281 337.390625 723.921875 C 338.894531 723.351562 340.273438 722.601562 341.34375 721.765625 C 341.710938 721.480469 342.042969 721.1875 342.328125 720.886719 C 339.855469 720.96875 337.910156 720.125 336.96875 718.265625 C 336.605469 717.550781 336.679688 716.867188 337.117188 716.171875 C 337.425781 715.675781 337.960938 715.15625 338.628906 714.597656 C 339.144531 714.171875 339.75 713.710938 340.382812 713.191406 C 340.367188 712.875 340.363281 712.554688 340.367188 712.234375 C 340.378906 711.296875 340.460938 710.390625 340.425781 709.714844 C 340.414062 709.515625 340.351562 709.246094 340.339844 709.199219 Z M 311.523438 714.960938 C 311.109375 715.0625 310.6875 715.152344 310.261719 715.234375 C 306.730469 715.921875 302.753906 716.054688 299 715.957031 C 300.207031 717.21875 301.351562 718.546875 302.488281 719.722656 C 303.292969 720.554688 304.5 721.738281 305.285156 723.027344 C 305.382812 723.191406 305.472656 723.355469 305.558594 723.523438 C 305.191406 721.488281 305.371094 719.472656 306.375 717.953125 C 306.726562 717.421875 307.324219 717.066406 308.15625 716.929688 C 309.097656 716.777344 310.394531 716.910156 311.886719 717.261719 C 312.003906 717.289062 312.121094 717.316406 312.238281 717.347656 C 312.011719 716.539062 311.773438 715.746094 311.523438 714.960938 Z M 325.835938 712.394531 C 325.75 712.433594 325.660156 712.476562 325.570312 712.515625 C 322.578125 713.835938 319.636719 714.71875 317.03125 714.75 C 316.769531 715.941406 316.386719 717.195312 315.886719 718.5 C 319.222656 719.722656 322.773438 721.398438 325.183594 722.675781 C 325.28125 722.234375 325.359375 721.792969 325.429688 721.347656 C 325.898438 718.367188 325.875 715.289062 325.835938 712.394531 Z M 276.21875 710.0625 C 272.796875 709.285156 269.058594 707.890625 264.953125 705.671875 C 264 705.15625 263.308594 705.027344 262.792969 705.324219 C 262.257812 705.632812 261.976562 706.3125 261.777344 707.136719 C 261.027344 710.238281 261.84375 715.316406 262.125 716.78125 C 262.742188 720.007812 265.511719 720.886719 269.386719 720.566406 C 269.777344 720.53125 270.179688 720.488281 270.59375 720.429688 C 270.753906 718.167969 271.242188 716.011719 272.046875 714.28125 C 272.773438 712.722656 273.765625 711.5 274.980469 710.800781 C 275.414062 710.546875 275.828125 710.300781 276.21875 710.0625 Z M 278.476562 710.492188 C 277.679688 711.027344 276.78125 711.585938 275.769531 712.167969 C 274.808594 712.722656 274.054688 713.714844 273.480469 714.949219 C 272.792969 716.425781 272.367188 718.242188 272.199219 720.164062 C 273.667969 719.878906 275.242188 719.472656 276.890625 718.972656 C 277.558594 717.980469 278.277344 717.089844 279.054688 716.332031 C 280.945312 714.472656 283.152344 713.390625 285.660156 713.460938 C 286.691406 713.492188 288.316406 713.648438 290.320312 713.832031 C 291.027344 713.523438 291.734375 713.210938 292.441406 712.898438 C 290.964844 712.109375 289.304688 711.324219 287.546875 710.523438 C 284.804688 710.945312 281.800781 711.011719 278.476562 710.492188 Z M 340.664062 714.988281 C 339.878906 715.617188 339.175781 716.15625 338.71875 716.671875 C 338.441406 716.980469 338.21875 717.238281 338.378906 717.550781 C 338.890625 718.558594 339.851562 719.085938 341.054688 719.253906 C 341.746094 719.347656 342.507812 719.332031 343.324219 719.214844 C 343.355469 719.050781 343.367188 718.886719 343.355469 718.71875 C 343.3125 718.085938 342.882812 717.507812 342.058594 716.964844 C 341.355469 716.5 340.917969 715.808594 340.664062 714.988281 Z M 346.285156 707.425781 C 345.605469 710.300781 343.800781 712.304688 342.03125 713.855469 L 342.054688 714 C 342.171875 714.675781 342.394531 715.289062 342.929688 715.644531 C 344.28125 716.535156 344.863281 717.574219 344.933594 718.609375 C 344.941406 718.699219 344.941406 718.789062 344.941406 718.878906 C 345.261719 718.789062 345.582031 718.691406 345.910156 718.582031 C 348.066406 717.859375 350.375 716.648438 352.527344 715.078125 C 351.722656 712.785156 349.816406 710.175781 346.285156 707.425781 Z M 287.25 715.140625 C 286.605469 715.089844 286.058594 715.054688 285.617188 715.042969 C 283.539062 714.984375 281.726562 715.921875 280.160156 717.460938 C 279.949219 717.667969 279.742188 717.882812 279.539062 718.113281 C 282.015625 717.261719 284.613281 716.242188 287.25 715.140625 Z M 313.753906 714.308594 C 313.519531 714.390625 313.285156 714.46875 313.042969 714.542969 C 313.390625 715.625 313.714844 716.734375 314.011719 717.855469 C 314.136719 717.894531 314.265625 717.9375 314.398438 717.980469 C 314.84375 716.824219 315.191406 715.714844 315.4375 714.652344 C 315.242188 714.625 315.050781 714.589844 314.859375 714.550781 C 314.488281 714.472656 314.117188 714.390625 313.753906 714.308594 Z M 302.269531 710.167969 C 300.1875 711.113281 298.023438 712.105469 295.828125 713.09375 C 296.34375 713.472656 296.84375 713.890625 297.335938 714.328125 C 301.46875 714.511719 306 714.453125 309.960938 713.683594 C 310.1875 713.640625 310.410156 713.59375 310.632812 713.542969 C 307.429688 712.675781 304.597656 711.617188 302.378906 710.238281 Z M 294.132812 713.855469 L 293.574219 714.101562 L 294.402344 714.164062 Z M 346.519531 703.800781 C 346.578125 704.445312 346.585938 705.058594 346.550781 705.640625 C 350.554688 708.605469 352.785156 711.488281 353.824219 714.074219 C 355.382812 712.792969 356.816406 711.332031 357.996094 709.738281 C 354.640625 709.425781 351.535156 707.433594 348.402344 705.171875 C 347.777344 704.722656 347.152344 704.257812 346.519531 703.800781 Z M 312.652344 694.492188 C 312.507812 695.035156 312.425781 695.570312 312.429688 696.09375 C 312.433594 697.199219 312.085938 697.992188 311.511719 698.542969 C 310.957031 699.070312 310.15625 699.382812 309.148438 699.453125 C 308.207031 699.515625 307.0625 699.371094 305.773438 699.050781 C 306.222656 699.730469 306.65625 700.414062 307.070312 701.097656 C 309.171875 700.574219 311.082031 700.734375 312.921875 702.03125 C 313.5 702.441406 314.019531 702.878906 314.488281 703.347656 C 315.113281 703.140625 315.699219 702.964844 316.246094 702.820312 C 317.746094 702.429688 318.953125 702.296875 319.792969 702.441406 C 320.410156 702.550781 320.867188 702.800781 321.183594 703.164062 C 321.503906 703.535156 321.691406 704.035156 321.675781 704.699219 C 321.574219 708.273438 319.945312 710.792969 317.394531 712.527344 C 317.371094 712.738281 317.347656 712.953125 317.316406 713.171875 C 319.90625 713.082031 322.84375 712.058594 325.816406 710.664062 C 325.8125 710.234375 325.808594 709.808594 325.8125 709.390625 C 325.820312 706.839844 325.96875 704.527344 326.582031 702.660156 C 321.878906 700.679688 317.078125 697.730469 312.652344 694.492188 Z M 313.996094 705.183594 C 312.796875 705.613281 311.472656 706.136719 310.050781 706.734375 C 310.828125 708.453125 311.597656 710.34375 312.304688 712.347656 C 312.75 712.457031 313.203125 712.5625 313.660156 712.667969 C 314.453125 712.371094 315.195312 712.023438 315.875 711.621094 C 315.992188 709.101562 315.386719 706.9375 313.996094 705.183594 Z M 308.597656 707.351562 C 307.148438 707.976562 305.617188 708.65625 304.03125 709.371094 C 305.847656 710.367188 308.027344 711.171875 310.449219 711.855469 C 309.855469 710.261719 309.226562 708.746094 308.597656 707.351562 Z M 298.605469 706.746094 C 296.832031 707.628906 294.914062 708.503906 292.816406 709.214844 C 293.519531 710.109375 294.191406 710.988281 294.785156 711.847656 C 296.828125 710.925781 298.84375 710.003906 300.792969 709.113281 C 299.917969 708.402344 299.183594 707.617188 298.605469 706.746094 Z M 340.453125 704.089844 C 338.941406 704.964844 337.191406 706.058594 335.300781 707.210938 C 337.707031 706.453125 340.113281 706.683594 341.5 708.121094 C 341.699219 708.324219 341.851562 708.625 341.929688 709.019531 C 342.042969 709.578125 342.011719 710.410156 341.976562 711.339844 C 341.96875 711.480469 341.964844 711.625 341.957031 711.773438 C 343.300781 710.417969 344.492188 708.707031 344.863281 706.390625 C 343.597656 705.5625 342.058594 704.832031 340.453125 704.089844 Z M 291.203125 709.71875 C 290.855469 709.816406 290.507812 709.910156 290.152344 709.996094 C 290.859375 710.332031 291.542969 710.664062 292.199219 710.992188 C 291.875 710.574219 291.542969 710.148438 291.203125 709.71875 Z M 317.460938 710.476562 C 319.042969 709.074219 320.023438 707.183594 320.09375 704.652344 C 320.097656 704.488281 320.082031 704.351562 320.019531 704.242188 C 319.9375 704.109375 319.78125 704.054688 319.585938 704.011719 C 319.355469 703.960938 319.078125 703.953125 318.761719 703.96875 C 317.917969 704.015625 316.84375 704.257812 315.585938 704.648438 C 316.761719 706.308594 317.378906 708.261719 317.460938 710.476562 Z M 328.054688 703.246094 C 327.511719 704.964844 327.402344 707.074219 327.390625 709.394531 C 327.390625 709.5625 327.390625 709.726562 327.390625 709.894531 C 330.507812 708.316406 333.589844 706.417969 336.292969 704.761719 C 335.265625 704.9375 334.304688 704.960938 333.421875 704.796875 C 331.675781 704.464844 329.875 703.933594 328.054688 703.246094 Z M 281.777344 707.902344 C 281.378906 708.292969 280.914062 708.695312 280.378906 709.117188 C 281.871094 709.261719 283.289062 709.285156 284.644531 709.210938 C 283.699219 708.785156 282.742188 708.347656 281.777344 707.902344 Z M 288.484375 691.875 C 288.355469 691.882812 288.230469 691.890625 288.101562 691.898438 C 286.199219 691.988281 284.167969 691.625 282.351562 691.371094 C 281.242188 691.214844 280.222656 691.09375 279.382812 691.183594 C 278.902344 691.238281 278.488281 691.351562 278.191406 691.625 C 277.902344 691.894531 277.75 692.308594 277.703125 692.894531 C 277.605469 694.074219 278.109375 695.066406 278.820312 695.984375 C 279.632812 697.039062 280.710938 697.996094 281.660156 698.960938 C 282.972656 700.292969 284.015625 701.667969 284.113281 703.234375 C 284.179688 704.265625 283.855469 705.40625 282.875 706.683594 C 284.511719 707.441406 286.140625 708.164062 287.703125 708.871094 C 288.53125 708.730469 289.339844 708.554688 290.117188 708.355469 C 288.128906 705.839844 286.175781 703.253906 285.246094 700.789062 C 284.53125 698.894531 284.398438 697.058594 285.175781 695.355469 C 285.734375 694.128906 286.777344 692.949219 288.484375 691.875 Z M 306.347656 702.972656 C 304.558594 703.605469 302.609375 704.679688 300.414062 705.824219 C 300.289062 705.886719 300.164062 705.953125 300.035156 706.019531 C 300.648438 706.898438 301.457031 707.675781 302.425781 708.371094 C 304.347656 707.496094 306.195312 706.664062 307.925781 705.921875 C 307.445312 704.941406 306.917969 703.957031 306.347656 702.972656 Z M 352.433594 696.5625 C 350.183594 697.875 347.78125 699.425781 345.402344 700.824219 C 345.492188 700.867188 345.578125 700.921875 345.65625 700.980469 C 345.847656 701.128906 346.007812 701.320312 346.113281 701.574219 C 347.203125 702.332031 348.269531 703.125 349.332031 703.890625 C 352.496094 706.179688 355.585938 708.273438 359.027344 708.203125 C 359.5625 707.320312 360.011719 706.40625 360.355469 705.472656 C 360.71875 704.496094 360.808594 703.753906 360.644531 703.164062 C 360.460938 702.511719 359.96875 702.078125 359.339844 701.679688 C 358.554688 701.183594 357.5625 700.769531 356.527344 700.265625 C 354.46875 699.269531 353.222656 698.019531 352.480469 696.648438 Z M 364.574219 692.582031 C 364.378906 692.636719 364.175781 692.6875 363.972656 692.738281 C 361.898438 693.230469 359.476562 693.308594 357.28125 694.128906 C 356.207031 694.53125 355.042969 695.101562 353.820312 695.777344 C 354.425781 696.945312 355.472656 697.996094 357.21875 698.84375 C 358.3125 699.375 359.351562 699.820312 360.183594 700.34375 C 361.171875 700.96875 361.878906 701.714844 362.164062 702.738281 C 362.402344 703.578125 362.351562 704.632812 361.839844 706.023438 C 361.601562 706.667969 361.316406 707.304688 360.992188 707.925781 C 362.402344 707.554688 363.875 706.789062 365.4375 705.527344 C 368.066406 703.402344 368.46875 700.785156 367.464844 697.855469 C 366.890625 696.179688 365.882812 694.414062 364.574219 692.582031 Z M 291.316406 692.164062 C 288.738281 693.308594 287.261719 694.585938 286.613281 696.007812 C 285.847656 697.691406 286.296875 699.527344 287.253906 701.425781 C 288.308594 703.511719 289.996094 705.660156 291.664062 707.757812 L 291.761719 707.882812 C 293.984375 707.175781 296 706.277344 297.847656 705.355469 C 297.355469 704.210938 297.105469 702.9375 297.132812 701.519531 C 297.164062 699.898438 297.566406 698.109375 298.402344 696.152344 C 296.0625 694.996094 293.632812 693.617188 291.316406 692.164062 Z M 280.097656 674.667969 C 278.082031 673.621094 276.085938 673.066406 274.332031 673.566406 C 272.972656 673.957031 271.753906 674.90625 270.675781 676.070312 C 268.957031 677.929688 267.605469 680.339844 266.699219 682.167969 C 264.941406 685.726562 264.507812 688.789062 265.066406 691.464844 C 265.90625 695.511719 268.972656 698.652344 272.886719 701.300781 C 275.46875 703.050781 278.425781 704.585938 281.402344 705.996094 C 282.246094 704.996094 282.585938 704.132812 282.535156 703.332031 C 282.460938 702.117188 281.554688 701.105469 280.535156 700.066406 C 279.542969 699.058594 278.417969 698.054688 277.566406 696.953125 C 276.613281 695.714844 275.996094 694.351562 276.125 692.761719 C 276.214844 691.6875 276.585938 690.960938 277.117188 690.464844 C 277.644531 689.976562 278.355469 689.707031 279.214844 689.613281 C 280.164062 689.511719 281.316406 689.628906 282.570312 689.804688 C 284.292969 690.046875 286.222656 690.402344 288.027344 690.320312 C 288.167969 690.3125 288.304688 690.304688 288.445312 690.289062 C 286.675781 689.085938 285.039062 687.871094 283.632812 686.722656 C 281.121094 684.667969 279.363281 682.789062 278.855469 681.542969 C 277.878906 679.148438 278.441406 677.039062 279.640625 675.28125 C 279.785156 675.074219 279.9375 674.867188 280.097656 674.667969 Z M 312.800781 703.941406 C 312.554688 703.726562 312.289062 703.519531 312.007812 703.324219 C 310.714844 702.410156 309.371094 702.25 307.914062 702.53125 C 308.445312 703.457031 308.933594 704.382812 309.382812 705.300781 C 310.59375 704.792969 311.738281 704.335938 312.800781 703.941406 Z M 299.8125 696.828125 C 299.09375 698.539062 298.742188 700.109375 298.714844 701.546875 C 298.691406 702.6875 298.886719 703.710938 299.273438 704.632812 C 299.410156 704.5625 299.546875 704.492188 299.683594 704.421875 C 301.828125 703.304688 303.75 702.257812 305.523438 701.589844 C 304.84375 700.492188 304.121094 699.394531 303.359375 698.304688 C 302.238281 697.898438 301.042969 697.398438 299.8125 696.828125 Z M 344.328125 702.265625 C 344.175781 702.292969 344.011719 702.339844 343.828125 702.402344 C 343.585938 702.484375 343.324219 702.589844 343.039062 702.71875 C 342.757812 702.84375 342.457031 702.992188 342.136719 703.15625 C 343.140625 703.628906 344.105469 704.105469 344.980469 704.609375 C 344.960938 703.964844 344.886719 703.273438 344.738281 702.542969 L 344.644531 702.476562 C 344.578125 702.433594 344.511719 702.386719 344.441406 702.339844 Z M 332.445312 699.28125 C 332.054688 699.382812 331.660156 699.511719 331.257812 699.660156 C 330.066406 700.109375 329.25 700.84375 328.683594 701.804688 C 330.390625 702.441406 332.078125 702.929688 333.714844 703.242188 C 334.914062 703.46875 336.273438 703.269531 337.734375 702.796875 C 336.703125 702.285156 335.699219 701.742188 334.773438 701.136719 C 333.917969 700.574219 333.132812 699.960938 332.445312 699.28125 Z M 342.070312 700.878906 L 341.976562 700.824219 C 339.644531 699.546875 337.171875 698.707031 334.425781 698.933594 C 334.808594 699.242188 335.214844 699.535156 335.640625 699.8125 C 336.902344 700.640625 338.3125 701.351562 339.726562 702.027344 C 340.492188 701.6875 341.277344 701.300781 342.070312 700.878906 Z M 463.371094 642.207031 C 465.203125 641.652344 466.847656 641.371094 468.640625 641.117188 C 480.40625 655.527344 485.023438 668.75 485.6875 680.230469 C 485.875 683.480469 485.742188 686.585938 485.371094 689.542969 C 486.09375 689.105469 486.808594 688.652344 487.503906 688.179688 C 487.75 685.597656 487.816406 682.90625 487.65625 680.117188 C 486.992188 668.574219 482.476562 655.296875 470.964844 640.859375 C 471.5 640.800781 473.160156 640.722656 474.046875 640.710938 C 475.027344 640.699219 476.734375 640.742188 477.546875 640.816406 C 481.242188 643.878906 487.140625 653.054688 490.734375 664.890625 C 492.429688 670.472656 493.605469 676.644531 493.78125 683.058594 C 494.441406 682.40625 495.070312 681.734375 495.671875 681.039062 C 495.324219 675.148438 494.191406 669.488281 492.621094 664.316406 C 489.441406 653.855469 484.472656 645.417969 480.691406 641.160156 C 483.011719 641.503906 485.273438 642.035156 487.453125 642.742188 C 488.179688 642.976562 488.722656 643.167969 489.433594 643.4375 C 490.128906 643.703125 490.8125 643.984375 491.488281 644.285156 C 497.429688 652.472656 500.597656 661.496094 501.78125 670.445312 C 502.300781 668.863281 502.6875 667.210938 502.929688 665.496094 C 501.542969 658.875 499.035156 652.292969 495.101562 646.097656 C 496.242188 646.742188 497.351562 647.4375 498.425781 648.179688 C 499.003906 648.582031 499.675781 649.082031 499.78125 649.160156 C 501.34375 650.339844 502.828125 651.628906 504.210938 653.011719 C 508.945312 673.132812 496.414062 687.222656 480.273438 694.441406 C 475.25 696.6875 469.875 698.273438 464.546875 699.167969 C 466.675781 699.476562 468.867188 699.679688 471.101562 699.761719 C 474.5 698.859375 477.863281 697.683594 481.078125 696.242188 C 497.1875 689.039062 509.753906 675.261719 506.761719 655.800781 C 508.667969 658.082031 510.335938 660.570312 511.730469 663.222656 C 509.320312 678.675781 502 689.75 492.339844 696.933594 C 494.167969 696.363281 496 695.703125 497.832031 694.945312 C 505.171875 688.070312 510.734375 678.605469 513.1875 666.292969 C 514.210938 668.695312 515.011719 671.210938 515.578125 673.820312 C 514.070312 679.585938 511.785156 684.664062 508.910156 689.097656 C 510.21875 688.25 511.515625 687.34375 512.804688 686.382812 C 514.144531 683.863281 515.316406 681.171875 516.292969 678.300781 C 516.445312 679.75 516.519531 681.21875 516.519531 682.710938 C 516.519531 683.90625 516.472656 685.085938 516.375 686.257812 C 516.234375 686.289062 516.101562 686.351562 515.980469 686.449219 C 483.855469 712.144531 445.597656 701.15625 432.597656 685.300781 C 432.546875 684.445312 432.519531 683.582031 432.519531 682.710938 C 432.519531 682.019531 432.535156 681.328125 432.570312 680.640625 C 432.820312 681.527344 433.113281 682.414062 433.441406 683.296875 C 433.628906 683.441406 433.796875 683.605469 433.949219 683.796875 C 435.007812 685.121094 436.25 686.40625 437.652344 687.640625 C 435.101562 683.144531 433.660156 678.476562 433.4375 673.945312 C 433.8125 672.183594 434.296875 670.460938 434.886719 668.789062 C 435.976562 674.8125 438.910156 681.101562 443.5 686.984375 C 443.710938 686.199219 443.9375 685.414062 444.179688 684.625 C 439.46875 678.21875 436.773438 671.382812 436.417969 665.023438 C 437.558594 662.574219 438.929688 660.25 440.503906 658.085938 C 441.003906 664.265625 443.304688 670.753906 447.046875 676.925781 C 447.367188 676.199219 447.703125 675.472656 448.046875 674.75 C 444.4375 668.457031 442.402344 661.875 442.371094 655.695312 C 443.757812 654.042969 445.269531 652.503906 446.894531 651.085938 C 446.792969 656.980469 448.316406 663.097656 451.15625 668.972656 C 451.558594 668.304688 451.96875 667.640625 452.398438 666.984375 C 449.773438 661.175781 448.507812 655.15625 448.945312 649.402344 C 451.183594 647.679688 453.597656 646.179688 456.160156 644.929688 C 455.789062 647.179688 455.890625 649.925781 456.453125 652.984375 C 456.824219 654.992188 457.390625 657.136719 458.144531 659.363281 C 458.640625 658.796875 459.148438 658.238281 459.667969 657.683594 C 459.117188 655.925781 458.691406 654.230469 458.394531 652.625 C 457.757812 649.171875 457.726562 646.15625 458.410156 643.914062 C 459.371094 643.515625 460.34375 643.152344 461.339844 642.824219 C 476.171875 661.277344 479.632812 676.988281 478.371094 689.226562 C 478.226562 690.648438 478.015625 692.023438 477.753906 693.351562 C 478.324219 693.113281 478.894531 692.871094 479.460938 692.617188 C 479.617188 692.546875 479.773438 692.476562 479.929688 692.40625 C 480.09375 691.4375 480.230469 690.445312 480.332031 689.425781 C 481.617188 676.957031 478.234375 660.953125 463.371094 642.207031 Z M 323.113281 684.132812 C 322.742188 684.136719 322.394531 684.152344 322.082031 684.179688 C 321 684.269531 319.640625 684.472656 318.101562 684.761719 C 317.972656 684.976562 317.84375 685.191406 317.710938 685.40625 C 316.261719 687.777344 314.617188 690.070312 313.539062 692.242188 C 313.417969 692.480469 313.308594 692.714844 313.203125 692.953125 C 317.636719 696.238281 322.46875 699.238281 327.195312 701.214844 C 327.9375 699.84375 329.050781 698.800781 330.703125 698.183594 C 330.910156 698.105469 331.117188 698.03125 331.324219 697.964844 C 330.785156 697.207031 330.367188 696.375 330.101562 695.449219 C 329.933594 694.871094 329.828125 694.257812 329.789062 693.597656 C 324.484375 695.109375 320.917969 695.4375 318.78125 695.054688 C 316.421875 694.628906 315.535156 693.375 315.632812 691.878906 C 315.730469 690.445312 316.9375 688.578125 319.070312 686.800781 C 320.183594 685.875 321.550781 684.960938 323.113281 684.132812 Z M 350.761719 681.558594 C 348.734375 682.25 346.703125 682.683594 344.769531 682.769531 C 346.5625 687.292969 347.375 690.09375 347.496094 691.691406 C 347.585938 692.832031 347.3125 693.511719 346.941406 693.875 C 346.523438 694.28125 345.90625 694.429688 345.109375 694.226562 C 344.347656 694.035156 343.34375 693.492188 342.21875 692.777344 C 341.039062 692.03125 339.710938 691.085938 338.378906 690.257812 C 337.6875 690.792969 336.625 691.347656 335.09375 691.890625 C 333.769531 692.359375 332.523438 692.773438 331.351562 693.132812 C 331.359375 693.808594 331.453125 694.433594 331.621094 695.011719 C 331.894531 695.96875 332.371094 696.796875 332.984375 697.535156 C 336.582031 696.84375 339.765625 697.8125 342.738281 699.4375 C 343.058594 699.613281 343.375 699.796875 343.691406 699.988281 C 346.4375 698.425781 349.25 696.597656 351.855469 695.085938 C 351.410156 693.472656 351.460938 691.730469 351.640625 689.992188 C 351.824219 688.234375 352.128906 686.476562 352.054688 684.890625 C 351.992188 683.625 351.683594 682.476562 350.761719 681.558594 Z M 305.285156 688.570312 C 303.816406 690.261719 302.617188 691.855469 301.660156 693.355469 C 302.589844 694.546875 303.496094 695.757812 304.359375 696.976562 C 304.707031 697.097656 305.050781 697.207031 305.386719 697.304688 C 306.804688 697.722656 308.050781 697.941406 309.039062 697.875 C 309.621094 697.835938 310.097656 697.703125 310.417969 697.398438 C 310.71875 697.109375 310.847656 696.675781 310.847656 696.101562 C 310.84375 695.253906 311.011719 694.382812 311.304688 693.488281 C 309.179688 691.875 307.152344 690.210938 305.285156 688.570312 Z M 474.726562 671.390625 C 474.957031 672.207031 475.164062 673.015625 475.347656 673.8125 C 470.59375 680.375 467.097656 687.925781 464.917969 695.226562 C 464.722656 695.878906 464.535156 696.53125 464.363281 697.175781 C 463.65625 697.296875 462.945312 697.40625 462.242188 697.5 C 462.480469 696.5625 462.742188 695.613281 463.027344 694.664062 C 465.410156 686.675781 469.34375 678.421875 474.726562 671.390625 Z M 454.316406 696.789062 C 453.675781 696.578125 453.046875 696.359375 452.425781 696.132812 C 454.566406 682.992188 460.90625 670.589844 470.902344 661.359375 C 471.207031 661.992188 471.496094 662.621094 471.773438 663.25 C 462.292969 672.210938 456.304688 684.15625 454.316406 696.789062 Z M 300.796875 694.8125 C 300.6875 695.011719 300.582031 695.207031 300.480469 695.402344 C 300.871094 695.582031 301.257812 695.753906 301.636719 695.917969 C 301.359375 695.550781 301.078125 695.179688 300.796875 694.8125 Z M 297 690.171875 C 295.492188 690.640625 294.179688 691.074219 293.148438 691.445312 C 295.105469 692.640625 297.125 693.761719 299.074219 694.726562 C 299.28125 694.320312 299.507812 693.90625 299.753906 693.488281 C 298.851562 692.355469 297.929688 691.25 297 690.171875 Z M 353.539062 680.453125 C 353.285156 680.570312 353.027344 680.679688 352.769531 680.789062 C 352.628906 680.851562 352.488281 680.910156 352.347656 680.964844 C 353.824219 682.859375 353.765625 685.355469 353.460938 688.015625 C 353.222656 690.097656 352.828125 692.296875 353.28125 694.28125 C 354.5 693.613281 355.660156 693.046875 356.726562 692.648438 C 358.445312 692.003906 360.296875 691.785156 362.027344 691.503906 C 362.550781 691.417969 363.0625 691.332031 363.554688 691.21875 C 362.601562 689.996094 361.535156 688.75 360.386719 687.480469 C 358.304688 685.179688 355.953125 682.824219 353.539062 680.453125 Z M 326.433594 684.316406 C 323.878906 685.355469 321.695312 686.671875 320.082031 688.019531 C 318.375 689.433594 317.289062 690.839844 317.210938 691.984375 C 317.160156 692.78125 317.800781 693.269531 319.0625 693.496094 C 321.136719 693.871094 324.613281 693.484375 329.828125 691.945312 C 329.90625 691.203125 330.066406 690.414062 330.3125 689.570312 C 330.691406 688.285156 331.328125 687.523438 332.085938 687.117188 C 332.847656 686.707031 333.765625 686.644531 334.785156 686.867188 C 335.769531 687.085938 336.867188 687.589844 337.992188 688.21875 C 337.984375 688.066406 337.890625 687.925781 337.765625 687.785156 C 337.558594 687.542969 337.257812 687.316406 336.894531 687.097656 C 334.652344 685.742188 330.183594 684.71875 326.433594 684.316406 Z M 446.117188 693.351562 C 445.496094 693.027344 444.890625 692.695312 444.300781 692.355469 C 444.921875 689.136719 445.804688 685.851562 446.960938 682.570312 C 450.667969 672.070312 457.167969 661.648438 466.738281 653.8125 C 467.09375 654.386719 467.4375 654.953125 467.773438 655.519531 C 458.613281 663.09375 452.386719 673.128906 448.824219 683.226562 C 447.625 686.625 446.722656 690.03125 446.117188 693.351562 Z M 343.058594 682.75 C 342.601562 682.714844 342.144531 682.660156 341.703125 682.582031 C 337.464844 681.828125 333.332031 682.210938 329.695312 683.210938 C 332.816406 683.773438 335.925781 684.664062 337.710938 685.742188 C 338.890625 686.457031 339.527344 687.3125 339.570312 688.136719 C 339.585938 688.433594 339.535156 688.742188 339.394531 689.054688 C 340.671875 689.851562 341.9375 690.726562 343.066406 691.441406 C 343.976562 692.019531 344.785156 692.488281 345.421875 692.671875 C 345.574219 692.71875 345.789062 692.730469 345.84375 692.730469 C 345.855469 692.699219 345.890625 692.617188 345.902344 692.550781 C 345.941406 692.355469 345.945312 692.113281 345.921875 691.8125 C 345.796875 690.222656 344.933594 687.394531 343.058594 682.75 Z M 303.46875 688.277344 C 301.777344 688.746094 300.144531 689.21875 298.648438 689.667969 C 299.316406 690.453125 299.980469 691.253906 300.632812 692.066406 C 301.429688 690.855469 302.371094 689.59375 303.46875 688.277344 Z M 315.996094 685.175781 C 313.070312 685.785156 309.714844 686.601562 306.425781 687.472656 C 308.136719 688.972656 309.980469 690.496094 311.910156 691.976562 C 311.976562 691.832031 312.046875 691.683594 312.121094 691.539062 C 313.128906 689.511719 314.617188 687.378906 315.996094 685.175781 Z M 336.867188 689.378906 C 336.019531 688.929688 335.199219 688.578125 334.445312 688.410156 C 333.839844 688.277344 333.289062 688.265625 332.835938 688.507812 C 332.382812 688.753906 332.058594 689.246094 331.828125 690.015625 C 331.683594 690.511719 331.574219 690.980469 331.496094 691.433594 C 332.464844 691.125 333.488281 690.78125 334.566406 690.398438 C 335.539062 690.054688 336.296875 689.714844 336.867188 689.378906 Z M 362.769531 674.539062 C 360.519531 676.464844 357.855469 678.285156 355.046875 679.722656 C 357.34375 681.980469 359.570312 684.226562 361.558594 686.417969 C 362.875 687.875 364.089844 689.308594 365.148438 690.707031 C 365.695312 690.460938 366.195312 690.140625 366.621094 689.707031 C 367.769531 688.523438 368.34375 686.523438 368.136719 683.027344 C 367.945312 679.863281 365.199219 676.632812 362.769531 674.539062 Z M 281.492188 675.464844 C 280.238281 676.941406 279.441406 678.789062 280.320312 680.949219 C 280.769531 682.054688 282.398438 683.671875 284.632812 685.5 C 286.316406 686.878906 288.347656 688.351562 290.53125 689.789062 C 290.839844 689.65625 291.136719 689.488281 291.414062 689.285156 C 292.28125 688.65625 292.984375 687.683594 293.464844 686.238281 C 292.898438 685.632812 292.335938 685.039062 291.78125 684.464844 C 289.921875 682.542969 285.996094 678.355469 281.847656 675.691406 C 281.726562 675.613281 281.609375 675.539062 281.492188 675.464844 Z M 294.664062 687.539062 C 294.28125 688.429688 293.816406 689.148438 293.285156 689.722656 C 294.042969 689.464844 294.910156 689.179688 295.867188 688.875 C 295.464844 688.425781 295.0625 687.976562 294.664062 687.539062 Z M 296.972656 677.75 C 296.441406 680.632812 295.878906 683.375 295.234375 685.820312 C 295.992188 686.644531 296.757812 687.492188 297.519531 688.363281 C 299.261719 687.835938 301.203125 687.273438 303.222656 686.714844 C 302.402344 685.953125 301.621094 685.207031 300.882812 684.480469 C 299.894531 683.507812 299.066406 682.140625 298.304688 680.609375 C 297.847656 679.695312 297.414062 678.722656 296.972656 677.75 Z M 298.257812 670.476562 C 297.988281 672.015625 297.722656 673.554688 297.457031 675.066406 C 298.058594 676.289062 298.617188 677.578125 299.195312 678.8125 C 300.027344 680.597656 300.886719 682.265625 301.992188 683.355469 C 302.929688 684.28125 303.945312 685.242188 305.023438 686.222656 L 305.355469 686.132812 C 305.972656 685.460938 306.632812 684.777344 307.332031 684.078125 C 310.613281 680.804688 314.265625 677.804688 317.097656 674.199219 C 315.941406 674.417969 314.796875 674.625 313.683594 674.789062 C 309.039062 675.46875 304.882812 675.414062 302.125 673.214844 C 300.828125 672.175781 299.523438 671.277344 298.257812 670.476562 Z M 319.039062 674.222656 C 316.070312 678.289062 312.058594 681.597656 308.449219 685.199219 L 308.277344 685.367188 C 311.390625 684.574219 314.464844 683.859375 317.09375 683.347656 C 318.789062 680.382812 320 677.316406 319.039062 674.222656 Z M 295.8125 675.3125 C 295.578125 674.851562 295.332031 674.402344 295.074219 673.972656 C 294.167969 672.453125 293.136719 671.199219 291.734375 670.683594 C 290.347656 670.167969 288.632812 670.417969 286.382812 671.71875 C 285.539062 672.207031 284 673.089844 282.625 674.3125 L 282.703125 674.359375 C 286.964844 677.097656 291.007812 681.390625 292.917969 683.367188 C 293.261719 683.722656 293.605469 684.082031 293.953125 684.449219 C 294.640625 681.671875 295.238281 678.554688 295.8125 675.3125 Z M 331.921875 672.539062 C 328.503906 672.085938 324.488281 672.761719 320.480469 673.539062 C 321.550781 676.730469 320.65625 679.910156 319.082031 682.984375 C 320.164062 682.804688 321.132812 682.671875 321.945312 682.601562 C 323.058594 682.507812 324.550781 682.554688 326.195312 682.71875 C 327.480469 682.214844 328.851562 681.777344 330.285156 681.433594 C 329.71875 681.097656 329.25 680.324219 329.246094 678.761719 C 329.242188 677.246094 330.011719 675.191406 331.921875 672.539062 Z M 333.640625 672.871094 C 331.6875 675.425781 330.824219 677.339844 330.828125 678.757812 C 330.828125 679.222656 330.867188 679.582031 330.957031 679.84375 C 330.996094 679.949219 331.023438 680.035156 331.09375 680.074219 C 331.246094 680.164062 331.441406 680.085938 331.679688 680.011719 C 332.128906 679.871094 332.640625 679.613281 333.199219 679.308594 C 334.53125 678.59375 336.089844 677.65625 337.621094 677.226562 C 338.785156 676.898438 339.941406 676.859375 341 677.308594 C 342.105469 677.777344 343.140625 678.792969 343.9375 680.714844 L 344.140625 681.207031 C 345.800781 681.199219 347.546875 680.894531 349.304688 680.367188 C 346.4375 678.167969 341.175781 674.71875 333.640625 672.871094 Z M 342.378906 681.089844 C 341.8125 679.820312 341.148438 679.089844 340.382812 678.765625 C 339.445312 678.367188 338.40625 678.582031 337.375 678.972656 C 336.175781 679.425781 334.992188 680.140625 333.949219 680.703125 C 333.878906 680.742188 333.808594 680.777344 333.738281 680.816406 C 336.371094 680.5 339.152344 680.523438 341.976562 681.027344 C 342.109375 681.050781 342.242188 681.070312 342.378906 681.089844 Z M 340.195312 666.839844 C 338.253906 667.925781 336.152344 669.914062 334.742188 671.523438 C 342.945312 673.675781 348.445312 677.632812 351.089844 679.761719 C 351.445312 679.625 351.800781 679.484375 352.152344 679.335938 L 352.324219 679.261719 C 348.019531 675.058594 343.609375 670.835938 340.195312 666.839844 Z M 361.464844 673.574219 C 360.085938 672.796875 358.695312 672.761719 357.261719 672.75 C 355.222656 672.734375 353.101562 672.769531 350.78125 671.484375 C 350.023438 671.0625 349.148438 669.808594 348.023438 668.535156 C 346.625 666.949219 344.71875 665.324219 341.714844 666.179688 C 345.167969 670.167969 349.578125 674.375 353.855469 678.554688 C 356.609375 677.199219 359.238281 675.445312 361.464844 673.574219 Z M 300.621094 658.6875 C 299.832031 661.875 299.171875 665.328125 298.554688 668.804688 C 300.035156 669.714844 301.578125 670.753906 303.113281 671.980469 C 305.574219 673.945312 309.308594 673.832031 313.457031 673.222656 C 315.007812 672.996094 316.617188 672.695312 318.242188 672.382812 C 316.824219 669.316406 316.414062 665.835938 316.691406 662.464844 C 311.429688 660.859375 305.621094 659.332031 300.621094 658.6875 Z M 362.710938 672.484375 C 363.765625 671.507812 364.703125 670.519531 365.480469 669.550781 C 366.472656 668.3125 367.207031 667.117188 367.574219 666.042969 C 367.882812 665.152344 367.949219 664.363281 367.59375 663.75 C 367.070312 662.839844 365.371094 661.519531 363.054688 660.035156 C 357.386719 656.414062 348.03125 652.058594 341.613281 651.28125 C 338.636719 650.921875 336.300781 651.269531 335.621094 653.175781 C 339.339844 655.003906 342.273438 655.492188 343.789062 656.1875 C 344.519531 656.523438 344.984375 656.925781 345.21875 657.410156 C 345.46875 657.921875 345.496094 658.558594 345.148438 659.40625 C 344.796875 660.257812 343.925781 661.246094 342.722656 662.203125 C 341.921875 662.839844 340.972656 663.472656 339.957031 664.0625 L 340.015625 664.132812 C 340.117188 664.265625 340.222656 664.394531 340.328125 664.527344 L 340.625 664.886719 C 340.84375 664.796875 341.0625 664.722656 341.273438 664.660156 C 345.035156 663.585938 347.460938 665.503906 349.210938 667.488281 C 349.839844 668.203125 350.375 668.917969 350.855469 669.460938 C 351.105469 669.746094 351.328125 669.980469 351.550781 670.101562 C 353.59375 671.238281 355.476562 671.152344 357.273438 671.167969 C 359.140625 671.183594 360.921875 671.289062 362.710938 672.484375 Z M 322.640625 664.371094 C 322.75 665.871094 322.625 667.222656 322.234375 668.308594 C 321.773438 669.597656 321.199219 670.804688 320.53125 671.945312 C 324.945312 671.113281 329.355469 670.421875 333.011719 671.113281 C 334.441406 669.382812 336.882812 667.007812 339.183594 665.621094 C 338.96875 665.355469 338.757812 665.089844 338.550781 664.824219 C 337.886719 665.164062 337.210938 665.476562 336.542969 665.757812 C 335.039062 666.382812 333.574219 666.832031 332.367188 667.003906 C 331.457031 667.132812 330.675781 667.101562 330.097656 666.90625 C 328.386719 666.339844 325.761719 665.410156 322.640625 664.371094 Z M 318.238281 662.941406 C 318.058594 665.632812 318.347656 668.386719 319.324219 670.886719 C 319.875 669.90625 320.355469 668.871094 320.746094 667.773438 C 321.128906 666.707031 321.1875 665.34375 321.007812 663.828125 C 320.113281 663.535156 319.1875 663.238281 318.238281 662.941406 Z M 299.039062 658.511719 C 298.371094 658.453125 297.722656 658.410156 297.09375 658.386719 C 294.949219 658.3125 293.070312 658.476562 291.621094 659.007812 C 290.34375 659.472656 289.421875 660.222656 289.039062 661.390625 C 288.824219 662.046875 289 662.597656 289.4375 663.121094 C 289.808594 663.570312 290.347656 664 291.007812 664.441406 C 292.546875 665.472656 294.699219 666.550781 297.109375 667.945312 C 297.6875 664.707031 298.308594 661.496094 299.039062 658.511719 Z M 333.851562 654.039062 C 331.859375 652.96875 329.679688 651.519531 327.390625 649.492188 C 326.074219 648.328125 324.539062 648.914062 323.117188 650.347656 C 321.9375 651.535156 320.847656 653.292969 319.996094 655.371094 C 321.066406 657.582031 321.878906 659.902344 322.316406 662.046875 C 322.355469 662.246094 322.394531 662.445312 322.425781 662.640625 C 325.859375 663.773438 328.753906 664.796875 330.59375 665.40625 C 330.988281 665.539062 331.523438 665.527344 332.148438 665.4375 C 333.242188 665.28125 334.570312 664.867188 335.933594 664.296875 C 336.484375 664.066406 337.042969 663.8125 337.589844 663.539062 C 335.128906 660.105469 333.667969 656.878906 333.847656 654.058594 Z M 335.417969 654.828125 C 335.507812 657.246094 336.882812 659.929688 338.988281 662.796875 C 340 662.21875 340.945312 661.59375 341.738281 660.964844 C 342.683594 660.210938 343.410156 659.472656 343.6875 658.804688 C 343.804688 658.511719 343.875 658.296875 343.804688 658.117188 C 343.734375 657.9375 343.539062 657.832031 343.300781 657.707031 C 342.949219 657.527344 342.5 657.367188 341.960938 657.195312 C 340.378906 656.683594 338.117188 656.089844 335.417969 654.828125 Z M 319.234375 657.515625 C 318.992188 658.316406 318.785156 659.144531 318.621094 659.992188 C 318.535156 660.441406 318.460938 660.890625 318.398438 661.347656 C 319.1875 661.589844 319.957031 661.835938 320.707031 662.078125 C 320.382812 660.605469 319.878906 659.050781 319.234375 657.515625 Z M 318.269531 655.449219 C 317.707031 654.347656 317.078125 653.285156 316.398438 652.296875 C 314.183594 649.074219 311.472656 646.609375 308.761719 646.570312 C 307.402344 646.550781 306.078125 647.191406 304.84375 648.648438 C 303.472656 650.257812 302.230469 652.816406 301.1875 656.539062 C 301.132812 656.742188 301.074219 656.945312 301.019531 657.148438 C 305.976562 657.8125 311.679688 659.304688 316.871094 660.875 C 316.929688 660.480469 316.996094 660.085938 317.070312 659.691406 C 317.359375 658.207031 317.769531 656.777344 318.269531 655.449219 " fill-opacity="1" fill-rule="evenodd"/></g></svg>