<svg xmlns="http://www.w3.org/2000/svg" xmlns:xlink="http://www.w3.org/1999/xlink" width="1080" zoomAndPan="magnify" viewBox="0 0 810 1439.999935" height="1920" preserveAspectRatio="xMidYMid meet" version="1.0"><rect x="-81" width="972" fill="#ffffff" y="-143.999994" height="1727.999922" fill-opacity="1"/><rect x="-81" width="972" fill="#6e765d" y="-143.999994" height="1727.999922" fill-opacity="1"/><path fill="#d7d8d3" d="M 438.738281 738.144531 L 409.296875 708.703125 C 408.222656 707.625 406.953125 707.429688 406.265625 707.429688 C 405.582031 707.429688 404.308594 707.625 403.234375 708.703125 L 373.695312 738.242188 C 370.371094 741.566406 365.1875 746.945312 347.871094 746.945312 L 384.160156 783.136719 C 395.605469 794.582031 414.1875 794.582031 425.632812 783.136719 L 462.019531 746.847656 C 453.117188 746.847656 445.683594 745.089844 438.738281 738.144531 Z M 438.738281 738.144531 " fill-opacity="1" fill-rule="nonzero"/><path fill="#d7d8d3" d="M 373.695312 649.625 L 403.234375 679.164062 C 404.015625 679.945312 405.191406 680.433594 406.265625 680.433594 C 407.34375 680.433594 408.515625 679.945312 409.296875 679.164062 L 438.542969 649.917969 C 445.488281 642.679688 453.410156 641.015625 462.3125 641.015625 L 425.925781 604.730469 C 414.484375 593.285156 395.898438 593.285156 384.453125 604.730469 L 348.167969 640.917969 C 365.382812 640.917969 370.664062 646.59375 373.695312 649.625 Z M 373.695312 649.625 " fill-opacity="1" fill-rule="nonzero"/><path fill="#d7d8d3" d="M 494.101562 672.902344 L 472.09375 650.796875 L 459.769531 650.796875 C 454.488281 650.796875 449.207031 652.949219 445.585938 656.765625 L 416.242188 686.109375 C 413.503906 688.847656 409.886719 690.214844 406.265625 690.214844 C 402.746094 690.214844 399.027344 688.75 396.289062 686.109375 L 366.75 656.472656 C 363.035156 652.753906 357.949219 650.601562 352.566406 650.601562 L 338.191406 650.601562 L 315.789062 673.097656 C 304.347656 684.542969 304.347656 703.128906 315.789062 714.570312 L 338.191406 737.066406 L 352.664062 737.066406 C 357.949219 737.066406 363.035156 734.917969 366.847656 731.199219 L 396.386719 701.660156 C 399.125 698.921875 402.746094 697.550781 406.363281 697.550781 C 409.984375 697.550781 413.601562 698.921875 416.339844 701.660156 L 445.78125 731.101562 C 449.5 734.820312 454.585938 736.96875 459.964844 736.96875 L 472.289062 736.96875 L 494.296875 714.863281 C 505.742188 703.324219 505.742188 684.542969 494.101562 672.902344 Z M 494.101562 672.902344 " fill-opacity="1" fill-rule="nonzero"/></svg>