<svg xmlns="http://www.w3.org/2000/svg" xmlns:xlink="http://www.w3.org/1999/xlink" width="1080" zoomAndPan="magnify" viewBox="0 0 810 1439.999935" height="1920" preserveAspectRatio="xMidYMid meet" version="1.0"><defs><clipPath id="73c993a08a"><path d="M 346.195312 635.992188 L 463.945312 635.992188 L 463.945312 803.992188 L 346.195312 803.992188 Z M 346.195312 635.992188 " clip-rule="nonzero"/></clipPath></defs><rect x="-81" width="972" fill="#ffffff" y="-143.999994" height="1727.999922" fill-opacity="1"/><rect x="-81" width="972" fill="#d7d8d3" y="-143.999994" height="1727.999922" fill-opacity="1"/><g clip-path="url(#73c993a08a)"><path fill="#6e765d" d="M 405 635.992188 C 372.53125 635.992188 346.195312 662.328125 346.195312 694.796875 C 346.195312 738.898438 405 804.003906 405 804.003906 C 405 804.003906 463.804688 738.898438 463.804688 694.796875 C 463.804688 662.328125 437.46875 635.992188 405 635.992188 Z M 405 715.796875 C 393.40625 715.796875 383.996094 706.386719 383.996094 694.796875 C 383.996094 683.203125 393.40625 673.792969 405 673.792969 C 416.589844 673.792969 426 683.203125 426 694.796875 C 426 706.386719 416.589844 715.796875 405 715.796875 Z M 405 715.796875 " fill-opacity="1" fill-rule="nonzero"/></g></svg>