<svg xmlns="http://www.w3.org/2000/svg" xmlns:xlink="http://www.w3.org/1999/xlink" width="1080" zoomAndPan="magnify" viewBox="0 0 810 1439.999935" height="1920" preserveAspectRatio="xMidYMid meet" version="1.0"><defs><clipPath id="8013e2a80e"><path d="M 288.890625 594 L 521 594 L 521 844 L 288.890625 844 Z M 288.890625 594 " clip-rule="nonzero"/></clipPath></defs><rect x="-81" width="972" fill="#ffffff" y="-143.999994" height="1727.999922" fill-opacity="1"/><rect x="-81" width="972" fill="#6e765d" y="-143.999994" height="1727.999922" fill-opacity="1"/><g clip-path="url(#8013e2a80e)"><path fill="#d7d8d3" d="M 520.359375 636.523438 L 520.359375 760.296875 C 520.359375 771.355469 515.96875 781.960938 508.148438 789.769531 C 500.339844 797.589844 489.734375 801.980469 478.691406 801.980469 L 385.632812 801.980469 C 383.808594 801.980469 382.03125 802.617188 380.621094 803.792969 L 335.703125 841.222656 C 333.117188 843.375 329.523438 843.847656 326.472656 842.414062 C 323.433594 840.992188 321.480469 837.933594 321.480469 834.570312 C 321.480469 834.570312 321.480469 801.066406 321.492188 801.066406 C 313.671875 799.402344 306.429688 795.511719 300.6875 789.769531 C 292.867188 781.960938 288.476562 771.355469 288.476562 760.296875 L 288.476562 636.523438 C 288.476562 625.46875 292.867188 614.875 300.6875 607.066406 C 308.496094 599.242188 319.101562 594.855469 330.148438 594.855469 L 478.691406 594.855469 C 489.734375 594.855469 500.339844 599.242188 508.148438 607.066406 C 515.96875 614.875 520.359375 625.46875 520.359375 636.523438 Z M 404.417969 668.410156 C 392.253906 647.40625 367.933594 647.40625 355.769531 657.90625 C 343.617188 668.410156 343.617188 689.410156 355.769531 710.414062 C 364.285156 726.171875 386.175781 741.917969 404.417969 752.417969 C 422.660156 741.917969 444.550781 726.171875 453.066406 710.414062 C 465.21875 689.410156 465.21875 668.410156 453.066406 657.90625 C 440.902344 647.40625 416.582031 647.40625 404.417969 668.410156 Z M 404.417969 668.410156 " fill-opacity="1" fill-rule="evenodd"/></g></svg>