<svg xmlns="http://www.w3.org/2000/svg" xmlns:xlink="http://www.w3.org/1999/xlink" width="866" zoomAndPan="magnify" viewBox="0 0 648.95996 918.74999" height="1225" preserveAspectRatio="xMidYMid meet" version="1.0"><defs><clipPath id="e29e010fe0"><path d="M 0.0664062 0 L 648.851562 0 L 648.851562 918.5 L 0.0664062 918.5 Z M 0.0664062 0 " clip-rule="nonzero"/></clipPath><clipPath id="f988ca6779"><path d="M 305.917969 416.105469 L 312.234375 416.105469 L 312.234375 465.238281 L 305.917969 465.238281 Z M 305.917969 416.105469 " clip-rule="nonzero"/></clipPath><linearGradient x1="516.442682" gradientTransform="matrix(0.701892, 0, 0, 0.701892, -63.459837, 83.408773)" y1="539.373444" x2="545.071879" gradientUnits="userSpaceOnUse" y2="478.62404" id="d38ffb2c64"><stop stop-opacity="1" stop-color="rgb(74.024963%, 55.273438%, 11.680603%)" offset="0"/><stop stop-opacity="1" stop-color="rgb(74.201965%, 55.549622%, 11.984253%)" offset="0.00390625"/><stop stop-opacity="1" stop-color="rgb(74.380493%, 55.825806%, 12.289429%)" offset="0.0078125"/><stop stop-opacity="1" stop-color="rgb(74.559021%, 56.10199%, 12.593079%)" offset="0.0117188"/><stop stop-opacity="1" stop-color="rgb(74.737549%, 56.378174%, 12.898254%)" offset="0.015625"/><stop stop-opacity="1" stop-color="rgb(74.916077%, 56.654358%, 13.201904%)" offset="0.0195312"/><stop stop-opacity="1" stop-color="rgb(75.094604%, 56.930542%, 13.50708%)" offset="0.0234375"/><stop stop-opacity="1" stop-color="rgb(75.273132%, 57.2052%, 13.81073%)" offset="0.0273437"/><stop stop-opacity="1" stop-color="rgb(75.45166%, 57.481384%, 14.115906%)" offset="0.03125"/><stop stop-opacity="1" stop-color="rgb(75.630188%, 57.757568%, 14.421082%)" offset="0.0351562"/><stop stop-opacity="1" stop-color="rgb(75.808716%, 58.033752%, 14.726257%)" offset="0.0390625"/><stop stop-opacity="1" stop-color="rgb(75.985718%, 58.309937%, 15.029907%)" offset="0.0429688"/><stop stop-opacity="1" stop-color="rgb(76.164246%, 58.586121%, 15.335083%)" offset="0.046875"/><stop stop-opacity="1" stop-color="rgb(76.342773%, 58.860779%, 15.638733%)" offset="0.0507812"/><stop stop-opacity="1" stop-color="rgb(76.521301%, 59.136963%, 15.943909%)" offset="0.0546875"/><stop stop-opacity="1" stop-color="rgb(76.699829%, 59.413147%, 16.247559%)" offset="0.0585937"/><stop stop-opacity="1" stop-color="rgb(76.878357%, 59.689331%, 16.552734%)" offset="0.0625"/><stop stop-opacity="1" stop-color="rgb(77.056885%, 59.965515%, 16.85791%)" offset="0.0664062"/><stop stop-opacity="1" stop-color="rgb(77.235413%, 60.241699%, 17.163086%)" offset="0.0703125"/><stop stop-opacity="1" stop-color="rgb(77.41394%, 60.517883%, 17.466736%)" offset="0.0742187"/><stop stop-opacity="1" stop-color="rgb(77.592468%, 60.794067%, 17.771912%)" offset="0.078125"/><stop stop-opacity="1" stop-color="rgb(77.76947%, 61.068726%, 18.075562%)" offset="0.0820312"/><stop stop-opacity="1" stop-color="rgb(77.947998%, 61.34491%, 18.380737%)" offset="0.0859375"/><stop stop-opacity="1" stop-color="rgb(78.126526%, 61.621094%, 18.684387%)" offset="0.0898437"/><stop stop-opacity="1" stop-color="rgb(78.305054%, 61.897278%, 18.989563%)" offset="0.09375"/><stop stop-opacity="1" stop-color="rgb(78.483582%, 62.173462%, 19.293213%)" offset="0.0976562"/><stop stop-opacity="1" stop-color="rgb(78.662109%, 62.449646%, 19.598389%)" offset="0.101563"/><stop stop-opacity="1" stop-color="rgb(78.840637%, 62.724304%, 19.903564%)" offset="0.105469"/><stop stop-opacity="1" stop-color="rgb(79.019165%, 63.000488%, 20.20874%)" offset="0.109375"/><stop stop-opacity="1" stop-color="rgb(79.197693%, 63.276672%, 20.51239%)" offset="0.113281"/><stop stop-opacity="1" stop-color="rgb(79.376221%, 63.552856%, 20.817566%)" offset="0.117187"/><stop stop-opacity="1" stop-color="rgb(79.550171%, 63.816833%, 21.110535%)" offset="0.121094"/><stop stop-opacity="1" stop-color="rgb(79.724121%, 64.082336%, 21.403503%)" offset="0.125"/><stop stop-opacity="1" stop-color="rgb(79.891968%, 64.328003%, 21.67511%)" offset="0.128906"/><stop stop-opacity="1" stop-color="rgb(80.059814%, 64.575195%, 21.948242%)" offset="0.132812"/><stop stop-opacity="1" stop-color="rgb(80.227661%, 64.820862%, 22.221375%)" offset="0.136719"/><stop stop-opacity="1" stop-color="rgb(80.395508%, 65.066528%, 22.494507%)" offset="0.140625"/><stop stop-opacity="1" stop-color="rgb(80.563354%, 65.312195%, 22.767639%)" offset="0.144531"/><stop stop-opacity="1" stop-color="rgb(80.731201%, 65.557861%, 23.040771%)" offset="0.148437"/><stop stop-opacity="1" stop-color="rgb(80.899048%, 65.803528%, 23.313904%)" offset="0.152344"/><stop stop-opacity="1" stop-color="rgb(81.066895%, 66.05072%, 23.587036%)" offset="0.15625"/><stop stop-opacity="1" stop-color="rgb(81.234741%, 66.296387%, 23.858643%)" offset="0.160156"/><stop stop-opacity="1" stop-color="rgb(81.402588%, 66.542053%, 24.131775%)" offset="0.164063"/><stop stop-opacity="1" stop-color="rgb(81.568909%, 66.78772%, 24.404907%)" offset="0.167969"/><stop stop-opacity="1" stop-color="rgb(81.736755%, 67.034912%, 24.67804%)" offset="0.171875"/><stop stop-opacity="1" stop-color="rgb(81.904602%, 67.280579%, 24.951172%)" offset="0.175781"/><stop stop-opacity="1" stop-color="rgb(82.072449%, 67.526245%, 25.224304%)" offset="0.179688"/><stop stop-opacity="1" stop-color="rgb(82.240295%, 67.771912%, 25.497437%)" offset="0.183594"/><stop stop-opacity="1" stop-color="rgb(82.408142%, 68.017578%, 25.770569%)" offset="0.1875"/><stop stop-opacity="1" stop-color="rgb(82.575989%, 68.263245%, 26.043701%)" offset="0.191406"/><stop stop-opacity="1" stop-color="rgb(82.743835%, 68.510437%, 26.316833%)" offset="0.195312"/><stop stop-opacity="1" stop-color="rgb(82.911682%, 68.756104%, 26.58844%)" offset="0.199219"/><stop stop-opacity="1" stop-color="rgb(83.079529%, 69.00177%, 26.861572%)" offset="0.203125"/><stop stop-opacity="1" stop-color="rgb(83.247375%, 69.247437%, 27.134705%)" offset="0.207031"/><stop stop-opacity="1" stop-color="rgb(83.415222%, 69.493103%, 27.407837%)" offset="0.210938"/><stop stop-opacity="1" stop-color="rgb(83.583069%, 69.73877%, 27.680969%)" offset="0.214844"/><stop stop-opacity="1" stop-color="rgb(83.750916%, 69.985962%, 27.954102%)" offset="0.21875"/><stop stop-opacity="1" stop-color="rgb(83.918762%, 70.231628%, 28.227234%)" offset="0.222656"/><stop stop-opacity="1" stop-color="rgb(84.086609%, 70.477295%, 28.500366%)" offset="0.226563"/><stop stop-opacity="1" stop-color="rgb(84.254456%, 70.722961%, 28.773499%)" offset="0.230469"/><stop stop-opacity="1" stop-color="rgb(84.422302%, 70.970154%, 29.046631%)" offset="0.234375"/><stop stop-opacity="1" stop-color="rgb(84.590149%, 71.21582%, 29.318237%)" offset="0.238281"/><stop stop-opacity="1" stop-color="rgb(84.757996%, 71.461487%, 29.59137%)" offset="0.242188"/><stop stop-opacity="1" stop-color="rgb(84.924316%, 71.707153%, 29.864502%)" offset="0.246094"/><stop stop-opacity="1" stop-color="rgb(85.092163%, 71.95282%, 30.137634%)" offset="0.25"/><stop stop-opacity="1" stop-color="rgb(85.26001%, 72.198486%, 30.410767%)" offset="0.253906"/><stop stop-opacity="1" stop-color="rgb(85.427856%, 72.445679%, 30.683899%)" offset="0.257812"/><stop stop-opacity="1" stop-color="rgb(85.595703%, 72.691345%, 30.957031%)" offset="0.261719"/><stop stop-opacity="1" stop-color="rgb(85.76355%, 72.937012%, 31.230164%)" offset="0.265625"/><stop stop-opacity="1" stop-color="rgb(85.931396%, 73.182678%, 31.503296%)" offset="0.269531"/><stop stop-opacity="1" stop-color="rgb(86.099243%, 73.428345%, 31.776428%)" offset="0.273438"/><stop stop-opacity="1" stop-color="rgb(86.26709%, 73.674011%, 32.048035%)" offset="0.277344"/><stop stop-opacity="1" stop-color="rgb(86.434937%, 73.921204%, 32.321167%)" offset="0.28125"/><stop stop-opacity="1" stop-color="rgb(86.602783%, 74.16687%, 32.594299%)" offset="0.285156"/><stop stop-opacity="1" stop-color="rgb(86.77063%, 74.412537%, 32.867432%)" offset="0.289062"/><stop stop-opacity="1" stop-color="rgb(86.938477%, 74.658203%, 33.140564%)" offset="0.292969"/><stop stop-opacity="1" stop-color="rgb(87.106323%, 74.905396%, 33.413696%)" offset="0.296875"/><stop stop-opacity="1" stop-color="rgb(87.27417%, 75.151062%, 33.686829%)" offset="0.300781"/><stop stop-opacity="1" stop-color="rgb(87.442017%, 75.396729%, 33.959961%)" offset="0.304688"/><stop stop-opacity="1" stop-color="rgb(87.609863%, 75.642395%, 34.231567%)" offset="0.308594"/><stop stop-opacity="1" stop-color="rgb(87.77771%, 75.888062%, 34.5047%)" offset="0.3125"/><stop stop-opacity="1" stop-color="rgb(87.944031%, 76.133728%, 34.777832%)" offset="0.316406"/><stop stop-opacity="1" stop-color="rgb(88.111877%, 76.38092%, 35.050964%)" offset="0.320312"/><stop stop-opacity="1" stop-color="rgb(88.279724%, 76.626587%, 35.324097%)" offset="0.324219"/><stop stop-opacity="1" stop-color="rgb(88.447571%, 76.872253%, 35.597229%)" offset="0.328125"/><stop stop-opacity="1" stop-color="rgb(88.615417%, 77.11792%, 35.870361%)" offset="0.332031"/><stop stop-opacity="1" stop-color="rgb(88.783264%, 77.365112%, 36.143494%)" offset="0.335938"/><stop stop-opacity="1" stop-color="rgb(88.951111%, 77.610779%, 36.416626%)" offset="0.339844"/><stop stop-opacity="1" stop-color="rgb(89.118958%, 77.856445%, 36.689758%)" offset="0.34375"/><stop stop-opacity="1" stop-color="rgb(89.286804%, 78.102112%, 36.961365%)" offset="0.347656"/><stop stop-opacity="1" stop-color="rgb(89.454651%, 78.347778%, 37.234497%)" offset="0.351562"/><stop stop-opacity="1" stop-color="rgb(89.622498%, 78.593445%, 37.507629%)" offset="0.355469"/><stop stop-opacity="1" stop-color="rgb(89.790344%, 78.840637%, 37.780762%)" offset="0.359375"/><stop stop-opacity="1" stop-color="rgb(89.958191%, 79.086304%, 38.053894%)" offset="0.363281"/><stop stop-opacity="1" stop-color="rgb(90.126038%, 79.33197%, 38.327026%)" offset="0.367188"/><stop stop-opacity="1" stop-color="rgb(90.293884%, 79.577637%, 38.600159%)" offset="0.371094"/><stop stop-opacity="1" stop-color="rgb(90.461731%, 79.823303%, 38.873291%)" offset="0.375"/><stop stop-opacity="1" stop-color="rgb(90.629578%, 80.06897%, 39.146423%)" offset="0.378906"/><stop stop-opacity="1" stop-color="rgb(90.797424%, 80.316162%, 39.419556%)" offset="0.382812"/><stop stop-opacity="1" stop-color="rgb(90.963745%, 80.561829%, 39.691162%)" offset="0.386719"/><stop stop-opacity="1" stop-color="rgb(91.131592%, 80.807495%, 39.964294%)" offset="0.390625"/><stop stop-opacity="1" stop-color="rgb(91.290283%, 81.04248%, 40.22522%)" offset="0.394531"/><stop stop-opacity="1" stop-color="rgb(91.4505%, 81.277466%, 40.486145%)" offset="0.398438"/><stop stop-opacity="1" stop-color="rgb(91.574097%, 81.466675%, 40.698242%)" offset="0.402344"/><stop stop-opacity="1" stop-color="rgb(91.697693%, 81.65741%, 40.911865%)" offset="0.40625"/><stop stop-opacity="1" stop-color="rgb(91.821289%, 81.846619%, 41.125488%)" offset="0.410156"/><stop stop-opacity="1" stop-color="rgb(91.944885%, 82.037354%, 41.339111%)" offset="0.414062"/><stop stop-opacity="1" stop-color="rgb(92.068481%, 82.226562%, 41.551208%)" offset="0.417969"/><stop stop-opacity="1" stop-color="rgb(92.192078%, 82.417297%, 41.764832%)" offset="0.421875"/><stop stop-opacity="1" stop-color="rgb(92.315674%, 82.606506%, 41.976929%)" offset="0.425781"/><stop stop-opacity="1" stop-color="rgb(92.440796%, 82.797241%, 42.190552%)" offset="0.429688"/><stop stop-opacity="1" stop-color="rgb(92.564392%, 82.98645%, 42.402649%)" offset="0.433594"/><stop stop-opacity="1" stop-color="rgb(92.687988%, 83.177185%, 42.616272%)" offset="0.4375"/><stop stop-opacity="1" stop-color="rgb(92.811584%, 83.366394%, 42.828369%)" offset="0.441406"/><stop stop-opacity="1" stop-color="rgb(92.935181%, 83.557129%, 43.041992%)" offset="0.445312"/><stop stop-opacity="1" stop-color="rgb(93.058777%, 83.746338%, 43.255615%)" offset="0.449219"/><stop stop-opacity="1" stop-color="rgb(93.182373%, 83.937073%, 43.469238%)" offset="0.453125"/><stop stop-opacity="1" stop-color="rgb(93.305969%, 84.126282%, 43.681335%)" offset="0.457031"/><stop stop-opacity="1" stop-color="rgb(93.431091%, 84.317017%, 43.894958%)" offset="0.460938"/><stop stop-opacity="1" stop-color="rgb(93.554688%, 84.506226%, 44.107056%)" offset="0.464844"/><stop stop-opacity="1" stop-color="rgb(93.678284%, 84.69696%, 44.320679%)" offset="0.46875"/><stop stop-opacity="1" stop-color="rgb(93.80188%, 84.886169%, 44.532776%)" offset="0.472656"/><stop stop-opacity="1" stop-color="rgb(93.925476%, 85.076904%, 44.746399%)" offset="0.476563"/><stop stop-opacity="1" stop-color="rgb(94.049072%, 85.266113%, 44.958496%)" offset="0.480469"/><stop stop-opacity="1" stop-color="rgb(94.172668%, 85.456848%, 45.172119%)" offset="0.484375"/><stop stop-opacity="1" stop-color="rgb(94.296265%, 85.646057%, 45.385742%)" offset="0.488281"/><stop stop-opacity="1" stop-color="rgb(94.421387%, 85.836792%, 45.599365%)" offset="0.492187"/><stop stop-opacity="1" stop-color="rgb(94.544983%, 86.026001%, 45.811462%)" offset="0.496094"/><stop stop-opacity="1" stop-color="rgb(94.668579%, 86.216736%, 46.025085%)" offset="0.5"/><stop stop-opacity="1" stop-color="rgb(94.792175%, 86.405945%, 46.237183%)" offset="0.503906"/><stop stop-opacity="1" stop-color="rgb(94.915771%, 86.59668%, 46.450806%)" offset="0.507812"/><stop stop-opacity="1" stop-color="rgb(95.039368%, 86.785889%, 46.662903%)" offset="0.511719"/><stop stop-opacity="1" stop-color="rgb(95.162964%, 86.976624%, 46.876526%)" offset="0.515625"/><stop stop-opacity="1" stop-color="rgb(95.28656%, 87.165833%, 47.090149%)" offset="0.519531"/><stop stop-opacity="1" stop-color="rgb(95.411682%, 87.356567%, 47.303772%)" offset="0.523438"/><stop stop-opacity="1" stop-color="rgb(95.535278%, 87.545776%, 47.515869%)" offset="0.527344"/><stop stop-opacity="1" stop-color="rgb(95.658875%, 87.736511%, 47.729492%)" offset="0.53125"/><stop stop-opacity="1" stop-color="rgb(95.533752%, 87.556458%, 47.583008%)" offset="0.539062"/><stop stop-opacity="1" stop-color="rgb(95.233154%, 87.123108%, 47.219849%)" offset="0.542969"/><stop stop-opacity="1" stop-color="rgb(95.059204%, 86.869812%, 47.003174%)" offset="0.546875"/><stop stop-opacity="1" stop-color="rgb(94.885254%, 86.616516%, 46.786499%)" offset="0.550781"/><stop stop-opacity="1" stop-color="rgb(94.711304%, 86.36322%, 46.569824%)" offset="0.554688"/><stop stop-opacity="1" stop-color="rgb(94.537354%, 86.109924%, 46.351624%)" offset="0.558594"/><stop stop-opacity="1" stop-color="rgb(94.363403%, 85.856628%, 46.134949%)" offset="0.5625"/><stop stop-opacity="1" stop-color="rgb(94.189453%, 85.603333%, 45.918274%)" offset="0.566406"/><stop stop-opacity="1" stop-color="rgb(94.015503%, 85.350037%, 45.701599%)" offset="0.570312"/><stop stop-opacity="1" stop-color="rgb(93.840027%, 85.095215%, 45.484924%)" offset="0.574219"/><stop stop-opacity="1" stop-color="rgb(93.666077%, 84.841919%, 45.26825%)" offset="0.578125"/><stop stop-opacity="1" stop-color="rgb(93.492126%, 84.588623%, 45.050049%)" offset="0.582031"/><stop stop-opacity="1" stop-color="rgb(93.318176%, 84.335327%, 44.833374%)" offset="0.585938"/><stop stop-opacity="1" stop-color="rgb(93.144226%, 84.082031%, 44.616699%)" offset="0.589844"/><stop stop-opacity="1" stop-color="rgb(92.970276%, 83.828735%, 44.400024%)" offset="0.59375"/><stop stop-opacity="1" stop-color="rgb(92.796326%, 83.575439%, 44.18335%)" offset="0.597656"/><stop stop-opacity="1" stop-color="rgb(92.622375%, 83.322144%, 43.966675%)" offset="0.601562"/><stop stop-opacity="1" stop-color="rgb(92.446899%, 83.068848%, 43.748474%)" offset="0.605469"/><stop stop-opacity="1" stop-color="rgb(92.272949%, 82.815552%, 43.531799%)" offset="0.609375"/><stop stop-opacity="1" stop-color="rgb(92.098999%, 82.562256%, 43.315125%)" offset="0.613281"/><stop stop-opacity="1" stop-color="rgb(91.925049%, 82.30896%, 43.09845%)" offset="0.617188"/><stop stop-opacity="1" stop-color="rgb(91.751099%, 82.055664%, 42.881775%)" offset="0.621094"/><stop stop-opacity="1" stop-color="rgb(91.577148%, 81.802368%, 42.6651%)" offset="0.625"/><stop stop-opacity="1" stop-color="rgb(91.401672%, 81.549072%, 42.446899%)" offset="0.628906"/><stop stop-opacity="1" stop-color="rgb(91.227722%, 81.295776%, 42.230225%)" offset="0.632812"/><stop stop-opacity="1" stop-color="rgb(91.053772%, 81.04248%, 42.01355%)" offset="0.636719"/><stop stop-opacity="1" stop-color="rgb(90.879822%, 80.789185%, 41.796875%)" offset="0.640625"/><stop stop-opacity="1" stop-color="rgb(90.705872%, 80.535889%, 41.5802%)" offset="0.644531"/><stop stop-opacity="1" stop-color="rgb(90.531921%, 80.282593%, 41.363525%)" offset="0.648438"/><stop stop-opacity="1" stop-color="rgb(90.357971%, 80.029297%, 41.146851%)" offset="0.652344"/><stop stop-opacity="1" stop-color="rgb(90.184021%, 79.776001%, 40.930176%)" offset="0.65625"/><stop stop-opacity="1" stop-color="rgb(90.008545%, 79.522705%, 40.711975%)" offset="0.660156"/><stop stop-opacity="1" stop-color="rgb(89.834595%, 79.269409%, 40.4953%)" offset="0.664062"/><stop stop-opacity="1" stop-color="rgb(89.660645%, 79.016113%, 40.278625%)" offset="0.667969"/><stop stop-opacity="1" stop-color="rgb(89.486694%, 78.762817%, 40.061951%)" offset="0.671875"/><stop stop-opacity="1" stop-color="rgb(89.312744%, 78.509521%, 39.845276%)" offset="0.675781"/><stop stop-opacity="1" stop-color="rgb(89.138794%, 78.256226%, 39.628601%)" offset="0.679688"/><stop stop-opacity="1" stop-color="rgb(88.963318%, 78.00293%, 39.4104%)" offset="0.683594"/><stop stop-opacity="1" stop-color="rgb(88.789368%, 77.749634%, 39.193726%)" offset="0.6875"/><stop stop-opacity="1" stop-color="rgb(88.615417%, 77.496338%, 38.977051%)" offset="0.691406"/><stop stop-opacity="1" stop-color="rgb(88.441467%, 77.243042%, 38.760376%)" offset="0.695312"/><stop stop-opacity="1" stop-color="rgb(88.267517%, 76.989746%, 38.543701%)" offset="0.699219"/><stop stop-opacity="1" stop-color="rgb(88.093567%, 76.73645%, 38.327026%)" offset="0.703125"/><stop stop-opacity="1" stop-color="rgb(87.919617%, 76.483154%, 38.108826%)" offset="0.707031"/><stop stop-opacity="1" stop-color="rgb(87.745667%, 76.229858%, 37.892151%)" offset="0.710938"/><stop stop-opacity="1" stop-color="rgb(87.57019%, 75.976562%, 37.675476%)" offset="0.714844"/><stop stop-opacity="1" stop-color="rgb(87.39624%, 75.723267%, 37.458801%)" offset="0.71875"/><stop stop-opacity="1" stop-color="rgb(87.22229%, 75.469971%, 37.242126%)" offset="0.722656"/><stop stop-opacity="1" stop-color="rgb(87.04834%, 75.216675%, 37.025452%)" offset="0.726562"/><stop stop-opacity="1" stop-color="rgb(86.87439%, 74.963379%, 36.807251%)" offset="0.730469"/><stop stop-opacity="1" stop-color="rgb(86.700439%, 74.710083%, 36.590576%)" offset="0.734375"/><stop stop-opacity="1" stop-color="rgb(86.526489%, 74.456787%, 36.373901%)" offset="0.738281"/><stop stop-opacity="1" stop-color="rgb(86.352539%, 74.203491%, 36.157227%)" offset="0.742188"/><stop stop-opacity="1" stop-color="rgb(86.177063%, 73.950195%, 35.940552%)" offset="0.746094"/><stop stop-opacity="1" stop-color="rgb(86.003113%, 73.696899%, 35.723877%)" offset="0.75"/><stop stop-opacity="1" stop-color="rgb(85.829163%, 73.443604%, 35.507202%)" offset="0.753906"/><stop stop-opacity="1" stop-color="rgb(85.655212%, 73.190308%, 35.290527%)" offset="0.757812"/><stop stop-opacity="1" stop-color="rgb(85.481262%, 72.937012%, 35.072327%)" offset="0.761719"/><stop stop-opacity="1" stop-color="rgb(85.307312%, 72.683716%, 34.855652%)" offset="0.765625"/><stop stop-opacity="1" stop-color="rgb(85.131836%, 72.43042%, 34.638977%)" offset="0.769531"/><stop stop-opacity="1" stop-color="rgb(84.957886%, 72.177124%, 34.422302%)" offset="0.773438"/><stop stop-opacity="1" stop-color="rgb(84.786987%, 71.928406%, 34.211731%)" offset="0.777344"/><stop stop-opacity="1" stop-color="rgb(84.617615%, 71.681213%, 34.00116%)" offset="0.78125"/><stop stop-opacity="1" stop-color="rgb(84.458923%, 71.447754%, 33.808899%)" offset="0.785156"/><stop stop-opacity="1" stop-color="rgb(84.301758%, 71.21582%, 33.618164%)" offset="0.789062"/><stop stop-opacity="1" stop-color="rgb(84.143066%, 70.983887%, 33.425903%)" offset="0.792969"/><stop stop-opacity="1" stop-color="rgb(83.985901%, 70.751953%, 33.233643%)" offset="0.796875"/><stop stop-opacity="1" stop-color="rgb(83.827209%, 70.518494%, 33.041382%)" offset="0.800781"/><stop stop-opacity="1" stop-color="rgb(83.670044%, 70.28656%, 32.850647%)" offset="0.804688"/><stop stop-opacity="1" stop-color="rgb(83.511353%, 70.054626%, 32.658386%)" offset="0.808594"/><stop stop-opacity="1" stop-color="rgb(83.352661%, 69.822693%, 32.466125%)" offset="0.8125"/><stop stop-opacity="1" stop-color="rgb(83.19397%, 69.590759%, 32.273865%)" offset="0.816406"/><stop stop-opacity="1" stop-color="rgb(83.036804%, 69.358826%, 32.08313%)" offset="0.820312"/><stop stop-opacity="1" stop-color="rgb(82.878113%, 69.125366%, 31.890869%)" offset="0.824219"/><stop stop-opacity="1" stop-color="rgb(82.720947%, 68.893433%, 31.698608%)" offset="0.828125"/><stop stop-opacity="1" stop-color="rgb(82.562256%, 68.661499%, 31.506348%)" offset="0.832031"/><stop stop-opacity="1" stop-color="rgb(82.403564%, 68.429565%, 31.315613%)" offset="0.835938"/><stop stop-opacity="1" stop-color="rgb(82.244873%, 68.197632%, 31.123352%)" offset="0.839844"/><stop stop-opacity="1" stop-color="rgb(82.087708%, 67.965698%, 30.932617%)" offset="0.84375"/><stop stop-opacity="1" stop-color="rgb(81.929016%, 67.732239%, 30.740356%)" offset="0.847656"/><stop stop-opacity="1" stop-color="rgb(81.771851%, 67.500305%, 30.548096%)" offset="0.851562"/><stop stop-opacity="1" stop-color="rgb(81.613159%, 67.268372%, 30.355835%)" offset="0.855469"/><stop stop-opacity="1" stop-color="rgb(81.454468%, 67.036438%, 30.1651%)" offset="0.859375"/><stop stop-opacity="1" stop-color="rgb(81.295776%, 66.802979%, 29.972839%)" offset="0.863281"/><stop stop-opacity="1" stop-color="rgb(81.138611%, 66.571045%, 29.780579%)" offset="0.867188"/><stop stop-opacity="1" stop-color="rgb(80.979919%, 66.339111%, 29.588318%)" offset="0.871094"/><stop stop-opacity="1" stop-color="rgb(80.822754%, 66.107178%, 29.397583%)" offset="0.875"/><stop stop-opacity="1" stop-color="rgb(80.664062%, 65.875244%, 29.205322%)" offset="0.878906"/><stop stop-opacity="1" stop-color="rgb(80.505371%, 65.643311%, 29.013062%)" offset="0.882812"/><stop stop-opacity="1" stop-color="rgb(80.34668%, 65.409851%, 28.820801%)" offset="0.886719"/><stop stop-opacity="1" stop-color="rgb(80.189514%, 65.177917%, 28.630066%)" offset="0.890625"/><stop stop-opacity="1" stop-color="rgb(80.030823%, 64.945984%, 28.437805%)" offset="0.894531"/><stop stop-opacity="1" stop-color="rgb(79.873657%, 64.71405%, 28.245544%)" offset="0.898438"/><stop stop-opacity="1" stop-color="rgb(79.714966%, 64.482117%, 28.053284%)" offset="0.902344"/><stop stop-opacity="1" stop-color="rgb(79.556274%, 64.250183%, 27.862549%)" offset="0.90625"/><stop stop-opacity="1" stop-color="rgb(79.397583%, 64.016724%, 27.670288%)" offset="0.910156"/><stop stop-opacity="1" stop-color="rgb(79.240417%, 63.78479%, 27.479553%)" offset="0.914062"/><stop stop-opacity="1" stop-color="rgb(79.081726%, 63.552856%, 27.287292%)" offset="0.917969"/><stop stop-opacity="1" stop-color="rgb(78.924561%, 63.320923%, 27.095032%)" offset="0.921875"/><stop stop-opacity="1" stop-color="rgb(78.765869%, 63.088989%, 26.902771%)" offset="0.925781"/><stop stop-opacity="1" stop-color="rgb(78.607178%, 62.857056%, 26.712036%)" offset="0.929688"/><stop stop-opacity="1" stop-color="rgb(78.448486%, 62.623596%, 26.519775%)" offset="0.933594"/><stop stop-opacity="1" stop-color="rgb(78.291321%, 62.391663%, 26.327515%)" offset="0.9375"/><stop stop-opacity="1" stop-color="rgb(78.132629%, 62.159729%, 26.135254%)" offset="0.941406"/><stop stop-opacity="1" stop-color="rgb(77.975464%, 61.927795%, 25.944519%)" offset="0.945312"/><stop stop-opacity="1" stop-color="rgb(77.816772%, 61.694336%, 25.752258%)" offset="0.949219"/><stop stop-opacity="1" stop-color="rgb(77.658081%, 61.462402%, 25.559998%)" offset="0.953125"/><stop stop-opacity="1" stop-color="rgb(77.49939%, 61.230469%, 25.367737%)" offset="0.957031"/><stop stop-opacity="1" stop-color="rgb(77.342224%, 60.998535%, 25.177002%)" offset="0.960938"/><stop stop-opacity="1" stop-color="rgb(77.183533%, 60.766602%, 24.984741%)" offset="0.964844"/><stop stop-opacity="1" stop-color="rgb(77.026367%, 60.534668%, 24.794006%)" offset="0.96875"/><stop stop-opacity="1" stop-color="rgb(76.867676%, 60.301208%, 24.601746%)" offset="0.972656"/><stop stop-opacity="1" stop-color="rgb(76.708984%, 60.069275%, 24.409485%)" offset="0.976562"/><stop stop-opacity="1" stop-color="rgb(76.550293%, 59.837341%, 24.217224%)" offset="0.980469"/><stop stop-opacity="1" stop-color="rgb(76.393127%, 59.605408%, 24.026489%)" offset="0.984375"/><stop stop-opacity="1" stop-color="rgb(76.234436%, 59.373474%, 23.834229%)" offset="0.988281"/><stop stop-opacity="1" stop-color="rgb(76.077271%, 59.141541%, 23.641968%)" offset="0.992188"/><stop stop-opacity="1" stop-color="rgb(75.918579%, 58.908081%, 23.449707%)" offset="0.996094"/><stop stop-opacity="1" stop-color="rgb(75.759888%, 58.676147%, 23.258972%)" offset="1"/></linearGradient></defs><g clip-path="url(#e29e010fe0)"><path fill="#ffffff" d="M 0.0664062 0 L 649.390625 0 L 649.390625 918.5 L 0.0664062 918.5 Z M 0.0664062 0 " fill-opacity="1" fill-rule="nonzero"/><path fill="#ffffff" d="M 0.0664062 0 L 649.390625 0 L 649.390625 918.5 L 0.0664062 918.5 Z M 0.0664062 0 " fill-opacity="1" fill-rule="nonzero"/></g><path fill="#e7b1af" d="M 103.023438 507.996094 C 105.273438 510.074219 105.851562 512.585938 105.851562 514.867188 C 105.851562 521.101562 101.78125 525.40625 95.300781 525.40625 C 92.542969 525.40625 87.972656 524.617188 85.761719 522.324219 C 85.339844 520.582031 85.558594 516.996094 86.414062 514.46875 L 86.914062 514.46875 C 86.34375 520.273438 90.023438 523.992188 95.042969 523.710938 C 99.15625 523.480469 102.59375 520.667969 102.59375 516.160156 C 102.59375 513.957031 101.792969 512.214844 100.382812 510.910156 L 89.585938 500.886719 C 87.304688 498.808594 86.535156 496.085938 86.535156 493.902344 C 86.535156 489.152344 90.015625 484.378906 96.4375 484.378906 C 97.917969 484.378906 99.773438 484.632812 101.273438 484.953125 L 103.507812 484.953125 L 103.507812 491.867188 L 102.964844 491.867188 C 102.980469 488.261719 100.136719 486.0625 96.628906 486.0625 C 92.472656 486.0625 89.691406 489.109375 89.691406 492.542969 C 89.691406 494.007812 90.183594 496.09375 91.960938 497.734375 Z M 103.023438 507.996094 " fill-opacity="1" fill-rule="nonzero"/><path fill="#e7b1af" d="M 144.382812 520.5 C 145.523438 523.003906 147.605469 524.050781 149.332031 524.050781 L 149.804688 524.050781 L 149.804688 524.609375 L 137.113281 524.609375 L 137.113281 524.050781 L 137.609375 524.050781 C 139.0625 524.050781 140.574219 522.765625 139.753906 520.511719 L 136.152344 510.917969 L 120.96875 510.917969 L 117.191406 520.546875 C 116.398438 522.777344 117.902344 524.050781 119.347656 524.050781 L 119.847656 524.050781 L 119.847656 524.609375 L 108.503906 524.609375 L 108.503906 524.050781 L 109.007812 524.050781 C 110.722656 524.050781 112.804688 523.011719 113.945312 520.503906 L 126.726562 490.175781 C 126.726562 490.175781 128.808594 485.613281 128.808594 484.371094 L 129.316406 484.371094 Z M 135.511719 509.226562 L 128.71875 491.136719 L 121.628906 509.226562 Z M 135.511719 509.226562 " fill-opacity="1" fill-rule="nonzero"/><path fill="#e7b1af" d="M 195.8125 520.519531 C 196.101562 522.746094 197.902344 524.050781 199.917969 524.050781 L 200.816406 524.050781 L 200.816406 524.609375 L 188.570312 524.609375 L 188.570312 524.078125 L 189.445312 524.078125 C 190.660156 524.078125 191.753906 522.882812 191.644531 521.671875 L 189.089844 493.3125 L 177.246094 519.648438 C 177.246094 519.648438 175.675781 523.074219 175.316406 525.40625 L 174.785156 525.40625 L 160.375 494.136719 L 157.902344 521.675781 C 157.789062 522.890625 158.886719 524.078125 160.101562 524.085938 L 160.976562 524.085938 L 160.976562 524.617188 L 150.054688 524.617188 L 150.054688 524.058594 L 150.953125 524.058594 C 152.96875 524.058594 154.773438 522.75 155.058594 520.527344 L 159.300781 484.378906 L 159.824219 484.378906 L 175.554688 518.386719 L 190.933594 484.398438 L 191.445312 484.398438 Z M 195.8125 520.519531 " fill-opacity="1" fill-rule="nonzero"/><path fill="#e7b1af" d="M 238.382812 485.164062 L 238.382812 485.726562 L 237.597656 485.726562 C 235.246094 485.726562 233.144531 487.277344 231.945312 488.996094 L 220.800781 507.007812 L 220.800781 520.496094 C 220.835938 522.464844 222.433594 524.042969 224.40625 524.042969 L 225.125 524.042969 L 225.128906 524.605469 L 212.804688 524.605469 L 212.8125 524.042969 L 213.527344 524.042969 C 215.484375 524.042969 217.078125 522.476562 217.136719 520.53125 L 217.136719 506.953125 L 206.402344 489.011719 C 205.316406 487.277344 203.097656 485.71875 200.738281 485.71875 L 199.972656 485.71875 L 199.972656 485.15625 L 213.835938 485.15625 L 213.835938 485.71875 L 213.128906 485.71875 C 211.476562 485.71875 210.328125 487.621094 211.15625 489.222656 L 219.597656 504.992188 L 228.582031 489.214844 L 228.613281 489.164062 C 229.488281 487.578125 228.128906 485.726562 226.605469 485.726562 L 225.894531 485.726562 L 225.894531 485.164062 Z M 238.382812 485.164062 " fill-opacity="1" fill-rule="nonzero"/><path fill="#e7b1af" d="M 298.492188 520.519531 C 298.78125 522.746094 300.582031 524.050781 302.597656 524.050781 L 303.496094 524.050781 L 303.496094 524.609375 L 291.25 524.609375 L 291.25 524.078125 L 292.125 524.078125 C 293.339844 524.078125 294.433594 522.882812 294.324219 521.671875 L 291.769531 493.3125 L 279.925781 519.648438 C 279.925781 519.648438 278.355469 523.074219 277.996094 525.40625 L 277.464844 525.40625 L 263.054688 494.136719 L 260.582031 521.675781 C 260.46875 522.890625 261.566406 524.078125 262.78125 524.085938 L 263.65625 524.085938 L 263.65625 524.617188 L 252.742188 524.617188 L 252.742188 524.058594 L 253.640625 524.058594 C 255.65625 524.058594 257.460938 522.75 257.746094 520.527344 L 261.988281 484.378906 L 262.511719 484.378906 L 278.242188 518.386719 L 293.621094 484.398438 L 294.132812 484.398438 Z M 298.492188 520.519531 " fill-opacity="1" fill-rule="nonzero"/><path fill="#e7b1af" d="M 339.652344 520.5 C 340.789062 523.003906 342.871094 524.050781 344.597656 524.050781 L 345.070312 524.050781 L 345.070312 524.609375 L 332.378906 524.609375 L 332.378906 524.050781 L 332.878906 524.050781 C 334.332031 524.050781 335.839844 522.765625 335.019531 520.511719 L 331.417969 510.917969 L 316.234375 510.917969 L 312.460938 520.546875 C 311.667969 522.777344 313.167969 524.050781 314.613281 524.050781 L 315.113281 524.050781 L 315.113281 524.609375 L 303.769531 524.609375 L 303.769531 524.050781 L 304.277344 524.050781 C 305.988281 524.050781 308.074219 523.011719 309.210938 520.503906 L 321.992188 490.175781 C 321.992188 490.175781 324.074219 485.613281 324.074219 484.371094 L 324.582031 484.371094 Z M 330.777344 509.226562 L 323.984375 491.136719 L 316.894531 509.226562 Z M 330.777344 509.226562 " fill-opacity="1" fill-rule="nonzero"/><path fill="#e7b1af" d="M 382.515625 508.164062 L 381.828125 517.007812 C 378.859375 521.867188 373.820312 525.40625 365.992188 525.40625 C 354.207031 525.347656 345.871094 517.289062 345.871094 504.832031 C 345.871094 492.605469 353.925781 484.371094 366.328125 484.371094 C 371.855469 484.371094 376.359375 486.007812 379.660156 488.175781 L 380.796875 496.136719 L 380.324219 496.136719 C 378.613281 489.558594 373.089844 486.0625 366.316406 486.054688 C 356.40625 486.054688 350.09375 493.550781 350.09375 504.769531 C 350.09375 516.097656 356.515625 523.480469 365.992188 523.707031 C 373.996094 523.683594 380.769531 519.699219 382.046875 508.160156 L 382.515625 508.160156 Z M 382.515625 508.164062 " fill-opacity="1" fill-rule="nonzero"/><path fill="#e7b1af" d="M 415.425781 524.609375 L 415.433594 524.050781 L 416.148438 524.050781 C 418.109375 524.050781 419.703125 522.492188 419.757812 520.546875 L 419.757812 505.953125 L 396.695312 505.953125 L 396.695312 520.503906 C 396.730469 522.46875 398.328125 524.050781 400.300781 524.050781 L 401.015625 524.050781 L 401.023438 524.609375 L 388.691406 524.609375 L 388.699219 524.050781 L 389.414062 524.050781 C 391.386719 524.050781 392.988281 522.46875 393.023438 520.503906 L 393.023438 489.242188 C 392.972656 487.292969 391.378906 485.71875 389.414062 485.71875 L 388.699219 485.71875 L 388.691406 485.15625 L 401.015625 485.15625 L 401.011719 485.71875 L 400.292969 485.71875 C 398.335938 485.71875 396.742188 487.285156 396.6875 489.230469 L 396.6875 504.261719 L 419.75 504.261719 L 419.75 489.195312 C 419.671875 487.261719 418.09375 485.71875 416.144531 485.71875 L 415.425781 485.71875 L 415.421875 485.15625 L 427.746094 485.15625 L 427.738281 485.71875 L 427.023438 485.71875 C 425.050781 485.71875 423.449219 487.296875 423.414062 489.265625 L 423.414062 520.503906 C 423.449219 522.46875 425.050781 524.050781 427.023438 524.050781 L 427.738281 524.050781 L 427.746094 524.609375 Z M 415.425781 524.609375 " fill-opacity="1" fill-rule="nonzero"/><path fill="#e7b1af" d="M 466.453125 520.5 C 467.59375 523.003906 469.675781 524.050781 471.402344 524.050781 L 471.875 524.050781 L 471.875 524.609375 L 459.183594 524.609375 L 459.183594 524.050781 L 459.679688 524.050781 C 461.132812 524.050781 462.644531 522.765625 461.820312 520.511719 L 458.222656 510.917969 L 443.039062 510.917969 L 439.261719 520.546875 C 438.46875 522.777344 439.972656 524.050781 441.417969 524.050781 L 441.917969 524.050781 L 441.917969 524.609375 L 430.574219 524.609375 L 430.574219 524.050781 L 431.078125 524.050781 C 432.792969 524.050781 434.875 523.011719 436.015625 520.503906 L 448.796875 490.175781 C 448.796875 490.175781 450.878906 485.613281 450.878906 484.371094 L 451.386719 484.371094 Z M 457.582031 509.226562 L 450.789062 491.136719 L 443.699219 509.226562 Z M 457.582031 509.226562 " fill-opacity="1" fill-rule="nonzero"/><path fill="#e7b1af" d="M 493.714844 485.171875 C 505.753906 485.171875 513.957031 493.066406 513.957031 504.910156 C 513.957031 516.730469 505.753906 524.617188 493.714844 524.617188 L 474.640625 524.617188 L 474.644531 524.058594 L 475.363281 524.058594 C 477.335938 524.058594 478.925781 522.476562 478.96875 520.519531 L 478.96875 488.957031 C 478.96875 487.144531 477.242188 485.734375 475.382812 485.734375 L 474.667969 485.734375 L 474.660156 485.171875 Z M 482.640625 522.90625 L 493.714844 522.90625 C 503.375 522.90625 509.726562 515.710938 509.726562 504.917969 C 509.726562 494.085938 503.316406 486.871094 493.714844 486.871094 L 482.640625 486.871094 Z M 482.640625 522.90625 " fill-opacity="1" fill-rule="nonzero"/><path fill="#e7b1af" d="M 561.1875 504.886719 C 561.1875 517.199219 552.921875 525.40625 540.933594 525.40625 C 528.953125 525.40625 520.675781 517.199219 520.675781 504.886719 C 520.675781 492.578125 528.953125 484.371094 540.933594 484.371094 C 552.921875 484.371094 561.1875 492.578125 561.1875 504.886719 Z M 556.871094 504.886719 C 556.871094 493.59375 550.5 486.0625 540.941406 486.0625 C 531.378906 486.0625 525.007812 493.59375 525.007812 504.886719 C 525.007812 516.179688 531.378906 523.710938 540.941406 523.710938 C 550.5 523.710938 556.871094 516.179688 556.871094 504.886719 Z M 556.871094 504.886719 " fill-opacity="1" fill-rule="nonzero"/><path fill="#6e765d" d="M 222.5625 556.835938 L 222.539062 541.316406 L 228.078125 541.316406 C 228.984375 541.316406 229.824219 541.511719 230.597656 541.914062 C 231.371094 542.3125 231.980469 542.847656 232.4375 543.511719 C 232.894531 544.179688 233.117188 544.917969 233.117188 545.710938 C 233.117188 546.488281 232.894531 547.21875 232.4375 547.894531 C 231.980469 548.566406 231.371094 549.105469 230.597656 549.507812 C 229.824219 549.90625 228.984375 550.105469 228.078125 550.105469 L 223.636719 550.105469 L 223.636719 556.835938 Z M 223.640625 548.972656 L 228.085938 548.972656 C 228.800781 548.972656 229.460938 548.828125 230.066406 548.53125 C 230.667969 548.238281 231.152344 547.835938 231.511719 547.339844 C 231.867188 546.839844 232.050781 546.292969 232.050781 545.703125 C 232.050781 545.097656 231.875 544.542969 231.511719 544.046875 C 231.152344 543.546875 230.667969 543.148438 230.066406 542.851562 C 229.460938 542.558594 228.800781 542.410156 228.085938 542.410156 L 223.613281 542.410156 Z M 223.640625 548.972656 " fill-opacity="1" fill-rule="nonzero"/><path fill="#6e765d" d="M 254.113281 550.828125 C 254.519531 551.421875 254.722656 552.0625 254.722656 552.75 C 254.722656 553.339844 254.582031 553.902344 254.292969 554.433594 C 254.007812 554.96875 253.59375 555.429688 253.050781 555.832031 C 251.933594 556.625 250.636719 557.023438 249.164062 557.023438 C 248.433594 557.023438 247.730469 556.917969 247.0625 556.714844 C 246.398438 556.511719 245.800781 556.21875 245.273438 555.832031 C 244.367188 555.164062 243.816406 554.34375 243.625 553.375 L 244.648438 552.800781 C 244.699219 553.675781 245.128906 554.390625 245.941406 554.945312 C 246.355469 555.261719 246.839844 555.507812 247.402344 555.675781 C 247.957031 555.84375 248.546875 555.929688 249.171875 555.929688 C 250.441406 555.929688 251.515625 555.605469 252.390625 554.953125 C 253.234375 554.335938 253.65625 553.597656 253.65625 552.757812 C 253.65625 552.265625 253.5 551.800781 253.191406 551.375 C 252.882812 550.945312 252.449219 550.582031 251.894531 550.28125 C 251.367188 550.003906 250.425781 549.796875 249.078125 549.632812 C 248.964844 549.621094 248.566406 549.554688 247.871094 549.445312 C 247.175781 549.332031 246.585938 549.15625 246.09375 548.917969 C 245.316406 548.539062 244.707031 548.035156 244.257812 547.402344 C 243.808594 546.769531 243.589844 546.089844 243.589844 545.359375 C 243.589844 544.769531 243.738281 544.214844 244.03125 543.703125 C 244.328125 543.183594 244.742188 542.726562 245.289062 542.328125 C 245.816406 541.949219 246.410156 541.652344 247.078125 541.441406 C 247.746094 541.230469 248.445312 541.132812 249.175781 541.132812 C 250.65625 541.132812 251.957031 541.535156 253.066406 542.328125 C 253.992188 543.027344 254.53125 543.84375 254.6875 544.761719 L 253.660156 545.339844 C 253.648438 544.9375 253.527344 544.558594 253.316406 544.195312 C 253.101562 543.828125 252.796875 543.492188 252.398438 543.191406 C 251.96875 542.875 251.472656 542.628906 250.917969 542.460938 C 250.363281 542.292969 249.78125 542.207031 249.175781 542.207031 C 248.574219 542.207031 247.984375 542.292969 247.421875 542.460938 C 246.855469 542.628906 246.371094 542.867188 245.957031 543.191406 C 245.542969 543.492188 245.226562 543.828125 245 544.207031 C 244.777344 544.578125 244.664062 544.964844 244.664062 545.367188 C 244.664062 545.859375 244.847656 546.347656 245.210938 546.832031 C 245.578125 547.316406 246.03125 547.695312 246.574219 547.96875 C 246.910156 548.132812 247.273438 548.242188 247.683594 548.3125 C 248.089844 548.382812 248.609375 548.460938 249.246094 548.539062 C 249.359375 548.554688 249.640625 548.59375 250.082031 548.65625 C 250.523438 548.722656 250.960938 548.8125 251.375 548.925781 C 251.789062 549.035156 252.140625 549.171875 252.425781 549.332031 C 253.136719 549.726562 253.703125 550.230469 254.113281 550.828125 Z M 254.113281 550.828125 " fill-opacity="1" fill-rule="nonzero"/><path fill="#6e765d" d="M 266.203125 541.316406 L 267.277344 541.316406 L 267.277344 556.835938 L 266.203125 556.835938 Z M 266.203125 541.316406 " fill-opacity="1" fill-rule="nonzero"/><path fill="#6e765d" d="M 286.1875 556.996094 C 284.769531 556.996094 283.457031 556.636719 282.25 555.921875 C 281.042969 555.207031 280.089844 554.238281 279.386719 553.023438 C 278.683594 551.800781 278.332031 550.484375 278.332031 549.050781 C 278.332031 547.621094 278.683594 546.300781 279.386719 545.085938 C 280.089844 543.878906 281.042969 542.910156 282.25 542.195312 C 283.457031 541.476562 284.769531 541.121094 286.1875 541.121094 C 287.289062 541.121094 288.34375 541.34375 289.351562 541.800781 C 290.363281 542.257812 291.25 542.894531 292.011719 543.722656 L 291.179688 544.460938 C 290.539062 543.746094 289.789062 543.191406 288.925781 542.789062 C 288.054688 542.390625 287.148438 542.195312 286.1875 542.195312 C 284.960938 542.195312 283.828125 542.503906 282.796875 543.113281 C 281.765625 543.722656 280.9375 544.558594 280.328125 545.605469 C 279.714844 546.65625 279.40625 547.800781 279.40625 549.042969 C 279.40625 550.285156 279.714844 551.429688 280.328125 552.484375 C 280.9375 553.535156 281.765625 554.363281 282.796875 554.976562 C 283.828125 555.585938 284.960938 555.894531 286.1875 555.894531 C 287.207031 555.894531 288.175781 555.667969 289.085938 555.226562 C 290 554.785156 290.785156 554.160156 291.4375 553.367188 L 292.292969 554.035156 C 291.542969 554.976562 290.636719 555.703125 289.570312 556.21875 C 288.511719 556.742188 287.382812 556.996094 286.1875 556.996094 Z M 286.1875 556.996094 " fill-opacity="1" fill-rule="nonzero"/><path fill="#6e765d" d="M 309.941406 556.996094 C 308.523438 556.996094 307.210938 556.644531 306.003906 555.9375 C 304.796875 555.226562 303.839844 554.265625 303.136719 553.042969 C 302.4375 551.832031 302.085938 550.503906 302.085938 549.070312 C 302.085938 547.640625 302.4375 546.3125 303.136719 545.097656 C 303.839844 543.886719 304.796875 542.917969 306.003906 542.207031 C 307.210938 541.5 308.523438 541.148438 309.941406 541.148438 C 311.359375 541.148438 312.671875 541.5 313.878906 542.207031 C 315.085938 542.917969 316.039062 543.878906 316.742188 545.097656 C 317.441406 546.3125 317.792969 547.640625 317.792969 549.070312 C 317.792969 550.503906 317.441406 551.832031 316.742188 553.042969 C 316.039062 554.265625 315.085938 555.226562 313.878906 555.9375 C 312.671875 556.644531 311.359375 556.996094 309.941406 556.996094 Z M 309.941406 542.242188 C 308.710938 542.242188 307.582031 542.550781 306.550781 543.164062 C 305.519531 543.773438 304.691406 544.601562 304.078125 545.648438 C 303.46875 546.691406 303.160156 547.828125 303.160156 549.070312 C 303.160156 550.316406 303.46875 551.457031 304.078125 552.496094 C 304.691406 553.542969 305.519531 554.371094 306.550781 554.980469 C 307.582031 555.59375 308.710938 555.902344 309.941406 555.902344 C 311.167969 555.902344 312.296875 555.59375 313.328125 554.980469 C 314.363281 554.371094 315.183594 553.542969 315.785156 552.496094 C 316.390625 551.457031 316.691406 550.316406 316.691406 549.070312 C 316.691406 547.828125 316.390625 546.6875 315.785156 545.648438 C 315.183594 544.609375 314.363281 543.78125 313.328125 543.164062 C 312.296875 542.542969 311.167969 542.242188 309.941406 542.242188 Z M 309.941406 542.242188 " fill-opacity="1" fill-rule="nonzero"/><path fill="#6e765d" d="M 328.421875 556.835938 L 328.421875 541.316406 L 329.496094 541.316406 L 329.496094 555.761719 L 338.210938 555.761719 L 338.210938 556.835938 Z M 328.421875 556.835938 " fill-opacity="1" fill-rule="nonzero"/><path fill="#6e765d" d="M 354.894531 556.996094 C 353.476562 556.996094 352.164062 556.644531 350.957031 555.9375 C 349.75 555.226562 348.796875 554.265625 348.09375 553.042969 C 347.394531 551.832031 347.042969 550.503906 347.042969 549.070312 C 347.042969 547.640625 347.394531 546.3125 348.09375 545.097656 C 348.796875 543.886719 349.75 542.917969 350.957031 542.207031 C 352.164062 541.5 353.476562 541.148438 354.894531 541.148438 C 356.3125 541.148438 357.625 541.5 358.832031 542.207031 C 360.039062 542.917969 360.996094 543.878906 361.699219 545.097656 C 362.398438 546.3125 362.75 547.640625 362.75 549.070312 C 362.75 550.503906 362.398438 551.832031 361.699219 553.042969 C 360.996094 554.265625 360.039062 555.226562 358.832031 555.9375 C 357.625 556.644531 356.3125 556.996094 354.894531 556.996094 Z M 354.894531 542.242188 C 353.667969 542.242188 352.539062 542.550781 351.507812 543.164062 C 350.472656 543.773438 349.644531 544.601562 349.035156 545.648438 C 348.425781 546.691406 348.117188 547.828125 348.117188 549.070312 C 348.117188 550.316406 348.425781 551.457031 349.035156 552.496094 C 349.644531 553.542969 350.472656 554.371094 351.507812 554.980469 C 352.539062 555.59375 353.667969 555.902344 354.894531 555.902344 C 356.125 555.902344 357.253906 555.59375 358.285156 554.980469 C 359.316406 554.371094 360.140625 553.542969 360.742188 552.496094 C 361.347656 551.457031 361.648438 550.316406 361.648438 549.070312 C 361.648438 547.828125 361.347656 546.6875 360.742188 545.648438 C 360.140625 544.609375 359.316406 543.78125 358.285156 543.164062 C 357.253906 542.542969 356.117188 542.242188 354.894531 542.242188 Z M 354.894531 542.242188 " fill-opacity="1" fill-rule="nonzero"/><path fill="#6e765d" d="M 386.074219 556.835938 L 380.464844 556.835938 C 379.046875 556.835938 377.742188 556.484375 376.550781 555.78125 C 375.355469 555.082031 374.410156 554.132812 373.707031 552.933594 C 373.003906 551.730469 372.652344 550.414062 372.652344 548.980469 C 372.652344 547.5625 373.003906 546.257812 373.707031 545.050781 C 374.410156 543.851562 375.355469 542.894531 376.550781 542.1875 C 377.742188 541.476562 379.046875 541.125 380.464844 541.125 C 381.546875 541.125 382.585938 541.351562 383.582031 541.792969 C 384.578125 542.242188 385.441406 542.859375 386.171875 543.652344 L 385.386719 544.390625 C 384.746094 543.710938 384.003906 543.175781 383.140625 542.804688 C 382.285156 542.433594 381.386719 542.242188 380.464844 542.242188 C 379.257812 542.242188 378.136719 542.542969 377.097656 543.148438 C 376.066406 543.75 375.242188 544.566406 374.640625 545.597656 C 374.035156 546.621094 373.734375 547.753906 373.734375 548.972656 C 373.734375 550.195312 374.035156 551.332031 374.640625 552.363281 C 375.242188 553.394531 376.066406 554.222656 377.097656 554.835938 C 378.128906 555.445312 379.25 555.753906 380.464844 555.753906 L 384.949219 555.753906 L 384.949219 550.1875 L 379.839844 550.1875 L 379.839844 549.113281 L 386.074219 549.113281 Z M 386.074219 556.835938 " fill-opacity="1" fill-rule="nonzero"/><path fill="#6e765d" d="M 398.105469 541.316406 L 399.179688 541.316406 L 399.179688 556.835938 L 398.105469 556.835938 Z M 398.105469 541.316406 " fill-opacity="1" fill-rule="nonzero"/><path fill="#6e765d" d="M 413.027344 552.890625 L 411.1875 556.828125 L 409.996094 556.828125 L 417.300781 541.121094 L 424.199219 556.828125 L 423.027344 556.828125 L 421.289062 552.890625 Z M 417.253906 543.773438 L 413.523438 551.816406 L 420.804688 551.816406 Z M 417.253906 543.773438 " fill-opacity="1" fill-rule="nonzero"/><path fill="#6e765d" d="M 86.800781 549.042969 L 210.621094 549.042969 L 210.621094 550.449219 L 86.800781 550.449219 Z M 86.800781 549.042969 " fill-opacity="1" fill-rule="nonzero"/><path fill="#6e765d" d="M 436.714844 549.042969 L 560.535156 549.042969 L 560.535156 550.449219 L 436.714844 550.449219 Z M 436.714844 549.042969 " fill-opacity="1" fill-rule="nonzero"/><path fill="#6e765d" d="M 336.710938 416.0625 C 336.21875 413.921875 335.304688 411.875 333.972656 409.914062 C 331.851562 406.804688 328.882812 404.167969 325.074219 402.011719 C 323.578125 401.183594 321.753906 400.472656 319.597656 399.890625 C 317.4375 399.316406 315.195312 398.851562 312.875 398.523438 C 310.550781 398.195312 309.097656 397.984375 308.515625 397.90625 C 305.195312 397.492188 302.480469 397.097656 300.359375 396.71875 C 298.246094 396.347656 296.316406 395.742188 294.570312 394.914062 C 291.746094 393.503906 289.382812 391.53125 287.472656 389.003906 C 285.5625 386.472656 284.609375 383.925781 284.609375 381.347656 C 284.609375 379.277344 285.191406 377.261719 286.347656 375.3125 C 287.515625 373.359375 289.171875 371.597656 291.324219 370.019531 C 293.480469 368.363281 296.035156 367.09375 298.984375 366.222656 C 301.929688 365.351562 304.976562 364.917969 308.136719 364.917969 C 311.289062 364.917969 314.320312 365.351562 317.226562 366.222656 C 320.132812 367.09375 322.699219 368.363281 324.945312 370.019531 C 327.015625 371.597656 328.617188 373.339844 329.738281 375.25 C 330.863281 377.15625 331.460938 379.152344 331.542969 381.222656 L 336.898438 378.230469 C 336.070312 373.417969 333.25 369.183594 328.433594 365.535156 C 322.621094 361.386719 315.863281 359.308594 308.144531 359.308594 C 304.324219 359.308594 300.675781 359.847656 297.1875 360.921875 C 293.699219 362.003906 290.589844 363.539062 287.851562 365.527344 C 285.03125 367.605469 282.855469 369.992188 281.316406 372.6875 C 279.78125 375.382812 279.015625 378.273438 279.015625 381.339844 C 279.015625 385.160156 280.179688 388.710938 282.503906 391.988281 C 284.828125 395.265625 288.019531 397.90625 292.089844 399.890625 C 294.660156 401.140625 297.753906 402.054688 301.363281 402.628906 C 304.96875 403.210938 307.070312 403.542969 307.652344 403.625 C 314.707031 404.453125 319.605469 405.578125 322.34375 406.988281 C 325.25 408.566406 327.507812 410.476562 329.128906 412.714844 C 330.75 414.953125 331.558594 417.363281 331.558594 419.9375 C 331.558594 424.339844 329.355469 428.15625 324.960938 431.394531 C 321.429688 434.023438 317.28125 435.632812 312.507812 436.230469 L 305.484375 436.382812 C 303.214844 436.207031 301.03125 435.820312 298.933594 435.191406 C 296.027344 434.320312 293.496094 433.054688 291.339844 431.394531 C 287.105469 428.488281 284.867188 424.753906 284.617188 420.191406 L 279.261719 423.179688 C 280.257812 428.25 283.121094 432.515625 287.851562 436.003906 C 290.589844 437.996094 293.707031 439.535156 297.1875 440.609375 C 299.820312 441.421875 302.554688 441.914062 305.378906 442.109375 L 312.445312 442 C 318.398438 441.359375 323.726562 439.359375 328.433594 435.996094 C 331.179688 433.984375 333.292969 431.632812 334.78125 428.941406 L 336.375 426.949219 L 336.378906 426.949219 L 338.015625 424.894531 L 361.234375 395.6875 L 361.234375 465.105469 L 367.746094 465.105469 L 367.746094 377.03125 Z M 336.710938 416.0625 " fill-opacity="1" fill-rule="nonzero"/><path fill="#6e765d" d="M 334.695312 424.527344 C 328.378906 418.679688 322.0625 412.828125 315.746094 406.980469 C 312.234375 406.277344 308.726562 405.578125 305.214844 404.875 C 313.871094 413.066406 322.53125 421.25 331.1875 429.441406 C 332.351562 427.804688 333.523438 426.164062 334.695312 424.527344 Z M 334.695312 424.527344 " fill-opacity="1" fill-rule="nonzero"/><g clip-path="url(#f988ca6779)"><path fill="url(#d38ffb2c64)" d="M 305.917969 416.105469 L 305.917969 465.238281 L 312.234375 465.238281 L 312.234375 416.105469 Z M 305.917969 416.105469 " fill-rule="nonzero"/></g></svg>